<?xml version="1.0" encoding="UTF-8" standalone="no"?>
<!DOCTYPE svg PUBLIC "-//W3C//DTD SVG 1.1//EN"
 "http://www.w3.org/Graphics/SVG/1.1/DTD/svg11.dtd">
<!-- Generated by graphviz version 2.44.1 (20200629.0846)
 -->
<!-- Title: dependencies Pages: 1 -->
<svg width="1044pt" height="284pt"
 viewBox="0.00 0.00 1044.00 284.00" xmlns="http://www.w3.org/2000/svg" xmlns:xlink="http://www.w3.org/1999/xlink">
<g id="graph0" class="graph" transform="scale(1 1) rotate(0) translate(4 280)">
<title>dependencies</title>
<polygon fill="white" stroke="transparent" points="-4,4 -4,-280 1040,-280 1040,4 -4,4"/>
<text text-anchor="start" x="497.01" y="-42.4" font-family="sans-serif" font-weight="bold" font-size="14.00">Legend</text>
<polygon fill="#ffffb3" stroke="transparent" points="284,-10 284,-30 304,-30 304,-10 284,-10"/>
<text text-anchor="start" x="307.63" y="-15.4" font-family="sans-serif" font-size="14.00"> &#160;Declarations</text>
<polygon fill="#8dd3c7" stroke="transparent" points="397,-10 397,-30 417,-30 417,-10 397,-10"/>
<text text-anchor="start" x="420.73" y="-15.4" font-family="sans-serif" font-size="14.00"> &#160;Module</text>
<polygon fill="#80b1d3" stroke="transparent" points="483,-10 483,-30 503,-30 503,-10 483,-10"/>
<text text-anchor="start" x="506.78" y="-15.4" font-family="sans-serif" font-size="14.00"> &#160;Bootstrap</text>
<polygon fill="#fdb462" stroke="transparent" points="580,-10 580,-30 600,-30 600,-10 580,-10"/>
<text text-anchor="start" x="603.67" y="-15.4" font-family="sans-serif" font-size="14.00"> &#160;Providers</text>
<polygon fill="#fb8072" stroke="transparent" points="676,-10 676,-30 696,-30 696,-10 676,-10"/>
<text text-anchor="start" x="699.73" y="-15.4" font-family="sans-serif" font-size="14.00"> &#160;Exports</text>
<g id="clust1" class="cluster">
<title>cluster_UserModule</title>
<polygon fill="none" stroke="black" stroke-dasharray="1,5" points="8,-70 8,-268 1028,-268 1028,-70 8,-70"/>
</g>
<g id="clust3" class="cluster">
<title>cluster_UserModule_imports</title>
<polygon fill="none" stroke="black" points="753,-78 753,-130 1020,-130 1020,-78 753,-78"/>
</g>
<g id="clust4" class="cluster">
<title>cluster_UserModule_exports</title>
<polygon fill="none" stroke="black" points="500,-208 500,-260 604,-260 604,-208 500,-208"/>
</g>
<g id="clust6" class="cluster">
<title>cluster_UserModule_providers</title>
<polygon fill="none" stroke="black" points="16,-78 16,-130 745,-130 745,-78 16,-78"/>
</g>
<!-- AppConfigModule -->
<g id="node1" class="node">
<title>AppConfigModule</title>
<polygon fill="#8dd3c7" stroke="black" points="1012.05,-122 1009.05,-126 988.05,-126 985.05,-122 889.95,-122 889.95,-86 1012.05,-86 1012.05,-122"/>
<text text-anchor="middle" x="951" y="-99.8" font-family="Times,serif" font-size="14.00">AppConfigModule</text>
</g>
<!-- UserModule -->
<g id="node3" class="node">
<title>UserModule</title>
<polygon fill="#8dd3c7" stroke="black" points="594.98,-187 591.98,-191 570.98,-191 567.98,-187 509.02,-187 509.02,-151 594.98,-151 594.98,-187"/>
<text text-anchor="middle" x="552" y="-164.8" font-family="Times,serif" font-size="14.00">UserModule</text>
</g>
<!-- AppConfigModule&#45;&gt;UserModule -->
<g id="edge1" class="edge">
<title>AppConfigModule&#45;&gt;UserModule</title>
<path fill="none" stroke="black" d="M951,-122.28C951,-143.32 951,-175 951,-175 951,-175 605.08,-175 605.08,-175"/>
<polygon fill="black" stroke="black" points="605.08,-171.5 595.08,-175 605.08,-178.5 605.08,-171.5"/>
</g>
<!-- DatabaseModule -->
<g id="node2" class="node">
<title>DatabaseModule</title>
<polygon fill="#8dd3c7" stroke="black" points="871.35,-122 868.35,-126 847.35,-126 844.35,-122 760.65,-122 760.65,-86 871.35,-86 871.35,-122"/>
<text text-anchor="middle" x="816" y="-99.8" font-family="Times,serif" font-size="14.00">DatabaseModule</text>
</g>
<!-- DatabaseModule&#45;&gt;UserModule -->
<g id="edge2" class="edge">
<title>DatabaseModule&#45;&gt;UserModule</title>
<path fill="none" stroke="black" d="M816,-122.02C816,-139.37 816,-163 816,-163 816,-163 605,-163 605,-163"/>
<polygon fill="black" stroke="black" points="605,-159.5 595,-163 605,-166.5 605,-159.5"/>
</g>
<!-- UserService  -->
<g id="node4" class="node">
<title>UserService </title>
<polygon fill="#fb8072" stroke="black" points="595.9,-252 508.1,-252 508.1,-216 595.9,-216 595.9,-252"/>
<text text-anchor="middle" x="552" y="-229.8" font-family="Times,serif" font-size="14.00">UserService </text>
</g>
<!-- UserModule&#45;&gt;UserService  -->
<g id="edge3" class="edge">
<title>UserModule&#45;&gt;UserService </title>
<path fill="none" stroke="black" stroke-dasharray="5,2" d="M552,-187.11C552,-187.11 552,-205.99 552,-205.99"/>
<polygon fill="black" stroke="black" points="548.5,-205.99 552,-215.99 555.5,-205.99 548.5,-205.99"/>
</g>
<!-- ExtractKeyValueUtil -->
<g id="node5" class="node">
<title>ExtractKeyValueUtil</title>
<ellipse fill="#fdb462" stroke="black" cx="644" cy="-104" rx="93.17" ry="18"/>
<text text-anchor="middle" x="644" y="-99.8" font-family="Times,serif" font-size="14.00">ExtractKeyValueUtil</text>
</g>
<!-- ExtractKeyValueUtil&#45;&gt;UserModule -->
<g id="edge4" class="edge">
<title>ExtractKeyValueUtil&#45;&gt;UserModule</title>
<path fill="none" stroke="black" d="M572.95,-115.92C572.95,-115.92 572.95,-140.77 572.95,-140.77"/>
<polygon fill="black" stroke="black" points="569.45,-140.77 572.95,-150.77 576.45,-140.77 569.45,-140.77"/>
</g>
<!-- ExtractUserUtil -->
<g id="node6" class="node">
<title>ExtractUserUtil</title>
<ellipse fill="#fdb462" stroke="black" cx="461" cy="-104" rx="72.34" ry="18"/>
<text text-anchor="middle" x="461" y="-99.8" font-family="Times,serif" font-size="14.00">ExtractUserUtil</text>
</g>
<!-- ExtractUserUtil&#45;&gt;UserModule -->
<g id="edge5" class="edge">
<title>ExtractUserUtil&#45;&gt;UserModule</title>
<path fill="none" stroke="black" d="M521.09,-114.16C521.09,-114.16 521.09,-140.81 521.09,-140.81"/>
<polygon fill="black" stroke="black" points="517.59,-140.81 521.09,-150.81 524.59,-140.81 517.59,-140.81"/>
</g>
<!-- UserService -->
<g id="node7" class="node">
<title>UserService</title>
<ellipse fill="#fdb462" stroke="black" cx="313" cy="-104" rx="58.44" ry="18"/>
<text text-anchor="middle" x="313" y="-99.8" font-family="Times,serif" font-size="14.00">UserService</text>
</g>
<!-- UserService&#45;&gt;UserModule -->
<g id="edge6" class="edge">
<title>UserService&#45;&gt;UserModule</title>
<path fill="none" stroke="black" d="M313,-122.02C313,-139.37 313,-163 313,-163 313,-163 499,-163 499,-163"/>
<polygon fill="black" stroke="black" points="499,-166.5 509,-163 499,-159.5 499,-166.5"/>
</g>
<!-- VerifyNewPasswordUtil -->
<g id="node8" class="node">
<title>VerifyNewPasswordUtil</title>
<ellipse fill="#fdb462" stroke="black" cx="130" cy="-104" rx="106.49" ry="18"/>
<text text-anchor="middle" x="130" y="-99.8" font-family="Times,serif" font-size="14.00">VerifyNewPasswordUtil</text>
</g>
<!-- VerifyNewPasswordUtil&#45;&gt;UserModule -->
<g id="edge7" class="edge">
<title>VerifyNewPasswordUtil&#45;&gt;UserModule</title>
<path fill="none" stroke="black" d="M130,-122.28C130,-143.32 130,-175 130,-175 130,-175 498.82,-175 498.82,-175"/>
<polygon fill="black" stroke="black" points="498.82,-178.5 508.82,-175 498.82,-171.5 498.82,-178.5"/>
</g>
</g>
</svg>
