<?xml version="1.0" encoding="UTF-8" standalone="no"?>
<!DOCTYPE svg PUBLIC "-//W3C//DTD SVG 1.1//EN"
 "http://www.w3.org/Graphics/SVG/1.1/DTD/svg11.dtd">
<!-- Generated by graphviz version 2.44.1 (20200629.0846)
 -->
<!-- Title: dependencies Pages: 1 -->
<svg width="1134pt" height="284pt"
 viewBox="0.00 0.00 1134.00 284.00" xmlns="http://www.w3.org/2000/svg" xmlns:xlink="http://www.w3.org/1999/xlink">
<g id="graph0" class="graph" transform="scale(1 1) rotate(0) translate(4 280)">
<title>dependencies</title>
<polygon fill="white" stroke="transparent" points="-4,4 -4,-280 1130,-280 1130,4 -4,4"/>
<text text-anchor="start" x="542.01" y="-42.4" font-family="sans-serif" font-weight="bold" font-size="14.00">Legend</text>
<polygon fill="#ffffb3" stroke="transparent" points="329,-10 329,-30 349,-30 349,-10 329,-10"/>
<text text-anchor="start" x="352.63" y="-15.4" font-family="sans-serif" font-size="14.00"> &#160;Declarations</text>
<polygon fill="#8dd3c7" stroke="transparent" points="442,-10 442,-30 462,-30 462,-10 442,-10"/>
<text text-anchor="start" x="465.73" y="-15.4" font-family="sans-serif" font-size="14.00"> &#160;Module</text>
<polygon fill="#80b1d3" stroke="transparent" points="528,-10 528,-30 548,-30 548,-10 528,-10"/>
<text text-anchor="start" x="551.78" y="-15.4" font-family="sans-serif" font-size="14.00"> &#160;Bootstrap</text>
<polygon fill="#fdb462" stroke="transparent" points="625,-10 625,-30 645,-30 645,-10 625,-10"/>
<text text-anchor="start" x="648.67" y="-15.4" font-family="sans-serif" font-size="14.00"> &#160;Providers</text>
<polygon fill="#fb8072" stroke="transparent" points="721,-10 721,-30 741,-30 741,-10 721,-10"/>
<text text-anchor="start" x="744.73" y="-15.4" font-family="sans-serif" font-size="14.00"> &#160;Exports</text>
<g id="clust1" class="cluster">
<title>cluster_UserModule</title>
<polygon fill="none" stroke="black" stroke-dasharray="1,5" points="8,-70 8,-268 1118,-268 1118,-70 8,-70"/>
</g>
<g id="clust6" class="cluster">
<title>cluster_UserModule_providers</title>
<polygon fill="none" stroke="black" points="401,-78 401,-130 1110,-130 1110,-78 401,-78"/>
</g>
<g id="clust4" class="cluster">
<title>cluster_UserModule_exports</title>
<polygon fill="none" stroke="black" points="463,-208 463,-260 567,-260 567,-208 463,-208"/>
</g>
<g id="clust3" class="cluster">
<title>cluster_UserModule_imports</title>
<polygon fill="none" stroke="black" points="16,-78 16,-130 393,-130 393,-78 16,-78"/>
</g>
<!-- AppConfigModule -->
<g id="node1" class="node">
<title>AppConfigModule</title>
<polygon fill="#8dd3c7" stroke="black" points="385.05,-122 382.05,-126 361.05,-126 358.05,-122 262.95,-122 262.95,-86 385.05,-86 385.05,-122"/>
<text text-anchor="middle" x="324" y="-99.8" font-family="Times,serif" font-size="14.00">AppConfigModule</text>
</g>
<!-- UserModule -->
<g id="node4" class="node">
<title>UserModule</title>
<polygon fill="#8dd3c7" stroke="black" points="557.98,-187 554.98,-191 533.98,-191 530.98,-187 472.02,-187 472.02,-151 557.98,-151 557.98,-187"/>
<text text-anchor="middle" x="515" y="-164.8" font-family="Times,serif" font-size="14.00">UserModule</text>
</g>
<!-- AppConfigModule&#45;&gt;UserModule -->
<g id="edge1" class="edge">
<title>AppConfigModule&#45;&gt;UserModule</title>
<path fill="none" stroke="black" d="M324,-122.03C324,-138.4 324,-160 324,-160 324,-160 461.66,-160 461.66,-160"/>
<polygon fill="black" stroke="black" points="461.66,-163.5 471.66,-160 461.66,-156.5 461.66,-163.5"/>
</g>
<!-- DatabaseModule -->
<g id="node2" class="node">
<title>DatabaseModule</title>
<polygon fill="#8dd3c7" stroke="black" points="244.35,-122 241.35,-126 220.35,-126 217.35,-122 133.65,-122 133.65,-86 244.35,-86 244.35,-122"/>
<text text-anchor="middle" x="189" y="-99.8" font-family="Times,serif" font-size="14.00">DatabaseModule</text>
</g>
<!-- DatabaseModule&#45;&gt;UserModule -->
<g id="edge2" class="edge">
<title>DatabaseModule&#45;&gt;UserModule</title>
<path fill="none" stroke="black" d="M189,-122.11C189,-141.34 189,-169 189,-169 189,-169 461.71,-169 461.71,-169"/>
<polygon fill="black" stroke="black" points="461.71,-172.5 471.71,-169 461.71,-165.5 461.71,-172.5"/>
</g>
<!-- RedisModule -->
<g id="node3" class="node">
<title>RedisModule</title>
<polygon fill="#8dd3c7" stroke="black" points="115.94,-122 112.94,-126 91.94,-126 88.94,-122 24.06,-122 24.06,-86 115.94,-86 115.94,-122"/>
<text text-anchor="middle" x="70" y="-99.8" font-family="Times,serif" font-size="14.00">RedisModule</text>
</g>
<!-- RedisModule&#45;&gt;UserModule -->
<g id="edge3" class="edge">
<title>RedisModule&#45;&gt;UserModule</title>
<path fill="none" stroke="black" d="M70,-122.29C70,-144.21 70,-178 70,-178 70,-178 461.93,-178 461.93,-178"/>
<polygon fill="black" stroke="black" points="461.93,-181.5 471.93,-178 461.93,-174.5 461.93,-181.5"/>
</g>
<!-- UserService  -->
<g id="node5" class="node">
<title>UserService </title>
<polygon fill="#fb8072" stroke="black" points="558.9,-252 471.1,-252 471.1,-216 558.9,-216 558.9,-252"/>
<text text-anchor="middle" x="515" y="-229.8" font-family="Times,serif" font-size="14.00">UserService </text>
</g>
<!-- UserModule&#45;&gt;UserService  -->
<g id="edge4" class="edge">
<title>UserModule&#45;&gt;UserService </title>
<path fill="none" stroke="black" stroke-dasharray="5,2" d="M515,-187.11C515,-187.11 515,-205.99 515,-205.99"/>
<polygon fill="black" stroke="black" points="511.5,-205.99 515,-215.99 518.5,-205.99 511.5,-205.99"/>
</g>
<!-- ExtractKeyValueUtil -->
<g id="node6" class="node">
<title>ExtractKeyValueUtil</title>
<ellipse fill="#fdb462" stroke="black" cx="1009" cy="-104" rx="93.17" ry="18"/>
<text text-anchor="middle" x="1009" y="-99.8" font-family="Times,serif" font-size="14.00">ExtractKeyValueUtil</text>
</g>
<!-- ExtractKeyValueUtil&#45;&gt;UserModule -->
<g id="edge5" class="edge">
<title>ExtractKeyValueUtil&#45;&gt;UserModule</title>
<path fill="none" stroke="black" d="M1009,-122.29C1009,-144.21 1009,-178 1009,-178 1009,-178 568.41,-178 568.41,-178"/>
<polygon fill="black" stroke="black" points="568.41,-174.5 558.41,-178 568.41,-181.5 568.41,-174.5"/>
</g>
<!-- RedisService -->
<g id="node7" class="node">
<title>RedisService</title>
<ellipse fill="#fdb462" stroke="black" cx="836" cy="-104" rx="61.97" ry="18"/>
<text text-anchor="middle" x="836" y="-99.8" font-family="Times,serif" font-size="14.00">RedisService</text>
</g>
<!-- RedisService&#45;&gt;UserModule -->
<g id="edge6" class="edge">
<title>RedisService&#45;&gt;UserModule</title>
<path fill="none" stroke="black" d="M836,-122.11C836,-141.34 836,-169 836,-169 836,-169 568.29,-169 568.29,-169"/>
<polygon fill="black" stroke="black" points="568.29,-165.5 558.29,-169 568.29,-172.5 568.29,-165.5"/>
</g>
<!-- UserService -->
<g id="node8" class="node">
<title>UserService</title>
<ellipse fill="#fdb462" stroke="black" cx="698" cy="-104" rx="58.44" ry="18"/>
<text text-anchor="middle" x="698" y="-99.8" font-family="Times,serif" font-size="14.00">UserService</text>
</g>
<!-- UserService&#45;&gt;UserModule -->
<g id="edge7" class="edge">
<title>UserService&#45;&gt;UserModule</title>
<path fill="none" stroke="black" d="M698,-122.03C698,-138.4 698,-160 698,-160 698,-160 568.37,-160 568.37,-160"/>
<polygon fill="black" stroke="black" points="568.37,-156.5 558.37,-160 568.37,-163.5 568.37,-156.5"/>
</g>
<!-- VerifyNewPasswordUtil -->
<g id="node9" class="node">
<title>VerifyNewPasswordUtil</title>
<ellipse fill="#fdb462" stroke="black" cx="515" cy="-104" rx="106.49" ry="18"/>
<text text-anchor="middle" x="515" y="-99.8" font-family="Times,serif" font-size="14.00">VerifyNewPasswordUtil</text>
</g>
<!-- VerifyNewPasswordUtil&#45;&gt;UserModule -->
<g id="edge8" class="edge">
<title>VerifyNewPasswordUtil&#45;&gt;UserModule</title>
<path fill="none" stroke="black" d="M515,-122.11C515,-122.11 515,-140.99 515,-140.99"/>
<polygon fill="black" stroke="black" points="511.5,-140.99 515,-150.99 518.5,-140.99 511.5,-140.99"/>
</g>
</g>
</svg>
