<?xml version="1.0" encoding="UTF-8" standalone="no"?>
<!DOCTYPE svg PUBLIC "-//W3C//DTD SVG 1.1//EN"
 "http://www.w3.org/Graphics/SVG/1.1/DTD/svg11.dtd">
<!-- Generated by graphviz version 2.44.1 (20200629.0846)
 -->
<!-- Title: dependencies Pages: 1 -->
<svg width="1134pt" height="284pt"
 viewBox="0.00 0.00 1134.00 284.00" xmlns="http://www.w3.org/2000/svg" xmlns:xlink="http://www.w3.org/1999/xlink">
<g id="graph0" class="graph" transform="scale(1 1) rotate(0) translate(4 280)">
<title>dependencies</title>
<polygon fill="white" stroke="transparent" points="-4,4 -4,-280 1130,-280 1130,4 -4,4"/>
<text text-anchor="start" x="542.01" y="-42.4" font-family="sans-serif" font-weight="bold" font-size="14.00">Legend</text>
<polygon fill="#ffffb3" stroke="transparent" points="329,-10 329,-30 349,-30 349,-10 329,-10"/>
<text text-anchor="start" x="352.63" y="-15.4" font-family="sans-serif" font-size="14.00"> &#160;Declarations</text>
<polygon fill="#8dd3c7" stroke="transparent" points="442,-10 442,-30 462,-30 462,-10 442,-10"/>
<text text-anchor="start" x="465.73" y="-15.4" font-family="sans-serif" font-size="14.00"> &#160;Module</text>
<polygon fill="#80b1d3" stroke="transparent" points="528,-10 528,-30 548,-30 548,-10 528,-10"/>
<text text-anchor="start" x="551.78" y="-15.4" font-family="sans-serif" font-size="14.00"> &#160;Bootstrap</text>
<polygon fill="#fdb462" stroke="transparent" points="625,-10 625,-30 645,-30 645,-10 625,-10"/>
<text text-anchor="start" x="648.67" y="-15.4" font-family="sans-serif" font-size="14.00"> &#160;Providers</text>
<polygon fill="#fb8072" stroke="transparent" points="721,-10 721,-30 741,-30 741,-10 721,-10"/>
<text text-anchor="start" x="744.73" y="-15.4" font-family="sans-serif" font-size="14.00"> &#160;Exports</text>
<g id="clust1" class="cluster">
<title>cluster_UserModule</title>
<polygon fill="none" stroke="black" stroke-dasharray="1,5" points="8,-70 8,-268 1118,-268 1118,-70 8,-70"/>
</g>
<g id="clust3" class="cluster">
<title>cluster_UserModule_imports</title>
<polygon fill="none" stroke="black" points="733,-78 733,-130 1110,-130 1110,-78 733,-78"/>
</g>
<g id="clust4" class="cluster">
<title>cluster_UserModule_exports</title>
<polygon fill="none" stroke="black" points="572,-208 572,-260 676,-260 676,-208 572,-208"/>
</g>
<g id="clust6" class="cluster">
<title>cluster_UserModule_providers</title>
<polygon fill="none" stroke="black" points="16,-78 16,-130 725,-130 725,-78 16,-78"/>
</g>
<!-- AppConfigModule -->
<g id="node1" class="node">
<title>AppConfigModule</title>
<polygon fill="#8dd3c7" stroke="black" points="1102.05,-122 1099.05,-126 1078.05,-126 1075.05,-122 979.95,-122 979.95,-86 1102.05,-86 1102.05,-122"/>
<text text-anchor="middle" x="1041" y="-99.8" font-family="Times,serif" font-size="14.00">AppConfigModule</text>
</g>
<!-- UserModule -->
<g id="node4" class="node">
<title>UserModule</title>
<polygon fill="#8dd3c7" stroke="black" points="666.98,-187 663.98,-191 642.98,-191 639.98,-187 581.02,-187 581.02,-151 666.98,-151 666.98,-187"/>
<text text-anchor="middle" x="624" y="-164.8" font-family="Times,serif" font-size="14.00">UserModule</text>
</g>
<!-- AppConfigModule&#45;&gt;UserModule -->
<g id="edge1" class="edge">
<title>AppConfigModule&#45;&gt;UserModule</title>
<path fill="none" stroke="black" d="M1041,-122.29C1041,-144.21 1041,-178 1041,-178 1041,-178 677.06,-178 677.06,-178"/>
<polygon fill="black" stroke="black" points="677.06,-174.5 667.06,-178 677.06,-181.5 677.06,-174.5"/>
</g>
<!-- DatabaseModule -->
<g id="node2" class="node">
<title>DatabaseModule</title>
<polygon fill="#8dd3c7" stroke="black" points="961.35,-122 958.35,-126 937.35,-126 934.35,-122 850.65,-122 850.65,-86 961.35,-86 961.35,-122"/>
<text text-anchor="middle" x="906" y="-99.8" font-family="Times,serif" font-size="14.00">DatabaseModule</text>
</g>
<!-- DatabaseModule&#45;&gt;UserModule -->
<g id="edge2" class="edge">
<title>DatabaseModule&#45;&gt;UserModule</title>
<path fill="none" stroke="black" d="M906,-122.11C906,-141.34 906,-169 906,-169 906,-169 677.14,-169 677.14,-169"/>
<polygon fill="black" stroke="black" points="677.14,-165.5 667.14,-169 677.14,-172.5 677.14,-165.5"/>
</g>
<!-- RedisModule -->
<g id="node3" class="node">
<title>RedisModule</title>
<polygon fill="#8dd3c7" stroke="black" points="832.94,-122 829.94,-126 808.94,-126 805.94,-122 741.06,-122 741.06,-86 832.94,-86 832.94,-122"/>
<text text-anchor="middle" x="787" y="-99.8" font-family="Times,serif" font-size="14.00">RedisModule</text>
</g>
<!-- RedisModule&#45;&gt;UserModule -->
<g id="edge3" class="edge">
<title>RedisModule&#45;&gt;UserModule</title>
<path fill="none" stroke="black" d="M787,-122.03C787,-138.4 787,-160 787,-160 787,-160 677.25,-160 677.25,-160"/>
<polygon fill="black" stroke="black" points="677.25,-156.5 667.25,-160 677.25,-163.5 677.25,-156.5"/>
</g>
<!-- UserService  -->
<g id="node5" class="node">
<title>UserService </title>
<polygon fill="#fb8072" stroke="black" points="667.9,-252 580.1,-252 580.1,-216 667.9,-216 667.9,-252"/>
<text text-anchor="middle" x="624" y="-229.8" font-family="Times,serif" font-size="14.00">UserService </text>
</g>
<!-- UserModule&#45;&gt;UserService  -->
<g id="edge4" class="edge">
<title>UserModule&#45;&gt;UserService </title>
<path fill="none" stroke="black" stroke-dasharray="5,2" d="M624,-187.11C624,-187.11 624,-205.99 624,-205.99"/>
<polygon fill="black" stroke="black" points="620.5,-205.99 624,-215.99 627.5,-205.99 620.5,-205.99"/>
</g>
<!-- ExtractKeyValueUtil -->
<g id="node6" class="node">
<title>ExtractKeyValueUtil</title>
<ellipse fill="#fdb462" stroke="black" cx="624" cy="-104" rx="93.17" ry="18"/>
<text text-anchor="middle" x="624" y="-99.8" font-family="Times,serif" font-size="14.00">ExtractKeyValueUtil</text>
</g>
<!-- ExtractKeyValueUtil&#45;&gt;UserModule -->
<g id="edge5" class="edge">
<title>ExtractKeyValueUtil&#45;&gt;UserModule</title>
<path fill="none" stroke="black" d="M624,-122.11C624,-122.11 624,-140.99 624,-140.99"/>
<polygon fill="black" stroke="black" points="620.5,-140.99 624,-150.99 627.5,-140.99 620.5,-140.99"/>
</g>
<!-- RedisService -->
<g id="node7" class="node">
<title>RedisService</title>
<ellipse fill="#fdb462" stroke="black" cx="451" cy="-104" rx="61.97" ry="18"/>
<text text-anchor="middle" x="451" y="-99.8" font-family="Times,serif" font-size="14.00">RedisService</text>
</g>
<!-- RedisService&#45;&gt;UserModule -->
<g id="edge6" class="edge">
<title>RedisService&#45;&gt;UserModule</title>
<path fill="none" stroke="black" d="M451,-122.03C451,-138.4 451,-160 451,-160 451,-160 570.79,-160 570.79,-160"/>
<polygon fill="black" stroke="black" points="570.79,-163.5 580.79,-160 570.79,-156.5 570.79,-163.5"/>
</g>
<!-- UserService -->
<g id="node8" class="node">
<title>UserService</title>
<ellipse fill="#fdb462" stroke="black" cx="313" cy="-104" rx="58.44" ry="18"/>
<text text-anchor="middle" x="313" y="-99.8" font-family="Times,serif" font-size="14.00">UserService</text>
</g>
<!-- UserService&#45;&gt;UserModule -->
<g id="edge7" class="edge">
<title>UserService&#45;&gt;UserModule</title>
<path fill="none" stroke="black" d="M313,-122.11C313,-141.34 313,-169 313,-169 313,-169 570.76,-169 570.76,-169"/>
<polygon fill="black" stroke="black" points="570.76,-172.5 580.76,-169 570.76,-165.5 570.76,-172.5"/>
</g>
<!-- VerifyNewPasswordUtil -->
<g id="node9" class="node">
<title>VerifyNewPasswordUtil</title>
<ellipse fill="#fdb462" stroke="black" cx="130" cy="-104" rx="106.49" ry="18"/>
<text text-anchor="middle" x="130" y="-99.8" font-family="Times,serif" font-size="14.00">VerifyNewPasswordUtil</text>
</g>
<!-- VerifyNewPasswordUtil&#45;&gt;UserModule -->
<g id="edge8" class="edge">
<title>VerifyNewPasswordUtil&#45;&gt;UserModule</title>
<path fill="none" stroke="black" d="M130,-122.29C130,-144.21 130,-178 130,-178 130,-178 570.59,-178 570.59,-178"/>
<polygon fill="black" stroke="black" points="570.59,-181.5 580.59,-178 570.59,-174.5 570.59,-181.5"/>
</g>
</g>
</svg>
