<?xml version="1.0" encoding="UTF-8" standalone="no"?>
<!DOCTYPE svg PUBLIC "-//W3C//DTD SVG 1.1//EN"
 "http://www.w3.org/Graphics/SVG/1.1/DTD/svg11.dtd">
<!-- Generated by graphviz version 2.44.1 (20200629.0846)
 -->
<!-- Title: dependencies Pages: 1 -->
<svg width="1044pt" height="284pt"
 viewBox="0.00 0.00 1044.00 284.00" xmlns="http://www.w3.org/2000/svg" xmlns:xlink="http://www.w3.org/1999/xlink">
<g id="graph0" class="graph" transform="scale(1 1) rotate(0) translate(4 280)">
<title>dependencies</title>
<polygon fill="white" stroke="transparent" points="-4,4 -4,-280 1040,-280 1040,4 -4,4"/>
<text text-anchor="start" x="497.01" y="-42.4" font-family="sans-serif" font-weight="bold" font-size="14.00">Legend</text>
<polygon fill="#ffffb3" stroke="transparent" points="284,-10 284,-30 304,-30 304,-10 284,-10"/>
<text text-anchor="start" x="307.63" y="-15.4" font-family="sans-serif" font-size="14.00"> &#160;Declarations</text>
<polygon fill="#8dd3c7" stroke="transparent" points="397,-10 397,-30 417,-30 417,-10 397,-10"/>
<text text-anchor="start" x="420.73" y="-15.4" font-family="sans-serif" font-size="14.00"> &#160;Module</text>
<polygon fill="#80b1d3" stroke="transparent" points="483,-10 483,-30 503,-30 503,-10 483,-10"/>
<text text-anchor="start" x="506.78" y="-15.4" font-family="sans-serif" font-size="14.00"> &#160;Bootstrap</text>
<polygon fill="#fdb462" stroke="transparent" points="580,-10 580,-30 600,-30 600,-10 580,-10"/>
<text text-anchor="start" x="603.67" y="-15.4" font-family="sans-serif" font-size="14.00"> &#160;Providers</text>
<polygon fill="#fb8072" stroke="transparent" points="676,-10 676,-30 696,-30 696,-10 676,-10"/>
<text text-anchor="start" x="699.73" y="-15.4" font-family="sans-serif" font-size="14.00"> &#160;Exports</text>
<g id="clust1" class="cluster">
<title>cluster_UserModule</title>
<polygon fill="none" stroke="black" stroke-dasharray="1,5" points="8,-70 8,-268 1028,-268 1028,-70 8,-70"/>
</g>
<g id="clust6" class="cluster">
<title>cluster_UserModule_providers</title>
<polygon fill="none" stroke="black" points="291,-78 291,-130 1020,-130 1020,-78 291,-78"/>
</g>
<g id="clust4" class="cluster">
<title>cluster_UserModule_exports</title>
<polygon fill="none" stroke="black" points="444,-208 444,-260 548,-260 548,-208 444,-208"/>
</g>
<g id="clust3" class="cluster">
<title>cluster_UserModule_imports</title>
<polygon fill="none" stroke="black" points="16,-78 16,-130 283,-130 283,-78 16,-78"/>
</g>
<!-- AppConfigModule -->
<g id="node1" class="node">
<title>AppConfigModule</title>
<polygon fill="#8dd3c7" stroke="black" points="275.05,-122 272.05,-126 251.05,-126 248.05,-122 152.95,-122 152.95,-86 275.05,-86 275.05,-122"/>
<text text-anchor="middle" x="214" y="-99.8" font-family="Times,serif" font-size="14.00">AppConfigModule</text>
</g>
<!-- UserModule -->
<g id="node3" class="node">
<title>UserModule</title>
<polygon fill="#8dd3c7" stroke="black" points="538.98,-187 535.98,-191 514.98,-191 511.98,-187 453.02,-187 453.02,-151 538.98,-151 538.98,-187"/>
<text text-anchor="middle" x="496" y="-164.8" font-family="Times,serif" font-size="14.00">UserModule</text>
</g>
<!-- AppConfigModule&#45;&gt;UserModule -->
<g id="edge1" class="edge">
<title>AppConfigModule&#45;&gt;UserModule</title>
<path fill="none" stroke="black" d="M214,-122.02C214,-139.37 214,-163 214,-163 214,-163 442.86,-163 442.86,-163"/>
<polygon fill="black" stroke="black" points="442.86,-166.5 452.86,-163 442.86,-159.5 442.86,-166.5"/>
</g>
<!-- DatabaseModule -->
<g id="node2" class="node">
<title>DatabaseModule</title>
<polygon fill="#8dd3c7" stroke="black" points="134.35,-122 131.35,-126 110.35,-126 107.35,-122 23.65,-122 23.65,-86 134.35,-86 134.35,-122"/>
<text text-anchor="middle" x="79" y="-99.8" font-family="Times,serif" font-size="14.00">DatabaseModule</text>
</g>
<!-- DatabaseModule&#45;&gt;UserModule -->
<g id="edge2" class="edge">
<title>DatabaseModule&#45;&gt;UserModule</title>
<path fill="none" stroke="black" d="M79,-122.28C79,-143.32 79,-175 79,-175 79,-175 442.94,-175 442.94,-175"/>
<polygon fill="black" stroke="black" points="442.94,-178.5 452.94,-175 442.94,-171.5 442.94,-178.5"/>
</g>
<!-- UserService  -->
<g id="node4" class="node">
<title>UserService </title>
<polygon fill="#fb8072" stroke="black" points="539.9,-252 452.1,-252 452.1,-216 539.9,-216 539.9,-252"/>
<text text-anchor="middle" x="496" y="-229.8" font-family="Times,serif" font-size="14.00">UserService </text>
</g>
<!-- UserModule&#45;&gt;UserService  -->
<g id="edge3" class="edge">
<title>UserModule&#45;&gt;UserService </title>
<path fill="none" stroke="black" stroke-dasharray="5,2" d="M496,-187.11C496,-187.11 496,-205.99 496,-205.99"/>
<polygon fill="black" stroke="black" points="492.5,-205.99 496,-215.99 499.5,-205.99 492.5,-205.99"/>
</g>
<!-- ExtractKeyValueUtil -->
<g id="node5" class="node">
<title>ExtractKeyValueUtil</title>
<ellipse fill="#fdb462" stroke="black" cx="919" cy="-104" rx="93.17" ry="18"/>
<text text-anchor="middle" x="919" y="-99.8" font-family="Times,serif" font-size="14.00">ExtractKeyValueUtil</text>
</g>
<!-- ExtractKeyValueUtil&#45;&gt;UserModule -->
<g id="edge4" class="edge">
<title>ExtractKeyValueUtil&#45;&gt;UserModule</title>
<path fill="none" stroke="black" d="M919,-122.28C919,-143.32 919,-175 919,-175 919,-175 549.28,-175 549.28,-175"/>
<polygon fill="black" stroke="black" points="549.28,-171.5 539.28,-175 549.28,-178.5 549.28,-171.5"/>
</g>
<!-- ExtractUserUtil -->
<g id="node6" class="node">
<title>ExtractUserUtil</title>
<ellipse fill="#fdb462" stroke="black" cx="736" cy="-104" rx="72.34" ry="18"/>
<text text-anchor="middle" x="736" y="-99.8" font-family="Times,serif" font-size="14.00">ExtractUserUtil</text>
</g>
<!-- ExtractUserUtil&#45;&gt;UserModule -->
<g id="edge5" class="edge">
<title>ExtractUserUtil&#45;&gt;UserModule</title>
<path fill="none" stroke="black" d="M736,-122.02C736,-139.37 736,-163 736,-163 736,-163 549.18,-163 549.18,-163"/>
<polygon fill="black" stroke="black" points="549.18,-159.5 539.18,-163 549.18,-166.5 549.18,-159.5"/>
</g>
<!-- UserService -->
<g id="node7" class="node">
<title>UserService</title>
<ellipse fill="#fdb462" stroke="black" cx="588" cy="-104" rx="58.44" ry="18"/>
<text text-anchor="middle" x="588" y="-99.8" font-family="Times,serif" font-size="14.00">UserService</text>
</g>
<!-- UserService&#45;&gt;UserModule -->
<g id="edge6" class="edge">
<title>UserService&#45;&gt;UserModule</title>
<path fill="none" stroke="black" d="M534.38,-111.2C534.38,-111.2 534.38,-140.96 534.38,-140.96"/>
<polygon fill="black" stroke="black" points="530.88,-140.96 534.38,-150.96 537.88,-140.96 530.88,-140.96"/>
</g>
<!-- VerifyNewPasswordUtil -->
<g id="node8" class="node">
<title>VerifyNewPasswordUtil</title>
<ellipse fill="#fdb462" stroke="black" cx="405" cy="-104" rx="106.49" ry="18"/>
<text text-anchor="middle" x="405" y="-99.8" font-family="Times,serif" font-size="14.00">VerifyNewPasswordUtil</text>
</g>
<!-- VerifyNewPasswordUtil&#45;&gt;UserModule -->
<g id="edge7" class="edge">
<title>VerifyNewPasswordUtil&#45;&gt;UserModule</title>
<path fill="none" stroke="black" d="M482.25,-116.53C482.25,-116.53 482.25,-140.85 482.25,-140.85"/>
<polygon fill="black" stroke="black" points="478.75,-140.85 482.25,-150.85 485.75,-140.85 478.75,-140.85"/>
</g>
</g>
</svg>
