<?xml version="1.0" encoding="UTF-8" standalone="no"?>
<!DOCTYPE svg PUBLIC "-//W3C//DTD SVG 1.1//EN"
 "http://www.w3.org/Graphics/SVG/1.1/DTD/svg11.dtd">
<!-- Generated by graphviz version 2.44.1 (20200629.0846)
 -->
<!-- Title: dependencies Pages: 1 -->
<svg width="1838pt" height="284pt"
 viewBox="0.00 0.00 1838.00 284.00" xmlns="http://www.w3.org/2000/svg" xmlns:xlink="http://www.w3.org/1999/xlink">
<g id="graph0" class="graph" transform="scale(1 1) rotate(0) translate(4 280)">
<title>dependencies</title>
<polygon fill="white" stroke="transparent" points="-4,4 -4,-280 1834,-280 1834,4 -4,4"/>
<text text-anchor="start" x="894.01" y="-42.4" font-family="sans-serif" font-weight="bold" font-size="14.00">Legend</text>
<polygon fill="#ffffb3" stroke="transparent" points="681,-10 681,-30 701,-30 701,-10 681,-10"/>
<text text-anchor="start" x="704.63" y="-15.4" font-family="sans-serif" font-size="14.00"> &#160;Declarations</text>
<polygon fill="#8dd3c7" stroke="transparent" points="794,-10 794,-30 814,-30 814,-10 794,-10"/>
<text text-anchor="start" x="817.73" y="-15.4" font-family="sans-serif" font-size="14.00"> &#160;Module</text>
<polygon fill="#80b1d3" stroke="transparent" points="880,-10 880,-30 900,-30 900,-10 880,-10"/>
<text text-anchor="start" x="903.78" y="-15.4" font-family="sans-serif" font-size="14.00"> &#160;Bootstrap</text>
<polygon fill="#fdb462" stroke="transparent" points="977,-10 977,-30 997,-30 997,-10 977,-10"/>
<text text-anchor="start" x="1000.67" y="-15.4" font-family="sans-serif" font-size="14.00"> &#160;Providers</text>
<polygon fill="#fb8072" stroke="transparent" points="1073,-10 1073,-30 1093,-30 1093,-10 1073,-10"/>
<text text-anchor="start" x="1096.73" y="-15.4" font-family="sans-serif" font-size="14.00"> &#160;Exports</text>
<g id="clust1" class="cluster">
<title>cluster_ImagesModule</title>
<polygon fill="none" stroke="black" stroke-dasharray="1,5" points="8,-70 8,-268 1822,-268 1822,-70 8,-70"/>
</g>
<g id="clust3" class="cluster">
<title>cluster_ImagesModule_imports</title>
<polygon fill="none" stroke="black" points="1437,-78 1437,-130 1814,-130 1814,-78 1437,-78"/>
</g>
<g id="clust4" class="cluster">
<title>cluster_ImagesModule_exports</title>
<polygon fill="none" stroke="black" points="859,-208 859,-260 977,-260 977,-208 859,-208"/>
</g>
<g id="clust6" class="cluster">
<title>cluster_ImagesModule_providers</title>
<polygon fill="none" stroke="black" points="16,-78 16,-130 1429,-130 1429,-78 16,-78"/>
</g>
<!-- AppConfigModule -->
<g id="node1" class="node">
<title>AppConfigModule</title>
<polygon fill="#8dd3c7" stroke="black" points="1806.05,-122 1803.05,-126 1782.05,-126 1779.05,-122 1683.95,-122 1683.95,-86 1806.05,-86 1806.05,-122"/>
<text text-anchor="middle" x="1745" y="-99.8" font-family="Times,serif" font-size="14.00">AppConfigModule</text>
</g>
<!-- ImagesModule -->
<g id="node4" class="node">
<title>ImagesModule</title>
<polygon fill="#8dd3c7" stroke="black" points="967.97,-187 964.97,-191 943.97,-191 940.97,-187 868.03,-187 868.03,-151 967.97,-151 967.97,-187"/>
<text text-anchor="middle" x="918" y="-164.8" font-family="Times,serif" font-size="14.00">ImagesModule</text>
</g>
<!-- AppConfigModule&#45;&gt;ImagesModule -->
<g id="edge1" class="edge">
<title>AppConfigModule&#45;&gt;ImagesModule</title>
<path fill="none" stroke="black" d="M1745,-122.25C1745,-145.02 1745,-181 1745,-181 1745,-181 978.18,-181 978.18,-181"/>
<polygon fill="black" stroke="black" points="978.18,-177.5 968.18,-181 978.18,-184.5 978.18,-177.5"/>
</g>
<!-- DatabaseModule -->
<g id="node2" class="node">
<title>DatabaseModule</title>
<polygon fill="#8dd3c7" stroke="black" points="1665.35,-122 1662.35,-126 1641.35,-126 1638.35,-122 1554.65,-122 1554.65,-86 1665.35,-86 1665.35,-122"/>
<text text-anchor="middle" x="1610" y="-99.8" font-family="Times,serif" font-size="14.00">DatabaseModule</text>
</g>
<!-- DatabaseModule&#45;&gt;ImagesModule -->
<g id="edge2" class="edge">
<title>DatabaseModule&#45;&gt;ImagesModule</title>
<path fill="none" stroke="black" d="M1610,-122.28C1610,-143.32 1610,-175 1610,-175 1610,-175 978.05,-175 978.05,-175"/>
<polygon fill="black" stroke="black" points="978.05,-171.5 968.05,-175 978.05,-178.5 978.05,-171.5"/>
</g>
<!-- RedisModule -->
<g id="node3" class="node">
<title>RedisModule</title>
<polygon fill="#8dd3c7" stroke="black" points="1536.94,-122 1533.94,-126 1512.94,-126 1509.94,-122 1445.06,-122 1445.06,-86 1536.94,-86 1536.94,-122"/>
<text text-anchor="middle" x="1491" y="-99.8" font-family="Times,serif" font-size="14.00">RedisModule</text>
</g>
<!-- RedisModule&#45;&gt;ImagesModule -->
<g id="edge3" class="edge">
<title>RedisModule&#45;&gt;ImagesModule</title>
<path fill="none" stroke="black" d="M1491,-122.11C1491,-141.34 1491,-169 1491,-169 1491,-169 978.1,-169 978.1,-169"/>
<polygon fill="black" stroke="black" points="978.1,-165.5 968.1,-169 978.1,-172.5 978.1,-165.5"/>
</g>
<!-- ImagesService  -->
<g id="node5" class="node">
<title>ImagesService </title>
<polygon fill="#fb8072" stroke="black" points="968.9,-252 867.1,-252 867.1,-216 968.9,-216 968.9,-252"/>
<text text-anchor="middle" x="918" y="-229.8" font-family="Times,serif" font-size="14.00">ImagesService </text>
</g>
<!-- ImagesModule&#45;&gt;ImagesService  -->
<g id="edge4" class="edge">
<title>ImagesModule&#45;&gt;ImagesService </title>
<path fill="none" stroke="black" stroke-dasharray="5,2" d="M918,-187.11C918,-187.11 918,-205.99 918,-205.99"/>
<polygon fill="black" stroke="black" points="914.5,-205.99 918,-215.99 921.5,-205.99 914.5,-205.99"/>
</g>
<!-- AppConfigService -->
<g id="node6" class="node">
<title>AppConfigService</title>
<ellipse fill="#fdb462" stroke="black" cx="1338" cy="-104" rx="83.39" ry="18"/>
<text text-anchor="middle" x="1338" y="-99.8" font-family="Times,serif" font-size="14.00">AppConfigService</text>
</g>
<!-- AppConfigService&#45;&gt;ImagesModule -->
<g id="edge5" class="edge">
<title>AppConfigService&#45;&gt;ImagesModule</title>
<path fill="none" stroke="black" d="M1338,-122.02C1338,-139.37 1338,-163 1338,-163 1338,-163 978.24,-163 978.24,-163"/>
<polygon fill="black" stroke="black" points="978.24,-159.5 968.24,-163 978.24,-166.5 978.24,-159.5"/>
</g>
<!-- CreateMulterUploadUtil -->
<g id="node7" class="node">
<title>CreateMulterUploadUtil</title>
<ellipse fill="#fdb462" stroke="black" cx="1131" cy="-104" rx="105.93" ry="18"/>
<text text-anchor="middle" x="1131" y="-99.8" font-family="Times,serif" font-size="14.00">CreateMulterUploadUtil</text>
</g>
<!-- CreateMulterUploadUtil&#45;&gt;ImagesModule -->
<g id="edge6" class="edge">
<title>CreateMulterUploadUtil&#45;&gt;ImagesModule</title>
<path fill="none" stroke="black" d="M1131,-122.24C1131,-137.57 1131,-157 1131,-157 1131,-157 978.21,-157 978.21,-157"/>
<polygon fill="black" stroke="black" points="978.21,-153.5 968.21,-157 978.21,-160.5 978.21,-153.5"/>
</g>
<!-- DeleteS3ImagesUtil -->
<g id="node8" class="node">
<title>DeleteS3ImagesUtil</title>
<ellipse fill="#fdb462" stroke="black" cx="918" cy="-104" rx="89.18" ry="18"/>
<text text-anchor="middle" x="918" y="-99.8" font-family="Times,serif" font-size="14.00">DeleteS3ImagesUtil</text>
</g>
<!-- DeleteS3ImagesUtil&#45;&gt;ImagesModule -->
<g id="edge7" class="edge">
<title>DeleteS3ImagesUtil&#45;&gt;ImagesModule</title>
<path fill="none" stroke="black" d="M918,-122.11C918,-122.11 918,-140.99 918,-140.99"/>
<polygon fill="black" stroke="black" points="914.5,-140.99 918,-150.99 921.5,-140.99 914.5,-140.99"/>
</g>
<!-- ImagesService -->
<g id="node9" class="node">
<title>ImagesService</title>
<ellipse fill="#fdb462" stroke="black" cx="743" cy="-104" rx="67.75" ry="18"/>
<text text-anchor="middle" x="743" y="-99.8" font-family="Times,serif" font-size="14.00">ImagesService</text>
</g>
<!-- ImagesService&#45;&gt;ImagesModule -->
<g id="edge8" class="edge">
<title>ImagesService&#45;&gt;ImagesModule</title>
<path fill="none" stroke="black" d="M743,-122.24C743,-137.57 743,-157 743,-157 743,-157 857.85,-157 857.85,-157"/>
<polygon fill="black" stroke="black" points="857.85,-160.5 867.85,-157 857.85,-153.5 857.85,-160.5"/>
</g>
<!-- MulterUploadUtil -->
<g id="node10" class="node">
<title>MulterUploadUtil</title>
<ellipse fill="#fdb462" stroke="black" cx="576" cy="-104" rx="80.54" ry="18"/>
<text text-anchor="middle" x="576" y="-99.8" font-family="Times,serif" font-size="14.00">MulterUploadUtil</text>
</g>
<!-- MulterUploadUtil&#45;&gt;ImagesModule -->
<g id="edge9" class="edge">
<title>MulterUploadUtil&#45;&gt;ImagesModule</title>
<path fill="none" stroke="black" d="M576,-122.02C576,-139.37 576,-163 576,-163 576,-163 857.9,-163 857.9,-163"/>
<polygon fill="black" stroke="black" points="857.9,-166.5 867.9,-163 857.9,-159.5 857.9,-166.5"/>
</g>
<!-- ProcessSaveDataUtil -->
<g id="node11" class="node">
<title>ProcessSaveDataUtil</title>
<ellipse fill="#fdb462" stroke="black" cx="385" cy="-104" rx="92.61" ry="18"/>
<text text-anchor="middle" x="385" y="-99.8" font-family="Times,serif" font-size="14.00">ProcessSaveDataUtil</text>
</g>
<!-- ProcessSaveDataUtil&#45;&gt;ImagesModule -->
<g id="edge10" class="edge">
<title>ProcessSaveDataUtil&#45;&gt;ImagesModule</title>
<path fill="none" stroke="black" d="M385,-122.11C385,-141.34 385,-169 385,-169 385,-169 857.86,-169 857.86,-169"/>
<polygon fill="black" stroke="black" points="857.86,-172.5 867.86,-169 857.86,-165.5 857.86,-172.5"/>
</g>
<!-- RedisService -->
<g id="node12" class="node">
<title>RedisService</title>
<ellipse fill="#fdb462" stroke="black" cx="212" cy="-104" rx="61.97" ry="18"/>
<text text-anchor="middle" x="212" y="-99.8" font-family="Times,serif" font-size="14.00">RedisService</text>
</g>
<!-- RedisService&#45;&gt;ImagesModule -->
<g id="edge11" class="edge">
<title>RedisService&#45;&gt;ImagesModule</title>
<path fill="none" stroke="black" d="M212,-122.28C212,-143.32 212,-175 212,-175 212,-175 857.79,-175 857.79,-175"/>
<polygon fill="black" stroke="black" points="857.79,-178.5 867.79,-175 857.79,-171.5 857.79,-178.5"/>
</g>
<!-- S3Provider -->
<g id="node13" class="node">
<title>S3Provider</title>
<ellipse fill="#fdb462" stroke="black" cx="78" cy="-104" rx="54.47" ry="18"/>
<text text-anchor="middle" x="78" y="-99.8" font-family="Times,serif" font-size="14.00">S3Provider</text>
</g>
<!-- S3Provider&#45;&gt;ImagesModule -->
<g id="edge12" class="edge">
<title>S3Provider&#45;&gt;ImagesModule</title>
<path fill="none" stroke="black" d="M78,-122.25C78,-145.02 78,-181 78,-181 78,-181 857.97,-181 857.97,-181"/>
<polygon fill="black" stroke="black" points="857.97,-184.5 867.97,-181 857.97,-177.5 857.97,-184.5"/>
</g>
</g>
</svg>
