<?xml version="1.0" encoding="UTF-8" standalone="no"?>
<!DOCTYPE svg PUBLIC "-//W3C//DTD SVG 1.1//EN"
 "http://www.w3.org/Graphics/SVG/1.1/DTD/svg11.dtd">
<!-- Generated by graphviz version 2.44.1 (20200629.0846)
 -->
<!-- Title: dependencies Pages: 1 -->
<svg width="1586pt" height="284pt"
 viewBox="0.00 0.00 1586.00 284.00" xmlns="http://www.w3.org/2000/svg" xmlns:xlink="http://www.w3.org/1999/xlink">
<g id="graph0" class="graph" transform="scale(1 1) rotate(0) translate(4 280)">
<title>dependencies</title>
<polygon fill="white" stroke="transparent" points="-4,4 -4,-280 1582,-280 1582,4 -4,4"/>
<text text-anchor="start" x="768.01" y="-42.4" font-family="sans-serif" font-weight="bold" font-size="14.00">Legend</text>
<polygon fill="#ffffb3" stroke="transparent" points="555,-10 555,-30 575,-30 575,-10 555,-10"/>
<text text-anchor="start" x="578.63" y="-15.4" font-family="sans-serif" font-size="14.00"> &#160;Declarations</text>
<polygon fill="#8dd3c7" stroke="transparent" points="668,-10 668,-30 688,-30 688,-10 668,-10"/>
<text text-anchor="start" x="691.73" y="-15.4" font-family="sans-serif" font-size="14.00"> &#160;Module</text>
<polygon fill="#80b1d3" stroke="transparent" points="754,-10 754,-30 774,-30 774,-10 754,-10"/>
<text text-anchor="start" x="777.78" y="-15.4" font-family="sans-serif" font-size="14.00"> &#160;Bootstrap</text>
<polygon fill="#fdb462" stroke="transparent" points="851,-10 851,-30 871,-30 871,-10 851,-10"/>
<text text-anchor="start" x="874.67" y="-15.4" font-family="sans-serif" font-size="14.00"> &#160;Providers</text>
<polygon fill="#fb8072" stroke="transparent" points="947,-10 947,-30 967,-30 967,-10 947,-10"/>
<text text-anchor="start" x="970.73" y="-15.4" font-family="sans-serif" font-size="14.00"> &#160;Exports</text>
<g id="clust1" class="cluster">
<title>cluster_ImagesModule</title>
<polygon fill="none" stroke="black" stroke-dasharray="1,5" points="8,-70 8,-268 1570,-268 1570,-70 8,-70"/>
</g>
<g id="clust4" class="cluster">
<title>cluster_ImagesModule_exports</title>
<polygon fill="none" stroke="black" points="650,-208 650,-260 768,-260 768,-208 650,-208"/>
</g>
<g id="clust6" class="cluster">
<title>cluster_ImagesModule_providers</title>
<polygon fill="none" stroke="black" points="291,-78 291,-130 1562,-130 1562,-78 291,-78"/>
</g>
<g id="clust3" class="cluster">
<title>cluster_ImagesModule_imports</title>
<polygon fill="none" stroke="black" points="16,-78 16,-130 283,-130 283,-78 16,-78"/>
</g>
<!-- AppConfigModule -->
<g id="node1" class="node">
<title>AppConfigModule</title>
<polygon fill="#8dd3c7" stroke="black" points="275.05,-122 272.05,-126 251.05,-126 248.05,-122 152.95,-122 152.95,-86 275.05,-86 275.05,-122"/>
<text text-anchor="middle" x="214" y="-99.8" font-family="Times,serif" font-size="14.00">AppConfigModule</text>
</g>
<!-- ImagesModule -->
<g id="node3" class="node">
<title>ImagesModule</title>
<polygon fill="#8dd3c7" stroke="black" points="758.97,-187 755.97,-191 734.97,-191 731.97,-187 659.03,-187 659.03,-151 758.97,-151 758.97,-187"/>
<text text-anchor="middle" x="709" y="-164.8" font-family="Times,serif" font-size="14.00">ImagesModule</text>
</g>
<!-- AppConfigModule&#45;&gt;ImagesModule -->
<g id="edge1" class="edge">
<title>AppConfigModule&#45;&gt;ImagesModule</title>
<path fill="none" stroke="black" d="M214,-122.13C214,-142.57 214,-173 214,-173 214,-173 648.81,-173 648.81,-173"/>
<polygon fill="black" stroke="black" points="648.81,-176.5 658.81,-173 648.81,-169.5 648.81,-176.5"/>
</g>
<!-- DatabaseModule -->
<g id="node2" class="node">
<title>DatabaseModule</title>
<polygon fill="#8dd3c7" stroke="black" points="134.35,-122 131.35,-126 110.35,-126 107.35,-122 23.65,-122 23.65,-86 134.35,-86 134.35,-122"/>
<text text-anchor="middle" x="79" y="-99.8" font-family="Times,serif" font-size="14.00">DatabaseModule</text>
</g>
<!-- DatabaseModule&#45;&gt;ImagesModule -->
<g id="edge2" class="edge">
<title>DatabaseModule&#45;&gt;ImagesModule</title>
<path fill="none" stroke="black" d="M79,-122.01C79,-144.49 79,-180 79,-180 79,-180 648.77,-180 648.77,-180"/>
<polygon fill="black" stroke="black" points="648.77,-183.5 658.77,-180 648.77,-176.5 648.77,-183.5"/>
</g>
<!-- ImagesService  -->
<g id="node4" class="node">
<title>ImagesService </title>
<polygon fill="#fb8072" stroke="black" points="759.9,-252 658.1,-252 658.1,-216 759.9,-216 759.9,-252"/>
<text text-anchor="middle" x="709" y="-229.8" font-family="Times,serif" font-size="14.00">ImagesService </text>
</g>
<!-- ImagesModule&#45;&gt;ImagesService  -->
<g id="edge3" class="edge">
<title>ImagesModule&#45;&gt;ImagesService </title>
<path fill="none" stroke="black" stroke-dasharray="5,2" d="M709,-187.11C709,-187.11 709,-205.99 709,-205.99"/>
<polygon fill="black" stroke="black" points="705.5,-205.99 709,-215.99 712.5,-205.99 705.5,-205.99"/>
</g>
<!-- AppConfigService -->
<g id="node5" class="node">
<title>AppConfigService</title>
<ellipse fill="#fdb462" stroke="black" cx="1471" cy="-104" rx="83.39" ry="18"/>
<text text-anchor="middle" x="1471" y="-99.8" font-family="Times,serif" font-size="14.00">AppConfigService</text>
</g>
<!-- AppConfigService&#45;&gt;ImagesModule -->
<g id="edge4" class="edge">
<title>AppConfigService&#45;&gt;ImagesModule</title>
<path fill="none" stroke="black" d="M1471,-122.01C1471,-144.49 1471,-180 1471,-180 1471,-180 769,-180 769,-180"/>
<polygon fill="black" stroke="black" points="769,-176.5 759,-180 769,-183.5 769,-176.5"/>
</g>
<!-- CreateMulterUploadUtil -->
<g id="node6" class="node">
<title>CreateMulterUploadUtil</title>
<ellipse fill="#fdb462" stroke="black" cx="1264" cy="-104" rx="105.93" ry="18"/>
<text text-anchor="middle" x="1264" y="-99.8" font-family="Times,serif" font-size="14.00">CreateMulterUploadUtil</text>
</g>
<!-- CreateMulterUploadUtil&#45;&gt;ImagesModule -->
<g id="edge5" class="edge">
<title>CreateMulterUploadUtil&#45;&gt;ImagesModule</title>
<path fill="none" stroke="black" d="M1264,-122.13C1264,-142.57 1264,-173 1264,-173 1264,-173 769.23,-173 769.23,-173"/>
<polygon fill="black" stroke="black" points="769.23,-169.5 759.23,-173 769.23,-176.5 769.23,-169.5"/>
</g>
<!-- DeleteS3ImagesUtil -->
<g id="node7" class="node">
<title>DeleteS3ImagesUtil</title>
<ellipse fill="#fdb462" stroke="black" cx="1051" cy="-104" rx="89.18" ry="18"/>
<text text-anchor="middle" x="1051" y="-99.8" font-family="Times,serif" font-size="14.00">DeleteS3ImagesUtil</text>
</g>
<!-- DeleteS3ImagesUtil&#45;&gt;ImagesModule -->
<g id="edge6" class="edge">
<title>DeleteS3ImagesUtil&#45;&gt;ImagesModule</title>
<path fill="none" stroke="black" d="M1051,-122.27C1051,-140.56 1051,-166 1051,-166 1051,-166 769.1,-166 769.1,-166"/>
<polygon fill="black" stroke="black" points="769.1,-162.5 759.1,-166 769.1,-169.5 769.1,-162.5"/>
</g>
<!-- ImagesService -->
<g id="node8" class="node">
<title>ImagesService</title>
<ellipse fill="#fdb462" stroke="black" cx="876" cy="-104" rx="67.75" ry="18"/>
<text text-anchor="middle" x="876" y="-99.8" font-family="Times,serif" font-size="14.00">ImagesService</text>
</g>
<!-- ImagesService&#45;&gt;ImagesModule -->
<g id="edge7" class="edge">
<title>ImagesService&#45;&gt;ImagesModule</title>
<path fill="none" stroke="black" d="M876,-122.01C876,-138.05 876,-159 876,-159 876,-159 769.11,-159 769.11,-159"/>
<polygon fill="black" stroke="black" points="769.11,-155.5 759.11,-159 769.11,-162.5 769.11,-155.5"/>
</g>
<!-- MulterUploadUtil -->
<g id="node9" class="node">
<title>MulterUploadUtil</title>
<ellipse fill="#fdb462" stroke="black" cx="709" cy="-104" rx="80.54" ry="18"/>
<text text-anchor="middle" x="709" y="-99.8" font-family="Times,serif" font-size="14.00">MulterUploadUtil</text>
</g>
<!-- MulterUploadUtil&#45;&gt;ImagesModule -->
<g id="edge8" class="edge">
<title>MulterUploadUtil&#45;&gt;ImagesModule</title>
<path fill="none" stroke="black" d="M709,-122.11C709,-122.11 709,-140.99 709,-140.99"/>
<polygon fill="black" stroke="black" points="705.5,-140.99 709,-150.99 712.5,-140.99 705.5,-140.99"/>
</g>
<!-- ProcessSaveDataUtil -->
<g id="node10" class="node">
<title>ProcessSaveDataUtil</title>
<ellipse fill="#fdb462" stroke="black" cx="518" cy="-104" rx="92.61" ry="18"/>
<text text-anchor="middle" x="518" y="-99.8" font-family="Times,serif" font-size="14.00">ProcessSaveDataUtil</text>
</g>
<!-- ProcessSaveDataUtil&#45;&gt;ImagesModule -->
<g id="edge9" class="edge">
<title>ProcessSaveDataUtil&#45;&gt;ImagesModule</title>
<path fill="none" stroke="black" d="M518,-122.01C518,-138.05 518,-159 518,-159 518,-159 648.82,-159 648.82,-159"/>
<polygon fill="black" stroke="black" points="648.82,-162.5 658.82,-159 648.82,-155.5 648.82,-162.5"/>
</g>
<!-- S3Provider -->
<g id="node11" class="node">
<title>S3Provider</title>
<ellipse fill="#fdb462" stroke="black" cx="353" cy="-104" rx="54.47" ry="18"/>
<text text-anchor="middle" x="353" y="-99.8" font-family="Times,serif" font-size="14.00">S3Provider</text>
</g>
<!-- S3Provider&#45;&gt;ImagesModule -->
<g id="edge10" class="edge">
<title>S3Provider&#45;&gt;ImagesModule</title>
<path fill="none" stroke="black" d="M353,-122.27C353,-140.56 353,-166 353,-166 353,-166 648.75,-166 648.75,-166"/>
<polygon fill="black" stroke="black" points="648.75,-169.5 658.75,-166 648.75,-162.5 648.75,-169.5"/>
</g>
</g>
</svg>
