<?xml version="1.0" encoding="UTF-8" standalone="no"?>
<!DOCTYPE svg PUBLIC "-//W3C//DTD SVG 1.1//EN"
 "http://www.w3.org/Graphics/SVG/1.1/DTD/svg11.dtd">
<!-- Generated by graphviz version 2.44.1 (20200629.0846)
 -->
<!-- Title: dependencies Pages: 1 -->
<svg width="1838pt" height="284pt"
 viewBox="0.00 0.00 1838.00 284.00" xmlns="http://www.w3.org/2000/svg" xmlns:xlink="http://www.w3.org/1999/xlink">
<g id="graph0" class="graph" transform="scale(1 1) rotate(0) translate(4 280)">
<title>dependencies</title>
<polygon fill="white" stroke="transparent" points="-4,4 -4,-280 1834,-280 1834,4 -4,4"/>
<text text-anchor="start" x="894.01" y="-42.4" font-family="sans-serif" font-weight="bold" font-size="14.00">Legend</text>
<polygon fill="#ffffb3" stroke="transparent" points="681,-10 681,-30 701,-30 701,-10 681,-10"/>
<text text-anchor="start" x="704.63" y="-15.4" font-family="sans-serif" font-size="14.00"> &#160;Declarations</text>
<polygon fill="#8dd3c7" stroke="transparent" points="794,-10 794,-30 814,-30 814,-10 794,-10"/>
<text text-anchor="start" x="817.73" y="-15.4" font-family="sans-serif" font-size="14.00"> &#160;Module</text>
<polygon fill="#80b1d3" stroke="transparent" points="880,-10 880,-30 900,-30 900,-10 880,-10"/>
<text text-anchor="start" x="903.78" y="-15.4" font-family="sans-serif" font-size="14.00"> &#160;Bootstrap</text>
<polygon fill="#fdb462" stroke="transparent" points="977,-10 977,-30 997,-30 997,-10 977,-10"/>
<text text-anchor="start" x="1000.67" y="-15.4" font-family="sans-serif" font-size="14.00"> &#160;Providers</text>
<polygon fill="#fb8072" stroke="transparent" points="1073,-10 1073,-30 1093,-30 1093,-10 1073,-10"/>
<text text-anchor="start" x="1096.73" y="-15.4" font-family="sans-serif" font-size="14.00"> &#160;Exports</text>
<g id="clust1" class="cluster">
<title>cluster_ImagesModule</title>
<polygon fill="none" stroke="black" stroke-dasharray="1,5" points="8,-70 8,-268 1822,-268 1822,-70 8,-70"/>
</g>
<g id="clust4" class="cluster">
<title>cluster_ImagesModule_exports</title>
<polygon fill="none" stroke="black" points="711,-208 711,-260 829,-260 829,-208 711,-208"/>
</g>
<g id="clust6" class="cluster">
<title>cluster_ImagesModule_providers</title>
<polygon fill="none" stroke="black" points="401,-78 401,-130 1814,-130 1814,-78 401,-78"/>
</g>
<g id="clust3" class="cluster">
<title>cluster_ImagesModule_imports</title>
<polygon fill="none" stroke="black" points="16,-78 16,-130 393,-130 393,-78 16,-78"/>
</g>
<!-- AppConfigModule -->
<g id="node1" class="node">
<title>AppConfigModule</title>
<polygon fill="#8dd3c7" stroke="black" points="385.05,-122 382.05,-126 361.05,-126 358.05,-122 262.95,-122 262.95,-86 385.05,-86 385.05,-122"/>
<text text-anchor="middle" x="324" y="-99.8" font-family="Times,serif" font-size="14.00">AppConfigModule</text>
</g>
<!-- ImagesModule -->
<g id="node4" class="node">
<title>ImagesModule</title>
<polygon fill="#8dd3c7" stroke="black" points="819.97,-187 816.97,-191 795.97,-191 792.97,-187 720.03,-187 720.03,-151 819.97,-151 819.97,-187"/>
<text text-anchor="middle" x="770" y="-164.8" font-family="Times,serif" font-size="14.00">ImagesModule</text>
</g>
<!-- AppConfigModule&#45;&gt;ImagesModule -->
<g id="edge1" class="edge">
<title>AppConfigModule&#45;&gt;ImagesModule</title>
<path fill="none" stroke="black" d="M324,-122.11C324,-141.34 324,-169 324,-169 324,-169 709.71,-169 709.71,-169"/>
<polygon fill="black" stroke="black" points="709.71,-172.5 719.71,-169 709.71,-165.5 709.71,-172.5"/>
</g>
<!-- DatabaseModule -->
<g id="node2" class="node">
<title>DatabaseModule</title>
<polygon fill="#8dd3c7" stroke="black" points="244.35,-122 241.35,-126 220.35,-126 217.35,-122 133.65,-122 133.65,-86 244.35,-86 244.35,-122"/>
<text text-anchor="middle" x="189" y="-99.8" font-family="Times,serif" font-size="14.00">DatabaseModule</text>
</g>
<!-- DatabaseModule&#45;&gt;ImagesModule -->
<g id="edge2" class="edge">
<title>DatabaseModule&#45;&gt;ImagesModule</title>
<path fill="none" stroke="black" d="M189,-122.28C189,-143.32 189,-175 189,-175 189,-175 709.96,-175 709.96,-175"/>
<polygon fill="black" stroke="black" points="709.96,-178.5 719.96,-175 709.96,-171.5 709.96,-178.5"/>
</g>
<!-- RedisModule -->
<g id="node3" class="node">
<title>RedisModule</title>
<polygon fill="#8dd3c7" stroke="black" points="115.94,-122 112.94,-126 91.94,-126 88.94,-122 24.06,-122 24.06,-86 115.94,-86 115.94,-122"/>
<text text-anchor="middle" x="70" y="-99.8" font-family="Times,serif" font-size="14.00">RedisModule</text>
</g>
<!-- RedisModule&#45;&gt;ImagesModule -->
<g id="edge3" class="edge">
<title>RedisModule&#45;&gt;ImagesModule</title>
<path fill="none" stroke="black" d="M70,-122.25C70,-145.02 70,-181 70,-181 70,-181 709.94,-181 709.94,-181"/>
<polygon fill="black" stroke="black" points="709.94,-184.5 719.94,-181 709.94,-177.5 709.94,-184.5"/>
</g>
<!-- ImagesService  -->
<g id="node5" class="node">
<title>ImagesService </title>
<polygon fill="#fb8072" stroke="black" points="820.9,-252 719.1,-252 719.1,-216 820.9,-216 820.9,-252"/>
<text text-anchor="middle" x="770" y="-229.8" font-family="Times,serif" font-size="14.00">ImagesService </text>
</g>
<!-- ImagesModule&#45;&gt;ImagesService  -->
<g id="edge4" class="edge">
<title>ImagesModule&#45;&gt;ImagesService </title>
<path fill="none" stroke="black" stroke-dasharray="5,2" d="M770,-187.11C770,-187.11 770,-205.99 770,-205.99"/>
<polygon fill="black" stroke="black" points="766.5,-205.99 770,-215.99 773.5,-205.99 766.5,-205.99"/>
</g>
<!-- AppConfigService -->
<g id="node6" class="node">
<title>AppConfigService</title>
<ellipse fill="#fdb462" stroke="black" cx="1723" cy="-104" rx="83.39" ry="18"/>
<text text-anchor="middle" x="1723" y="-99.8" font-family="Times,serif" font-size="14.00">AppConfigService</text>
</g>
<!-- AppConfigService&#45;&gt;ImagesModule -->
<g id="edge5" class="edge">
<title>AppConfigService&#45;&gt;ImagesModule</title>
<path fill="none" stroke="black" d="M1723,-122.25C1723,-145.02 1723,-181 1723,-181 1723,-181 830.23,-181 830.23,-181"/>
<polygon fill="black" stroke="black" points="830.23,-177.5 820.23,-181 830.23,-184.5 830.23,-177.5"/>
</g>
<!-- CreateMulterUploadUtil -->
<g id="node7" class="node">
<title>CreateMulterUploadUtil</title>
<ellipse fill="#fdb462" stroke="black" cx="1516" cy="-104" rx="105.93" ry="18"/>
<text text-anchor="middle" x="1516" y="-99.8" font-family="Times,serif" font-size="14.00">CreateMulterUploadUtil</text>
</g>
<!-- CreateMulterUploadUtil&#45;&gt;ImagesModule -->
<g id="edge6" class="edge">
<title>CreateMulterUploadUtil&#45;&gt;ImagesModule</title>
<path fill="none" stroke="black" d="M1516,-122.28C1516,-143.32 1516,-175 1516,-175 1516,-175 830.11,-175 830.11,-175"/>
<polygon fill="black" stroke="black" points="830.11,-171.5 820.11,-175 830.11,-178.5 830.11,-171.5"/>
</g>
<!-- DeleteS3ImagesUtil -->
<g id="node8" class="node">
<title>DeleteS3ImagesUtil</title>
<ellipse fill="#fdb462" stroke="black" cx="1303" cy="-104" rx="89.18" ry="18"/>
<text text-anchor="middle" x="1303" y="-99.8" font-family="Times,serif" font-size="14.00">DeleteS3ImagesUtil</text>
</g>
<!-- DeleteS3ImagesUtil&#45;&gt;ImagesModule -->
<g id="edge7" class="edge">
<title>DeleteS3ImagesUtil&#45;&gt;ImagesModule</title>
<path fill="none" stroke="black" d="M1303,-122.11C1303,-141.34 1303,-169 1303,-169 1303,-169 830.14,-169 830.14,-169"/>
<polygon fill="black" stroke="black" points="830.14,-165.5 820.14,-169 830.14,-172.5 830.14,-165.5"/>
</g>
<!-- ImagesService -->
<g id="node9" class="node">
<title>ImagesService</title>
<ellipse fill="#fdb462" stroke="black" cx="1128" cy="-104" rx="67.75" ry="18"/>
<text text-anchor="middle" x="1128" y="-99.8" font-family="Times,serif" font-size="14.00">ImagesService</text>
</g>
<!-- ImagesService&#45;&gt;ImagesModule -->
<g id="edge8" class="edge">
<title>ImagesService&#45;&gt;ImagesModule</title>
<path fill="none" stroke="black" d="M1128,-122.02C1128,-139.37 1128,-163 1128,-163 1128,-163 830.16,-163 830.16,-163"/>
<polygon fill="black" stroke="black" points="830.16,-159.5 820.16,-163 830.16,-166.5 830.16,-159.5"/>
</g>
<!-- MulterUploadUtil -->
<g id="node10" class="node">
<title>MulterUploadUtil</title>
<ellipse fill="#fdb462" stroke="black" cx="961" cy="-104" rx="80.54" ry="18"/>
<text text-anchor="middle" x="961" y="-99.8" font-family="Times,serif" font-size="14.00">MulterUploadUtil</text>
</g>
<!-- MulterUploadUtil&#45;&gt;ImagesModule -->
<g id="edge9" class="edge">
<title>MulterUploadUtil&#45;&gt;ImagesModule</title>
<path fill="none" stroke="black" d="M961,-122.24C961,-137.57 961,-157 961,-157 961,-157 830.18,-157 830.18,-157"/>
<polygon fill="black" stroke="black" points="830.18,-153.5 820.18,-157 830.18,-160.5 830.18,-153.5"/>
</g>
<!-- ProcessSaveDataUtil -->
<g id="node11" class="node">
<title>ProcessSaveDataUtil</title>
<ellipse fill="#fdb462" stroke="black" cx="770" cy="-104" rx="92.61" ry="18"/>
<text text-anchor="middle" x="770" y="-99.8" font-family="Times,serif" font-size="14.00">ProcessSaveDataUtil</text>
</g>
<!-- ProcessSaveDataUtil&#45;&gt;ImagesModule -->
<g id="edge10" class="edge">
<title>ProcessSaveDataUtil&#45;&gt;ImagesModule</title>
<path fill="none" stroke="black" d="M770,-122.11C770,-122.11 770,-140.99 770,-140.99"/>
<polygon fill="black" stroke="black" points="766.5,-140.99 770,-150.99 773.5,-140.99 766.5,-140.99"/>
</g>
<!-- RedisService -->
<g id="node12" class="node">
<title>RedisService</title>
<ellipse fill="#fdb462" stroke="black" cx="597" cy="-104" rx="61.97" ry="18"/>
<text text-anchor="middle" x="597" y="-99.8" font-family="Times,serif" font-size="14.00">RedisService</text>
</g>
<!-- RedisService&#45;&gt;ImagesModule -->
<g id="edge11" class="edge">
<title>RedisService&#45;&gt;ImagesModule</title>
<path fill="none" stroke="black" d="M597,-122.24C597,-137.57 597,-157 597,-157 597,-157 709.96,-157 709.96,-157"/>
<polygon fill="black" stroke="black" points="709.96,-160.5 719.96,-157 709.96,-153.5 709.96,-160.5"/>
</g>
<!-- S3Provider -->
<g id="node13" class="node">
<title>S3Provider</title>
<ellipse fill="#fdb462" stroke="black" cx="463" cy="-104" rx="54.47" ry="18"/>
<text text-anchor="middle" x="463" y="-99.8" font-family="Times,serif" font-size="14.00">S3Provider</text>
</g>
<!-- S3Provider&#45;&gt;ImagesModule -->
<g id="edge12" class="edge">
<title>S3Provider&#45;&gt;ImagesModule</title>
<path fill="none" stroke="black" d="M463,-122.02C463,-139.37 463,-163 463,-163 463,-163 709.99,-163 709.99,-163"/>
<polygon fill="black" stroke="black" points="709.99,-166.5 719.99,-163 709.99,-159.5 709.99,-166.5"/>
</g>
</g>
</svg>
