<?xml version="1.0" encoding="UTF-8" standalone="no"?>
<!DOCTYPE svg PUBLIC "-//W3C//DTD SVG 1.1//EN"
 "http://www.w3.org/Graphics/SVG/1.1/DTD/svg11.dtd">
<!-- Generated by graphviz version 2.44.1 (20200629.0846)
 -->
<!-- Title: dependencies Pages: 1 -->
<svg width="1719pt" height="284pt"
 viewBox="0.00 0.00 1719.00 284.00" xmlns="http://www.w3.org/2000/svg" xmlns:xlink="http://www.w3.org/1999/xlink">
<g id="graph0" class="graph" transform="scale(1 1) rotate(0) translate(4 280)">
<title>dependencies</title>
<polygon fill="white" stroke="transparent" points="-4,4 -4,-280 1715,-280 1715,4 -4,4"/>
<text text-anchor="start" x="834.51" y="-42.4" font-family="sans-serif" font-weight="bold" font-size="14.00">Legend</text>
<polygon fill="#ffffb3" stroke="transparent" points="621.5,-10 621.5,-30 641.5,-30 641.5,-10 621.5,-10"/>
<text text-anchor="start" x="645.13" y="-15.4" font-family="sans-serif" font-size="14.00"> &#160;Declarations</text>
<polygon fill="#8dd3c7" stroke="transparent" points="734.5,-10 734.5,-30 754.5,-30 754.5,-10 734.5,-10"/>
<text text-anchor="start" x="758.23" y="-15.4" font-family="sans-serif" font-size="14.00"> &#160;Module</text>
<polygon fill="#80b1d3" stroke="transparent" points="820.5,-10 820.5,-30 840.5,-30 840.5,-10 820.5,-10"/>
<text text-anchor="start" x="844.28" y="-15.4" font-family="sans-serif" font-size="14.00"> &#160;Bootstrap</text>
<polygon fill="#fdb462" stroke="transparent" points="917.5,-10 917.5,-30 937.5,-30 937.5,-10 917.5,-10"/>
<text text-anchor="start" x="941.17" y="-15.4" font-family="sans-serif" font-size="14.00"> &#160;Providers</text>
<polygon fill="#fb8072" stroke="transparent" points="1013.5,-10 1013.5,-30 1033.5,-30 1033.5,-10 1013.5,-10"/>
<text text-anchor="start" x="1037.23" y="-15.4" font-family="sans-serif" font-size="14.00"> &#160;Exports</text>
<g id="clust1" class="cluster">
<title>cluster_AuthModule</title>
<polygon fill="none" stroke="black" stroke-dasharray="1,5" points="8,-70 8,-268 1703,-268 1703,-70 8,-70"/>
</g>
<g id="clust3" class="cluster">
<title>cluster_AuthModule_imports</title>
<polygon fill="none" stroke="black" points="1343,-78 1343,-130 1695,-130 1695,-78 1343,-78"/>
</g>
<g id="clust4" class="cluster">
<title>cluster_AuthModule_exports</title>
<polygon fill="none" stroke="black" points="627,-208 627,-260 1201,-260 1201,-208 627,-208"/>
</g>
<g id="clust6" class="cluster">
<title>cluster_AuthModule_providers</title>
<polygon fill="none" stroke="black" points="16,-78 16,-130 1335,-130 1335,-78 16,-78"/>
</g>
<!-- AppConfigModule -->
<g id="node1" class="node">
<title>AppConfigModule</title>
<polygon fill="#8dd3c7" stroke="black" points="1687.05,-122 1684.05,-126 1663.05,-126 1660.05,-122 1564.95,-122 1564.95,-86 1687.05,-86 1687.05,-122"/>
<text text-anchor="middle" x="1626" y="-99.8" font-family="Times,serif" font-size="14.00">AppConfigModule</text>
</g>
<!-- AuthModule -->
<g id="node4" class="node">
<title>AuthModule</title>
<polygon fill="#8dd3c7" stroke="black" points="986.55,-187 983.55,-191 962.55,-191 959.55,-187 899.45,-187 899.45,-151 986.55,-151 986.55,-187"/>
<text text-anchor="middle" x="943" y="-164.8" font-family="Times,serif" font-size="14.00">AuthModule</text>
</g>
<!-- AppConfigModule&#45;&gt;AuthModule -->
<g id="edge1" class="edge">
<title>AppConfigModule&#45;&gt;AuthModule</title>
<path fill="none" stroke="black" d="M1626,-122.04C1626,-143.66 1626,-177 1626,-177 1626,-177 996.76,-177 996.76,-177"/>
<polygon fill="black" stroke="black" points="996.76,-173.5 986.76,-177 996.76,-180.5 996.76,-173.5"/>
</g>
<!-- RedisModule -->
<g id="node2" class="node">
<title>RedisModule</title>
<polygon fill="#8dd3c7" stroke="black" points="1546.94,-122 1543.94,-126 1522.94,-126 1519.94,-122 1455.06,-122 1455.06,-86 1546.94,-86 1546.94,-122"/>
<text text-anchor="middle" x="1501" y="-99.8" font-family="Times,serif" font-size="14.00">RedisModule</text>
</g>
<!-- RedisModule&#45;&gt;AuthModule -->
<g id="edge2" class="edge">
<title>RedisModule&#45;&gt;AuthModule</title>
<path fill="none" stroke="black" d="M1501,-122.22C1501,-142.37 1501,-172 1501,-172 1501,-172 996.79,-172 996.79,-172"/>
<polygon fill="black" stroke="black" points="996.79,-168.5 986.79,-172 996.79,-175.5 996.79,-168.5"/>
</g>
<!-- UserModule -->
<g id="node3" class="node">
<title>UserModule</title>
<polygon fill="#8dd3c7" stroke="black" points="1436.98,-122 1433.98,-126 1412.98,-126 1409.98,-122 1351.02,-122 1351.02,-86 1436.98,-86 1436.98,-122"/>
<text text-anchor="middle" x="1394" y="-99.8" font-family="Times,serif" font-size="14.00">UserModule</text>
</g>
<!-- UserModule&#45;&gt;AuthModule -->
<g id="edge3" class="edge">
<title>UserModule&#45;&gt;AuthModule</title>
<path fill="none" stroke="black" d="M1394,-122.22C1394,-140.83 1394,-167 1394,-167 1394,-167 996.65,-167 996.65,-167"/>
<polygon fill="black" stroke="black" points="996.65,-163.5 986.65,-167 996.65,-170.5 996.65,-163.5"/>
</g>
<!-- AuthService  -->
<g id="node5" class="node">
<title>AuthService </title>
<polygon fill="#fb8072" stroke="black" points="1192.98,-252 1103.02,-252 1103.02,-216 1192.98,-216 1192.98,-252"/>
<text text-anchor="middle" x="1148" y="-229.8" font-family="Times,serif" font-size="14.00">AuthService </text>
</g>
<!-- AuthModule&#45;&gt;AuthService  -->
<g id="edge4" class="edge">
<title>AuthModule&#45;&gt;AuthService </title>
<path fill="none" stroke="black" stroke-dasharray="5,2" d="M986.98,-182C1040.2,-182 1122.78,-182 1122.78,-182 1122.78,-182 1122.78,-205.81 1122.78,-205.81"/>
<polygon fill="black" stroke="black" points="1119.28,-205.81 1122.78,-215.81 1126.28,-205.81 1119.28,-205.81"/>
</g>
<!-- ExtractKeyValueUtil  -->
<g id="node6" class="node">
<title>ExtractKeyValueUtil </title>
<polygon fill="#fb8072" stroke="black" points="1085.45,-252 946.55,-252 946.55,-216 1085.45,-216 1085.45,-252"/>
<text text-anchor="middle" x="1016" y="-229.8" font-family="Times,serif" font-size="14.00">ExtractKeyValueUtil </text>
</g>
<!-- AuthModule&#45;&gt;ExtractKeyValueUtil  -->
<g id="edge5" class="edge">
<title>AuthModule&#45;&gt;ExtractKeyValueUtil </title>
<path fill="none" stroke="black" stroke-dasharray="5,2" d="M966.77,-187.11C966.77,-187.11 966.77,-205.99 966.77,-205.99"/>
<polygon fill="black" stroke="black" points="963.27,-205.99 966.77,-215.99 970.27,-205.99 963.27,-205.99"/>
</g>
<!-- LoggedOutGuard  -->
<g id="node7" class="node">
<title>LoggedOutGuard </title>
<polygon fill="#fb8072" stroke="black" points="929.25,-252 810.75,-252 810.75,-216 929.25,-216 929.25,-252"/>
<text text-anchor="middle" x="870" y="-229.8" font-family="Times,serif" font-size="14.00">LoggedOutGuard </text>
</g>
<!-- AuthModule&#45;&gt;LoggedOutGuard  -->
<g id="edge6" class="edge">
<title>AuthModule&#45;&gt;LoggedOutGuard </title>
<path fill="none" stroke="black" stroke-dasharray="5,2" d="M914.17,-187.11C914.17,-187.11 914.17,-205.99 914.17,-205.99"/>
<polygon fill="black" stroke="black" points="910.67,-205.99 914.17,-215.99 917.67,-205.99 910.67,-205.99"/>
</g>
<!-- VerifyNewPasswordUtil  -->
<g id="node8" class="node">
<title>VerifyNewPasswordUtil </title>
<polygon fill="#fb8072" stroke="black" points="792.89,-252 635.11,-252 635.11,-216 792.89,-216 792.89,-252"/>
<text text-anchor="middle" x="714" y="-229.8" font-family="Times,serif" font-size="14.00">VerifyNewPasswordUtil </text>
</g>
<!-- AuthModule&#45;&gt;VerifyNewPasswordUtil  -->
<g id="edge7" class="edge">
<title>AuthModule&#45;&gt;VerifyNewPasswordUtil </title>
<path fill="none" stroke="black" stroke-dasharray="5,2" d="M899.28,-182C838.12,-182 734.43,-182 734.43,-182 734.43,-182 734.43,-205.81 734.43,-205.81"/>
<polygon fill="black" stroke="black" points="730.93,-205.81 734.43,-215.81 737.93,-205.81 730.93,-205.81"/>
</g>
<!-- AppConfigService -->
<g id="node9" class="node">
<title>AppConfigService</title>
<ellipse fill="#fdb462" stroke="black" cx="1244" cy="-104" rx="83.39" ry="18"/>
<text text-anchor="middle" x="1244" y="-99.8" font-family="Times,serif" font-size="14.00">AppConfigService</text>
</g>
<!-- AppConfigService&#45;&gt;AuthModule -->
<g id="edge8" class="edge">
<title>AppConfigService&#45;&gt;AuthModule</title>
<path fill="none" stroke="black" d="M1176.65,-114.64C1176.65,-131.38 1176.65,-162 1176.65,-162 1176.65,-162 996.67,-162 996.67,-162"/>
<polygon fill="black" stroke="black" points="996.67,-158.5 986.67,-162 996.67,-165.5 996.67,-158.5"/>
</g>
<!-- AuthService -->
<g id="node10" class="node">
<title>AuthService</title>
<ellipse fill="#fdb462" stroke="black" cx="1083" cy="-104" rx="59.11" ry="18"/>
<text text-anchor="middle" x="1083" y="-99.8" font-family="Times,serif" font-size="14.00">AuthService</text>
</g>
<!-- AuthService&#45;&gt;AuthModule -->
<g id="edge9" class="edge">
<title>AuthService&#45;&gt;AuthModule</title>
<path fill="none" stroke="black" d="M1054.46,-119.9C1054.46,-135.51 1054.46,-157 1054.46,-157 1054.46,-157 996.73,-157 996.73,-157"/>
<polygon fill="black" stroke="black" points="996.73,-153.5 986.73,-157 996.73,-160.5 996.73,-153.5"/>
</g>
<!-- EmailService -->
<g id="node11" class="node">
<title>EmailService</title>
<ellipse fill="#fdb462" stroke="black" cx="943" cy="-104" rx="63.12" ry="18"/>
<text text-anchor="middle" x="943" y="-99.8" font-family="Times,serif" font-size="14.00">EmailService</text>
</g>
<!-- EmailService&#45;&gt;AuthModule -->
<g id="edge10" class="edge">
<title>EmailService&#45;&gt;AuthModule</title>
<path fill="none" stroke="black" d="M943,-122.11C943,-122.11 943,-140.99 943,-140.99"/>
<polygon fill="black" stroke="black" points="939.5,-140.99 943,-150.99 946.5,-140.99 939.5,-140.99"/>
</g>
<!-- ExtractKeyValueUtil -->
<g id="node12" class="node">
<title>ExtractKeyValueUtil</title>
<ellipse fill="#fdb462" stroke="black" cx="769" cy="-104" rx="93.17" ry="18"/>
<text text-anchor="middle" x="769" y="-99.8" font-family="Times,serif" font-size="14.00">ExtractKeyValueUtil</text>
</g>
<!-- ExtractKeyValueUtil&#45;&gt;AuthModule -->
<g id="edge11" class="edge">
<title>ExtractKeyValueUtil&#45;&gt;AuthModule</title>
<path fill="none" stroke="black" d="M836.48,-116.56C836.48,-132.23 836.48,-157 836.48,-157 836.48,-157 889.37,-157 889.37,-157"/>
<polygon fill="black" stroke="black" points="889.37,-160.5 899.37,-157 889.37,-153.5 889.37,-160.5"/>
</g>
<!-- JwtStrategy -->
<g id="node13" class="node">
<title>JwtStrategy</title>
<ellipse fill="#fdb462" stroke="black" cx="601" cy="-104" rx="56.76" ry="18"/>
<text text-anchor="middle" x="601" y="-99.8" font-family="Times,serif" font-size="14.00">JwtStrategy</text>
</g>
<!-- JwtStrategy&#45;&gt;AuthModule -->
<g id="edge12" class="edge">
<title>JwtStrategy&#45;&gt;AuthModule</title>
<path fill="none" stroke="black" d="M646.34,-114.91C646.34,-131.71 646.34,-162 646.34,-162 646.34,-162 889.23,-162 889.23,-162"/>
<polygon fill="black" stroke="black" points="889.23,-165.5 899.23,-162 889.23,-158.5 889.23,-165.5"/>
</g>
<!-- LocalStrategy -->
<g id="node14" class="node">
<title>LocalStrategy</title>
<ellipse fill="#fdb462" stroke="black" cx="461" cy="-104" rx="65.41" ry="18"/>
<text text-anchor="middle" x="461" y="-99.8" font-family="Times,serif" font-size="14.00">LocalStrategy</text>
</g>
<!-- LocalStrategy&#45;&gt;AuthModule -->
<g id="edge13" class="edge">
<title>LocalStrategy&#45;&gt;AuthModule</title>
<path fill="none" stroke="black" d="M461,-122.22C461,-140.83 461,-167 461,-167 461,-167 889.38,-167 889.38,-167"/>
<polygon fill="black" stroke="black" points="889.38,-170.5 899.38,-167 889.38,-163.5 889.38,-170.5"/>
</g>
<!-- RedisService -->
<g id="node15" class="node">
<title>RedisService</title>
<ellipse fill="#fdb462" stroke="black" cx="316" cy="-104" rx="61.97" ry="18"/>
<text text-anchor="middle" x="316" y="-99.8" font-family="Times,serif" font-size="14.00">RedisService</text>
</g>
<!-- RedisService&#45;&gt;AuthModule -->
<g id="edge14" class="edge">
<title>RedisService&#45;&gt;AuthModule</title>
<path fill="none" stroke="black" d="M316,-122.22C316,-142.37 316,-172 316,-172 316,-172 889.41,-172 889.41,-172"/>
<polygon fill="black" stroke="black" points="889.41,-175.5 899.41,-172 889.41,-168.5 889.41,-175.5"/>
</g>
<!-- VerifyNewPasswordUtil -->
<g id="node16" class="node">
<title>VerifyNewPasswordUtil</title>
<ellipse fill="#fdb462" stroke="black" cx="130" cy="-104" rx="106.49" ry="18"/>
<text text-anchor="middle" x="130" y="-99.8" font-family="Times,serif" font-size="14.00">VerifyNewPasswordUtil</text>
</g>
<!-- VerifyNewPasswordUtil&#45;&gt;AuthModule -->
<g id="edge15" class="edge">
<title>VerifyNewPasswordUtil&#45;&gt;AuthModule</title>
<path fill="none" stroke="black" d="M130,-122.04C130,-143.66 130,-177 130,-177 130,-177 889.29,-177 889.29,-177"/>
<polygon fill="black" stroke="black" points="889.29,-180.5 899.29,-177 889.29,-173.5 889.29,-180.5"/>
</g>
</g>
</svg>
