<?xml version="1.0" encoding="UTF-8" standalone="no"?>
<!DOCTYPE svg PUBLIC "-//W3C//DTD SVG 1.1//EN"
 "http://www.w3.org/Graphics/SVG/1.1/DTD/svg11.dtd">
<!-- Generated by graphviz version 2.44.1 (20200629.0846)
 -->
<!-- Title: dependencies Pages: 1 -->
<svg width="1468pt" height="284pt"
 viewBox="0.00 0.00 1468.00 284.00" xmlns="http://www.w3.org/2000/svg" xmlns:xlink="http://www.w3.org/1999/xlink">
<g id="graph0" class="graph" transform="scale(1 1) rotate(0) translate(4 280)">
<title>dependencies</title>
<polygon fill="white" stroke="transparent" points="-4,4 -4,-280 1464,-280 1464,4 -4,4"/>
<text text-anchor="start" x="709.01" y="-42.4" font-family="sans-serif" font-weight="bold" font-size="14.00">Legend</text>
<polygon fill="#ffffb3" stroke="transparent" points="496,-10 496,-30 516,-30 516,-10 496,-10"/>
<text text-anchor="start" x="519.63" y="-15.4" font-family="sans-serif" font-size="14.00"> &#160;Declarations</text>
<polygon fill="#8dd3c7" stroke="transparent" points="609,-10 609,-30 629,-30 629,-10 609,-10"/>
<text text-anchor="start" x="632.73" y="-15.4" font-family="sans-serif" font-size="14.00"> &#160;Module</text>
<polygon fill="#80b1d3" stroke="transparent" points="695,-10 695,-30 715,-30 715,-10 695,-10"/>
<text text-anchor="start" x="718.78" y="-15.4" font-family="sans-serif" font-size="14.00"> &#160;Bootstrap</text>
<polygon fill="#fdb462" stroke="transparent" points="792,-10 792,-30 812,-30 812,-10 792,-10"/>
<text text-anchor="start" x="815.67" y="-15.4" font-family="sans-serif" font-size="14.00"> &#160;Providers</text>
<polygon fill="#fb8072" stroke="transparent" points="888,-10 888,-30 908,-30 908,-10 888,-10"/>
<text text-anchor="start" x="911.73" y="-15.4" font-family="sans-serif" font-size="14.00"> &#160;Exports</text>
<g id="clust1" class="cluster">
<title>cluster_AuthModule</title>
<polygon fill="none" stroke="black" stroke-dasharray="1,5" points="8,-70 8,-268 1452,-268 1452,-70 8,-70"/>
</g>
<g id="clust3" class="cluster">
<title>cluster_AuthModule_imports</title>
<polygon fill="none" stroke="black" points="1202,-78 1202,-130 1444,-130 1444,-78 1202,-78"/>
</g>
<g id="clust6" class="cluster">
<title>cluster_AuthModule_providers</title>
<polygon fill="none" stroke="black" points="16,-78 16,-130 1194,-130 1194,-78 16,-78"/>
</g>
<g id="clust4" class="cluster">
<title>cluster_AuthModule_exports</title>
<polygon fill="none" stroke="black" points="413,-208 413,-260 1100,-260 1100,-208 413,-208"/>
</g>
<!-- AppConfigModule -->
<g id="node1" class="node">
<title>AppConfigModule</title>
<polygon fill="#8dd3c7" stroke="black" points="1436.05,-122 1433.05,-126 1412.05,-126 1409.05,-122 1313.95,-122 1313.95,-86 1436.05,-86 1436.05,-122"/>
<text text-anchor="middle" x="1375" y="-99.8" font-family="Times,serif" font-size="14.00">AppConfigModule</text>
</g>
<!-- AuthModule -->
<g id="node3" class="node">
<title>AuthModule</title>
<polygon fill="#8dd3c7" stroke="black" points="845.55,-187 842.55,-191 821.55,-191 818.55,-187 758.45,-187 758.45,-151 845.55,-151 845.55,-187"/>
<text text-anchor="middle" x="802" y="-164.8" font-family="Times,serif" font-size="14.00">AuthModule</text>
</g>
<!-- AppConfigModule&#45;&gt;AuthModule -->
<g id="edge1" class="edge">
<title>AppConfigModule&#45;&gt;AuthModule</title>
<path fill="none" stroke="black" d="M1375,-122.22C1375,-142.37 1375,-172 1375,-172 1375,-172 856.01,-172 856.01,-172"/>
<polygon fill="black" stroke="black" points="856.01,-168.5 846.01,-172 856.01,-175.5 856.01,-168.5"/>
</g>
<!-- UserModule -->
<g id="node2" class="node">
<title>UserModule</title>
<polygon fill="#8dd3c7" stroke="black" points="1295.98,-122 1292.98,-126 1271.98,-126 1268.98,-122 1210.02,-122 1210.02,-86 1295.98,-86 1295.98,-122"/>
<text text-anchor="middle" x="1253" y="-99.8" font-family="Times,serif" font-size="14.00">UserModule</text>
</g>
<!-- UserModule&#45;&gt;AuthModule -->
<g id="edge2" class="edge">
<title>UserModule&#45;&gt;AuthModule</title>
<path fill="none" stroke="black" d="M1253,-122.22C1253,-140.83 1253,-167 1253,-167 1253,-167 855.65,-167 855.65,-167"/>
<polygon fill="black" stroke="black" points="855.65,-163.5 845.65,-167 855.65,-170.5 855.65,-163.5"/>
</g>
<!-- AuthService  -->
<g id="node4" class="node">
<title>AuthService </title>
<polygon fill="#fb8072" stroke="black" points="1091.98,-252 1002.02,-252 1002.02,-216 1091.98,-216 1091.98,-252"/>
<text text-anchor="middle" x="1047" y="-229.8" font-family="Times,serif" font-size="14.00">AuthService </text>
</g>
<!-- AuthModule&#45;&gt;AuthService  -->
<g id="edge3" class="edge">
<title>AuthModule&#45;&gt;AuthService </title>
<path fill="none" stroke="black" stroke-dasharray="5,2" d="M845.79,-177C907.05,-177 1010.91,-177 1010.91,-177 1010.91,-177 1010.91,-205.96 1010.91,-205.96"/>
<polygon fill="black" stroke="black" points="1007.41,-205.96 1010.91,-215.96 1014.41,-205.96 1007.41,-205.96"/>
</g>
<!-- EmailService  -->
<g id="node5" class="node">
<title>EmailService </title>
<polygon fill="#fb8072" stroke="black" points="984.42,-252 889.58,-252 889.58,-216 984.42,-216 984.42,-252"/>
<text text-anchor="middle" x="937" y="-229.8" font-family="Times,serif" font-size="14.00">EmailService </text>
</g>
<!-- AuthModule&#45;&gt;EmailService  -->
<g id="edge4" class="edge">
<title>AuthModule&#45;&gt;EmailService </title>
<path fill="none" stroke="black" stroke-dasharray="5,2" d="M845.62,-182C890.17,-182 952.82,-182 952.82,-182 952.82,-182 952.82,-205.81 952.82,-205.81"/>
<polygon fill="black" stroke="black" points="949.32,-205.81 952.82,-215.81 956.32,-205.81 949.32,-205.81"/>
</g>
<!-- ExtractKeyValueUtil  -->
<g id="node6" class="node">
<title>ExtractKeyValueUtil </title>
<polygon fill="#fb8072" stroke="black" points="871.45,-252 732.55,-252 732.55,-216 871.45,-216 871.45,-252"/>
<text text-anchor="middle" x="802" y="-229.8" font-family="Times,serif" font-size="14.00">ExtractKeyValueUtil </text>
</g>
<!-- AuthModule&#45;&gt;ExtractKeyValueUtil  -->
<g id="edge5" class="edge">
<title>AuthModule&#45;&gt;ExtractKeyValueUtil </title>
<path fill="none" stroke="black" stroke-dasharray="5,2" d="M802,-187.11C802,-187.11 802,-205.99 802,-205.99"/>
<polygon fill="black" stroke="black" points="798.5,-205.99 802,-215.99 805.5,-205.99 798.5,-205.99"/>
</g>
<!-- LoggedOutGaurd  -->
<g id="node7" class="node">
<title>LoggedOutGaurd </title>
<polygon fill="#fb8072" stroke="black" points="715.25,-252 596.75,-252 596.75,-216 715.25,-216 715.25,-252"/>
<text text-anchor="middle" x="656" y="-229.8" font-family="Times,serif" font-size="14.00">LoggedOutGaurd </text>
</g>
<!-- AuthModule&#45;&gt;LoggedOutGaurd  -->
<g id="edge6" class="edge">
<title>AuthModule&#45;&gt;LoggedOutGaurd </title>
<path fill="none" stroke="black" stroke-dasharray="5,2" d="M758.18,-182C721.71,-182 675.71,-182 675.71,-182 675.71,-182 675.71,-205.81 675.71,-205.81"/>
<polygon fill="black" stroke="black" points="672.21,-205.81 675.71,-215.81 679.21,-205.81 672.21,-205.81"/>
</g>
<!-- VerifyNewPasswordUtil  -->
<g id="node8" class="node">
<title>VerifyNewPasswordUtil </title>
<polygon fill="#fb8072" stroke="black" points="578.89,-252 421.11,-252 421.11,-216 578.89,-216 578.89,-252"/>
<text text-anchor="middle" x="500" y="-229.8" font-family="Times,serif" font-size="14.00">VerifyNewPasswordUtil </text>
</g>
<!-- AuthModule&#45;&gt;VerifyNewPasswordUtil  -->
<g id="edge7" class="edge">
<title>AuthModule&#45;&gt;VerifyNewPasswordUtil </title>
<path fill="none" stroke="black" stroke-dasharray="5,2" d="M758.19,-177C687.7,-177 556.93,-177 556.93,-177 556.93,-177 556.93,-205.96 556.93,-205.96"/>
<polygon fill="black" stroke="black" points="553.43,-205.96 556.93,-215.96 560.43,-205.96 553.43,-205.96"/>
</g>
<!-- AppConfigService -->
<g id="node9" class="node">
<title>AppConfigService</title>
<ellipse fill="#fdb462" stroke="black" cx="1103" cy="-104" rx="83.39" ry="18"/>
<text text-anchor="middle" x="1103" y="-99.8" font-family="Times,serif" font-size="14.00">AppConfigService</text>
</g>
<!-- AppConfigService&#45;&gt;AuthModule -->
<g id="edge8" class="edge">
<title>AppConfigService&#45;&gt;AuthModule</title>
<path fill="none" stroke="black" d="M1055.65,-118.94C1055.65,-136.12 1055.65,-162 1055.65,-162 1055.65,-162 855.6,-162 855.6,-162"/>
<polygon fill="black" stroke="black" points="855.6,-158.5 845.6,-162 855.6,-165.5 855.6,-158.5"/>
</g>
<!-- AuthService -->
<g id="node10" class="node">
<title>AuthService</title>
<ellipse fill="#fdb462" stroke="black" cx="942" cy="-104" rx="59.11" ry="18"/>
<text text-anchor="middle" x="942" y="-99.8" font-family="Times,serif" font-size="14.00">AuthService</text>
</g>
<!-- AuthService&#45;&gt;AuthModule -->
<g id="edge9" class="edge">
<title>AuthService&#45;&gt;AuthModule</title>
<path fill="none" stroke="black" d="M921.18,-121.06C921.18,-136.55 921.18,-157 921.18,-157 921.18,-157 855.7,-157 855.7,-157"/>
<polygon fill="black" stroke="black" points="855.7,-153.5 845.7,-157 855.7,-160.5 855.7,-153.5"/>
</g>
<!-- EmailService -->
<g id="node11" class="node">
<title>EmailService</title>
<ellipse fill="#fdb462" stroke="black" cx="802" cy="-104" rx="63.12" ry="18"/>
<text text-anchor="middle" x="802" y="-99.8" font-family="Times,serif" font-size="14.00">EmailService</text>
</g>
<!-- EmailService&#45;&gt;AuthModule -->
<g id="edge10" class="edge">
<title>EmailService&#45;&gt;AuthModule</title>
<path fill="none" stroke="black" d="M802,-122.11C802,-122.11 802,-140.99 802,-140.99"/>
<polygon fill="black" stroke="black" points="798.5,-140.99 802,-150.99 805.5,-140.99 798.5,-140.99"/>
</g>
<!-- ExtractKeyValueUtil -->
<g id="node12" class="node">
<title>ExtractKeyValueUtil</title>
<ellipse fill="#fdb462" stroke="black" cx="628" cy="-104" rx="93.17" ry="18"/>
<text text-anchor="middle" x="628" y="-99.8" font-family="Times,serif" font-size="14.00">ExtractKeyValueUtil</text>
</g>
<!-- ExtractKeyValueUtil&#45;&gt;AuthModule -->
<g id="edge11" class="edge">
<title>ExtractKeyValueUtil&#45;&gt;AuthModule</title>
<path fill="none" stroke="black" d="M636.29,-121.94C636.29,-137.32 636.29,-157 636.29,-157 636.29,-157 748.03,-157 748.03,-157"/>
<polygon fill="black" stroke="black" points="748.03,-160.5 758.03,-157 748.03,-153.5 748.03,-160.5"/>
</g>
<!-- JwtStrategy -->
<g id="node13" class="node">
<title>JwtStrategy</title>
<ellipse fill="#fdb462" stroke="black" cx="460" cy="-104" rx="56.76" ry="18"/>
<text text-anchor="middle" x="460" y="-99.8" font-family="Times,serif" font-size="14.00">JwtStrategy</text>
</g>
<!-- JwtStrategy&#45;&gt;AuthModule -->
<g id="edge12" class="edge">
<title>JwtStrategy&#45;&gt;AuthModule</title>
<path fill="none" stroke="black" d="M468.84,-122.03C468.84,-139.06 468.84,-162 468.84,-162 468.84,-162 748.45,-162 748.45,-162"/>
<polygon fill="black" stroke="black" points="748.45,-165.5 758.45,-162 748.45,-158.5 748.45,-165.5"/>
</g>
<!-- LocalStrategy -->
<g id="node14" class="node">
<title>LocalStrategy</title>
<ellipse fill="#fdb462" stroke="black" cx="320" cy="-104" rx="65.41" ry="18"/>
<text text-anchor="middle" x="320" y="-99.8" font-family="Times,serif" font-size="14.00">LocalStrategy</text>
</g>
<!-- LocalStrategy&#45;&gt;AuthModule -->
<g id="edge13" class="edge">
<title>LocalStrategy&#45;&gt;AuthModule</title>
<path fill="none" stroke="black" d="M320,-122.22C320,-140.83 320,-167 320,-167 320,-167 748.38,-167 748.38,-167"/>
<polygon fill="black" stroke="black" points="748.38,-170.5 758.38,-167 748.38,-163.5 748.38,-170.5"/>
</g>
<!-- VerifyNewPasswordUtil -->
<g id="node15" class="node">
<title>VerifyNewPasswordUtil</title>
<ellipse fill="#fdb462" stroke="black" cx="130" cy="-104" rx="106.49" ry="18"/>
<text text-anchor="middle" x="130" y="-99.8" font-family="Times,serif" font-size="14.00">VerifyNewPasswordUtil</text>
</g>
<!-- VerifyNewPasswordUtil&#45;&gt;AuthModule -->
<g id="edge14" class="edge">
<title>VerifyNewPasswordUtil&#45;&gt;AuthModule</title>
<path fill="none" stroke="black" d="M130,-122.22C130,-142.37 130,-172 130,-172 130,-172 748.43,-172 748.43,-172"/>
<polygon fill="black" stroke="black" points="748.43,-175.5 758.43,-172 748.43,-168.5 748.43,-175.5"/>
</g>
</g>
</svg>
