<?xml version="1.0" encoding="UTF-8" standalone="no"?>
<!DOCTYPE svg PUBLIC "-//W3C//DTD SVG 1.1//EN"
 "http://www.w3.org/Graphics/SVG/1.1/DTD/svg11.dtd">
<!-- Generated by graphviz version 2.44.1 (20200629.0846)
 -->
<!-- Title: dependencies Pages: 1 -->
<svg width="1719pt" height="284pt"
 viewBox="0.00 0.00 1719.00 284.00" xmlns="http://www.w3.org/2000/svg" xmlns:xlink="http://www.w3.org/1999/xlink">
<g id="graph0" class="graph" transform="scale(1 1) rotate(0) translate(4 280)">
<title>dependencies</title>
<polygon fill="white" stroke="transparent" points="-4,4 -4,-280 1715,-280 1715,4 -4,4"/>
<text text-anchor="start" x="834.51" y="-42.4" font-family="sans-serif" font-weight="bold" font-size="14.00">Legend</text>
<polygon fill="#ffffb3" stroke="transparent" points="621.5,-10 621.5,-30 641.5,-30 641.5,-10 621.5,-10"/>
<text text-anchor="start" x="645.13" y="-15.4" font-family="sans-serif" font-size="14.00"> &#160;Declarations</text>
<polygon fill="#8dd3c7" stroke="transparent" points="734.5,-10 734.5,-30 754.5,-30 754.5,-10 734.5,-10"/>
<text text-anchor="start" x="758.23" y="-15.4" font-family="sans-serif" font-size="14.00"> &#160;Module</text>
<polygon fill="#80b1d3" stroke="transparent" points="820.5,-10 820.5,-30 840.5,-30 840.5,-10 820.5,-10"/>
<text text-anchor="start" x="844.28" y="-15.4" font-family="sans-serif" font-size="14.00"> &#160;Bootstrap</text>
<polygon fill="#fdb462" stroke="transparent" points="917.5,-10 917.5,-30 937.5,-30 937.5,-10 917.5,-10"/>
<text text-anchor="start" x="941.17" y="-15.4" font-family="sans-serif" font-size="14.00"> &#160;Providers</text>
<polygon fill="#fb8072" stroke="transparent" points="1013.5,-10 1013.5,-30 1033.5,-30 1033.5,-10 1013.5,-10"/>
<text text-anchor="start" x="1037.23" y="-15.4" font-family="sans-serif" font-size="14.00"> &#160;Exports</text>
<g id="clust1" class="cluster">
<title>cluster_AuthModule</title>
<polygon fill="none" stroke="black" stroke-dasharray="1,5" points="8,-70 8,-268 1703,-268 1703,-70 8,-70"/>
</g>
<g id="clust6" class="cluster">
<title>cluster_AuthModule_providers</title>
<polygon fill="none" stroke="black" points="376,-78 376,-130 1695,-130 1695,-78 376,-78"/>
</g>
<g id="clust3" class="cluster">
<title>cluster_AuthModule_imports</title>
<polygon fill="none" stroke="black" points="16,-78 16,-130 368,-130 368,-78 16,-78"/>
</g>
<g id="clust4" class="cluster">
<title>cluster_AuthModule_exports</title>
<polygon fill="none" stroke="black" points="505,-208 505,-260 1079,-260 1079,-208 505,-208"/>
</g>
<!-- AppConfigModule -->
<g id="node1" class="node">
<title>AppConfigModule</title>
<polygon fill="#8dd3c7" stroke="black" points="360.05,-122 357.05,-126 336.05,-126 333.05,-122 237.95,-122 237.95,-86 360.05,-86 360.05,-122"/>
<text text-anchor="middle" x="299" y="-99.8" font-family="Times,serif" font-size="14.00">AppConfigModule</text>
</g>
<!-- AuthModule -->
<g id="node4" class="node">
<title>AuthModule</title>
<polygon fill="#8dd3c7" stroke="black" points="864.55,-187 861.55,-191 840.55,-191 837.55,-187 777.45,-187 777.45,-151 864.55,-151 864.55,-187"/>
<text text-anchor="middle" x="821" y="-164.8" font-family="Times,serif" font-size="14.00">AuthModule</text>
</g>
<!-- AppConfigModule&#45;&gt;AuthModule -->
<g id="edge1" class="edge">
<title>AppConfigModule&#45;&gt;AuthModule</title>
<path fill="none" stroke="black" d="M299,-122.22C299,-140.83 299,-167 299,-167 299,-167 767.39,-167 767.39,-167"/>
<polygon fill="black" stroke="black" points="767.39,-170.5 777.39,-167 767.39,-163.5 767.39,-170.5"/>
</g>
<!-- RedisModule -->
<g id="node2" class="node">
<title>RedisModule</title>
<polygon fill="#8dd3c7" stroke="black" points="219.94,-122 216.94,-126 195.94,-126 192.94,-122 128.06,-122 128.06,-86 219.94,-86 219.94,-122"/>
<text text-anchor="middle" x="174" y="-99.8" font-family="Times,serif" font-size="14.00">RedisModule</text>
</g>
<!-- RedisModule&#45;&gt;AuthModule -->
<g id="edge2" class="edge">
<title>RedisModule&#45;&gt;AuthModule</title>
<path fill="none" stroke="black" d="M174,-122.22C174,-142.37 174,-172 174,-172 174,-172 767.29,-172 767.29,-172"/>
<polygon fill="black" stroke="black" points="767.29,-175.5 777.29,-172 767.29,-168.5 767.29,-175.5"/>
</g>
<!-- UserModule -->
<g id="node3" class="node">
<title>UserModule</title>
<polygon fill="#8dd3c7" stroke="black" points="109.98,-122 106.98,-126 85.98,-126 82.98,-122 24.02,-122 24.02,-86 109.98,-86 109.98,-122"/>
<text text-anchor="middle" x="67" y="-99.8" font-family="Times,serif" font-size="14.00">UserModule</text>
</g>
<!-- UserModule&#45;&gt;AuthModule -->
<g id="edge3" class="edge">
<title>UserModule&#45;&gt;AuthModule</title>
<path fill="none" stroke="black" d="M67,-122.04C67,-143.66 67,-177 67,-177 67,-177 767.2,-177 767.2,-177"/>
<polygon fill="black" stroke="black" points="767.2,-180.5 777.2,-177 767.2,-173.5 767.2,-180.5"/>
</g>
<!-- AuthService  -->
<g id="node5" class="node">
<title>AuthService </title>
<polygon fill="#fb8072" stroke="black" points="1070.98,-252 981.02,-252 981.02,-216 1070.98,-216 1070.98,-252"/>
<text text-anchor="middle" x="1026" y="-229.8" font-family="Times,serif" font-size="14.00">AuthService </text>
</g>
<!-- AuthModule&#45;&gt;AuthService  -->
<g id="edge4" class="edge">
<title>AuthModule&#45;&gt;AuthService </title>
<path fill="none" stroke="black" stroke-dasharray="5,2" d="M864.65,-182C917.48,-182 999.45,-182 999.45,-182 999.45,-182 999.45,-205.81 999.45,-205.81"/>
<polygon fill="black" stroke="black" points="995.95,-205.81 999.45,-215.81 1002.95,-205.81 995.95,-205.81"/>
</g>
<!-- ExtractKeyValueUtil  -->
<g id="node6" class="node">
<title>ExtractKeyValueUtil </title>
<polygon fill="#fb8072" stroke="black" points="963.45,-252 824.55,-252 824.55,-216 963.45,-216 963.45,-252"/>
<text text-anchor="middle" x="894" y="-229.8" font-family="Times,serif" font-size="14.00">ExtractKeyValueUtil </text>
</g>
<!-- AuthModule&#45;&gt;ExtractKeyValueUtil  -->
<g id="edge5" class="edge">
<title>AuthModule&#45;&gt;ExtractKeyValueUtil </title>
<path fill="none" stroke="black" stroke-dasharray="5,2" d="M844.77,-187.11C844.77,-187.11 844.77,-205.99 844.77,-205.99"/>
<polygon fill="black" stroke="black" points="841.27,-205.99 844.77,-215.99 848.27,-205.99 841.27,-205.99"/>
</g>
<!-- LoggedOutGuard  -->
<g id="node7" class="node">
<title>LoggedOutGuard </title>
<polygon fill="#fb8072" stroke="black" points="807.25,-252 688.75,-252 688.75,-216 807.25,-216 807.25,-252"/>
<text text-anchor="middle" x="748" y="-229.8" font-family="Times,serif" font-size="14.00">LoggedOutGuard </text>
</g>
<!-- AuthModule&#45;&gt;LoggedOutGuard  -->
<g id="edge6" class="edge">
<title>AuthModule&#45;&gt;LoggedOutGuard </title>
<path fill="none" stroke="black" stroke-dasharray="5,2" d="M792.17,-187.11C792.17,-187.11 792.17,-205.99 792.17,-205.99"/>
<polygon fill="black" stroke="black" points="788.67,-205.99 792.17,-215.99 795.67,-205.99 788.67,-205.99"/>
</g>
<!-- VerifyNewPasswordUtil  -->
<g id="node8" class="node">
<title>VerifyNewPasswordUtil </title>
<polygon fill="#fb8072" stroke="black" points="670.89,-252 513.11,-252 513.11,-216 670.89,-216 670.89,-252"/>
<text text-anchor="middle" x="592" y="-229.8" font-family="Times,serif" font-size="14.00">VerifyNewPasswordUtil </text>
</g>
<!-- AuthModule&#45;&gt;VerifyNewPasswordUtil  -->
<g id="edge7" class="edge">
<title>AuthModule&#45;&gt;VerifyNewPasswordUtil </title>
<path fill="none" stroke="black" stroke-dasharray="5,2" d="M777.33,-182C724.48,-182 642.48,-182 642.48,-182 642.48,-182 642.48,-205.81 642.48,-205.81"/>
<polygon fill="black" stroke="black" points="638.98,-205.81 642.48,-215.81 645.98,-205.81 638.98,-205.81"/>
</g>
<!-- AppConfigService -->
<g id="node9" class="node">
<title>AppConfigService</title>
<ellipse fill="#fdb462" stroke="black" cx="1604" cy="-104" rx="83.39" ry="18"/>
<text text-anchor="middle" x="1604" y="-99.8" font-family="Times,serif" font-size="14.00">AppConfigService</text>
</g>
<!-- AppConfigService&#45;&gt;AuthModule -->
<g id="edge8" class="edge">
<title>AppConfigService&#45;&gt;AuthModule</title>
<path fill="none" stroke="black" d="M1604,-122.04C1604,-143.66 1604,-177 1604,-177 1604,-177 874.78,-177 874.78,-177"/>
<polygon fill="black" stroke="black" points="874.78,-173.5 864.78,-177 874.78,-180.5 874.78,-173.5"/>
</g>
<!-- AuthService -->
<g id="node10" class="node">
<title>AuthService</title>
<ellipse fill="#fdb462" stroke="black" cx="1443" cy="-104" rx="59.11" ry="18"/>
<text text-anchor="middle" x="1443" y="-99.8" font-family="Times,serif" font-size="14.00">AuthService</text>
</g>
<!-- AuthService&#45;&gt;AuthModule -->
<g id="edge9" class="edge">
<title>AuthService&#45;&gt;AuthModule</title>
<path fill="none" stroke="black" d="M1443,-122.22C1443,-142.37 1443,-172 1443,-172 1443,-172 874.74,-172 874.74,-172"/>
<polygon fill="black" stroke="black" points="874.74,-168.5 864.74,-172 874.74,-175.5 874.74,-168.5"/>
</g>
<!-- EmailService -->
<g id="node11" class="node">
<title>EmailService</title>
<ellipse fill="#fdb462" stroke="black" cx="1303" cy="-104" rx="63.12" ry="18"/>
<text text-anchor="middle" x="1303" y="-99.8" font-family="Times,serif" font-size="14.00">EmailService</text>
</g>
<!-- EmailService&#45;&gt;AuthModule -->
<g id="edge10" class="edge">
<title>EmailService&#45;&gt;AuthModule</title>
<path fill="none" stroke="black" d="M1303,-122.22C1303,-140.83 1303,-167 1303,-167 1303,-167 874.62,-167 874.62,-167"/>
<polygon fill="black" stroke="black" points="874.62,-163.5 864.62,-167 874.62,-170.5 874.62,-163.5"/>
</g>
<!-- ExtractKeyValueUtil -->
<g id="node12" class="node">
<title>ExtractKeyValueUtil</title>
<ellipse fill="#fdb462" stroke="black" cx="1129" cy="-104" rx="93.17" ry="18"/>
<text text-anchor="middle" x="1129" y="-99.8" font-family="Times,serif" font-size="14.00">ExtractKeyValueUtil</text>
</g>
<!-- ExtractKeyValueUtil&#45;&gt;AuthModule -->
<g id="edge11" class="edge">
<title>ExtractKeyValueUtil&#45;&gt;AuthModule</title>
<path fill="none" stroke="black" d="M1053.33,-114.64C1053.33,-131.38 1053.33,-162 1053.33,-162 1053.33,-162 874.7,-162 874.7,-162"/>
<polygon fill="black" stroke="black" points="874.7,-158.5 864.7,-162 874.7,-165.5 874.7,-158.5"/>
</g>
<!-- JwtStrategy -->
<g id="node13" class="node">
<title>JwtStrategy</title>
<ellipse fill="#fdb462" stroke="black" cx="961" cy="-104" rx="56.76" ry="18"/>
<text text-anchor="middle" x="961" y="-99.8" font-family="Times,serif" font-size="14.00">JwtStrategy</text>
</g>
<!-- JwtStrategy&#45;&gt;AuthModule -->
<g id="edge12" class="edge">
<title>JwtStrategy&#45;&gt;AuthModule</title>
<path fill="none" stroke="black" d="M933.8,-119.9C933.8,-135.51 933.8,-157 933.8,-157 933.8,-157 874.61,-157 874.61,-157"/>
<polygon fill="black" stroke="black" points="874.61,-153.5 864.61,-157 874.61,-160.5 874.61,-153.5"/>
</g>
<!-- LocalStrategy -->
<g id="node14" class="node">
<title>LocalStrategy</title>
<ellipse fill="#fdb462" stroke="black" cx="821" cy="-104" rx="65.41" ry="18"/>
<text text-anchor="middle" x="821" y="-99.8" font-family="Times,serif" font-size="14.00">LocalStrategy</text>
</g>
<!-- LocalStrategy&#45;&gt;AuthModule -->
<g id="edge13" class="edge">
<title>LocalStrategy&#45;&gt;AuthModule</title>
<path fill="none" stroke="black" d="M821,-122.11C821,-122.11 821,-140.99 821,-140.99"/>
<polygon fill="black" stroke="black" points="817.5,-140.99 821,-150.99 824.5,-140.99 817.5,-140.99"/>
</g>
<!-- RedisService -->
<g id="node15" class="node">
<title>RedisService</title>
<ellipse fill="#fdb462" stroke="black" cx="676" cy="-104" rx="61.97" ry="18"/>
<text text-anchor="middle" x="676" y="-99.8" font-family="Times,serif" font-size="14.00">RedisService</text>
</g>
<!-- RedisService&#45;&gt;AuthModule -->
<g id="edge14" class="edge">
<title>RedisService&#45;&gt;AuthModule</title>
<path fill="none" stroke="black" d="M713.43,-118.48C713.43,-134.17 713.43,-157 713.43,-157 713.43,-157 767.25,-157 767.25,-157"/>
<polygon fill="black" stroke="black" points="767.25,-160.5 777.25,-157 767.25,-153.5 767.25,-160.5"/>
</g>
<!-- VerifyNewPasswordUtil -->
<g id="node16" class="node">
<title>VerifyNewPasswordUtil</title>
<ellipse fill="#fdb462" stroke="black" cx="490" cy="-104" rx="106.49" ry="18"/>
<text text-anchor="middle" x="490" y="-99.8" font-family="Times,serif" font-size="14.00">VerifyNewPasswordUtil</text>
</g>
<!-- VerifyNewPasswordUtil&#45;&gt;AuthModule -->
<g id="edge15" class="edge">
<title>VerifyNewPasswordUtil&#45;&gt;AuthModule</title>
<path fill="none" stroke="black" d="M554.78,-118.34C554.78,-135.51 554.78,-162 554.78,-162 554.78,-162 767.34,-162 767.34,-162"/>
<polygon fill="black" stroke="black" points="767.34,-165.5 777.34,-162 767.34,-158.5 767.34,-165.5"/>
</g>
</g>
</svg>
