<?xml version="1.0" encoding="UTF-8" standalone="no"?>
<!DOCTYPE svg PUBLIC "-//W3C//DTD SVG 1.1//EN"
 "http://www.w3.org/Graphics/SVG/1.1/DTD/svg11.dtd">
<!-- Generated by graphviz version 2.44.1 (20200629.0846)
 -->
<!-- Title: dependencies Pages: 1 -->
<svg width="1468pt" height="284pt"
 viewBox="0.00 0.00 1468.00 284.00" xmlns="http://www.w3.org/2000/svg" xmlns:xlink="http://www.w3.org/1999/xlink">
<g id="graph0" class="graph" transform="scale(1 1) rotate(0) translate(4 280)">
<title>dependencies</title>
<polygon fill="white" stroke="transparent" points="-4,4 -4,-280 1464,-280 1464,4 -4,4"/>
<text text-anchor="start" x="709.01" y="-42.4" font-family="sans-serif" font-weight="bold" font-size="14.00">Legend</text>
<polygon fill="#ffffb3" stroke="transparent" points="496,-10 496,-30 516,-30 516,-10 496,-10"/>
<text text-anchor="start" x="519.63" y="-15.4" font-family="sans-serif" font-size="14.00"> &#160;Declarations</text>
<polygon fill="#8dd3c7" stroke="transparent" points="609,-10 609,-30 629,-30 629,-10 609,-10"/>
<text text-anchor="start" x="632.73" y="-15.4" font-family="sans-serif" font-size="14.00"> &#160;Module</text>
<polygon fill="#80b1d3" stroke="transparent" points="695,-10 695,-30 715,-30 715,-10 695,-10"/>
<text text-anchor="start" x="718.78" y="-15.4" font-family="sans-serif" font-size="14.00"> &#160;Bootstrap</text>
<polygon fill="#fdb462" stroke="transparent" points="792,-10 792,-30 812,-30 812,-10 792,-10"/>
<text text-anchor="start" x="815.67" y="-15.4" font-family="sans-serif" font-size="14.00"> &#160;Providers</text>
<polygon fill="#fb8072" stroke="transparent" points="888,-10 888,-30 908,-30 908,-10 888,-10"/>
<text text-anchor="start" x="911.73" y="-15.4" font-family="sans-serif" font-size="14.00"> &#160;Exports</text>
<g id="clust1" class="cluster">
<title>cluster_AuthModule</title>
<polygon fill="none" stroke="black" stroke-dasharray="1,5" points="8,-70 8,-268 1452,-268 1452,-70 8,-70"/>
</g>
<g id="clust4" class="cluster">
<title>cluster_AuthModule_exports</title>
<polygon fill="none" stroke="black" points="321,-208 321,-260 1008,-260 1008,-208 321,-208"/>
</g>
<g id="clust6" class="cluster">
<title>cluster_AuthModule_providers</title>
<polygon fill="none" stroke="black" points="266,-78 266,-130 1444,-130 1444,-78 266,-78"/>
</g>
<g id="clust3" class="cluster">
<title>cluster_AuthModule_imports</title>
<polygon fill="none" stroke="black" points="16,-78 16,-130 258,-130 258,-78 16,-78"/>
</g>
<!-- AppConfigModule -->
<g id="node1" class="node">
<title>AppConfigModule</title>
<polygon fill="#8dd3c7" stroke="black" points="250.05,-122 247.05,-126 226.05,-126 223.05,-122 127.95,-122 127.95,-86 250.05,-86 250.05,-122"/>
<text text-anchor="middle" x="189" y="-99.8" font-family="Times,serif" font-size="14.00">AppConfigModule</text>
</g>
<!-- AuthModule -->
<g id="node3" class="node">
<title>AuthModule</title>
<polygon fill="#8dd3c7" stroke="black" points="753.55,-187 750.55,-191 729.55,-191 726.55,-187 666.45,-187 666.45,-151 753.55,-151 753.55,-187"/>
<text text-anchor="middle" x="710" y="-164.8" font-family="Times,serif" font-size="14.00">AuthModule</text>
</g>
<!-- AppConfigModule&#45;&gt;AuthModule -->
<g id="edge1" class="edge">
<title>AppConfigModule&#45;&gt;AuthModule</title>
<path fill="none" stroke="black" d="M189,-122.22C189,-140.83 189,-167 189,-167 189,-167 656.03,-167 656.03,-167"/>
<polygon fill="black" stroke="black" points="656.03,-170.5 666.03,-167 656.03,-163.5 656.03,-170.5"/>
</g>
<!-- UserModule -->
<g id="node2" class="node">
<title>UserModule</title>
<polygon fill="#8dd3c7" stroke="black" points="109.98,-122 106.98,-126 85.98,-126 82.98,-122 24.02,-122 24.02,-86 109.98,-86 109.98,-122"/>
<text text-anchor="middle" x="67" y="-99.8" font-family="Times,serif" font-size="14.00">UserModule</text>
</g>
<!-- UserModule&#45;&gt;AuthModule -->
<g id="edge2" class="edge">
<title>UserModule&#45;&gt;AuthModule</title>
<path fill="none" stroke="black" d="M67,-122.22C67,-142.37 67,-172 67,-172 67,-172 656.31,-172 656.31,-172"/>
<polygon fill="black" stroke="black" points="656.31,-175.5 666.31,-172 656.31,-168.5 656.31,-175.5"/>
</g>
<!-- AuthService  -->
<g id="node4" class="node">
<title>AuthService </title>
<polygon fill="#fb8072" stroke="black" points="999.98,-252 910.02,-252 910.02,-216 999.98,-216 999.98,-252"/>
<text text-anchor="middle" x="955" y="-229.8" font-family="Times,serif" font-size="14.00">AuthService </text>
</g>
<!-- AuthModule&#45;&gt;AuthService  -->
<g id="edge3" class="edge">
<title>AuthModule&#45;&gt;AuthService </title>
<path fill="none" stroke="black" stroke-dasharray="5,2" d="M753.66,-177C820.53,-177 940.67,-177 940.67,-177 940.67,-177 940.67,-205.96 940.67,-205.96"/>
<polygon fill="black" stroke="black" points="937.17,-205.96 940.67,-215.96 944.17,-205.96 937.17,-205.96"/>
</g>
<!-- EmailService  -->
<g id="node5" class="node">
<title>EmailService </title>
<polygon fill="#fb8072" stroke="black" points="892.42,-252 797.58,-252 797.58,-216 892.42,-216 892.42,-252"/>
<text text-anchor="middle" x="845" y="-229.8" font-family="Times,serif" font-size="14.00">EmailService </text>
</g>
<!-- AuthModule&#45;&gt;EmailService  -->
<g id="edge4" class="edge">
<title>AuthModule&#45;&gt;EmailService </title>
<path fill="none" stroke="black" stroke-dasharray="5,2" d="M753.83,-182C793.25,-182 845,-182 845,-182 845,-182 845,-205.81 845,-205.81"/>
<polygon fill="black" stroke="black" points="841.5,-205.81 845,-215.81 848.5,-205.81 841.5,-205.81"/>
</g>
<!-- ExtractKeyValueUtil  -->
<g id="node6" class="node">
<title>ExtractKeyValueUtil </title>
<polygon fill="#fb8072" stroke="black" points="779.45,-252 640.55,-252 640.55,-216 779.45,-216 779.45,-252"/>
<text text-anchor="middle" x="710" y="-229.8" font-family="Times,serif" font-size="14.00">ExtractKeyValueUtil </text>
</g>
<!-- AuthModule&#45;&gt;ExtractKeyValueUtil  -->
<g id="edge5" class="edge">
<title>AuthModule&#45;&gt;ExtractKeyValueUtil </title>
<path fill="none" stroke="black" stroke-dasharray="5,2" d="M710,-187.11C710,-187.11 710,-205.99 710,-205.99"/>
<polygon fill="black" stroke="black" points="706.5,-205.99 710,-215.99 713.5,-205.99 706.5,-205.99"/>
</g>
<!-- LoggedOutGaurd  -->
<g id="node7" class="node">
<title>LoggedOutGaurd </title>
<polygon fill="#fb8072" stroke="black" points="623.25,-252 504.75,-252 504.75,-216 623.25,-216 623.25,-252"/>
<text text-anchor="middle" x="564" y="-229.8" font-family="Times,serif" font-size="14.00">LoggedOutGaurd </text>
</g>
<!-- AuthModule&#45;&gt;LoggedOutGaurd  -->
<g id="edge6" class="edge">
<title>AuthModule&#45;&gt;LoggedOutGaurd </title>
<path fill="none" stroke="black" stroke-dasharray="5,2" d="M666.2,-182C623.19,-182 564,-182 564,-182 564,-182 564,-205.81 564,-205.81"/>
<polygon fill="black" stroke="black" points="560.5,-205.81 564,-215.81 567.5,-205.81 560.5,-205.81"/>
</g>
<!-- VerifyNewPasswordUtil  -->
<g id="node8" class="node">
<title>VerifyNewPasswordUtil </title>
<polygon fill="#fb8072" stroke="black" points="486.89,-252 329.11,-252 329.11,-216 486.89,-216 486.89,-252"/>
<text text-anchor="middle" x="408" y="-229.8" font-family="Times,serif" font-size="14.00">VerifyNewPasswordUtil </text>
</g>
<!-- AuthModule&#45;&gt;VerifyNewPasswordUtil  -->
<g id="edge7" class="edge">
<title>AuthModule&#45;&gt;VerifyNewPasswordUtil </title>
<path fill="none" stroke="black" stroke-dasharray="5,2" d="M666.27,-177C588.45,-177 434.02,-177 434.02,-177 434.02,-177 434.02,-205.96 434.02,-205.96"/>
<polygon fill="black" stroke="black" points="430.52,-205.96 434.02,-215.96 437.52,-205.96 430.52,-205.96"/>
</g>
<!-- AppConfigService -->
<g id="node9" class="node">
<title>AppConfigService</title>
<ellipse fill="#fdb462" stroke="black" cx="1353" cy="-104" rx="83.39" ry="18"/>
<text text-anchor="middle" x="1353" y="-99.8" font-family="Times,serif" font-size="14.00">AppConfigService</text>
</g>
<!-- AppConfigService&#45;&gt;AuthModule -->
<g id="edge8" class="edge">
<title>AppConfigService&#45;&gt;AuthModule</title>
<path fill="none" stroke="black" d="M1353,-122.22C1353,-142.37 1353,-172 1353,-172 1353,-172 763.69,-172 763.69,-172"/>
<polygon fill="black" stroke="black" points="763.69,-168.5 753.69,-172 763.69,-175.5 763.69,-168.5"/>
</g>
<!-- AuthService -->
<g id="node10" class="node">
<title>AuthService</title>
<ellipse fill="#fdb462" stroke="black" cx="1192" cy="-104" rx="59.11" ry="18"/>
<text text-anchor="middle" x="1192" y="-99.8" font-family="Times,serif" font-size="14.00">AuthService</text>
</g>
<!-- AuthService&#45;&gt;AuthModule -->
<g id="edge9" class="edge">
<title>AuthService&#45;&gt;AuthModule</title>
<path fill="none" stroke="black" d="M1192,-122.22C1192,-140.83 1192,-167 1192,-167 1192,-167 763.62,-167 763.62,-167"/>
<polygon fill="black" stroke="black" points="763.62,-163.5 753.62,-167 763.62,-170.5 763.62,-163.5"/>
</g>
<!-- EmailService -->
<g id="node11" class="node">
<title>EmailService</title>
<ellipse fill="#fdb462" stroke="black" cx="1052" cy="-104" rx="63.12" ry="18"/>
<text text-anchor="middle" x="1052" y="-99.8" font-family="Times,serif" font-size="14.00">EmailService</text>
</g>
<!-- EmailService&#45;&gt;AuthModule -->
<g id="edge10" class="edge">
<title>EmailService&#45;&gt;AuthModule</title>
<path fill="none" stroke="black" d="M994.34,-111.58C994.34,-127.3 994.34,-162 994.34,-162 994.34,-162 763.8,-162 763.8,-162"/>
<polygon fill="black" stroke="black" points="763.81,-158.5 753.8,-162 763.8,-165.5 763.81,-158.5"/>
</g>
<!-- ExtractKeyValueUtil -->
<g id="node12" class="node">
<title>ExtractKeyValueUtil</title>
<ellipse fill="#fdb462" stroke="black" cx="878" cy="-104" rx="93.17" ry="18"/>
<text text-anchor="middle" x="878" y="-99.8" font-family="Times,serif" font-size="14.00">ExtractKeyValueUtil</text>
</g>
<!-- ExtractKeyValueUtil&#45;&gt;AuthModule -->
<g id="edge11" class="edge">
<title>ExtractKeyValueUtil&#45;&gt;AuthModule</title>
<path fill="none" stroke="black" d="M791.23,-110.93C791.23,-125.3 791.23,-157 791.23,-157 791.23,-157 763.94,-157 763.94,-157"/>
<polygon fill="black" stroke="black" points="763.94,-153.5 753.94,-157 763.94,-160.5 763.94,-153.5"/>
</g>
<!-- JwtStrategy -->
<g id="node13" class="node">
<title>JwtStrategy</title>
<ellipse fill="#fdb462" stroke="black" cx="710" cy="-104" rx="56.76" ry="18"/>
<text text-anchor="middle" x="710" y="-99.8" font-family="Times,serif" font-size="14.00">JwtStrategy</text>
</g>
<!-- JwtStrategy&#45;&gt;AuthModule -->
<g id="edge12" class="edge">
<title>JwtStrategy&#45;&gt;AuthModule</title>
<path fill="none" stroke="black" d="M710,-122.11C710,-122.11 710,-140.99 710,-140.99"/>
<polygon fill="black" stroke="black" points="706.5,-140.99 710,-150.99 713.5,-140.99 706.5,-140.99"/>
</g>
<!-- LocalStrategy -->
<g id="node14" class="node">
<title>LocalStrategy</title>
<ellipse fill="#fdb462" stroke="black" cx="570" cy="-104" rx="65.41" ry="18"/>
<text text-anchor="middle" x="570" y="-99.8" font-family="Times,serif" font-size="14.00">LocalStrategy</text>
</g>
<!-- LocalStrategy&#45;&gt;AuthModule -->
<g id="edge13" class="edge">
<title>LocalStrategy&#45;&gt;AuthModule</title>
<path fill="none" stroke="black" d="M629.16,-111.82C629.16,-126.56 629.16,-157 629.16,-157 629.16,-157 656.27,-157 656.27,-157"/>
<polygon fill="black" stroke="black" points="656.27,-160.5 666.27,-157 656.27,-153.5 656.27,-160.5"/>
</g>
<!-- VerifyNewPasswordUtil -->
<g id="node15" class="node">
<title>VerifyNewPasswordUtil</title>
<ellipse fill="#fdb462" stroke="black" cx="380" cy="-104" rx="106.49" ry="18"/>
<text text-anchor="middle" x="380" y="-99.8" font-family="Times,serif" font-size="14.00">VerifyNewPasswordUtil</text>
</g>
<!-- VerifyNewPasswordUtil&#45;&gt;AuthModule -->
<g id="edge14" class="edge">
<title>VerifyNewPasswordUtil&#45;&gt;AuthModule</title>
<path fill="none" stroke="black" d="M381.53,-122.03C381.53,-139.06 381.53,-162 381.53,-162 381.53,-162 656.38,-162 656.38,-162"/>
<polygon fill="black" stroke="black" points="656.38,-165.5 666.38,-162 656.38,-158.5 656.38,-165.5"/>
</g>
</g>
</svg>
