<?xml version="1.0" encoding="UTF-8" standalone="no"?>
<!DOCTYPE svg PUBLIC "-//W3C//DTD SVG 1.1//EN"
 "http://www.w3.org/Graphics/SVG/1.1/DTD/svg11.dtd">
<!-- Generated by graphviz version 2.44.1 (20200629.0846)
 -->
<!-- Title: dependencies Pages: 1 -->
<svg width="1630pt" height="284pt"
 viewBox="0.00 0.00 1630.00 284.00" xmlns="http://www.w3.org/2000/svg" xmlns:xlink="http://www.w3.org/1999/xlink">
<g id="graph0" class="graph" transform="scale(1 1) rotate(0) translate(4 280)">
<title>dependencies</title>
<polygon fill="white" stroke="transparent" points="-4,4 -4,-280 1626,-280 1626,4 -4,4"/>
<text text-anchor="start" x="790.01" y="-42.4" font-family="sans-serif" font-weight="bold" font-size="14.00">Legend</text>
<polygon fill="#ffffb3" stroke="transparent" points="577,-10 577,-30 597,-30 597,-10 577,-10"/>
<text text-anchor="start" x="600.63" y="-15.4" font-family="sans-serif" font-size="14.00"> &#160;Declarations</text>
<polygon fill="#8dd3c7" stroke="transparent" points="690,-10 690,-30 710,-30 710,-10 690,-10"/>
<text text-anchor="start" x="713.73" y="-15.4" font-family="sans-serif" font-size="14.00"> &#160;Module</text>
<polygon fill="#80b1d3" stroke="transparent" points="776,-10 776,-30 796,-30 796,-10 776,-10"/>
<text text-anchor="start" x="799.78" y="-15.4" font-family="sans-serif" font-size="14.00"> &#160;Bootstrap</text>
<polygon fill="#fdb462" stroke="transparent" points="873,-10 873,-30 893,-30 893,-10 873,-10"/>
<text text-anchor="start" x="896.67" y="-15.4" font-family="sans-serif" font-size="14.00"> &#160;Providers</text>
<polygon fill="#fb8072" stroke="transparent" points="969,-10 969,-30 989,-30 989,-10 969,-10"/>
<text text-anchor="start" x="992.73" y="-15.4" font-family="sans-serif" font-size="14.00"> &#160;Exports</text>
<g id="clust1" class="cluster">
<title>cluster_AuthModule</title>
<polygon fill="none" stroke="black" stroke-dasharray="1,5" points="8,-70 8,-268 1614,-268 1614,-70 8,-70"/>
</g>
<g id="clust6" class="cluster">
<title>cluster_AuthModule_providers</title>
<polygon fill="none" stroke="black" points="266,-78 266,-130 1606,-130 1606,-78 266,-78"/>
</g>
<g id="clust3" class="cluster">
<title>cluster_AuthModule_imports</title>
<polygon fill="none" stroke="black" points="16,-78 16,-130 258,-130 258,-78 16,-78"/>
</g>
<g id="clust4" class="cluster">
<title>cluster_AuthModule_exports</title>
<polygon fill="none" stroke="black" points="394,-208 394,-260 1081,-260 1081,-208 394,-208"/>
</g>
<!-- AppConfigModule -->
<g id="node1" class="node">
<title>AppConfigModule</title>
<polygon fill="#8dd3c7" stroke="black" points="250.05,-122 247.05,-126 226.05,-126 223.05,-122 127.95,-122 127.95,-86 250.05,-86 250.05,-122"/>
<text text-anchor="middle" x="189" y="-99.8" font-family="Times,serif" font-size="14.00">AppConfigModule</text>
</g>
<!-- AuthModule -->
<g id="node3" class="node">
<title>AuthModule</title>
<polygon fill="#8dd3c7" stroke="black" points="826.55,-187 823.55,-191 802.55,-191 799.55,-187 739.45,-187 739.45,-151 826.55,-151 826.55,-187"/>
<text text-anchor="middle" x="783" y="-164.8" font-family="Times,serif" font-size="14.00">AuthModule</text>
</g>
<!-- AppConfigModule&#45;&gt;AuthModule -->
<g id="edge1" class="edge">
<title>AppConfigModule&#45;&gt;AuthModule</title>
<path fill="none" stroke="black" d="M189,-122.22C189,-140.83 189,-167 189,-167 189,-167 729.32,-167 729.32,-167"/>
<polygon fill="black" stroke="black" points="729.32,-170.5 739.32,-167 729.32,-163.5 729.32,-170.5"/>
</g>
<!-- UserModule -->
<g id="node2" class="node">
<title>UserModule</title>
<polygon fill="#8dd3c7" stroke="black" points="109.98,-122 106.98,-126 85.98,-126 82.98,-122 24.02,-122 24.02,-86 109.98,-86 109.98,-122"/>
<text text-anchor="middle" x="67" y="-99.8" font-family="Times,serif" font-size="14.00">UserModule</text>
</g>
<!-- UserModule&#45;&gt;AuthModule -->
<g id="edge2" class="edge">
<title>UserModule&#45;&gt;AuthModule</title>
<path fill="none" stroke="black" d="M67,-122.22C67,-142.37 67,-172 67,-172 67,-172 729.29,-172 729.29,-172"/>
<polygon fill="black" stroke="black" points="729.29,-175.5 739.29,-172 729.29,-168.5 729.29,-175.5"/>
</g>
<!-- AuthService  -->
<g id="node4" class="node">
<title>AuthService </title>
<polygon fill="#fb8072" stroke="black" points="1072.98,-252 983.02,-252 983.02,-216 1072.98,-216 1072.98,-252"/>
<text text-anchor="middle" x="1028" y="-229.8" font-family="Times,serif" font-size="14.00">AuthService </text>
</g>
<!-- AuthModule&#45;&gt;AuthService  -->
<g id="edge3" class="edge">
<title>AuthModule&#45;&gt;AuthService </title>
<path fill="none" stroke="black" stroke-dasharray="5,2" d="M826.8,-177C897.27,-177 1028,-177 1028,-177 1028,-177 1028,-205.96 1028,-205.96"/>
<polygon fill="black" stroke="black" points="1024.5,-205.96 1028,-215.96 1031.5,-205.96 1024.5,-205.96"/>
</g>
<!-- EmailService  -->
<g id="node5" class="node">
<title>EmailService </title>
<polygon fill="#fb8072" stroke="black" points="965.42,-252 870.58,-252 870.58,-216 965.42,-216 965.42,-252"/>
<text text-anchor="middle" x="918" y="-229.8" font-family="Times,serif" font-size="14.00">EmailService </text>
</g>
<!-- AuthModule&#45;&gt;EmailService  -->
<g id="edge4" class="edge">
<title>AuthModule&#45;&gt;EmailService </title>
<path fill="none" stroke="black" stroke-dasharray="5,2" d="M826.85,-182C860,-182 899.86,-182 899.86,-182 899.86,-182 899.86,-205.81 899.86,-205.81"/>
<polygon fill="black" stroke="black" points="896.36,-205.81 899.86,-215.81 903.36,-205.81 896.36,-205.81"/>
</g>
<!-- ExtractKeyValueUtil  -->
<g id="node6" class="node">
<title>ExtractKeyValueUtil </title>
<polygon fill="#fb8072" stroke="black" points="852.45,-252 713.55,-252 713.55,-216 852.45,-216 852.45,-252"/>
<text text-anchor="middle" x="783" y="-229.8" font-family="Times,serif" font-size="14.00">ExtractKeyValueUtil </text>
</g>
<!-- AuthModule&#45;&gt;ExtractKeyValueUtil  -->
<g id="edge5" class="edge">
<title>AuthModule&#45;&gt;ExtractKeyValueUtil </title>
<path fill="none" stroke="black" stroke-dasharray="5,2" d="M783,-187.11C783,-187.11 783,-205.99 783,-205.99"/>
<polygon fill="black" stroke="black" points="779.5,-205.99 783,-215.99 786.5,-205.99 779.5,-205.99"/>
</g>
<!-- LoggedOutGaurd  -->
<g id="node7" class="node">
<title>LoggedOutGaurd </title>
<polygon fill="#fb8072" stroke="black" points="696.25,-252 577.75,-252 577.75,-216 696.25,-216 696.25,-252"/>
<text text-anchor="middle" x="637" y="-229.8" font-family="Times,serif" font-size="14.00">LoggedOutGaurd </text>
</g>
<!-- AuthModule&#45;&gt;LoggedOutGaurd  -->
<g id="edge6" class="edge">
<title>AuthModule&#45;&gt;LoggedOutGaurd </title>
<path fill="none" stroke="black" stroke-dasharray="5,2" d="M739.28,-182C709.24,-182 674.75,-182 674.75,-182 674.75,-182 674.75,-205.81 674.75,-205.81"/>
<polygon fill="black" stroke="black" points="671.25,-205.81 674.75,-215.81 678.25,-205.81 671.25,-205.81"/>
</g>
<!-- VerifyNewPasswordUtil  -->
<g id="node8" class="node">
<title>VerifyNewPasswordUtil </title>
<polygon fill="#fb8072" stroke="black" points="559.89,-252 402.11,-252 402.11,-216 559.89,-216 559.89,-252"/>
<text text-anchor="middle" x="481" y="-229.8" font-family="Times,serif" font-size="14.00">VerifyNewPasswordUtil </text>
</g>
<!-- AuthModule&#45;&gt;VerifyNewPasswordUtil  -->
<g id="edge7" class="edge">
<title>AuthModule&#45;&gt;VerifyNewPasswordUtil </title>
<path fill="none" stroke="black" stroke-dasharray="5,2" d="M739.34,-177C667.54,-177 532.37,-177 532.37,-177 532.37,-177 532.37,-205.96 532.37,-205.96"/>
<polygon fill="black" stroke="black" points="528.87,-205.96 532.37,-215.96 535.87,-205.96 528.87,-205.96"/>
</g>
<!-- AppConfigService -->
<g id="node9" class="node">
<title>AppConfigService</title>
<ellipse fill="#fdb462" stroke="black" cx="1515" cy="-104" rx="83.39" ry="18"/>
<text text-anchor="middle" x="1515" y="-99.8" font-family="Times,serif" font-size="14.00">AppConfigService</text>
</g>
<!-- AppConfigService&#45;&gt;AuthModule -->
<g id="edge8" class="edge">
<title>AppConfigService&#45;&gt;AuthModule</title>
<path fill="none" stroke="black" d="M1515,-122.22C1515,-142.37 1515,-172 1515,-172 1515,-172 836.6,-172 836.6,-172"/>
<polygon fill="black" stroke="black" points="836.6,-168.5 826.6,-172 836.6,-175.5 836.6,-168.5"/>
</g>
<!-- AuthService -->
<g id="node10" class="node">
<title>AuthService</title>
<ellipse fill="#fdb462" stroke="black" cx="1354" cy="-104" rx="59.11" ry="18"/>
<text text-anchor="middle" x="1354" y="-99.8" font-family="Times,serif" font-size="14.00">AuthService</text>
</g>
<!-- AuthService&#45;&gt;AuthModule -->
<g id="edge9" class="edge">
<title>AuthService&#45;&gt;AuthModule</title>
<path fill="none" stroke="black" d="M1354,-122.22C1354,-140.83 1354,-167 1354,-167 1354,-167 836.86,-167 836.86,-167"/>
<polygon fill="black" stroke="black" points="836.86,-163.5 826.86,-167 836.86,-170.5 836.86,-163.5"/>
</g>
<!-- EmailService -->
<g id="node11" class="node">
<title>EmailService</title>
<ellipse fill="#fdb462" stroke="black" cx="1214" cy="-104" rx="63.12" ry="18"/>
<text text-anchor="middle" x="1214" y="-99.8" font-family="Times,serif" font-size="14.00">EmailService</text>
</g>
<!-- EmailService&#45;&gt;AuthModule -->
<g id="edge10" class="edge">
<title>EmailService&#45;&gt;AuthModule</title>
<path fill="none" stroke="black" d="M1214,-122.03C1214,-139.06 1214,-162 1214,-162 1214,-162 836.7,-162 836.7,-162"/>
<polygon fill="black" stroke="black" points="836.7,-158.5 826.7,-162 836.7,-165.5 836.7,-158.5"/>
</g>
<!-- ExtractKeyValueUtil -->
<g id="node12" class="node">
<title>ExtractKeyValueUtil</title>
<ellipse fill="#fdb462" stroke="black" cx="1040" cy="-104" rx="93.17" ry="18"/>
<text text-anchor="middle" x="1040" y="-99.8" font-family="Times,serif" font-size="14.00">ExtractKeyValueUtil</text>
</g>
<!-- ExtractKeyValueUtil&#45;&gt;AuthModule -->
<g id="edge11" class="edge">
<title>ExtractKeyValueUtil&#45;&gt;AuthModule</title>
<path fill="none" stroke="black" d="M956.19,-112.28C956.19,-127.19 956.19,-157 956.19,-157 956.19,-157 836.7,-157 836.7,-157"/>
<polygon fill="black" stroke="black" points="836.7,-153.5 826.7,-157 836.7,-160.5 836.7,-153.5"/>
</g>
<!-- ExtractUserUtil -->
<g id="node13" class="node">
<title>ExtractUserUtil</title>
<ellipse fill="#fdb462" stroke="black" cx="857" cy="-104" rx="72.34" ry="18"/>
<text text-anchor="middle" x="857" y="-99.8" font-family="Times,serif" font-size="14.00">ExtractUserUtil</text>
</g>
<!-- ExtractUserUtil&#45;&gt;AuthModule -->
<g id="edge12" class="edge">
<title>ExtractUserUtil&#45;&gt;AuthModule</title>
<path fill="none" stroke="black" d="M805.8,-116.84C805.8,-116.84 805.8,-140.52 805.8,-140.52"/>
<polygon fill="black" stroke="black" points="802.3,-140.52 805.8,-150.52 809.3,-140.52 802.3,-140.52"/>
</g>
<!-- JwtStrategy -->
<g id="node14" class="node">
<title>JwtStrategy</title>
<ellipse fill="#fdb462" stroke="black" cx="710" cy="-104" rx="56.76" ry="18"/>
<text text-anchor="middle" x="710" y="-99.8" font-family="Times,serif" font-size="14.00">JwtStrategy</text>
</g>
<!-- JwtStrategy&#45;&gt;AuthModule -->
<g id="edge13" class="edge">
<title>JwtStrategy&#45;&gt;AuthModule</title>
<path fill="none" stroke="black" d="M752.93,-115.92C752.93,-115.92 752.93,-140.77 752.93,-140.77"/>
<polygon fill="black" stroke="black" points="749.43,-140.77 752.93,-150.77 756.43,-140.77 749.43,-140.77"/>
</g>
<!-- LocalStrategy -->
<g id="node15" class="node">
<title>LocalStrategy</title>
<ellipse fill="#fdb462" stroke="black" cx="570" cy="-104" rx="65.41" ry="18"/>
<text text-anchor="middle" x="570" y="-99.8" font-family="Times,serif" font-size="14.00">LocalStrategy</text>
</g>
<!-- LocalStrategy&#45;&gt;AuthModule -->
<g id="edge14" class="edge">
<title>LocalStrategy&#45;&gt;AuthModule</title>
<path fill="none" stroke="black" d="M606.54,-119.05C606.54,-134.72 606.54,-157 606.54,-157 606.54,-157 729.38,-157 729.38,-157"/>
<polygon fill="black" stroke="black" points="729.38,-160.5 739.38,-157 729.38,-153.5 729.38,-160.5"/>
</g>
<!-- VerifyNewPasswordUtil -->
<g id="node16" class="node">
<title>VerifyNewPasswordUtil</title>
<ellipse fill="#fdb462" stroke="black" cx="380" cy="-104" rx="106.49" ry="18"/>
<text text-anchor="middle" x="380" y="-99.8" font-family="Times,serif" font-size="14.00">VerifyNewPasswordUtil</text>
</g>
<!-- VerifyNewPasswordUtil&#45;&gt;AuthModule -->
<g id="edge15" class="edge">
<title>VerifyNewPasswordUtil&#45;&gt;AuthModule</title>
<path fill="none" stroke="black" d="M444.28,-118.64C444.28,-135.82 444.28,-162 444.28,-162 444.28,-162 729.41,-162 729.41,-162"/>
<polygon fill="black" stroke="black" points="729.41,-165.5 739.41,-162 729.41,-158.5 729.41,-165.5"/>
</g>
</g>
</svg>
