<?xml version="1.0" encoding="UTF-8" standalone="no"?>
<!DOCTYPE svg PUBLIC "-//W3C//DTD SVG 1.1//EN"
 "http://www.w3.org/Graphics/SVG/1.1/DTD/svg11.dtd">
<!-- Generated by graphviz version 2.44.1 (20200629.0846)
 -->
<!-- Title: dependencies Pages: 1 -->
<svg width="1578pt" height="284pt"
 viewBox="0.00 0.00 1578.00 284.00" xmlns="http://www.w3.org/2000/svg" xmlns:xlink="http://www.w3.org/1999/xlink">
<g id="graph0" class="graph" transform="scale(1 1) rotate(0) translate(4 280)">
<title>dependencies</title>
<polygon fill="white" stroke="transparent" points="-4,4 -4,-280 1574,-280 1574,4 -4,4"/>
<text text-anchor="start" x="764.01" y="-42.4" font-family="sans-serif" font-weight="bold" font-size="14.00">Legend</text>
<polygon fill="#ffffb3" stroke="transparent" points="551,-10 551,-30 571,-30 571,-10 551,-10"/>
<text text-anchor="start" x="574.63" y="-15.4" font-family="sans-serif" font-size="14.00"> &#160;Declarations</text>
<polygon fill="#8dd3c7" stroke="transparent" points="664,-10 664,-30 684,-30 684,-10 664,-10"/>
<text text-anchor="start" x="687.73" y="-15.4" font-family="sans-serif" font-size="14.00"> &#160;Module</text>
<polygon fill="#80b1d3" stroke="transparent" points="750,-10 750,-30 770,-30 770,-10 750,-10"/>
<text text-anchor="start" x="773.78" y="-15.4" font-family="sans-serif" font-size="14.00"> &#160;Bootstrap</text>
<polygon fill="#fdb462" stroke="transparent" points="847,-10 847,-30 867,-30 867,-10 847,-10"/>
<text text-anchor="start" x="870.67" y="-15.4" font-family="sans-serif" font-size="14.00"> &#160;Providers</text>
<polygon fill="#fb8072" stroke="transparent" points="943,-10 943,-30 963,-30 963,-10 943,-10"/>
<text text-anchor="start" x="966.73" y="-15.4" font-family="sans-serif" font-size="14.00"> &#160;Exports</text>
<g id="clust1" class="cluster">
<title>cluster_AuthModule</title>
<polygon fill="none" stroke="black" stroke-dasharray="1,5" points="8,-70 8,-268 1562,-268 1562,-70 8,-70"/>
</g>
<g id="clust6" class="cluster">
<title>cluster_AuthModule_providers</title>
<polygon fill="none" stroke="black" points="376,-78 376,-130 1554,-130 1554,-78 376,-78"/>
</g>
<g id="clust4" class="cluster">
<title>cluster_AuthModule_exports</title>
<polygon fill="none" stroke="black" points="434,-208 434,-260 1008,-260 1008,-208 434,-208"/>
</g>
<g id="clust3" class="cluster">
<title>cluster_AuthModule_imports</title>
<polygon fill="none" stroke="black" points="16,-78 16,-130 368,-130 368,-78 16,-78"/>
</g>
<!-- AppConfigModule -->
<g id="node1" class="node">
<title>AppConfigModule</title>
<polygon fill="#8dd3c7" stroke="black" points="360.05,-122 357.05,-126 336.05,-126 333.05,-122 237.95,-122 237.95,-86 360.05,-86 360.05,-122"/>
<text text-anchor="middle" x="299" y="-99.8" font-family="Times,serif" font-size="14.00">AppConfigModule</text>
</g>
<!-- AuthModule -->
<g id="node4" class="node">
<title>AuthModule</title>
<polygon fill="#8dd3c7" stroke="black" points="793.55,-187 790.55,-191 769.55,-191 766.55,-187 706.45,-187 706.45,-151 793.55,-151 793.55,-187"/>
<text text-anchor="middle" x="750" y="-164.8" font-family="Times,serif" font-size="14.00">AuthModule</text>
</g>
<!-- AppConfigModule&#45;&gt;AuthModule -->
<g id="edge1" class="edge">
<title>AppConfigModule&#45;&gt;AuthModule</title>
<path fill="none" stroke="black" d="M299,-122.02C299,-139.37 299,-163 299,-163 299,-163 696.35,-163 696.35,-163"/>
<polygon fill="black" stroke="black" points="696.35,-166.5 706.35,-163 696.35,-159.5 696.35,-166.5"/>
</g>
<!-- RedisModule -->
<g id="node2" class="node">
<title>RedisModule</title>
<polygon fill="#8dd3c7" stroke="black" points="219.94,-122 216.94,-126 195.94,-126 192.94,-122 128.06,-122 128.06,-86 219.94,-86 219.94,-122"/>
<text text-anchor="middle" x="174" y="-99.8" font-family="Times,serif" font-size="14.00">RedisModule</text>
</g>
<!-- RedisModule&#45;&gt;AuthModule -->
<g id="edge2" class="edge">
<title>RedisModule&#45;&gt;AuthModule</title>
<path fill="none" stroke="black" d="M174,-122.11C174,-141.34 174,-169 174,-169 174,-169 696.23,-169 696.23,-169"/>
<polygon fill="black" stroke="black" points="696.23,-172.5 706.23,-169 696.23,-165.5 696.23,-172.5"/>
</g>
<!-- UserModule -->
<g id="node3" class="node">
<title>UserModule</title>
<polygon fill="#8dd3c7" stroke="black" points="109.98,-122 106.98,-126 85.98,-126 82.98,-122 24.02,-122 24.02,-86 109.98,-86 109.98,-122"/>
<text text-anchor="middle" x="67" y="-99.8" font-family="Times,serif" font-size="14.00">UserModule</text>
</g>
<!-- UserModule&#45;&gt;AuthModule -->
<g id="edge3" class="edge">
<title>UserModule&#45;&gt;AuthModule</title>
<path fill="none" stroke="black" d="M67,-122.28C67,-143.32 67,-175 67,-175 67,-175 696.24,-175 696.24,-175"/>
<polygon fill="black" stroke="black" points="696.24,-178.5 706.24,-175 696.24,-171.5 696.24,-178.5"/>
</g>
<!-- AuthService  -->
<g id="node5" class="node">
<title>AuthService </title>
<polygon fill="#fb8072" stroke="black" points="999.98,-252 910.02,-252 910.02,-216 999.98,-216 999.98,-252"/>
<text text-anchor="middle" x="955" y="-229.8" font-family="Times,serif" font-size="14.00">AuthService </text>
</g>
<!-- AuthModule&#45;&gt;AuthService  -->
<g id="edge4" class="edge">
<title>AuthModule&#45;&gt;AuthService </title>
<path fill="none" stroke="black" stroke-dasharray="5,2" d="M793.73,-181C853.93,-181 955,-181 955,-181 955,-181 955,-205.76 955,-205.76"/>
<polygon fill="black" stroke="black" points="951.5,-205.76 955,-215.76 958.5,-205.76 951.5,-205.76"/>
</g>
<!-- ExtractKeyValueUtil  -->
<g id="node6" class="node">
<title>ExtractKeyValueUtil </title>
<polygon fill="#fb8072" stroke="black" points="892.45,-252 753.55,-252 753.55,-216 892.45,-216 892.45,-252"/>
<text text-anchor="middle" x="823" y="-229.8" font-family="Times,serif" font-size="14.00">ExtractKeyValueUtil </text>
</g>
<!-- AuthModule&#45;&gt;ExtractKeyValueUtil  -->
<g id="edge5" class="edge">
<title>AuthModule&#45;&gt;ExtractKeyValueUtil </title>
<path fill="none" stroke="black" stroke-dasharray="5,2" d="M773.77,-187.11C773.77,-187.11 773.77,-205.99 773.77,-205.99"/>
<polygon fill="black" stroke="black" points="770.27,-205.99 773.77,-215.99 777.27,-205.99 770.27,-205.99"/>
</g>
<!-- LoggedOutGuard  -->
<g id="node7" class="node">
<title>LoggedOutGuard </title>
<polygon fill="#fb8072" stroke="black" points="736.25,-252 617.75,-252 617.75,-216 736.25,-216 736.25,-252"/>
<text text-anchor="middle" x="677" y="-229.8" font-family="Times,serif" font-size="14.00">LoggedOutGuard </text>
</g>
<!-- AuthModule&#45;&gt;LoggedOutGuard  -->
<g id="edge6" class="edge">
<title>AuthModule&#45;&gt;LoggedOutGuard </title>
<path fill="none" stroke="black" stroke-dasharray="5,2" d="M721.17,-187.11C721.17,-187.11 721.17,-205.99 721.17,-205.99"/>
<polygon fill="black" stroke="black" points="717.67,-205.99 721.17,-215.99 724.67,-205.99 717.67,-205.99"/>
</g>
<!-- VerifyNewPasswordUtil  -->
<g id="node8" class="node">
<title>VerifyNewPasswordUtil </title>
<polygon fill="#fb8072" stroke="black" points="599.89,-252 442.11,-252 442.11,-216 599.89,-216 599.89,-252"/>
<text text-anchor="middle" x="521" y="-229.8" font-family="Times,serif" font-size="14.00">VerifyNewPasswordUtil </text>
</g>
<!-- AuthModule&#45;&gt;VerifyNewPasswordUtil  -->
<g id="edge7" class="edge">
<title>AuthModule&#45;&gt;VerifyNewPasswordUtil </title>
<path fill="none" stroke="black" stroke-dasharray="5,2" d="M706.28,-181C646.08,-181 545.02,-181 545.02,-181 545.02,-181 545.02,-205.76 545.02,-205.76"/>
<polygon fill="black" stroke="black" points="541.52,-205.76 545.02,-215.76 548.52,-205.76 541.52,-205.76"/>
</g>
<!-- AppConfigService -->
<g id="node9" class="node">
<title>AppConfigService</title>
<ellipse fill="#fdb462" stroke="black" cx="1463" cy="-104" rx="83.39" ry="18"/>
<text text-anchor="middle" x="1463" y="-99.8" font-family="Times,serif" font-size="14.00">AppConfigService</text>
</g>
<!-- AppConfigService&#45;&gt;AuthModule -->
<g id="edge8" class="edge">
<title>AppConfigService&#45;&gt;AuthModule</title>
<path fill="none" stroke="black" d="M1463,-122.28C1463,-143.32 1463,-175 1463,-175 1463,-175 803.8,-175 803.8,-175"/>
<polygon fill="black" stroke="black" points="803.8,-171.5 793.8,-175 803.8,-178.5 803.8,-171.5"/>
</g>
<!-- AuthService -->
<g id="node10" class="node">
<title>AuthService</title>
<ellipse fill="#fdb462" stroke="black" cx="1302" cy="-104" rx="59.11" ry="18"/>
<text text-anchor="middle" x="1302" y="-99.8" font-family="Times,serif" font-size="14.00">AuthService</text>
</g>
<!-- AuthService&#45;&gt;AuthModule -->
<g id="edge9" class="edge">
<title>AuthService&#45;&gt;AuthModule</title>
<path fill="none" stroke="black" d="M1302,-122.11C1302,-141.34 1302,-169 1302,-169 1302,-169 803.78,-169 803.78,-169"/>
<polygon fill="black" stroke="black" points="803.78,-165.5 793.78,-169 803.78,-172.5 803.78,-165.5"/>
</g>
<!-- EmailService -->
<g id="node11" class="node">
<title>EmailService</title>
<ellipse fill="#fdb462" stroke="black" cx="1162" cy="-104" rx="63.12" ry="18"/>
<text text-anchor="middle" x="1162" y="-99.8" font-family="Times,serif" font-size="14.00">EmailService</text>
</g>
<!-- EmailService&#45;&gt;AuthModule -->
<g id="edge10" class="edge">
<title>EmailService&#45;&gt;AuthModule</title>
<path fill="none" stroke="black" d="M1162,-122.02C1162,-139.37 1162,-163 1162,-163 1162,-163 803.7,-163 803.7,-163"/>
<polygon fill="black" stroke="black" points="803.7,-159.5 793.7,-163 803.7,-166.5 803.7,-159.5"/>
</g>
<!-- ExtractKeyValueUtil -->
<g id="node12" class="node">
<title>ExtractKeyValueUtil</title>
<ellipse fill="#fdb462" stroke="black" cx="988" cy="-104" rx="93.17" ry="18"/>
<text text-anchor="middle" x="988" y="-99.8" font-family="Times,serif" font-size="14.00">ExtractKeyValueUtil</text>
</g>
<!-- ExtractKeyValueUtil&#45;&gt;AuthModule -->
<g id="edge11" class="edge">
<title>ExtractKeyValueUtil&#45;&gt;AuthModule</title>
<path fill="none" stroke="black" d="M902.59,-111.37C902.59,-125.93 902.59,-157 902.59,-157 902.59,-157 803.73,-157 803.73,-157"/>
<polygon fill="black" stroke="black" points="803.73,-153.5 793.73,-157 803.73,-160.5 803.73,-153.5"/>
</g>
<!-- JwtStrategy -->
<g id="node13" class="node">
<title>JwtStrategy</title>
<ellipse fill="#fdb462" stroke="black" cx="820" cy="-104" rx="56.76" ry="18"/>
<text text-anchor="middle" x="820" y="-99.8" font-family="Times,serif" font-size="14.00">JwtStrategy</text>
</g>
<!-- JwtStrategy&#45;&gt;AuthModule -->
<g id="edge12" class="edge">
<title>JwtStrategy&#45;&gt;AuthModule</title>
<path fill="none" stroke="black" d="M778.57,-116.53C778.57,-116.53 778.57,-140.85 778.57,-140.85"/>
<polygon fill="black" stroke="black" points="775.07,-140.85 778.57,-150.85 782.07,-140.85 775.07,-140.85"/>
</g>
<!-- LocalStrategy -->
<g id="node14" class="node">
<title>LocalStrategy</title>
<ellipse fill="#fdb462" stroke="black" cx="680" cy="-104" rx="65.41" ry="18"/>
<text text-anchor="middle" x="680" y="-99.8" font-family="Times,serif" font-size="14.00">LocalStrategy</text>
</g>
<!-- LocalStrategy&#45;&gt;AuthModule -->
<g id="edge13" class="edge">
<title>LocalStrategy&#45;&gt;AuthModule</title>
<path fill="none" stroke="black" d="M725.71,-116.84C725.71,-116.84 725.71,-140.52 725.71,-140.52"/>
<polygon fill="black" stroke="black" points="722.21,-140.52 725.71,-150.52 729.21,-140.52 722.21,-140.52"/>
</g>
<!-- VerifyNewPasswordUtil -->
<g id="node15" class="node">
<title>VerifyNewPasswordUtil</title>
<ellipse fill="#fdb462" stroke="black" cx="490" cy="-104" rx="106.49" ry="18"/>
<text text-anchor="middle" x="490" y="-99.8" font-family="Times,serif" font-size="14.00">VerifyNewPasswordUtil</text>
</g>
<!-- VerifyNewPasswordUtil&#45;&gt;AuthModule -->
<g id="edge14" class="edge">
<title>VerifyNewPasswordUtil&#45;&gt;AuthModule</title>
<path fill="none" stroke="black" d="M493.53,-122.24C493.53,-137.57 493.53,-157 493.53,-157 493.53,-157 696.2,-157 696.2,-157"/>
<polygon fill="black" stroke="black" points="696.2,-160.5 706.2,-157 696.2,-153.5 696.2,-160.5"/>
</g>
</g>
</svg>
