<?xml version="1.0" encoding="UTF-8" standalone="no"?>
<!DOCTYPE svg PUBLIC "-//W3C//DTD SVG 1.1//EN"
 "http://www.w3.org/Graphics/SVG/1.1/DTD/svg11.dtd">
<!-- Generated by graphviz version 2.44.1 (20200629.0846)
 -->
<!-- Title: dependencies Pages: 1 -->
<svg width="1630pt" height="284pt"
 viewBox="0.00 0.00 1630.00 284.00" xmlns="http://www.w3.org/2000/svg" xmlns:xlink="http://www.w3.org/1999/xlink">
<g id="graph0" class="graph" transform="scale(1 1) rotate(0) translate(4 280)">
<title>dependencies</title>
<polygon fill="white" stroke="transparent" points="-4,4 -4,-280 1626,-280 1626,4 -4,4"/>
<text text-anchor="start" x="790.01" y="-42.4" font-family="sans-serif" font-weight="bold" font-size="14.00">Legend</text>
<polygon fill="#ffffb3" stroke="transparent" points="577,-10 577,-30 597,-30 597,-10 577,-10"/>
<text text-anchor="start" x="600.63" y="-15.4" font-family="sans-serif" font-size="14.00"> &#160;Declarations</text>
<polygon fill="#8dd3c7" stroke="transparent" points="690,-10 690,-30 710,-30 710,-10 690,-10"/>
<text text-anchor="start" x="713.73" y="-15.4" font-family="sans-serif" font-size="14.00"> &#160;Module</text>
<polygon fill="#80b1d3" stroke="transparent" points="776,-10 776,-30 796,-30 796,-10 776,-10"/>
<text text-anchor="start" x="799.78" y="-15.4" font-family="sans-serif" font-size="14.00"> &#160;Bootstrap</text>
<polygon fill="#fdb462" stroke="transparent" points="873,-10 873,-30 893,-30 893,-10 873,-10"/>
<text text-anchor="start" x="896.67" y="-15.4" font-family="sans-serif" font-size="14.00"> &#160;Providers</text>
<polygon fill="#fb8072" stroke="transparent" points="969,-10 969,-30 989,-30 989,-10 969,-10"/>
<text text-anchor="start" x="992.73" y="-15.4" font-family="sans-serif" font-size="14.00"> &#160;Exports</text>
<g id="clust1" class="cluster">
<title>cluster_AuthModule</title>
<polygon fill="none" stroke="black" stroke-dasharray="1,5" points="8,-70 8,-268 1614,-268 1614,-70 8,-70"/>
</g>
<g id="clust3" class="cluster">
<title>cluster_AuthModule_imports</title>
<polygon fill="none" stroke="black" points="1364,-78 1364,-130 1606,-130 1606,-78 1364,-78"/>
</g>
<g id="clust6" class="cluster">
<title>cluster_AuthModule_providers</title>
<polygon fill="none" stroke="black" points="16,-78 16,-130 1356,-130 1356,-78 16,-78"/>
</g>
<g id="clust4" class="cluster">
<title>cluster_AuthModule_exports</title>
<polygon fill="none" stroke="black" points="488,-208 488,-260 1175,-260 1175,-208 488,-208"/>
</g>
<!-- AppConfigModule -->
<g id="node1" class="node">
<title>AppConfigModule</title>
<polygon fill="#8dd3c7" stroke="black" points="1598.05,-122 1595.05,-126 1574.05,-126 1571.05,-122 1475.95,-122 1475.95,-86 1598.05,-86 1598.05,-122"/>
<text text-anchor="middle" x="1537" y="-99.8" font-family="Times,serif" font-size="14.00">AppConfigModule</text>
</g>
<!-- AuthModule -->
<g id="node3" class="node">
<title>AuthModule</title>
<polygon fill="#8dd3c7" stroke="black" points="920.55,-187 917.55,-191 896.55,-191 893.55,-187 833.45,-187 833.45,-151 920.55,-151 920.55,-187"/>
<text text-anchor="middle" x="877" y="-164.8" font-family="Times,serif" font-size="14.00">AuthModule</text>
</g>
<!-- AppConfigModule&#45;&gt;AuthModule -->
<g id="edge1" class="edge">
<title>AppConfigModule&#45;&gt;AuthModule</title>
<path fill="none" stroke="black" d="M1537,-122.22C1537,-142.37 1537,-172 1537,-172 1537,-172 930.56,-172 930.56,-172"/>
<polygon fill="black" stroke="black" points="930.56,-168.5 920.56,-172 930.56,-175.5 930.56,-168.5"/>
</g>
<!-- UserModule -->
<g id="node2" class="node">
<title>UserModule</title>
<polygon fill="#8dd3c7" stroke="black" points="1457.98,-122 1454.98,-126 1433.98,-126 1430.98,-122 1372.02,-122 1372.02,-86 1457.98,-86 1457.98,-122"/>
<text text-anchor="middle" x="1415" y="-99.8" font-family="Times,serif" font-size="14.00">UserModule</text>
</g>
<!-- UserModule&#45;&gt;AuthModule -->
<g id="edge2" class="edge">
<title>UserModule&#45;&gt;AuthModule</title>
<path fill="none" stroke="black" d="M1415,-122.22C1415,-140.83 1415,-167 1415,-167 1415,-167 930.57,-167 930.57,-167"/>
<polygon fill="black" stroke="black" points="930.57,-163.5 920.57,-167 930.57,-170.5 930.57,-163.5"/>
</g>
<!-- AuthService  -->
<g id="node4" class="node">
<title>AuthService </title>
<polygon fill="#fb8072" stroke="black" points="1166.98,-252 1077.02,-252 1077.02,-216 1166.98,-216 1166.98,-252"/>
<text text-anchor="middle" x="1122" y="-229.8" font-family="Times,serif" font-size="14.00">AuthService </text>
</g>
<!-- AuthModule&#45;&gt;AuthService  -->
<g id="edge3" class="edge">
<title>AuthModule&#45;&gt;AuthService </title>
<path fill="none" stroke="black" stroke-dasharray="5,2" d="M920.78,-177C990.82,-177 1120.28,-177 1120.28,-177 1120.28,-177 1120.28,-205.96 1120.28,-205.96"/>
<polygon fill="black" stroke="black" points="1116.78,-205.96 1120.28,-215.96 1123.78,-205.96 1116.78,-205.96"/>
</g>
<!-- EmailService  -->
<g id="node5" class="node">
<title>EmailService </title>
<polygon fill="#fb8072" stroke="black" points="1059.42,-252 964.58,-252 964.58,-216 1059.42,-216 1059.42,-252"/>
<text text-anchor="middle" x="1012" y="-229.8" font-family="Times,serif" font-size="14.00">EmailService </text>
</g>
<!-- AuthModule&#45;&gt;EmailService  -->
<g id="edge4" class="edge">
<title>AuthModule&#45;&gt;EmailService </title>
<path fill="none" stroke="black" stroke-dasharray="5,2" d="M920.56,-182C954.47,-182 995.8,-182 995.8,-182 995.8,-182 995.8,-205.81 995.8,-205.81"/>
<polygon fill="black" stroke="black" points="992.3,-205.81 995.8,-215.81 999.3,-205.81 992.3,-205.81"/>
</g>
<!-- ExtractKeyValueUtil  -->
<g id="node6" class="node">
<title>ExtractKeyValueUtil </title>
<polygon fill="#fb8072" stroke="black" points="946.45,-252 807.55,-252 807.55,-216 946.45,-216 946.45,-252"/>
<text text-anchor="middle" x="877" y="-229.8" font-family="Times,serif" font-size="14.00">ExtractKeyValueUtil </text>
</g>
<!-- AuthModule&#45;&gt;ExtractKeyValueUtil  -->
<g id="edge5" class="edge">
<title>AuthModule&#45;&gt;ExtractKeyValueUtil </title>
<path fill="none" stroke="black" stroke-dasharray="5,2" d="M877,-187.11C877,-187.11 877,-205.99 877,-205.99"/>
<polygon fill="black" stroke="black" points="873.5,-205.99 877,-215.99 880.5,-205.99 873.5,-205.99"/>
</g>
<!-- LoggedOutGaurd  -->
<g id="node7" class="node">
<title>LoggedOutGaurd </title>
<polygon fill="#fb8072" stroke="black" points="790.25,-252 671.75,-252 671.75,-216 790.25,-216 790.25,-252"/>
<text text-anchor="middle" x="731" y="-229.8" font-family="Times,serif" font-size="14.00">LoggedOutGaurd </text>
</g>
<!-- AuthModule&#45;&gt;LoggedOutGaurd  -->
<g id="edge6" class="edge">
<title>AuthModule&#45;&gt;LoggedOutGaurd </title>
<path fill="none" stroke="black" stroke-dasharray="5,2" d="M833.29,-182C794.36,-182 743.52,-182 743.52,-182 743.52,-182 743.52,-205.81 743.52,-205.81"/>
<polygon fill="black" stroke="black" points="740.02,-205.81 743.52,-215.81 747.02,-205.81 740.02,-205.81"/>
</g>
<!-- VerifyNewPasswordUtil  -->
<g id="node8" class="node">
<title>VerifyNewPasswordUtil </title>
<polygon fill="#fb8072" stroke="black" points="653.89,-252 496.11,-252 496.11,-216 653.89,-216 653.89,-252"/>
<text text-anchor="middle" x="575" y="-229.8" font-family="Times,serif" font-size="14.00">VerifyNewPasswordUtil </text>
</g>
<!-- AuthModule&#45;&gt;VerifyNewPasswordUtil  -->
<g id="edge7" class="edge">
<title>AuthModule&#45;&gt;VerifyNewPasswordUtil </title>
<path fill="none" stroke="black" stroke-dasharray="5,2" d="M833.15,-177C753.77,-177 594.39,-177 594.39,-177 594.39,-177 594.39,-205.96 594.39,-205.96"/>
<polygon fill="black" stroke="black" points="590.89,-205.96 594.39,-215.96 597.89,-205.96 590.89,-205.96"/>
</g>
<!-- AppConfigService -->
<g id="node9" class="node">
<title>AppConfigService</title>
<ellipse fill="#fdb462" stroke="black" cx="1265" cy="-104" rx="83.39" ry="18"/>
<text text-anchor="middle" x="1265" y="-99.8" font-family="Times,serif" font-size="14.00">AppConfigService</text>
</g>
<!-- AppConfigService&#45;&gt;AuthModule -->
<g id="edge8" class="edge">
<title>AppConfigService&#45;&gt;AuthModule</title>
<path fill="none" stroke="black" d="M1265,-122.03C1265,-139.06 1265,-162 1265,-162 1265,-162 930.75,-162 930.75,-162"/>
<polygon fill="black" stroke="black" points="930.75,-158.5 920.75,-162 930.75,-165.5 930.75,-158.5"/>
</g>
<!-- AuthService -->
<g id="node10" class="node">
<title>AuthService</title>
<ellipse fill="#fdb462" stroke="black" cx="1104" cy="-104" rx="59.11" ry="18"/>
<text text-anchor="middle" x="1104" y="-99.8" font-family="Times,serif" font-size="14.00">AuthService</text>
</g>
<!-- AuthService&#45;&gt;AuthModule -->
<g id="edge9" class="edge">
<title>AuthService&#45;&gt;AuthModule</title>
<path fill="none" stroke="black" d="M1052.08,-112.75C1052.08,-127.81 1052.08,-157 1052.08,-157 1052.08,-157 930.73,-157 930.73,-157"/>
<polygon fill="black" stroke="black" points="930.73,-153.5 920.73,-157 930.73,-160.5 930.73,-153.5"/>
</g>
<!-- EmailService -->
<g id="node11" class="node">
<title>EmailService</title>
<ellipse fill="#fdb462" stroke="black" cx="964" cy="-104" rx="63.12" ry="18"/>
<text text-anchor="middle" x="964" y="-99.8" font-family="Times,serif" font-size="14.00">EmailService</text>
</g>
<!-- EmailService&#45;&gt;AuthModule -->
<g id="edge10" class="edge">
<title>EmailService&#45;&gt;AuthModule</title>
<path fill="none" stroke="black" d="M910.86,-113.87C910.86,-113.87 910.86,-140.91 910.86,-140.91"/>
<polygon fill="black" stroke="black" points="907.36,-140.91 910.86,-150.91 914.36,-140.91 907.36,-140.91"/>
</g>
<!-- ExtractKeyValueUtil -->
<g id="node12" class="node">
<title>ExtractKeyValueUtil</title>
<ellipse fill="#fdb462" stroke="black" cx="790" cy="-104" rx="93.17" ry="18"/>
<text text-anchor="middle" x="790" y="-99.8" font-family="Times,serif" font-size="14.00">ExtractKeyValueUtil</text>
</g>
<!-- ExtractKeyValueUtil&#45;&gt;AuthModule -->
<g id="edge11" class="edge">
<title>ExtractKeyValueUtil&#45;&gt;AuthModule</title>
<path fill="none" stroke="black" d="M858.16,-116.53C858.16,-116.53 858.16,-140.85 858.16,-140.85"/>
<polygon fill="black" stroke="black" points="854.66,-140.85 858.16,-150.85 861.66,-140.85 854.66,-140.85"/>
</g>
<!-- ExtractUserUtil -->
<g id="node13" class="node">
<title>ExtractUserUtil</title>
<ellipse fill="#fdb462" stroke="black" cx="607" cy="-104" rx="72.34" ry="18"/>
<text text-anchor="middle" x="607" y="-99.8" font-family="Times,serif" font-size="14.00">ExtractUserUtil</text>
</g>
<!-- ExtractUserUtil&#45;&gt;AuthModule -->
<g id="edge12" class="edge">
<title>ExtractUserUtil&#45;&gt;AuthModule</title>
<path fill="none" stroke="black" d="M675.52,-109.67C675.52,-123.34 675.52,-157 675.52,-157 675.52,-157 823.28,-157 823.28,-157"/>
<polygon fill="black" stroke="black" points="823.28,-160.5 833.28,-157 823.28,-153.5 823.28,-160.5"/>
</g>
<!-- JwtStrategy -->
<g id="node14" class="node">
<title>JwtStrategy</title>
<ellipse fill="#fdb462" stroke="black" cx="460" cy="-104" rx="56.76" ry="18"/>
<text text-anchor="middle" x="460" y="-99.8" font-family="Times,serif" font-size="14.00">JwtStrategy</text>
</g>
<!-- JwtStrategy&#45;&gt;AuthModule -->
<g id="edge13" class="edge">
<title>JwtStrategy&#45;&gt;AuthModule</title>
<path fill="none" stroke="black" d="M506.34,-114.37C506.34,-131.05 506.34,-162 506.34,-162 506.34,-162 823.39,-162 823.39,-162"/>
<polygon fill="black" stroke="black" points="823.39,-165.5 833.39,-162 823.39,-158.5 823.39,-165.5"/>
</g>
<!-- LocalStrategy -->
<g id="node15" class="node">
<title>LocalStrategy</title>
<ellipse fill="#fdb462" stroke="black" cx="320" cy="-104" rx="65.41" ry="18"/>
<text text-anchor="middle" x="320" y="-99.8" font-family="Times,serif" font-size="14.00">LocalStrategy</text>
</g>
<!-- LocalStrategy&#45;&gt;AuthModule -->
<g id="edge14" class="edge">
<title>LocalStrategy&#45;&gt;AuthModule</title>
<path fill="none" stroke="black" d="M320,-122.22C320,-140.83 320,-167 320,-167 320,-167 823.29,-167 823.29,-167"/>
<polygon fill="black" stroke="black" points="823.29,-170.5 833.29,-167 823.29,-163.5 823.29,-170.5"/>
</g>
<!-- VerifyNewPasswordUtil -->
<g id="node16" class="node">
<title>VerifyNewPasswordUtil</title>
<ellipse fill="#fdb462" stroke="black" cx="130" cy="-104" rx="106.49" ry="18"/>
<text text-anchor="middle" x="130" y="-99.8" font-family="Times,serif" font-size="14.00">VerifyNewPasswordUtil</text>
</g>
<!-- VerifyNewPasswordUtil&#45;&gt;AuthModule -->
<g id="edge15" class="edge">
<title>VerifyNewPasswordUtil&#45;&gt;AuthModule</title>
<path fill="none" stroke="black" d="M130,-122.22C130,-142.37 130,-172 130,-172 130,-172 823.34,-172 823.34,-172"/>
<polygon fill="black" stroke="black" points="823.34,-175.5 833.34,-172 823.34,-168.5 823.34,-175.5"/>
</g>
</g>
</svg>
