<?xml version="1.0" encoding="UTF-8" standalone="no"?>
<!DOCTYPE svg PUBLIC "-//W3C//DTD SVG 1.1//EN"
 "http://www.w3.org/Graphics/SVG/1.1/DTD/svg11.dtd">
<!-- Generated by graphviz version 2.44.1 (20200629.0846)
 -->
<!-- Title: dependencies Pages: 1 -->
<svg width="504pt" height="284pt"
 viewBox="0.00 0.00 504.00 284.00" xmlns="http://www.w3.org/2000/svg" xmlns:xlink="http://www.w3.org/1999/xlink">
<g id="graph0" class="graph" transform="scale(1 1) rotate(0) translate(4 280)">
<title>dependencies</title>
<polygon fill="white" stroke="transparent" points="-4,4 -4,-280 500,-280 500,4 -4,4"/>
<text text-anchor="start" x="227.01" y="-42.4" font-family="sans-serif" font-weight="bold" font-size="14.00">Legend</text>
<polygon fill="#ffffb3" stroke="transparent" points="14,-10 14,-30 34,-30 34,-10 14,-10"/>
<text text-anchor="start" x="37.63" y="-15.4" font-family="sans-serif" font-size="14.00"> &#160;Declarations</text>
<polygon fill="#8dd3c7" stroke="transparent" points="127,-10 127,-30 147,-30 147,-10 127,-10"/>
<text text-anchor="start" x="150.73" y="-15.4" font-family="sans-serif" font-size="14.00"> &#160;Module</text>
<polygon fill="#80b1d3" stroke="transparent" points="213,-10 213,-30 233,-30 233,-10 213,-10"/>
<text text-anchor="start" x="236.78" y="-15.4" font-family="sans-serif" font-size="14.00"> &#160;Bootstrap</text>
<polygon fill="#fdb462" stroke="transparent" points="310,-10 310,-30 330,-30 330,-10 310,-10"/>
<text text-anchor="start" x="333.67" y="-15.4" font-family="sans-serif" font-size="14.00"> &#160;Providers</text>
<polygon fill="#fb8072" stroke="transparent" points="406,-10 406,-30 426,-30 426,-10 406,-10"/>
<text text-anchor="start" x="429.73" y="-15.4" font-family="sans-serif" font-size="14.00"> &#160;Exports</text>
<g id="clust1" class="cluster">
<title>cluster_UnavailabilityModule</title>
<polygon fill="none" stroke="black" stroke-dasharray="1,5" points="79,-70 79,-268 417,-268 417,-70 79,-70"/>
</g>
<g id="clust6" class="cluster">
<title>cluster_UnavailabilityModule_providers</title>
<polygon fill="none" stroke="black" points="203,-78 203,-130 409,-130 409,-78 203,-78"/>
</g>
<g id="clust4" class="cluster">
<title>cluster_UnavailabilityModule_exports</title>
<polygon fill="none" stroke="black" points="157,-208 157,-260 315,-260 315,-208 157,-208"/>
</g>
<g id="clust3" class="cluster">
<title>cluster_UnavailabilityModule_imports</title>
<polygon fill="none" stroke="black" points="87,-78 87,-130 195,-130 195,-78 87,-78"/>
</g>
<!-- RedisModule -->
<g id="node1" class="node">
<title>RedisModule</title>
<polygon fill="#8dd3c7" stroke="black" points="186.94,-122 183.94,-126 162.94,-126 159.94,-122 95.06,-122 95.06,-86 186.94,-86 186.94,-122"/>
<text text-anchor="middle" x="141" y="-99.8" font-family="Times,serif" font-size="14.00">RedisModule</text>
</g>
<!-- UnavailabilityModule -->
<g id="node2" class="node">
<title>UnavailabilityModule</title>
<polygon fill="#8dd3c7" stroke="black" points="305.64,-187 302.64,-191 281.64,-191 278.64,-187 166.36,-187 166.36,-151 305.64,-151 305.64,-187"/>
<text text-anchor="middle" x="236" y="-164.8" font-family="Times,serif" font-size="14.00">UnavailabilityModule</text>
</g>
<!-- RedisModule&#45;&gt;UnavailabilityModule -->
<g id="edge1" class="edge">
<title>RedisModule&#45;&gt;UnavailabilityModule</title>
<path fill="none" stroke="black" d="M176.45,-122.11C176.45,-122.11 176.45,-140.99 176.45,-140.99"/>
<polygon fill="black" stroke="black" points="172.95,-140.99 176.45,-150.99 179.95,-140.99 172.95,-140.99"/>
</g>
<!-- UnavailabilityService  -->
<g id="node3" class="node">
<title>UnavailabilityService </title>
<polygon fill="#fb8072" stroke="black" points="306.57,-252 165.43,-252 165.43,-216 306.57,-216 306.57,-252"/>
<text text-anchor="middle" x="236" y="-229.8" font-family="Times,serif" font-size="14.00">UnavailabilityService </text>
</g>
<!-- UnavailabilityModule&#45;&gt;UnavailabilityService  -->
<g id="edge2" class="edge">
<title>UnavailabilityModule&#45;&gt;UnavailabilityService </title>
<path fill="none" stroke="black" stroke-dasharray="5,2" d="M236,-187.11C236,-187.11 236,-205.99 236,-205.99"/>
<polygon fill="black" stroke="black" points="232.5,-205.99 236,-215.99 239.5,-205.99 232.5,-205.99"/>
</g>
<!-- UnavailabilityService -->
<g id="node4" class="node">
<title>UnavailabilityService</title>
<ellipse fill="#fdb462" stroke="black" cx="306" cy="-104" rx="95.48" ry="18"/>
<text text-anchor="middle" x="306" y="-99.8" font-family="Times,serif" font-size="14.00">UnavailabilityService</text>
</g>
<!-- UnavailabilityService&#45;&gt;UnavailabilityModule -->
<g id="edge3" class="edge">
<title>UnavailabilityService&#45;&gt;UnavailabilityModule</title>
<path fill="none" stroke="black" d="M258.29,-119.73C258.29,-119.73 258.29,-140.65 258.29,-140.65"/>
<polygon fill="black" stroke="black" points="254.79,-140.65 258.29,-150.65 261.79,-140.65 254.79,-140.65"/>
</g>
</g>
</svg>
