<?xml version="1.0" encoding="UTF-8" standalone="no"?>
<!DOCTYPE svg PUBLIC "-//W3C//DTD SVG 1.1//EN"
 "http://www.w3.org/Graphics/SVG/1.1/DTD/svg11.dtd">
<!-- Generated by graphviz version 2.44.1 (20200629.0846)
 -->
<!-- Title: dependencies Pages: 1 -->
<svg width="3145pt" height="284pt"
 viewBox="0.00 0.00 3145.00 284.00" xmlns="http://www.w3.org/2000/svg" xmlns:xlink="http://www.w3.org/1999/xlink">
<g id="graph0" class="graph" transform="scale(1 1) rotate(0) translate(4 280)">
<title>dependencies</title>
<polygon fill="white" stroke="transparent" points="-4,4 -4,-280 3141,-280 3141,4 -4,4"/>
<text text-anchor="start" x="1547.51" y="-42.4" font-family="sans-serif" font-weight="bold" font-size="14.00">Legend</text>
<polygon fill="#ffffb3" stroke="transparent" points="1334.5,-10 1334.5,-30 1354.5,-30 1354.5,-10 1334.5,-10"/>
<text text-anchor="start" x="1358.13" y="-15.4" font-family="sans-serif" font-size="14.00"> &#160;Declarations</text>
<polygon fill="#8dd3c7" stroke="transparent" points="1447.5,-10 1447.5,-30 1467.5,-30 1467.5,-10 1447.5,-10"/>
<text text-anchor="start" x="1471.23" y="-15.4" font-family="sans-serif" font-size="14.00"> &#160;Module</text>
<polygon fill="#80b1d3" stroke="transparent" points="1533.5,-10 1533.5,-30 1553.5,-30 1553.5,-10 1533.5,-10"/>
<text text-anchor="start" x="1557.28" y="-15.4" font-family="sans-serif" font-size="14.00"> &#160;Bootstrap</text>
<polygon fill="#fdb462" stroke="transparent" points="1630.5,-10 1630.5,-30 1650.5,-30 1650.5,-10 1630.5,-10"/>
<text text-anchor="start" x="1654.17" y="-15.4" font-family="sans-serif" font-size="14.00"> &#160;Providers</text>
<polygon fill="#fb8072" stroke="transparent" points="1726.5,-10 1726.5,-30 1746.5,-30 1746.5,-10 1726.5,-10"/>
<text text-anchor="start" x="1750.23" y="-15.4" font-family="sans-serif" font-size="14.00"> &#160;Exports</text>
<g id="clust1" class="cluster">
<title>cluster_RentalModule</title>
<polygon fill="none" stroke="black" stroke-dasharray="1,5" points="8,-70 8,-268 3129,-268 3129,-70 8,-70"/>
</g>
<g id="clust3" class="cluster">
<title>cluster_RentalModule_imports</title>
<polygon fill="none" stroke="black" points="2995,-78 2995,-130 3121,-130 3121,-78 2995,-78"/>
</g>
<g id="clust6" class="cluster">
<title>cluster_RentalModule_providers</title>
<polygon fill="none" stroke="black" points="16,-78 16,-130 2987,-130 2987,-78 16,-78"/>
</g>
<g id="clust4" class="cluster">
<title>cluster_RentalModule_exports</title>
<polygon fill="none" stroke="black" points="1703,-208 1703,-260 1817,-260 1817,-208 1703,-208"/>
</g>
<!-- DatabaseModule -->
<g id="node1" class="node">
<title>DatabaseModule</title>
<polygon fill="#8dd3c7" stroke="black" points="3113.35,-122 3110.35,-126 3089.35,-126 3086.35,-122 3002.65,-122 3002.65,-86 3113.35,-86 3113.35,-122"/>
<text text-anchor="middle" x="3058" y="-99.8" font-family="Times,serif" font-size="14.00">DatabaseModule</text>
</g>
<!-- RentalModule -->
<g id="node2" class="node">
<title>RentalModule</title>
<polygon fill="#8dd3c7" stroke="black" points="1808.1,-187 1805.1,-191 1784.1,-191 1781.1,-187 1711.9,-187 1711.9,-151 1808.1,-151 1808.1,-187"/>
<text text-anchor="middle" x="1760" y="-164.8" font-family="Times,serif" font-size="14.00">RentalModule</text>
</g>
<!-- DatabaseModule&#45;&gt;RentalModule -->
<g id="edge1" class="edge">
<title>DatabaseModule&#45;&gt;RentalModule</title>
<path fill="none" stroke="black" d="M3058,-122.32C3058,-145.66 3058,-183 3058,-183 3058,-183 1818.12,-183 1818.12,-183"/>
<polygon fill="black" stroke="black" points="1818.12,-179.5 1808.12,-183 1818.12,-186.5 1818.12,-179.5"/>
</g>
<!-- RentalService  -->
<g id="node3" class="node">
<title>RentalService </title>
<polygon fill="#fb8072" stroke="black" points="1809.02,-252 1710.98,-252 1710.98,-216 1809.02,-216 1809.02,-252"/>
<text text-anchor="middle" x="1760" y="-229.8" font-family="Times,serif" font-size="14.00">RentalService </text>
</g>
<!-- RentalModule&#45;&gt;RentalService  -->
<g id="edge2" class="edge">
<title>RentalModule&#45;&gt;RentalService </title>
<path fill="none" stroke="black" stroke-dasharray="5,2" d="M1760,-187.11C1760,-187.11 1760,-205.99 1760,-205.99"/>
<polygon fill="black" stroke="black" points="1756.5,-205.99 1760,-215.99 1763.5,-205.99 1756.5,-205.99"/>
</g>
<!-- CreateUpdaterDtoPipe -->
<g id="node4" class="node">
<title>CreateUpdaterDtoPipe</title>
<ellipse fill="#fdb462" stroke="black" cx="2880" cy="-104" rx="98.97" ry="18"/>
<text text-anchor="middle" x="2880" y="-99.8" font-family="Times,serif" font-size="14.00">CreateUpdaterDtoPipe</text>
</g>
<!-- CreateUpdaterDtoPipe&#45;&gt;RentalModule -->
<g id="edge3" class="edge">
<title>CreateUpdaterDtoPipe&#45;&gt;RentalModule</title>
<path fill="none" stroke="black" d="M2880,-122.29C2880,-144.21 2880,-178 2880,-178 2880,-178 1818.12,-178 1818.12,-178"/>
<polygon fill="black" stroke="black" points="1818.13,-174.5 1808.12,-178 1818.12,-181.5 1818.13,-174.5"/>
</g>
<!-- EditDetailsPipe -->
<g id="node5" class="node">
<title>EditDetailsPipe</title>
<ellipse fill="#fdb462" stroke="black" cx="2691" cy="-104" rx="71.8" ry="18"/>
<text text-anchor="middle" x="2691" y="-99.8" font-family="Times,serif" font-size="14.00">EditDetailsPipe</text>
</g>
<!-- EditDetailsPipe&#45;&gt;RentalModule -->
<g id="edge4" class="edge">
<title>EditDetailsPipe&#45;&gt;RentalModule</title>
<path fill="none" stroke="black" d="M2691,-122.03C2691,-142.77 2691,-174 2691,-174 2691,-174 1818.09,-174 1818.09,-174"/>
<polygon fill="black" stroke="black" points="1818.09,-170.5 1808.09,-174 1818.09,-177.5 1818.09,-170.5"/>
</g>
<!-- GeoUrlApiPipe -->
<g id="node6" class="node">
<title>GeoUrlApiPipe</title>
<ellipse fill="#fdb462" stroke="black" cx="2530" cy="-104" rx="71.79" ry="18"/>
<text text-anchor="middle" x="2530" y="-99.8" font-family="Times,serif" font-size="14.00">GeoUrlApiPipe</text>
</g>
<!-- GeoUrlApiPipe&#45;&gt;RentalModule -->
<g id="edge5" class="edge">
<title>GeoUrlApiPipe&#45;&gt;RentalModule</title>
<path fill="none" stroke="black" d="M2530,-122.11C2530,-141.34 2530,-169 2530,-169 2530,-169 1818.17,-169 1818.17,-169"/>
<polygon fill="black" stroke="black" points="1818.17,-165.5 1808.17,-169 1818.17,-172.5 1818.17,-165.5"/>
</g>
<!-- GeoUrlApiUtil -->
<g id="node7" class="node">
<title>GeoUrlApiUtil</title>
<ellipse fill="#fdb462" stroke="black" cx="2371" cy="-104" rx="69.5" ry="18"/>
<text text-anchor="middle" x="2371" y="-99.8" font-family="Times,serif" font-size="14.00">GeoUrlApiUtil</text>
</g>
<!-- GeoUrlApiUtil&#45;&gt;RentalModule -->
<g id="edge6" class="edge">
<title>GeoUrlApiUtil&#45;&gt;RentalModule</title>
<path fill="none" stroke="black" d="M2371,-122.3C2371,-140.27 2371,-165 2371,-165 2371,-165 1818.2,-165 1818.2,-165"/>
<polygon fill="black" stroke="black" points="1818.2,-161.5 1808.2,-165 1818.2,-168.5 1818.2,-161.5"/>
</g>
<!-- GivenNoticePipe -->
<g id="node8" class="node">
<title>GivenNoticePipe</title>
<ellipse fill="#fdb462" stroke="black" cx="2206" cy="-104" rx="77.59" ry="18"/>
<text text-anchor="middle" x="2206" y="-99.8" font-family="Times,serif" font-size="14.00">GivenNoticePipe</text>
</g>
<!-- GivenNoticePipe&#45;&gt;RentalModule -->
<g id="edge7" class="edge">
<title>GivenNoticePipe&#45;&gt;RentalModule</title>
<path fill="none" stroke="black" d="M2206,-122.03C2206,-138.4 2206,-160 2206,-160 2206,-160 1818.15,-160 1818.15,-160"/>
<polygon fill="black" stroke="black" points="1818.15,-156.5 1808.15,-160 1818.15,-163.5 1818.15,-156.5"/>
</g>
<!-- JoiValidationPipe -->
<g id="node9" class="node">
<title>JoiValidationPipe</title>
<ellipse fill="#fdb462" stroke="black" cx="2030" cy="-104" rx="80.47" ry="18"/>
<text text-anchor="middle" x="2030" y="-99.8" font-family="Times,serif" font-size="14.00">JoiValidationPipe</text>
</g>
<!-- JoiValidationPipe&#45;&gt;RentalModule -->
<g id="edge8" class="edge">
<title>JoiValidationPipe&#45;&gt;RentalModule</title>
<path fill="none" stroke="black" d="M2030,-122.19C2030,-137.18 2030,-156 2030,-156 2030,-156 1818.27,-156 1818.27,-156"/>
<polygon fill="black" stroke="black" points="1818.27,-152.5 1808.27,-156 1818.27,-159.5 1818.27,-152.5"/>
</g>
<!-- MapNewRentalPipe -->
<g id="node10" class="node">
<title>MapNewRentalPipe</title>
<ellipse fill="#fdb462" stroke="black" cx="1842" cy="-104" rx="89.18" ry="18"/>
<text text-anchor="middle" x="1842" y="-99.8" font-family="Times,serif" font-size="14.00">MapNewRentalPipe</text>
</g>
<!-- MapNewRentalPipe&#45;&gt;RentalModule -->
<g id="edge9" class="edge">
<title>MapNewRentalPipe&#45;&gt;RentalModule</title>
<path fill="none" stroke="black" d="M1780.35,-117.15C1780.35,-117.15 1780.35,-140.69 1780.35,-140.69"/>
<polygon fill="black" stroke="black" points="1776.85,-140.69 1780.35,-150.69 1783.85,-140.69 1776.85,-140.69"/>
</g>
<!-- PricingPipe -->
<g id="node11" class="node">
<title>PricingPipe</title>
<ellipse fill="#fdb462" stroke="black" cx="1679" cy="-104" rx="56.2" ry="18"/>
<text text-anchor="middle" x="1679" y="-99.8" font-family="Times,serif" font-size="14.00">PricingPipe</text>
</g>
<!-- PricingPipe&#45;&gt;RentalModule -->
<g id="edge10" class="edge">
<title>PricingPipe&#45;&gt;RentalModule</title>
<path fill="none" stroke="black" d="M1723.52,-115.03C1723.52,-115.03 1723.52,-140.78 1723.52,-140.78"/>
<polygon fill="black" stroke="black" points="1720.02,-140.78 1723.52,-150.78 1727.02,-140.78 1720.02,-140.78"/>
</g>
<!-- ProcessUnavailabilityPipe -->
<g id="node12" class="node">
<title>ProcessUnavailabilityPipe</title>
<ellipse fill="#fdb462" stroke="black" cx="1492" cy="-104" rx="112.89" ry="18"/>
<text text-anchor="middle" x="1492" y="-99.8" font-family="Times,serif" font-size="14.00">ProcessUnavailabilityPipe</text>
</g>
<!-- ProcessUnavailabilityPipe&#45;&gt;RentalModule -->
<g id="edge11" class="edge">
<title>ProcessUnavailabilityPipe&#45;&gt;RentalModule</title>
<path fill="none" stroke="black" d="M1492,-122.19C1492,-137.18 1492,-156 1492,-156 1492,-156 1701.78,-156 1701.78,-156"/>
<polygon fill="black" stroke="black" points="1701.78,-159.5 1711.78,-156 1701.78,-152.5 1701.78,-159.5"/>
</g>
<!-- RentalDurationPipe -->
<g id="node13" class="node">
<title>RentalDurationPipe</title>
<ellipse fill="#fdb462" stroke="black" cx="1273" cy="-104" rx="87.98" ry="18"/>
<text text-anchor="middle" x="1273" y="-99.8" font-family="Times,serif" font-size="14.00">RentalDurationPipe</text>
</g>
<!-- RentalDurationPipe&#45;&gt;RentalModule -->
<g id="edge12" class="edge">
<title>RentalDurationPipe&#45;&gt;RentalModule</title>
<path fill="none" stroke="black" d="M1273,-122.03C1273,-138.4 1273,-160 1273,-160 1273,-160 1701.52,-160 1701.52,-160"/>
<polygon fill="black" stroke="black" points="1701.52,-163.5 1711.52,-160 1701.52,-156.5 1701.52,-163.5"/>
</g>
<!-- RentalService -->
<g id="node14" class="node">
<title>RentalService</title>
<ellipse fill="#fdb462" stroke="black" cx="1102" cy="-104" rx="65.4" ry="18"/>
<text text-anchor="middle" x="1102" y="-99.8" font-family="Times,serif" font-size="14.00">RentalService</text>
</g>
<!-- RentalService&#45;&gt;RentalModule -->
<g id="edge13" class="edge">
<title>RentalService&#45;&gt;RentalModule</title>
<path fill="none" stroke="black" d="M1102,-122.3C1102,-140.27 1102,-165 1102,-165 1102,-165 1701.88,-165 1701.88,-165"/>
<polygon fill="black" stroke="black" points="1701.88,-168.5 1711.88,-165 1701.88,-161.5 1701.88,-168.5"/>
</g>
<!-- RequestCoordinatesPipe -->
<g id="node15" class="node">
<title>RequestCoordinatesPipe</title>
<ellipse fill="#fdb462" stroke="black" cx="913" cy="-104" rx="105.96" ry="18"/>
<text text-anchor="middle" x="913" y="-99.8" font-family="Times,serif" font-size="14.00">RequestCoordinatesPipe</text>
</g>
<!-- RequestCoordinatesPipe&#45;&gt;RentalModule -->
<g id="edge14" class="edge">
<title>RequestCoordinatesPipe&#45;&gt;RentalModule</title>
<path fill="none" stroke="black" d="M913,-122.11C913,-141.34 913,-169 913,-169 913,-169 1701.73,-169 1701.73,-169"/>
<polygon fill="black" stroke="black" points="1701.73,-172.5 1711.73,-169 1701.73,-165.5 1701.73,-172.5"/>
</g>
<!-- SortUnavailabilityPipe -->
<g id="node16" class="node">
<title>SortUnavailabilityPipe</title>
<ellipse fill="#fdb462" stroke="black" cx="689" cy="-104" rx="99.59" ry="18"/>
<text text-anchor="middle" x="689" y="-99.8" font-family="Times,serif" font-size="14.00">SortUnavailabilityPipe</text>
</g>
<!-- SortUnavailabilityPipe&#45;&gt;RentalModule -->
<g id="edge15" class="edge">
<title>SortUnavailabilityPipe&#45;&gt;RentalModule</title>
<path fill="none" stroke="black" d="M689,-122.03C689,-142.77 689,-174 689,-174 689,-174 1701.9,-174 1701.9,-174"/>
<polygon fill="black" stroke="black" points="1701.9,-177.5 1711.9,-174 1701.9,-170.5 1701.9,-177.5"/>
</g>
<!-- ValidateRemoveUnavailabilityPipe -->
<g id="node17" class="node">
<title>ValidateRemoveUnavailabilityPipe</title>
<ellipse fill="#fdb462" stroke="black" cx="423" cy="-104" rx="148.19" ry="18"/>
<text text-anchor="middle" x="423" y="-99.8" font-family="Times,serif" font-size="14.00">ValidateRemoveUnavailabilityPipe</text>
</g>
<!-- ValidateRemoveUnavailabilityPipe&#45;&gt;RentalModule -->
<g id="edge16" class="edge">
<title>ValidateRemoveUnavailabilityPipe&#45;&gt;RentalModule</title>
<path fill="none" stroke="black" d="M423,-122.29C423,-144.21 423,-178 423,-178 423,-178 1701.63,-178 1701.63,-178"/>
<polygon fill="black" stroke="black" points="1701.63,-181.5 1711.63,-178 1701.63,-174.5 1701.63,-181.5"/>
</g>
<!-- ValidateUnavailabilityPipe -->
<g id="node18" class="node">
<title>ValidateUnavailabilityPipe</title>
<ellipse fill="#fdb462" stroke="black" cx="140" cy="-104" rx="116.32" ry="18"/>
<text text-anchor="middle" x="140" y="-99.8" font-family="Times,serif" font-size="14.00">ValidateUnavailabilityPipe</text>
</g>
<!-- ValidateUnavailabilityPipe&#45;&gt;RentalModule -->
<g id="edge17" class="edge">
<title>ValidateUnavailabilityPipe&#45;&gt;RentalModule</title>
<path fill="none" stroke="black" d="M140,-122.32C140,-145.66 140,-183 140,-183 140,-183 1701.52,-183 1701.52,-183"/>
<polygon fill="black" stroke="black" points="1701.52,-186.5 1711.52,-183 1701.52,-179.5 1701.52,-186.5"/>
</g>
</g>
</svg>
