<?xml version="1.0" encoding="UTF-8" standalone="no"?>
<!DOCTYPE svg PUBLIC "-//W3C//DTD SVG 1.1//EN"
 "http://www.w3.org/Graphics/SVG/1.1/DTD/svg11.dtd">
<!-- Generated by graphviz version 2.44.1 (20200629.0846)
 -->
<!-- Title: dependencies Pages: 1 -->
<svg width="504pt" height="284pt"
 viewBox="0.00 0.00 504.00 284.00" xmlns="http://www.w3.org/2000/svg" xmlns:xlink="http://www.w3.org/1999/xlink">
<g id="graph0" class="graph" transform="scale(1 1) rotate(0) translate(4 280)">
<title>dependencies</title>
<polygon fill="white" stroke="transparent" points="-4,4 -4,-280 500,-280 500,4 -4,4"/>
<text text-anchor="start" x="227.01" y="-42.4" font-family="sans-serif" font-weight="bold" font-size="14.00">Legend</text>
<polygon fill="#ffffb3" stroke="transparent" points="14,-10 14,-30 34,-30 34,-10 14,-10"/>
<text text-anchor="start" x="37.63" y="-15.4" font-family="sans-serif" font-size="14.00"> &#160;Declarations</text>
<polygon fill="#8dd3c7" stroke="transparent" points="127,-10 127,-30 147,-30 147,-10 127,-10"/>
<text text-anchor="start" x="150.73" y="-15.4" font-family="sans-serif" font-size="14.00"> &#160;Module</text>
<polygon fill="#80b1d3" stroke="transparent" points="213,-10 213,-30 233,-30 233,-10 213,-10"/>
<text text-anchor="start" x="236.78" y="-15.4" font-family="sans-serif" font-size="14.00"> &#160;Bootstrap</text>
<polygon fill="#fdb462" stroke="transparent" points="310,-10 310,-30 330,-30 330,-10 310,-10"/>
<text text-anchor="start" x="333.67" y="-15.4" font-family="sans-serif" font-size="14.00"> &#160;Providers</text>
<polygon fill="#fb8072" stroke="transparent" points="406,-10 406,-30 426,-30 426,-10 406,-10"/>
<text text-anchor="start" x="429.73" y="-15.4" font-family="sans-serif" font-size="14.00"> &#160;Exports</text>
<g id="clust1" class="cluster">
<title>cluster_RentalModule</title>
<polygon fill="none" stroke="black" stroke-dasharray="1,5" points="21.5,-70 21.5,-268 474.5,-268 474.5,-70 21.5,-70"/>
</g>
<g id="clust4" class="cluster">
<title>cluster_RentalModule_exports</title>
<polygon fill="none" stroke="black" points="179.5,-208 179.5,-260 293.5,-260 293.5,-208 179.5,-208"/>
</g>
<g id="clust6" class="cluster">
<title>cluster_RentalModule_providers</title>
<polygon fill="none" stroke="black" points="163.5,-78 163.5,-130 466.5,-130 466.5,-78 163.5,-78"/>
</g>
<g id="clust3" class="cluster">
<title>cluster_RentalModule_imports</title>
<polygon fill="none" stroke="black" points="29.5,-78 29.5,-130 155.5,-130 155.5,-78 29.5,-78"/>
</g>
<!-- DatabaseModule -->
<g id="node1" class="node">
<title>DatabaseModule</title>
<polygon fill="#8dd3c7" stroke="black" points="147.85,-122 144.85,-126 123.85,-126 120.85,-122 37.15,-122 37.15,-86 147.85,-86 147.85,-122"/>
<text text-anchor="middle" x="92.5" y="-99.8" font-family="Times,serif" font-size="14.00">DatabaseModule</text>
</g>
<!-- RentalModule -->
<g id="node2" class="node">
<title>RentalModule</title>
<polygon fill="#8dd3c7" stroke="black" points="284.6,-187 281.6,-191 260.6,-191 257.6,-187 188.4,-187 188.4,-151 284.6,-151 284.6,-187"/>
<text text-anchor="middle" x="236.5" y="-164.8" font-family="Times,serif" font-size="14.00">RentalModule</text>
</g>
<!-- DatabaseModule&#45;&gt;RentalModule -->
<g id="edge1" class="edge">
<title>DatabaseModule&#45;&gt;RentalModule</title>
<path fill="none" stroke="black" d="M92.5,-122.11C92.5,-141.34 92.5,-169 92.5,-169 92.5,-169 178.15,-169 178.15,-169"/>
<polygon fill="black" stroke="black" points="178.15,-172.5 188.15,-169 178.15,-165.5 178.15,-172.5"/>
</g>
<!-- RentalService  -->
<g id="node3" class="node">
<title>RentalService </title>
<polygon fill="#fb8072" stroke="black" points="285.52,-252 187.48,-252 187.48,-216 285.52,-216 285.52,-252"/>
<text text-anchor="middle" x="236.5" y="-229.8" font-family="Times,serif" font-size="14.00">RentalService </text>
</g>
<!-- RentalModule&#45;&gt;RentalService  -->
<g id="edge2" class="edge">
<title>RentalModule&#45;&gt;RentalService </title>
<path fill="none" stroke="black" stroke-dasharray="5,2" d="M236.5,-187.11C236.5,-187.11 236.5,-205.99 236.5,-205.99"/>
<polygon fill="black" stroke="black" points="233,-205.99 236.5,-215.99 240,-205.99 233,-205.99"/>
</g>
<!-- GeoUrlApiUtil -->
<g id="node4" class="node">
<title>GeoUrlApiUtil</title>
<ellipse fill="#fdb462" stroke="black" cx="389.5" cy="-104" rx="69.5" ry="18"/>
<text text-anchor="middle" x="389.5" y="-99.8" font-family="Times,serif" font-size="14.00">GeoUrlApiUtil</text>
</g>
<!-- GeoUrlApiUtil&#45;&gt;RentalModule -->
<g id="edge3" class="edge">
<title>GeoUrlApiUtil&#45;&gt;RentalModule</title>
<path fill="none" stroke="black" d="M389.5,-122.11C389.5,-141.34 389.5,-169 389.5,-169 389.5,-169 294.91,-169 294.91,-169"/>
<polygon fill="black" stroke="black" points="294.91,-165.5 284.91,-169 294.91,-172.5 294.91,-165.5"/>
</g>
<!-- RentalService -->
<g id="node5" class="node">
<title>RentalService</title>
<ellipse fill="#fdb462" stroke="black" cx="236.5" cy="-104" rx="65.4" ry="18"/>
<text text-anchor="middle" x="236.5" y="-99.8" font-family="Times,serif" font-size="14.00">RentalService</text>
</g>
<!-- RentalService&#45;&gt;RentalModule -->
<g id="edge4" class="edge">
<title>RentalService&#45;&gt;RentalModule</title>
<path fill="none" stroke="black" d="M236.5,-122.11C236.5,-122.11 236.5,-140.99 236.5,-140.99"/>
<polygon fill="black" stroke="black" points="233,-140.99 236.5,-150.99 240,-140.99 233,-140.99"/>
</g>
</g>
</svg>
