<?xml version="1.0" encoding="UTF-8" standalone="no"?>
<!DOCTYPE svg PUBLIC "-//W3C//DTD SVG 1.1//EN"
 "http://www.w3.org/Graphics/SVG/1.1/DTD/svg11.dtd">
<!-- Generated by graphviz version 2.44.1 (20200629.0846)
 -->
<!-- Title: dependencies Pages: 1 -->
<svg width="3634pt" height="284pt"
 viewBox="0.00 0.00 3634.00 284.00" xmlns="http://www.w3.org/2000/svg" xmlns:xlink="http://www.w3.org/1999/xlink">
<g id="graph0" class="graph" transform="scale(1 1) rotate(0) translate(4 280)">
<title>dependencies</title>
<polygon fill="white" stroke="transparent" points="-4,4 -4,-280 3630,-280 3630,4 -4,4"/>
<text text-anchor="start" x="1792.01" y="-42.4" font-family="sans-serif" font-weight="bold" font-size="14.00">Legend</text>
<polygon fill="#ffffb3" stroke="transparent" points="1579,-10 1579,-30 1599,-30 1599,-10 1579,-10"/>
<text text-anchor="start" x="1602.63" y="-15.4" font-family="sans-serif" font-size="14.00"> &#160;Declarations</text>
<polygon fill="#8dd3c7" stroke="transparent" points="1692,-10 1692,-30 1712,-30 1712,-10 1692,-10"/>
<text text-anchor="start" x="1715.73" y="-15.4" font-family="sans-serif" font-size="14.00"> &#160;Module</text>
<polygon fill="#80b1d3" stroke="transparent" points="1778,-10 1778,-30 1798,-30 1798,-10 1778,-10"/>
<text text-anchor="start" x="1801.78" y="-15.4" font-family="sans-serif" font-size="14.00"> &#160;Bootstrap</text>
<polygon fill="#fdb462" stroke="transparent" points="1875,-10 1875,-30 1895,-30 1895,-10 1875,-10"/>
<text text-anchor="start" x="1898.67" y="-15.4" font-family="sans-serif" font-size="14.00"> &#160;Providers</text>
<polygon fill="#fb8072" stroke="transparent" points="1971,-10 1971,-30 1991,-30 1991,-10 1971,-10"/>
<text text-anchor="start" x="1994.73" y="-15.4" font-family="sans-serif" font-size="14.00"> &#160;Exports</text>
<g id="clust1" class="cluster">
<title>cluster_RentalModule</title>
<polygon fill="none" stroke="black" stroke-dasharray="1,5" points="8,-70 8,-268 3618,-268 3618,-70 8,-70"/>
</g>
<g id="clust6" class="cluster">
<title>cluster_RentalModule_providers</title>
<polygon fill="none" stroke="black" points="150,-78 150,-130 3610,-130 3610,-78 150,-78"/>
</g>
<g id="clust4" class="cluster">
<title>cluster_RentalModule_exports</title>
<polygon fill="none" stroke="black" points="1837,-208 1837,-260 1951,-260 1951,-208 1837,-208"/>
</g>
<g id="clust3" class="cluster">
<title>cluster_RentalModule_imports</title>
<polygon fill="none" stroke="black" points="16,-78 16,-130 142,-130 142,-78 16,-78"/>
</g>
<!-- DatabaseModule -->
<g id="node1" class="node">
<title>DatabaseModule</title>
<polygon fill="#8dd3c7" stroke="black" points="134.35,-122 131.35,-126 110.35,-126 107.35,-122 23.65,-122 23.65,-86 134.35,-86 134.35,-122"/>
<text text-anchor="middle" x="79" y="-99.8" font-family="Times,serif" font-size="14.00">DatabaseModule</text>
</g>
<!-- RentalModule -->
<g id="node2" class="node">
<title>RentalModule</title>
<polygon fill="#8dd3c7" stroke="black" points="1942.1,-187 1939.1,-191 1918.1,-191 1915.1,-187 1845.9,-187 1845.9,-151 1942.1,-151 1942.1,-187"/>
<text text-anchor="middle" x="1894" y="-164.8" font-family="Times,serif" font-size="14.00">RentalModule</text>
</g>
<!-- DatabaseModule&#45;&gt;RentalModule -->
<g id="edge1" class="edge">
<title>DatabaseModule&#45;&gt;RentalModule</title>
<path fill="none" stroke="black" d="M79,-122.32C79,-145.66 79,-183 79,-183 79,-183 1835.92,-183 1835.92,-183"/>
<polygon fill="black" stroke="black" points="1835.92,-186.5 1845.92,-183 1835.92,-179.5 1835.92,-186.5"/>
</g>
<!-- RentalService  -->
<g id="node3" class="node">
<title>RentalService </title>
<polygon fill="#fb8072" stroke="black" points="1943.02,-252 1844.98,-252 1844.98,-216 1943.02,-216 1943.02,-252"/>
<text text-anchor="middle" x="1894" y="-229.8" font-family="Times,serif" font-size="14.00">RentalService </text>
</g>
<!-- RentalModule&#45;&gt;RentalService  -->
<g id="edge2" class="edge">
<title>RentalModule&#45;&gt;RentalService </title>
<path fill="none" stroke="black" stroke-dasharray="5,2" d="M1894,-187.11C1894,-187.11 1894,-205.99 1894,-205.99"/>
<polygon fill="black" stroke="black" points="1890.5,-205.99 1894,-215.99 1897.5,-205.99 1890.5,-205.99"/>
</g>
<!-- AppConfigService -->
<g id="node4" class="node">
<title>AppConfigService</title>
<ellipse fill="#fdb462" stroke="black" cx="3519" cy="-104" rx="83.39" ry="18"/>
<text text-anchor="middle" x="3519" y="-99.8" font-family="Times,serif" font-size="14.00">AppConfigService</text>
</g>
<!-- AppConfigService&#45;&gt;RentalModule -->
<g id="edge3" class="edge">
<title>AppConfigService&#45;&gt;RentalModule</title>
<path fill="none" stroke="black" d="M3519,-122.32C3519,-145.66 3519,-183 3519,-183 3519,-183 1952.19,-183 1952.19,-183"/>
<polygon fill="black" stroke="black" points="1952.19,-179.5 1942.19,-183 1952.19,-186.5 1952.19,-179.5"/>
</g>
<!-- CreateUpdaterDtoPipe -->
<g id="node5" class="node">
<title>CreateUpdaterDtoPipe</title>
<ellipse fill="#fdb462" stroke="black" cx="3319" cy="-104" rx="98.97" ry="18"/>
<text text-anchor="middle" x="3319" y="-99.8" font-family="Times,serif" font-size="14.00">CreateUpdaterDtoPipe</text>
</g>
<!-- CreateUpdaterDtoPipe&#45;&gt;RentalModule -->
<g id="edge4" class="edge">
<title>CreateUpdaterDtoPipe&#45;&gt;RentalModule</title>
<path fill="none" stroke="black" d="M3319,-122.16C3319,-144.35 3319,-179 3319,-179 3319,-179 1952.23,-179 1952.23,-179"/>
<polygon fill="black" stroke="black" points="1952.23,-175.5 1942.23,-179 1952.23,-182.5 1952.23,-175.5"/>
</g>
<!-- EditDetailsPipe -->
<g id="node6" class="node">
<title>EditDetailsPipe</title>
<ellipse fill="#fdb462" stroke="black" cx="3130" cy="-104" rx="71.8" ry="18"/>
<text text-anchor="middle" x="3130" y="-99.8" font-family="Times,serif" font-size="14.00">EditDetailsPipe</text>
</g>
<!-- EditDetailsPipe&#45;&gt;RentalModule -->
<g id="edge5" class="edge">
<title>EditDetailsPipe&#45;&gt;RentalModule</title>
<path fill="none" stroke="black" d="M3130,-122.28C3130,-143.32 3130,-175 3130,-175 3130,-175 1952.07,-175 1952.07,-175"/>
<polygon fill="black" stroke="black" points="1952.07,-171.5 1942.07,-175 1952.07,-178.5 1952.07,-171.5"/>
</g>
<!-- GenerateRentalDurationEnumUtil -->
<g id="node7" class="node">
<title>GenerateRentalDurationEnumUtil</title>
<ellipse fill="#fdb462" stroke="black" cx="2897" cy="-104" rx="143.52" ry="18"/>
<text text-anchor="middle" x="2897" y="-99.8" font-family="Times,serif" font-size="14.00">GenerateRentalDurationEnumUtil</text>
</g>
<!-- GenerateRentalDurationEnumUtil&#45;&gt;RentalModule -->
<g id="edge6" class="edge">
<title>GenerateRentalDurationEnumUtil&#45;&gt;RentalModule</title>
<path fill="none" stroke="black" d="M2897,-122.31C2897,-142.15 2897,-171 2897,-171 2897,-171 1952.38,-171 1952.38,-171"/>
<polygon fill="black" stroke="black" points="1952.38,-167.5 1942.38,-171 1952.38,-174.5 1952.38,-167.5"/>
</g>
<!-- GeoUrlApiPipe -->
<g id="node8" class="node">
<title>GeoUrlApiPipe</title>
<ellipse fill="#fdb462" stroke="black" cx="2664" cy="-104" rx="71.79" ry="18"/>
<text text-anchor="middle" x="2664" y="-99.8" font-family="Times,serif" font-size="14.00">GeoUrlApiPipe</text>
</g>
<!-- GeoUrlApiPipe&#45;&gt;RentalModule -->
<g id="edge7" class="edge">
<title>GeoUrlApiPipe&#45;&gt;RentalModule</title>
<path fill="none" stroke="black" d="M2664,-122.22C2664,-140.83 2664,-167 2664,-167 2664,-167 1952.17,-167 1952.17,-167"/>
<polygon fill="black" stroke="black" points="1952.17,-163.5 1942.17,-167 1952.17,-170.5 1952.17,-163.5"/>
</g>
<!-- GeoUrlApiUtil -->
<g id="node9" class="node">
<title>GeoUrlApiUtil</title>
<ellipse fill="#fdb462" stroke="black" cx="2505" cy="-104" rx="69.5" ry="18"/>
<text text-anchor="middle" x="2505" y="-99.8" font-family="Times,serif" font-size="14.00">GeoUrlApiUtil</text>
</g>
<!-- GeoUrlApiUtil&#45;&gt;RentalModule -->
<g id="edge8" class="edge">
<title>GeoUrlApiUtil&#45;&gt;RentalModule</title>
<path fill="none" stroke="black" d="M2505,-122.02C2505,-139.37 2505,-163 2505,-163 2505,-163 1952.2,-163 1952.2,-163"/>
<polygon fill="black" stroke="black" points="1952.2,-159.5 1942.2,-163 1952.2,-166.5 1952.2,-159.5"/>
</g>
<!-- GivenNoticePipe -->
<g id="node10" class="node">
<title>GivenNoticePipe</title>
<ellipse fill="#fdb462" stroke="black" cx="2340" cy="-104" rx="77.59" ry="18"/>
<text text-anchor="middle" x="2340" y="-99.8" font-family="Times,serif" font-size="14.00">GivenNoticePipe</text>
</g>
<!-- GivenNoticePipe&#45;&gt;RentalModule -->
<g id="edge9" class="edge">
<title>GivenNoticePipe&#45;&gt;RentalModule</title>
<path fill="none" stroke="black" d="M2340,-122.01C2340,-138.05 2340,-159 2340,-159 2340,-159 1952.15,-159 1952.15,-159"/>
<polygon fill="black" stroke="black" points="1952.15,-155.5 1942.15,-159 1952.15,-162.5 1952.15,-155.5"/>
</g>
<!-- JoiValidationPipe -->
<g id="node11" class="node">
<title>JoiValidationPipe</title>
<ellipse fill="#fdb462" stroke="black" cx="2164" cy="-104" rx="80.47" ry="18"/>
<text text-anchor="middle" x="2164" y="-99.8" font-family="Times,serif" font-size="14.00">JoiValidationPipe</text>
</g>
<!-- JoiValidationPipe&#45;&gt;RentalModule -->
<g id="edge10" class="edge">
<title>JoiValidationPipe&#45;&gt;RentalModule</title>
<path fill="none" stroke="black" d="M2164,-122.12C2164,-136.78 2164,-155 2164,-155 2164,-155 1952.27,-155 1952.27,-155"/>
<polygon fill="black" stroke="black" points="1952.27,-151.5 1942.27,-155 1952.27,-158.5 1952.27,-151.5"/>
</g>
<!-- MapNewRentalPipe -->
<g id="node12" class="node">
<title>MapNewRentalPipe</title>
<ellipse fill="#fdb462" stroke="black" cx="1976" cy="-104" rx="89.18" ry="18"/>
<text text-anchor="middle" x="1976" y="-99.8" font-family="Times,serif" font-size="14.00">MapNewRentalPipe</text>
</g>
<!-- MapNewRentalPipe&#45;&gt;RentalModule -->
<g id="edge11" class="edge">
<title>MapNewRentalPipe&#45;&gt;RentalModule</title>
<path fill="none" stroke="black" d="M1914.35,-117.15C1914.35,-117.15 1914.35,-140.69 1914.35,-140.69"/>
<polygon fill="black" stroke="black" points="1910.85,-140.69 1914.35,-150.69 1917.85,-140.69 1910.85,-140.69"/>
</g>
<!-- PricingPipe -->
<g id="node13" class="node">
<title>PricingPipe</title>
<ellipse fill="#fdb462" stroke="black" cx="1813" cy="-104" rx="56.2" ry="18"/>
<text text-anchor="middle" x="1813" y="-99.8" font-family="Times,serif" font-size="14.00">PricingPipe</text>
</g>
<!-- PricingPipe&#45;&gt;RentalModule -->
<g id="edge12" class="edge">
<title>PricingPipe&#45;&gt;RentalModule</title>
<path fill="none" stroke="black" d="M1857.52,-115.03C1857.52,-115.03 1857.52,-140.78 1857.52,-140.78"/>
<polygon fill="black" stroke="black" points="1854.02,-140.78 1857.52,-150.78 1861.02,-140.78 1854.02,-140.78"/>
</g>
<!-- ProcessUnavailabilityPipe -->
<g id="node14" class="node">
<title>ProcessUnavailabilityPipe</title>
<ellipse fill="#fdb462" stroke="black" cx="1626" cy="-104" rx="112.89" ry="18"/>
<text text-anchor="middle" x="1626" y="-99.8" font-family="Times,serif" font-size="14.00">ProcessUnavailabilityPipe</text>
</g>
<!-- ProcessUnavailabilityPipe&#45;&gt;RentalModule -->
<g id="edge13" class="edge">
<title>ProcessUnavailabilityPipe&#45;&gt;RentalModule</title>
<path fill="none" stroke="black" d="M1626,-122.12C1626,-136.78 1626,-155 1626,-155 1626,-155 1835.78,-155 1835.78,-155"/>
<polygon fill="black" stroke="black" points="1835.78,-158.5 1845.78,-155 1835.78,-151.5 1835.78,-158.5"/>
</g>
<!-- RentalDurationPipe -->
<g id="node15" class="node">
<title>RentalDurationPipe</title>
<ellipse fill="#fdb462" stroke="black" cx="1407" cy="-104" rx="87.98" ry="18"/>
<text text-anchor="middle" x="1407" y="-99.8" font-family="Times,serif" font-size="14.00">RentalDurationPipe</text>
</g>
<!-- RentalDurationPipe&#45;&gt;RentalModule -->
<g id="edge14" class="edge">
<title>RentalDurationPipe&#45;&gt;RentalModule</title>
<path fill="none" stroke="black" d="M1407,-122.01C1407,-138.05 1407,-159 1407,-159 1407,-159 1835.52,-159 1835.52,-159"/>
<polygon fill="black" stroke="black" points="1835.52,-162.5 1845.52,-159 1835.52,-155.5 1835.52,-162.5"/>
</g>
<!-- RentalService -->
<g id="node16" class="node">
<title>RentalService</title>
<ellipse fill="#fdb462" stroke="black" cx="1236" cy="-104" rx="65.4" ry="18"/>
<text text-anchor="middle" x="1236" y="-99.8" font-family="Times,serif" font-size="14.00">RentalService</text>
</g>
<!-- RentalService&#45;&gt;RentalModule -->
<g id="edge15" class="edge">
<title>RentalService&#45;&gt;RentalModule</title>
<path fill="none" stroke="black" d="M1236,-122.02C1236,-139.37 1236,-163 1236,-163 1236,-163 1835.88,-163 1835.88,-163"/>
<polygon fill="black" stroke="black" points="1835.88,-166.5 1845.88,-163 1835.88,-159.5 1835.88,-166.5"/>
</g>
<!-- RequestCoordinatesPipe -->
<g id="node17" class="node">
<title>RequestCoordinatesPipe</title>
<ellipse fill="#fdb462" stroke="black" cx="1047" cy="-104" rx="105.96" ry="18"/>
<text text-anchor="middle" x="1047" y="-99.8" font-family="Times,serif" font-size="14.00">RequestCoordinatesPipe</text>
</g>
<!-- RequestCoordinatesPipe&#45;&gt;RentalModule -->
<g id="edge16" class="edge">
<title>RequestCoordinatesPipe&#45;&gt;RentalModule</title>
<path fill="none" stroke="black" d="M1047,-122.22C1047,-140.83 1047,-167 1047,-167 1047,-167 1835.73,-167 1835.73,-167"/>
<polygon fill="black" stroke="black" points="1835.73,-170.5 1845.73,-167 1835.73,-163.5 1835.73,-170.5"/>
</g>
<!-- SortUnavailabilityPipe -->
<g id="node18" class="node">
<title>SortUnavailabilityPipe</title>
<ellipse fill="#fdb462" stroke="black" cx="823" cy="-104" rx="99.59" ry="18"/>
<text text-anchor="middle" x="823" y="-99.8" font-family="Times,serif" font-size="14.00">SortUnavailabilityPipe</text>
</g>
<!-- SortUnavailabilityPipe&#45;&gt;RentalModule -->
<g id="edge17" class="edge">
<title>SortUnavailabilityPipe&#45;&gt;RentalModule</title>
<path fill="none" stroke="black" d="M823,-122.31C823,-142.15 823,-171 823,-171 823,-171 1835.9,-171 1835.9,-171"/>
<polygon fill="black" stroke="black" points="1835.9,-174.5 1845.9,-171 1835.9,-167.5 1835.9,-174.5"/>
</g>
<!-- ValidateRemoveUnavailabilityPipe -->
<g id="node19" class="node">
<title>ValidateRemoveUnavailabilityPipe</title>
<ellipse fill="#fdb462" stroke="black" cx="557" cy="-104" rx="148.19" ry="18"/>
<text text-anchor="middle" x="557" y="-99.8" font-family="Times,serif" font-size="14.00">ValidateRemoveUnavailabilityPipe</text>
</g>
<!-- ValidateRemoveUnavailabilityPipe&#45;&gt;RentalModule -->
<g id="edge18" class="edge">
<title>ValidateRemoveUnavailabilityPipe&#45;&gt;RentalModule</title>
<path fill="none" stroke="black" d="M557,-122.28C557,-143.32 557,-175 557,-175 557,-175 1835.63,-175 1835.63,-175"/>
<polygon fill="black" stroke="black" points="1835.63,-178.5 1845.63,-175 1835.63,-171.5 1835.63,-178.5"/>
</g>
<!-- ValidateUnavailabilityPipe -->
<g id="node20" class="node">
<title>ValidateUnavailabilityPipe</title>
<ellipse fill="#fdb462" stroke="black" cx="274" cy="-104" rx="116.32" ry="18"/>
<text text-anchor="middle" x="274" y="-99.8" font-family="Times,serif" font-size="14.00">ValidateUnavailabilityPipe</text>
</g>
<!-- ValidateUnavailabilityPipe&#45;&gt;RentalModule -->
<g id="edge19" class="edge">
<title>ValidateUnavailabilityPipe&#45;&gt;RentalModule</title>
<path fill="none" stroke="black" d="M274,-122.16C274,-144.35 274,-179 274,-179 274,-179 1835.52,-179 1835.52,-179"/>
<polygon fill="black" stroke="black" points="1835.52,-182.5 1845.52,-179 1835.52,-175.5 1835.52,-182.5"/>
</g>
</g>
</svg>
