<?xml version="1.0" encoding="UTF-8" standalone="no"?>
<!DOCTYPE svg PUBLIC "-//W3C//DTD SVG 1.1//EN"
 "http://www.w3.org/Graphics/SVG/1.1/DTD/svg11.dtd">
<!-- Generated by graphviz version 2.44.1 (20200629.0846)
 -->
<!-- Title: dependencies Pages: 1 -->
<svg width="674pt" height="284pt"
 viewBox="0.00 0.00 674.00 284.00" xmlns="http://www.w3.org/2000/svg" xmlns:xlink="http://www.w3.org/1999/xlink">
<g id="graph0" class="graph" transform="scale(1 1) rotate(0) translate(4 280)">
<title>dependencies</title>
<polygon fill="white" stroke="transparent" points="-4,4 -4,-280 670,-280 670,4 -4,4"/>
<text text-anchor="start" x="312.01" y="-42.4" font-family="sans-serif" font-weight="bold" font-size="14.00">Legend</text>
<polygon fill="#ffffb3" stroke="transparent" points="99,-10 99,-30 119,-30 119,-10 99,-10"/>
<text text-anchor="start" x="122.63" y="-15.4" font-family="sans-serif" font-size="14.00"> &#160;Declarations</text>
<polygon fill="#8dd3c7" stroke="transparent" points="212,-10 212,-30 232,-30 232,-10 212,-10"/>
<text text-anchor="start" x="235.73" y="-15.4" font-family="sans-serif" font-size="14.00"> &#160;Module</text>
<polygon fill="#80b1d3" stroke="transparent" points="298,-10 298,-30 318,-30 318,-10 298,-10"/>
<text text-anchor="start" x="321.78" y="-15.4" font-family="sans-serif" font-size="14.00"> &#160;Bootstrap</text>
<polygon fill="#fdb462" stroke="transparent" points="395,-10 395,-30 415,-30 415,-10 395,-10"/>
<text text-anchor="start" x="418.67" y="-15.4" font-family="sans-serif" font-size="14.00"> &#160;Providers</text>
<polygon fill="#fb8072" stroke="transparent" points="491,-10 491,-30 511,-30 511,-10 491,-10"/>
<text text-anchor="start" x="514.73" y="-15.4" font-family="sans-serif" font-size="14.00"> &#160;Exports</text>
<g id="clust1" class="cluster">
<title>cluster_RentalModule</title>
<polygon fill="none" stroke="black" stroke-dasharray="1,5" points="8,-70 8,-268 658,-268 658,-70 8,-70"/>
</g>
<g id="clust4" class="cluster">
<title>cluster_RentalModule_exports</title>
<polygon fill="none" stroke="black" points="293,-208 293,-260 407,-260 407,-208 293,-208"/>
</g>
<g id="clust3" class="cluster">
<title>cluster_RentalModule_imports</title>
<polygon fill="none" stroke="black" points="524,-78 524,-130 650,-130 650,-78 524,-78"/>
</g>
<g id="clust6" class="cluster">
<title>cluster_RentalModule_providers</title>
<polygon fill="none" stroke="black" points="16,-78 16,-130 516,-130 516,-78 16,-78"/>
</g>
<!-- DatabaseModule -->
<g id="node1" class="node">
<title>DatabaseModule</title>
<polygon fill="#8dd3c7" stroke="black" points="642.35,-122 639.35,-126 618.35,-126 615.35,-122 531.65,-122 531.65,-86 642.35,-86 642.35,-122"/>
<text text-anchor="middle" x="587" y="-99.8" font-family="Times,serif" font-size="14.00">DatabaseModule</text>
</g>
<!-- RentalModule -->
<g id="node2" class="node">
<title>RentalModule</title>
<polygon fill="#8dd3c7" stroke="black" points="398.1,-187 395.1,-191 374.1,-191 371.1,-187 301.9,-187 301.9,-151 398.1,-151 398.1,-187"/>
<text text-anchor="middle" x="350" y="-164.8" font-family="Times,serif" font-size="14.00">RentalModule</text>
</g>
<!-- DatabaseModule&#45;&gt;RentalModule -->
<g id="edge1" class="edge">
<title>DatabaseModule&#45;&gt;RentalModule</title>
<path fill="none" stroke="black" d="M587,-122.11C587,-141.34 587,-169 587,-169 587,-169 408.25,-169 408.25,-169"/>
<polygon fill="black" stroke="black" points="408.25,-165.5 398.25,-169 408.25,-172.5 408.25,-165.5"/>
</g>
<!-- RentalService  -->
<g id="node3" class="node">
<title>RentalService </title>
<polygon fill="#fb8072" stroke="black" points="399.02,-252 300.98,-252 300.98,-216 399.02,-216 399.02,-252"/>
<text text-anchor="middle" x="350" y="-229.8" font-family="Times,serif" font-size="14.00">RentalService </text>
</g>
<!-- RentalModule&#45;&gt;RentalService  -->
<g id="edge2" class="edge">
<title>RentalModule&#45;&gt;RentalService </title>
<path fill="none" stroke="black" stroke-dasharray="5,2" d="M350,-187.11C350,-187.11 350,-205.99 350,-205.99"/>
<polygon fill="black" stroke="black" points="346.5,-205.99 350,-215.99 353.5,-205.99 346.5,-205.99"/>
</g>
<!-- GeoUrlApiUtil -->
<g id="node4" class="node">
<title>GeoUrlApiUtil</title>
<ellipse fill="#fdb462" stroke="black" cx="439" cy="-104" rx="69.5" ry="18"/>
<text text-anchor="middle" x="439" y="-99.8" font-family="Times,serif" font-size="14.00">GeoUrlApiUtil</text>
</g>
<!-- GeoUrlApiUtil&#45;&gt;RentalModule -->
<g id="edge3" class="edge">
<title>GeoUrlApiUtil&#45;&gt;RentalModule</title>
<path fill="none" stroke="black" d="M383.77,-115.03C383.77,-115.03 383.77,-140.78 383.77,-140.78"/>
<polygon fill="black" stroke="black" points="380.27,-140.78 383.77,-150.78 387.27,-140.78 380.27,-140.78"/>
</g>
<!-- MapNewRentalPipe -->
<g id="node5" class="node">
<title>MapNewRentalPipe</title>
<ellipse fill="#fdb462" stroke="black" cx="262" cy="-104" rx="89.18" ry="18"/>
<text text-anchor="middle" x="262" y="-99.8" font-family="Times,serif" font-size="14.00">MapNewRentalPipe</text>
</g>
<!-- MapNewRentalPipe&#45;&gt;RentalModule -->
<g id="edge4" class="edge">
<title>MapNewRentalPipe&#45;&gt;RentalModule</title>
<path fill="none" stroke="black" d="M326.65,-116.53C326.65,-116.53 326.65,-140.85 326.65,-140.85"/>
<polygon fill="black" stroke="black" points="323.15,-140.85 326.65,-150.85 330.15,-140.85 323.15,-140.85"/>
</g>
<!-- RentalService -->
<g id="node6" class="node">
<title>RentalService</title>
<ellipse fill="#fdb462" stroke="black" cx="89" cy="-104" rx="65.4" ry="18"/>
<text text-anchor="middle" x="89" y="-99.8" font-family="Times,serif" font-size="14.00">RentalService</text>
</g>
<!-- RentalService&#45;&gt;RentalModule -->
<g id="edge5" class="edge">
<title>RentalService&#45;&gt;RentalModule</title>
<path fill="none" stroke="black" d="M89,-122.11C89,-141.34 89,-169 89,-169 89,-169 291.82,-169 291.82,-169"/>
<polygon fill="black" stroke="black" points="291.82,-172.5 301.82,-169 291.82,-165.5 291.82,-172.5"/>
</g>
</g>
</svg>
