<?xml version="1.0" encoding="UTF-8" standalone="no"?>
<!DOCTYPE svg PUBLIC "-//W3C//DTD SVG 1.1//EN"
 "http://www.w3.org/Graphics/SVG/1.1/DTD/svg11.dtd">
<!-- Generated by graphviz version 2.44.1 (20200629.0846)
 -->
<!-- Title: dependencies Pages: 1 -->
<svg width="3520pt" height="284pt"
 viewBox="0.00 0.00 3520.00 284.00" xmlns="http://www.w3.org/2000/svg" xmlns:xlink="http://www.w3.org/1999/xlink">
<g id="graph0" class="graph" transform="scale(1 1) rotate(0) translate(4 280)">
<title>dependencies</title>
<polygon fill="white" stroke="transparent" points="-4,4 -4,-280 3516,-280 3516,4 -4,4"/>
<text text-anchor="start" x="1735.01" y="-42.4" font-family="sans-serif" font-weight="bold" font-size="14.00">Legend</text>
<polygon fill="#ffffb3" stroke="transparent" points="1522,-10 1522,-30 1542,-30 1542,-10 1522,-10"/>
<text text-anchor="start" x="1545.63" y="-15.4" font-family="sans-serif" font-size="14.00"> &#160;Declarations</text>
<polygon fill="#8dd3c7" stroke="transparent" points="1635,-10 1635,-30 1655,-30 1655,-10 1635,-10"/>
<text text-anchor="start" x="1658.73" y="-15.4" font-family="sans-serif" font-size="14.00"> &#160;Module</text>
<polygon fill="#80b1d3" stroke="transparent" points="1721,-10 1721,-30 1741,-30 1741,-10 1721,-10"/>
<text text-anchor="start" x="1744.78" y="-15.4" font-family="sans-serif" font-size="14.00"> &#160;Bootstrap</text>
<polygon fill="#fdb462" stroke="transparent" points="1818,-10 1818,-30 1838,-30 1838,-10 1818,-10"/>
<text text-anchor="start" x="1841.67" y="-15.4" font-family="sans-serif" font-size="14.00"> &#160;Providers</text>
<polygon fill="#fb8072" stroke="transparent" points="1914,-10 1914,-30 1934,-30 1934,-10 1914,-10"/>
<text text-anchor="start" x="1937.73" y="-15.4" font-family="sans-serif" font-size="14.00"> &#160;Exports</text>
<g id="clust1" class="cluster">
<title>cluster_RentalModule</title>
<polygon fill="none" stroke="black" stroke-dasharray="1,5" points="8,-70 8,-268 3504,-268 3504,-70 8,-70"/>
</g>
<g id="clust6" class="cluster">
<title>cluster_RentalModule_providers</title>
<polygon fill="none" stroke="black" points="150,-78 150,-130 3496,-130 3496,-78 150,-78"/>
</g>
<g id="clust4" class="cluster">
<title>cluster_RentalModule_exports</title>
<polygon fill="none" stroke="black" points="1796,-208 1796,-260 1910,-260 1910,-208 1796,-208"/>
</g>
<g id="clust3" class="cluster">
<title>cluster_RentalModule_imports</title>
<polygon fill="none" stroke="black" points="16,-78 16,-130 142,-130 142,-78 16,-78"/>
</g>
<!-- DatabaseModule -->
<g id="node1" class="node">
<title>DatabaseModule</title>
<polygon fill="#8dd3c7" stroke="black" points="134.35,-122 131.35,-126 110.35,-126 107.35,-122 23.65,-122 23.65,-86 134.35,-86 134.35,-122"/>
<text text-anchor="middle" x="79" y="-99.8" font-family="Times,serif" font-size="14.00">DatabaseModule</text>
</g>
<!-- RentalModule -->
<g id="node2" class="node">
<title>RentalModule</title>
<polygon fill="#8dd3c7" stroke="black" points="1901.1,-187 1898.1,-191 1877.1,-191 1874.1,-187 1804.9,-187 1804.9,-151 1901.1,-151 1901.1,-187"/>
<text text-anchor="middle" x="1853" y="-164.8" font-family="Times,serif" font-size="14.00">RentalModule</text>
</g>
<!-- DatabaseModule&#45;&gt;RentalModule -->
<g id="edge1" class="edge">
<title>DatabaseModule&#45;&gt;RentalModule</title>
<path fill="none" stroke="black" d="M79,-122.32C79,-145.66 79,-183 79,-183 79,-183 1794.63,-183 1794.63,-183"/>
<polygon fill="black" stroke="black" points="1794.63,-186.5 1804.63,-183 1794.63,-179.5 1794.63,-186.5"/>
</g>
<!-- RentalService  -->
<g id="node3" class="node">
<title>RentalService </title>
<polygon fill="#fb8072" stroke="black" points="1902.02,-252 1803.98,-252 1803.98,-216 1902.02,-216 1902.02,-252"/>
<text text-anchor="middle" x="1853" y="-229.8" font-family="Times,serif" font-size="14.00">RentalService </text>
</g>
<!-- RentalModule&#45;&gt;RentalService  -->
<g id="edge2" class="edge">
<title>RentalModule&#45;&gt;RentalService </title>
<path fill="none" stroke="black" stroke-dasharray="5,2" d="M1853,-187.11C1853,-187.11 1853,-205.99 1853,-205.99"/>
<polygon fill="black" stroke="black" points="1849.5,-205.99 1853,-215.99 1856.5,-205.99 1849.5,-205.99"/>
</g>
<!-- AppConfigService -->
<g id="node4" class="node">
<title>AppConfigService</title>
<ellipse fill="#fdb462" stroke="black" cx="3405" cy="-104" rx="83.39" ry="18"/>
<text text-anchor="middle" x="3405" y="-99.8" font-family="Times,serif" font-size="14.00">AppConfigService</text>
</g>
<!-- AppConfigService&#45;&gt;RentalModule -->
<g id="edge3" class="edge">
<title>AppConfigService&#45;&gt;RentalModule</title>
<path fill="none" stroke="black" d="M3405,-122.32C3405,-145.66 3405,-183 3405,-183 3405,-183 1911.15,-183 1911.15,-183"/>
<polygon fill="black" stroke="black" points="1911.15,-179.5 1901.15,-183 1911.15,-186.5 1911.15,-179.5"/>
</g>
<!-- CreateUpdaterDtoPipe -->
<g id="node5" class="node">
<title>CreateUpdaterDtoPipe</title>
<ellipse fill="#fdb462" stroke="black" cx="3205" cy="-104" rx="98.97" ry="18"/>
<text text-anchor="middle" x="3205" y="-99.8" font-family="Times,serif" font-size="14.00">CreateUpdaterDtoPipe</text>
</g>
<!-- CreateUpdaterDtoPipe&#45;&gt;RentalModule -->
<g id="edge4" class="edge">
<title>CreateUpdaterDtoPipe&#45;&gt;RentalModule</title>
<path fill="none" stroke="black" d="M3205,-122.16C3205,-144.35 3205,-179 3205,-179 3205,-179 1911.12,-179 1911.12,-179"/>
<polygon fill="black" stroke="black" points="1911.12,-175.5 1901.12,-179 1911.12,-182.5 1911.12,-175.5"/>
</g>
<!-- GenerateRentalDurationEnumUtil -->
<g id="node6" class="node">
<title>GenerateRentalDurationEnumUtil</title>
<ellipse fill="#fdb462" stroke="black" cx="2945" cy="-104" rx="143.52" ry="18"/>
<text text-anchor="middle" x="2945" y="-99.8" font-family="Times,serif" font-size="14.00">GenerateRentalDurationEnumUtil</text>
</g>
<!-- GenerateRentalDurationEnumUtil&#45;&gt;RentalModule -->
<g id="edge5" class="edge">
<title>GenerateRentalDurationEnumUtil&#45;&gt;RentalModule</title>
<path fill="none" stroke="black" d="M2945,-122.28C2945,-143.32 2945,-175 2945,-175 2945,-175 1911.33,-175 1911.33,-175"/>
<polygon fill="black" stroke="black" points="1911.33,-171.5 1901.33,-175 1911.33,-178.5 1911.33,-171.5"/>
</g>
<!-- GeoUrlApiPipe -->
<g id="node7" class="node">
<title>GeoUrlApiPipe</title>
<ellipse fill="#fdb462" stroke="black" cx="2712" cy="-104" rx="71.79" ry="18"/>
<text text-anchor="middle" x="2712" y="-99.8" font-family="Times,serif" font-size="14.00">GeoUrlApiPipe</text>
</g>
<!-- GeoUrlApiPipe&#45;&gt;RentalModule -->
<g id="edge6" class="edge">
<title>GeoUrlApiPipe&#45;&gt;RentalModule</title>
<path fill="none" stroke="black" d="M2712,-122.31C2712,-142.15 2712,-171 2712,-171 2712,-171 1911.33,-171 1911.33,-171"/>
<polygon fill="black" stroke="black" points="1911.33,-167.5 1901.33,-171 1911.33,-174.5 1911.33,-167.5"/>
</g>
<!-- GeoUrlApiUtil -->
<g id="node8" class="node">
<title>GeoUrlApiUtil</title>
<ellipse fill="#fdb462" stroke="black" cx="2553" cy="-104" rx="69.5" ry="18"/>
<text text-anchor="middle" x="2553" y="-99.8" font-family="Times,serif" font-size="14.00">GeoUrlApiUtil</text>
</g>
<!-- GeoUrlApiUtil&#45;&gt;RentalModule -->
<g id="edge7" class="edge">
<title>GeoUrlApiUtil&#45;&gt;RentalModule</title>
<path fill="none" stroke="black" d="M2553,-122.22C2553,-140.83 2553,-167 2553,-167 2553,-167 1911.11,-167 1911.11,-167"/>
<polygon fill="black" stroke="black" points="1911.11,-163.5 1901.11,-167 1911.11,-170.5 1911.11,-163.5"/>
</g>
<!-- GivenNoticePipe -->
<g id="node9" class="node">
<title>GivenNoticePipe</title>
<ellipse fill="#fdb462" stroke="black" cx="2388" cy="-104" rx="77.59" ry="18"/>
<text text-anchor="middle" x="2388" y="-99.8" font-family="Times,serif" font-size="14.00">GivenNoticePipe</text>
</g>
<!-- GivenNoticePipe&#45;&gt;RentalModule -->
<g id="edge8" class="edge">
<title>GivenNoticePipe&#45;&gt;RentalModule</title>
<path fill="none" stroke="black" d="M2388,-122.02C2388,-139.37 2388,-163 2388,-163 2388,-163 1911.42,-163 1911.42,-163"/>
<polygon fill="black" stroke="black" points="1911.42,-159.5 1901.42,-163 1911.42,-166.5 1911.42,-159.5"/>
</g>
<!-- MapNewRentalPipe -->
<g id="node10" class="node">
<title>MapNewRentalPipe</title>
<ellipse fill="#fdb462" stroke="black" cx="2203" cy="-104" rx="89.18" ry="18"/>
<text text-anchor="middle" x="2203" y="-99.8" font-family="Times,serif" font-size="14.00">MapNewRentalPipe</text>
</g>
<!-- MapNewRentalPipe&#45;&gt;RentalModule -->
<g id="edge9" class="edge">
<title>MapNewRentalPipe&#45;&gt;RentalModule</title>
<path fill="none" stroke="black" d="M2203,-122.01C2203,-138.05 2203,-159 2203,-159 2203,-159 1911.3,-159 1911.3,-159"/>
<polygon fill="black" stroke="black" points="1911.3,-155.5 1901.3,-159 1911.3,-162.5 1911.3,-155.5"/>
</g>
<!-- PricingPipe -->
<g id="node11" class="node">
<title>PricingPipe</title>
<ellipse fill="#fdb462" stroke="black" cx="2040" cy="-104" rx="56.2" ry="18"/>
<text text-anchor="middle" x="2040" y="-99.8" font-family="Times,serif" font-size="14.00">PricingPipe</text>
</g>
<!-- PricingPipe&#45;&gt;RentalModule -->
<g id="edge10" class="edge">
<title>PricingPipe&#45;&gt;RentalModule</title>
<path fill="none" stroke="black" d="M2040,-122.12C2040,-136.78 2040,-155 2040,-155 2040,-155 1911.16,-155 1911.16,-155"/>
<polygon fill="black" stroke="black" points="1911.16,-151.5 1901.16,-155 1911.16,-158.5 1911.16,-151.5"/>
</g>
<!-- ProcessUnavailabilityPipe -->
<g id="node12" class="node">
<title>ProcessUnavailabilityPipe</title>
<ellipse fill="#fdb462" stroke="black" cx="1853" cy="-104" rx="112.89" ry="18"/>
<text text-anchor="middle" x="1853" y="-99.8" font-family="Times,serif" font-size="14.00">ProcessUnavailabilityPipe</text>
</g>
<!-- ProcessUnavailabilityPipe&#45;&gt;RentalModule -->
<g id="edge11" class="edge">
<title>ProcessUnavailabilityPipe&#45;&gt;RentalModule</title>
<path fill="none" stroke="black" d="M1853,-122.11C1853,-122.11 1853,-140.99 1853,-140.99"/>
<polygon fill="black" stroke="black" points="1849.5,-140.99 1853,-150.99 1856.5,-140.99 1849.5,-140.99"/>
</g>
<!-- RentalDurationPipe -->
<g id="node13" class="node">
<title>RentalDurationPipe</title>
<ellipse fill="#fdb462" stroke="black" cx="1634" cy="-104" rx="87.98" ry="18"/>
<text text-anchor="middle" x="1634" y="-99.8" font-family="Times,serif" font-size="14.00">RentalDurationPipe</text>
</g>
<!-- RentalDurationPipe&#45;&gt;RentalModule -->
<g id="edge12" class="edge">
<title>RentalDurationPipe&#45;&gt;RentalModule</title>
<path fill="none" stroke="black" d="M1634,-122.12C1634,-136.78 1634,-155 1634,-155 1634,-155 1794.94,-155 1794.94,-155"/>
<polygon fill="black" stroke="black" points="1794.94,-158.5 1804.94,-155 1794.94,-151.5 1794.94,-158.5"/>
</g>
<!-- RentalService -->
<g id="node14" class="node">
<title>RentalService</title>
<ellipse fill="#fdb462" stroke="black" cx="1463" cy="-104" rx="65.4" ry="18"/>
<text text-anchor="middle" x="1463" y="-99.8" font-family="Times,serif" font-size="14.00">RentalService</text>
</g>
<!-- RentalService&#45;&gt;RentalModule -->
<g id="edge13" class="edge">
<title>RentalService&#45;&gt;RentalModule</title>
<path fill="none" stroke="black" d="M1463,-122.01C1463,-138.05 1463,-159 1463,-159 1463,-159 1794.79,-159 1794.79,-159"/>
<polygon fill="black" stroke="black" points="1794.79,-162.5 1804.79,-159 1794.79,-155.5 1794.79,-162.5"/>
</g>
<!-- RequestCoordinatesPipe -->
<g id="node15" class="node">
<title>RequestCoordinatesPipe</title>
<ellipse fill="#fdb462" stroke="black" cx="1274" cy="-104" rx="105.96" ry="18"/>
<text text-anchor="middle" x="1274" y="-99.8" font-family="Times,serif" font-size="14.00">RequestCoordinatesPipe</text>
</g>
<!-- RequestCoordinatesPipe&#45;&gt;RentalModule -->
<g id="edge14" class="edge">
<title>RequestCoordinatesPipe&#45;&gt;RentalModule</title>
<path fill="none" stroke="black" d="M1274,-122.02C1274,-139.37 1274,-163 1274,-163 1274,-163 1794.63,-163 1794.63,-163"/>
<polygon fill="black" stroke="black" points="1794.63,-166.5 1804.63,-163 1794.63,-159.5 1794.63,-166.5"/>
</g>
<!-- SortUnavailabilityPipe -->
<g id="node16" class="node">
<title>SortUnavailabilityPipe</title>
<ellipse fill="#fdb462" stroke="black" cx="1050" cy="-104" rx="99.59" ry="18"/>
<text text-anchor="middle" x="1050" y="-99.8" font-family="Times,serif" font-size="14.00">SortUnavailabilityPipe</text>
</g>
<!-- SortUnavailabilityPipe&#45;&gt;RentalModule -->
<g id="edge15" class="edge">
<title>SortUnavailabilityPipe&#45;&gt;RentalModule</title>
<path fill="none" stroke="black" d="M1050,-122.22C1050,-140.83 1050,-167 1050,-167 1050,-167 1794.88,-167 1794.88,-167"/>
<polygon fill="black" stroke="black" points="1794.88,-170.5 1804.88,-167 1794.88,-163.5 1794.88,-170.5"/>
</g>
<!-- ValidateEditDetailsPipe -->
<g id="node17" class="node">
<title>ValidateEditDetailsPipe</title>
<ellipse fill="#fdb462" stroke="black" cx="828" cy="-104" rx="104.22" ry="18"/>
<text text-anchor="middle" x="828" y="-99.8" font-family="Times,serif" font-size="14.00">ValidateEditDetailsPipe</text>
</g>
<!-- ValidateEditDetailsPipe&#45;&gt;RentalModule -->
<g id="edge16" class="edge">
<title>ValidateEditDetailsPipe&#45;&gt;RentalModule</title>
<path fill="none" stroke="black" d="M828,-122.31C828,-142.15 828,-171 828,-171 828,-171 1794.94,-171 1794.94,-171"/>
<polygon fill="black" stroke="black" points="1794.94,-174.5 1804.94,-171 1794.94,-167.5 1794.94,-174.5"/>
</g>
<!-- ValidateRemoveUnavailabilityPipe -->
<g id="node18" class="node">
<title>ValidateRemoveUnavailabilityPipe</title>
<ellipse fill="#fdb462" stroke="black" cx="557" cy="-104" rx="148.19" ry="18"/>
<text text-anchor="middle" x="557" y="-99.8" font-family="Times,serif" font-size="14.00">ValidateRemoveUnavailabilityPipe</text>
</g>
<!-- ValidateRemoveUnavailabilityPipe&#45;&gt;RentalModule -->
<g id="edge17" class="edge">
<title>ValidateRemoveUnavailabilityPipe&#45;&gt;RentalModule</title>
<path fill="none" stroke="black" d="M557,-122.28C557,-143.32 557,-175 557,-175 557,-175 1794.95,-175 1794.95,-175"/>
<polygon fill="black" stroke="black" points="1794.95,-178.5 1804.95,-175 1794.95,-171.5 1794.95,-178.5"/>
</g>
<!-- ValidateUnavailabilityPipe -->
<g id="node19" class="node">
<title>ValidateUnavailabilityPipe</title>
<ellipse fill="#fdb462" stroke="black" cx="274" cy="-104" rx="116.32" ry="18"/>
<text text-anchor="middle" x="274" y="-99.8" font-family="Times,serif" font-size="14.00">ValidateUnavailabilityPipe</text>
</g>
<!-- ValidateUnavailabilityPipe&#45;&gt;RentalModule -->
<g id="edge18" class="edge">
<title>ValidateUnavailabilityPipe&#45;&gt;RentalModule</title>
<path fill="none" stroke="black" d="M274,-122.16C274,-144.35 274,-179 274,-179 274,-179 1794.88,-179 1794.88,-179"/>
<polygon fill="black" stroke="black" points="1794.88,-182.5 1804.88,-179 1794.88,-175.5 1794.88,-182.5"/>
</g>
</g>
</svg>
