<?xml version="1.0" encoding="UTF-8" standalone="no"?>
<!DOCTYPE svg PUBLIC "-//W3C//DTD SVG 1.1//EN"
 "http://www.w3.org/Graphics/SVG/1.1/DTD/svg11.dtd">
<!-- Generated by graphviz version 2.44.1 (20200629.0846)
 -->
<!-- Title: dependencies Pages: 1 -->
<svg width="2575pt" height="284pt"
 viewBox="0.00 0.00 2575.00 284.00" xmlns="http://www.w3.org/2000/svg" xmlns:xlink="http://www.w3.org/1999/xlink">
<g id="graph0" class="graph" transform="scale(1 1) rotate(0) translate(4 280)">
<title>dependencies</title>
<polygon fill="white" stroke="transparent" points="-4,4 -4,-280 2571,-280 2571,4 -4,4"/>
<text text-anchor="start" x="1262.51" y="-42.4" font-family="sans-serif" font-weight="bold" font-size="14.00">Legend</text>
<polygon fill="#ffffb3" stroke="transparent" points="1049.5,-10 1049.5,-30 1069.5,-30 1069.5,-10 1049.5,-10"/>
<text text-anchor="start" x="1073.13" y="-15.4" font-family="sans-serif" font-size="14.00"> &#160;Declarations</text>
<polygon fill="#8dd3c7" stroke="transparent" points="1162.5,-10 1162.5,-30 1182.5,-30 1182.5,-10 1162.5,-10"/>
<text text-anchor="start" x="1186.23" y="-15.4" font-family="sans-serif" font-size="14.00"> &#160;Module</text>
<polygon fill="#80b1d3" stroke="transparent" points="1248.5,-10 1248.5,-30 1268.5,-30 1268.5,-10 1248.5,-10"/>
<text text-anchor="start" x="1272.28" y="-15.4" font-family="sans-serif" font-size="14.00"> &#160;Bootstrap</text>
<polygon fill="#fdb462" stroke="transparent" points="1345.5,-10 1345.5,-30 1365.5,-30 1365.5,-10 1345.5,-10"/>
<text text-anchor="start" x="1369.17" y="-15.4" font-family="sans-serif" font-size="14.00"> &#160;Providers</text>
<polygon fill="#fb8072" stroke="transparent" points="1441.5,-10 1441.5,-30 1461.5,-30 1461.5,-10 1441.5,-10"/>
<text text-anchor="start" x="1465.23" y="-15.4" font-family="sans-serif" font-size="14.00"> &#160;Exports</text>
<g id="clust1" class="cluster">
<title>cluster_RentalModule</title>
<polygon fill="none" stroke="black" stroke-dasharray="1,5" points="8,-70 8,-268 2559,-268 2559,-70 8,-70"/>
</g>
<g id="clust6" class="cluster">
<title>cluster_RentalModule_providers</title>
<polygon fill="none" stroke="black" points="260,-78 260,-130 2551,-130 2551,-78 260,-78"/>
</g>
<g id="clust4" class="cluster">
<title>cluster_RentalModule_exports</title>
<polygon fill="none" stroke="black" points="1206,-208 1206,-260 1320,-260 1320,-208 1206,-208"/>
</g>
<g id="clust3" class="cluster">
<title>cluster_RentalModule_imports</title>
<polygon fill="none" stroke="black" points="16,-78 16,-130 252,-130 252,-78 16,-78"/>
</g>
<!-- DatabaseModule -->
<g id="node1" class="node">
<title>DatabaseModule</title>
<polygon fill="#8dd3c7" stroke="black" points="244.35,-122 241.35,-126 220.35,-126 217.35,-122 133.65,-122 133.65,-86 244.35,-86 244.35,-122"/>
<text text-anchor="middle" x="189" y="-99.8" font-family="Times,serif" font-size="14.00">DatabaseModule</text>
</g>
<!-- RentalModule -->
<g id="node3" class="node">
<title>RentalModule</title>
<polygon fill="#8dd3c7" stroke="black" points="1311.1,-187 1308.1,-191 1287.1,-191 1284.1,-187 1214.9,-187 1214.9,-151 1311.1,-151 1311.1,-187"/>
<text text-anchor="middle" x="1263" y="-164.8" font-family="Times,serif" font-size="14.00">RentalModule</text>
</g>
<!-- DatabaseModule&#45;&gt;RentalModule -->
<g id="edge1" class="edge">
<title>DatabaseModule&#45;&gt;RentalModule</title>
<path fill="none" stroke="black" d="M189,-122.04C189,-143.66 189,-177 189,-177 189,-177 1204.77,-177 1204.77,-177"/>
<polygon fill="black" stroke="black" points="1204.77,-180.5 1214.77,-177 1204.77,-173.5 1204.77,-180.5"/>
</g>
<!-- RedisModule -->
<g id="node2" class="node">
<title>RedisModule</title>
<polygon fill="#8dd3c7" stroke="black" points="115.94,-122 112.94,-126 91.94,-126 88.94,-122 24.06,-122 24.06,-86 115.94,-86 115.94,-122"/>
<text text-anchor="middle" x="70" y="-99.8" font-family="Times,serif" font-size="14.00">RedisModule</text>
</g>
<!-- RedisModule&#45;&gt;RentalModule -->
<g id="edge2" class="edge">
<title>RedisModule&#45;&gt;RentalModule</title>
<path fill="none" stroke="black" d="M70,-122.09C70,-145.13 70,-182 70,-182 70,-182 1204.76,-182 1204.76,-182"/>
<polygon fill="black" stroke="black" points="1204.76,-185.5 1214.76,-182 1204.76,-178.5 1204.76,-185.5"/>
</g>
<!-- RentalService  -->
<g id="node4" class="node">
<title>RentalService </title>
<polygon fill="#fb8072" stroke="black" points="1312.02,-252 1213.98,-252 1213.98,-216 1312.02,-216 1312.02,-252"/>
<text text-anchor="middle" x="1263" y="-229.8" font-family="Times,serif" font-size="14.00">RentalService </text>
</g>
<!-- RentalModule&#45;&gt;RentalService  -->
<g id="edge3" class="edge">
<title>RentalModule&#45;&gt;RentalService </title>
<path fill="none" stroke="black" stroke-dasharray="5,2" d="M1263,-187.11C1263,-187.11 1263,-205.99 1263,-205.99"/>
<polygon fill="black" stroke="black" points="1259.5,-205.99 1263,-215.99 1266.5,-205.99 1259.5,-205.99"/>
</g>
<!-- AppConfigService -->
<g id="node5" class="node">
<title>AppConfigService</title>
<ellipse fill="#fdb462" stroke="black" cx="2460" cy="-104" rx="83.39" ry="18"/>
<text text-anchor="middle" x="2460" y="-99.8" font-family="Times,serif" font-size="14.00">AppConfigService</text>
</g>
<!-- AppConfigService&#45;&gt;RentalModule -->
<g id="edge4" class="edge">
<title>AppConfigService&#45;&gt;RentalModule</title>
<path fill="none" stroke="black" d="M2460,-122.09C2460,-145.13 2460,-182 2460,-182 2460,-182 1321.41,-182 1321.41,-182"/>
<polygon fill="black" stroke="black" points="1321.41,-178.5 1311.41,-182 1321.41,-185.5 1321.41,-178.5"/>
</g>
<!-- GenerateRentalDurationEnumUtil -->
<g id="node6" class="node">
<title>GenerateRentalDurationEnumUtil</title>
<ellipse fill="#fdb462" stroke="black" cx="2215" cy="-104" rx="143.52" ry="18"/>
<text text-anchor="middle" x="2215" y="-99.8" font-family="Times,serif" font-size="14.00">GenerateRentalDurationEnumUtil</text>
</g>
<!-- GenerateRentalDurationEnumUtil&#45;&gt;RentalModule -->
<g id="edge5" class="edge">
<title>GenerateRentalDurationEnumUtil&#45;&gt;RentalModule</title>
<path fill="none" stroke="black" d="M2215,-122.04C2215,-143.66 2215,-177 2215,-177 2215,-177 1321.19,-177 1321.19,-177"/>
<polygon fill="black" stroke="black" points="1321.19,-173.5 1311.19,-177 1321.19,-180.5 1321.19,-173.5"/>
</g>
<!-- GeoUrlApiPipe -->
<g id="node7" class="node">
<title>GeoUrlApiPipe</title>
<ellipse fill="#fdb462" stroke="black" cx="1982" cy="-104" rx="71.79" ry="18"/>
<text text-anchor="middle" x="1982" y="-99.8" font-family="Times,serif" font-size="14.00">GeoUrlApiPipe</text>
</g>
<!-- GeoUrlApiPipe&#45;&gt;RentalModule -->
<g id="edge6" class="edge">
<title>GeoUrlApiPipe&#45;&gt;RentalModule</title>
<path fill="none" stroke="black" d="M1982,-122.22C1982,-142.37 1982,-172 1982,-172 1982,-172 1321.29,-172 1321.29,-172"/>
<polygon fill="black" stroke="black" points="1321.29,-168.5 1311.29,-172 1321.29,-175.5 1321.29,-168.5"/>
</g>
<!-- GeoUrlApiUtil -->
<g id="node8" class="node">
<title>GeoUrlApiUtil</title>
<ellipse fill="#fdb462" stroke="black" cx="1823" cy="-104" rx="69.5" ry="18"/>
<text text-anchor="middle" x="1823" y="-99.8" font-family="Times,serif" font-size="14.00">GeoUrlApiUtil</text>
</g>
<!-- GeoUrlApiUtil&#45;&gt;RentalModule -->
<g id="edge7" class="edge">
<title>GeoUrlApiUtil&#45;&gt;RentalModule</title>
<path fill="none" stroke="black" d="M1823,-122.22C1823,-140.83 1823,-167 1823,-167 1823,-167 1321.23,-167 1321.23,-167"/>
<polygon fill="black" stroke="black" points="1321.23,-163.5 1311.23,-167 1321.23,-170.5 1321.23,-163.5"/>
</g>
<!-- MapNewRentalPipe -->
<g id="node9" class="node">
<title>MapNewRentalPipe</title>
<ellipse fill="#fdb462" stroke="black" cx="1646" cy="-104" rx="89.18" ry="18"/>
<text text-anchor="middle" x="1646" y="-99.8" font-family="Times,serif" font-size="14.00">MapNewRentalPipe</text>
</g>
<!-- MapNewRentalPipe&#45;&gt;RentalModule -->
<g id="edge8" class="edge">
<title>MapNewRentalPipe&#45;&gt;RentalModule</title>
<path fill="none" stroke="black" d="M1646,-122.03C1646,-139.06 1646,-162 1646,-162 1646,-162 1321.12,-162 1321.12,-162"/>
<polygon fill="black" stroke="black" points="1321.12,-158.5 1311.12,-162 1321.12,-165.5 1321.12,-158.5"/>
</g>
<!-- PricingPipe -->
<g id="node10" class="node">
<title>PricingPipe</title>
<ellipse fill="#fdb462" stroke="black" cx="1483" cy="-104" rx="56.2" ry="18"/>
<text text-anchor="middle" x="1483" y="-99.8" font-family="Times,serif" font-size="14.00">PricingPipe</text>
</g>
<!-- PricingPipe&#45;&gt;RentalModule -->
<g id="edge9" class="edge">
<title>PricingPipe&#45;&gt;RentalModule</title>
<path fill="none" stroke="black" d="M1483,-122.24C1483,-137.57 1483,-157 1483,-157 1483,-157 1321.28,-157 1321.28,-157"/>
<polygon fill="black" stroke="black" points="1321.28,-153.5 1311.28,-157 1321.28,-160.5 1321.28,-153.5"/>
</g>
<!-- RedisService -->
<g id="node11" class="node">
<title>RedisService</title>
<ellipse fill="#fdb462" stroke="black" cx="1347" cy="-104" rx="61.97" ry="18"/>
<text text-anchor="middle" x="1347" y="-99.8" font-family="Times,serif" font-size="14.00">RedisService</text>
</g>
<!-- RedisService&#45;&gt;RentalModule -->
<g id="edge10" class="edge">
<title>RedisService&#45;&gt;RentalModule</title>
<path fill="none" stroke="black" d="M1298.03,-115.32C1298.03,-115.32 1298.03,-140.94 1298.03,-140.94"/>
<polygon fill="black" stroke="black" points="1294.53,-140.94 1298.03,-150.94 1301.53,-140.94 1294.53,-140.94"/>
</g>
<!-- RentalDurationPipe -->
<g id="node12" class="node">
<title>RentalDurationPipe</title>
<ellipse fill="#fdb462" stroke="black" cx="1179" cy="-104" rx="87.98" ry="18"/>
<text text-anchor="middle" x="1179" y="-99.8" font-family="Times,serif" font-size="14.00">RentalDurationPipe</text>
</g>
<!-- RentalDurationPipe&#45;&gt;RentalModule -->
<g id="edge11" class="edge">
<title>RentalDurationPipe&#45;&gt;RentalModule</title>
<path fill="none" stroke="black" d="M1240.85,-116.84C1240.85,-116.84 1240.85,-140.52 1240.85,-140.52"/>
<polygon fill="black" stroke="black" points="1237.35,-140.52 1240.85,-150.52 1244.35,-140.52 1237.35,-140.52"/>
</g>
<!-- RentalSearchFilterPipe -->
<g id="node13" class="node">
<title>RentalSearchFilterPipe</title>
<ellipse fill="#fdb462" stroke="black" cx="973" cy="-104" rx="100.71" ry="18"/>
<text text-anchor="middle" x="973" y="-99.8" font-family="Times,serif" font-size="14.00">RentalSearchFilterPipe</text>
</g>
<!-- RentalSearchFilterPipe&#45;&gt;RentalModule -->
<g id="edge12" class="edge">
<title>RentalSearchFilterPipe&#45;&gt;RentalModule</title>
<path fill="none" stroke="black" d="M973,-122.24C973,-137.57 973,-157 973,-157 973,-157 1204.79,-157 1204.79,-157"/>
<polygon fill="black" stroke="black" points="1204.79,-160.5 1214.79,-157 1204.79,-153.5 1204.79,-160.5"/>
</g>
<!-- RentalService -->
<g id="node14" class="node">
<title>RentalService</title>
<ellipse fill="#fdb462" stroke="black" cx="789" cy="-104" rx="65.4" ry="18"/>
<text text-anchor="middle" x="789" y="-99.8" font-family="Times,serif" font-size="14.00">RentalService</text>
</g>
<!-- RentalService&#45;&gt;RentalModule -->
<g id="edge13" class="edge">
<title>RentalService&#45;&gt;RentalModule</title>
<path fill="none" stroke="black" d="M789,-122.03C789,-139.06 789,-162 789,-162 789,-162 1204.94,-162 1204.94,-162"/>
<polygon fill="black" stroke="black" points="1204.94,-165.5 1214.94,-162 1204.94,-158.5 1204.94,-165.5"/>
</g>
<!-- RequestCoordinatesPipe -->
<g id="node15" class="node">
<title>RequestCoordinatesPipe</title>
<ellipse fill="#fdb462" stroke="black" cx="600" cy="-104" rx="105.96" ry="18"/>
<text text-anchor="middle" x="600" y="-99.8" font-family="Times,serif" font-size="14.00">RequestCoordinatesPipe</text>
</g>
<!-- RequestCoordinatesPipe&#45;&gt;RentalModule -->
<g id="edge14" class="edge">
<title>RequestCoordinatesPipe&#45;&gt;RentalModule</title>
<path fill="none" stroke="black" d="M600,-122.22C600,-140.83 600,-167 600,-167 600,-167 1204.78,-167 1204.78,-167"/>
<polygon fill="black" stroke="black" points="1204.78,-170.5 1214.78,-167 1204.78,-163.5 1204.78,-170.5"/>
</g>
<!-- ValidateEditDetailsPipe -->
<g id="node16" class="node">
<title>ValidateEditDetailsPipe</title>
<ellipse fill="#fdb462" stroke="black" cx="372" cy="-104" rx="104.22" ry="18"/>
<text text-anchor="middle" x="372" y="-99.8" font-family="Times,serif" font-size="14.00">ValidateEditDetailsPipe</text>
</g>
<!-- ValidateEditDetailsPipe&#45;&gt;RentalModule -->
<g id="edge15" class="edge">
<title>ValidateEditDetailsPipe&#45;&gt;RentalModule</title>
<path fill="none" stroke="black" d="M372,-122.22C372,-142.37 372,-172 372,-172 372,-172 1204.78,-172 1204.78,-172"/>
<polygon fill="black" stroke="black" points="1204.78,-175.5 1214.78,-172 1204.78,-168.5 1204.78,-175.5"/>
</g>
</g>
</svg>
