<?xml version="1.0" encoding="UTF-8" standalone="no"?>
<!DOCTYPE svg PUBLIC "-//W3C//DTD SVG 1.1//EN"
 "http://www.w3.org/Graphics/SVG/1.1/DTD/svg11.dtd">
<!-- Generated by graphviz version 2.44.1 (20200629.0846)
 -->
<!-- Title: dependencies Pages: 1 -->
<svg width="3520pt" height="284pt"
 viewBox="0.00 0.00 3520.00 284.00" xmlns="http://www.w3.org/2000/svg" xmlns:xlink="http://www.w3.org/1999/xlink">
<g id="graph0" class="graph" transform="scale(1 1) rotate(0) translate(4 280)">
<title>dependencies</title>
<polygon fill="white" stroke="transparent" points="-4,4 -4,-280 3516,-280 3516,4 -4,4"/>
<text text-anchor="start" x="1735.01" y="-42.4" font-family="sans-serif" font-weight="bold" font-size="14.00">Legend</text>
<polygon fill="#ffffb3" stroke="transparent" points="1522,-10 1522,-30 1542,-30 1542,-10 1522,-10"/>
<text text-anchor="start" x="1545.63" y="-15.4" font-family="sans-serif" font-size="14.00"> &#160;Declarations</text>
<polygon fill="#8dd3c7" stroke="transparent" points="1635,-10 1635,-30 1655,-30 1655,-10 1635,-10"/>
<text text-anchor="start" x="1658.73" y="-15.4" font-family="sans-serif" font-size="14.00"> &#160;Module</text>
<polygon fill="#80b1d3" stroke="transparent" points="1721,-10 1721,-30 1741,-30 1741,-10 1721,-10"/>
<text text-anchor="start" x="1744.78" y="-15.4" font-family="sans-serif" font-size="14.00"> &#160;Bootstrap</text>
<polygon fill="#fdb462" stroke="transparent" points="1818,-10 1818,-30 1838,-30 1838,-10 1818,-10"/>
<text text-anchor="start" x="1841.67" y="-15.4" font-family="sans-serif" font-size="14.00"> &#160;Providers</text>
<polygon fill="#fb8072" stroke="transparent" points="1914,-10 1914,-30 1934,-30 1934,-10 1914,-10"/>
<text text-anchor="start" x="1937.73" y="-15.4" font-family="sans-serif" font-size="14.00"> &#160;Exports</text>
<g id="clust1" class="cluster">
<title>cluster_RentalModule</title>
<polygon fill="none" stroke="black" stroke-dasharray="1,5" points="8,-70 8,-268 3504,-268 3504,-70 8,-70"/>
</g>
<g id="clust3" class="cluster">
<title>cluster_RentalModule_imports</title>
<polygon fill="none" stroke="black" points="3370,-78 3370,-130 3496,-130 3496,-78 3370,-78"/>
</g>
<g id="clust4" class="cluster">
<title>cluster_RentalModule_exports</title>
<polygon fill="none" stroke="black" points="1849,-208 1849,-260 1963,-260 1963,-208 1849,-208"/>
</g>
<g id="clust6" class="cluster">
<title>cluster_RentalModule_providers</title>
<polygon fill="none" stroke="black" points="16,-78 16,-130 3362,-130 3362,-78 16,-78"/>
</g>
<!-- DatabaseModule -->
<g id="node1" class="node">
<title>DatabaseModule</title>
<polygon fill="#8dd3c7" stroke="black" points="3488.35,-122 3485.35,-126 3464.35,-126 3461.35,-122 3377.65,-122 3377.65,-86 3488.35,-86 3488.35,-122"/>
<text text-anchor="middle" x="3433" y="-99.8" font-family="Times,serif" font-size="14.00">DatabaseModule</text>
</g>
<!-- RentalModule -->
<g id="node2" class="node">
<title>RentalModule</title>
<polygon fill="#8dd3c7" stroke="black" points="1954.1,-187 1951.1,-191 1930.1,-191 1927.1,-187 1857.9,-187 1857.9,-151 1954.1,-151 1954.1,-187"/>
<text text-anchor="middle" x="1906" y="-164.8" font-family="Times,serif" font-size="14.00">RentalModule</text>
</g>
<!-- DatabaseModule&#45;&gt;RentalModule -->
<g id="edge1" class="edge">
<title>DatabaseModule&#45;&gt;RentalModule</title>
<path fill="none" stroke="black" d="M3433,-122.32C3433,-145.66 3433,-183 3433,-183 3433,-183 1964.22,-183 1964.22,-183"/>
<polygon fill="black" stroke="black" points="1964.22,-179.5 1954.22,-183 1964.22,-186.5 1964.22,-179.5"/>
</g>
<!-- RentalService  -->
<g id="node3" class="node">
<title>RentalService </title>
<polygon fill="#fb8072" stroke="black" points="1955.02,-252 1856.98,-252 1856.98,-216 1955.02,-216 1955.02,-252"/>
<text text-anchor="middle" x="1906" y="-229.8" font-family="Times,serif" font-size="14.00">RentalService </text>
</g>
<!-- RentalModule&#45;&gt;RentalService  -->
<g id="edge2" class="edge">
<title>RentalModule&#45;&gt;RentalService </title>
<path fill="none" stroke="black" stroke-dasharray="5,2" d="M1906,-187.11C1906,-187.11 1906,-205.99 1906,-205.99"/>
<polygon fill="black" stroke="black" points="1902.5,-205.99 1906,-215.99 1909.5,-205.99 1902.5,-205.99"/>
</g>
<!-- AppConfigService -->
<g id="node4" class="node">
<title>AppConfigService</title>
<ellipse fill="#fdb462" stroke="black" cx="3271" cy="-104" rx="83.39" ry="18"/>
<text text-anchor="middle" x="3271" y="-99.8" font-family="Times,serif" font-size="14.00">AppConfigService</text>
</g>
<!-- AppConfigService&#45;&gt;RentalModule -->
<g id="edge3" class="edge">
<title>AppConfigService&#45;&gt;RentalModule</title>
<path fill="none" stroke="black" d="M3271,-122.16C3271,-144.35 3271,-179 3271,-179 3271,-179 1964.18,-179 1964.18,-179"/>
<polygon fill="black" stroke="black" points="1964.18,-175.5 1954.18,-179 1964.18,-182.5 1964.18,-175.5"/>
</g>
<!-- CreateUpdaterDtoPipe -->
<g id="node5" class="node">
<title>CreateUpdaterDtoPipe</title>
<ellipse fill="#fdb462" stroke="black" cx="3071" cy="-104" rx="98.97" ry="18"/>
<text text-anchor="middle" x="3071" y="-99.8" font-family="Times,serif" font-size="14.00">CreateUpdaterDtoPipe</text>
</g>
<!-- CreateUpdaterDtoPipe&#45;&gt;RentalModule -->
<g id="edge4" class="edge">
<title>CreateUpdaterDtoPipe&#45;&gt;RentalModule</title>
<path fill="none" stroke="black" d="M3071,-122.28C3071,-143.32 3071,-175 3071,-175 3071,-175 1964.21,-175 1964.21,-175"/>
<polygon fill="black" stroke="black" points="1964.21,-171.5 1954.21,-175 1964.21,-178.5 1964.21,-171.5"/>
</g>
<!-- GenerateRentalDurationEnumUtil -->
<g id="node6" class="node">
<title>GenerateRentalDurationEnumUtil</title>
<ellipse fill="#fdb462" stroke="black" cx="2811" cy="-104" rx="143.52" ry="18"/>
<text text-anchor="middle" x="2811" y="-99.8" font-family="Times,serif" font-size="14.00">GenerateRentalDurationEnumUtil</text>
</g>
<!-- GenerateRentalDurationEnumUtil&#45;&gt;RentalModule -->
<g id="edge5" class="edge">
<title>GenerateRentalDurationEnumUtil&#45;&gt;RentalModule</title>
<path fill="none" stroke="black" d="M2811,-122.31C2811,-142.15 2811,-171 2811,-171 2811,-171 1964.34,-171 1964.34,-171"/>
<polygon fill="black" stroke="black" points="1964.34,-167.5 1954.34,-171 1964.34,-174.5 1964.34,-167.5"/>
</g>
<!-- GeoUrlApiPipe -->
<g id="node7" class="node">
<title>GeoUrlApiPipe</title>
<ellipse fill="#fdb462" stroke="black" cx="2578" cy="-104" rx="71.79" ry="18"/>
<text text-anchor="middle" x="2578" y="-99.8" font-family="Times,serif" font-size="14.00">GeoUrlApiPipe</text>
</g>
<!-- GeoUrlApiPipe&#45;&gt;RentalModule -->
<g id="edge6" class="edge">
<title>GeoUrlApiPipe&#45;&gt;RentalModule</title>
<path fill="none" stroke="black" d="M2578,-122.22C2578,-140.83 2578,-167 2578,-167 2578,-167 1964.06,-167 1964.06,-167"/>
<polygon fill="black" stroke="black" points="1964.06,-163.5 1954.06,-167 1964.06,-170.5 1964.06,-163.5"/>
</g>
<!-- GeoUrlApiUtil -->
<g id="node8" class="node">
<title>GeoUrlApiUtil</title>
<ellipse fill="#fdb462" stroke="black" cx="2419" cy="-104" rx="69.5" ry="18"/>
<text text-anchor="middle" x="2419" y="-99.8" font-family="Times,serif" font-size="14.00">GeoUrlApiUtil</text>
</g>
<!-- GeoUrlApiUtil&#45;&gt;RentalModule -->
<g id="edge7" class="edge">
<title>GeoUrlApiUtil&#45;&gt;RentalModule</title>
<path fill="none" stroke="black" d="M2419,-122.02C2419,-139.37 2419,-163 2419,-163 2419,-163 1964.26,-163 1964.26,-163"/>
<polygon fill="black" stroke="black" points="1964.26,-159.5 1954.26,-163 1964.26,-166.5 1964.26,-159.5"/>
</g>
<!-- GivenNoticePipe -->
<g id="node9" class="node">
<title>GivenNoticePipe</title>
<ellipse fill="#fdb462" stroke="black" cx="2254" cy="-104" rx="77.59" ry="18"/>
<text text-anchor="middle" x="2254" y="-99.8" font-family="Times,serif" font-size="14.00">GivenNoticePipe</text>
</g>
<!-- GivenNoticePipe&#45;&gt;RentalModule -->
<g id="edge8" class="edge">
<title>GivenNoticePipe&#45;&gt;RentalModule</title>
<path fill="none" stroke="black" d="M2254,-122.01C2254,-138.05 2254,-159 2254,-159 2254,-159 1964.39,-159 1964.39,-159"/>
<polygon fill="black" stroke="black" points="1964.39,-155.5 1954.39,-159 1964.39,-162.5 1964.39,-155.5"/>
</g>
<!-- MapNewRentalPipe -->
<g id="node10" class="node">
<title>MapNewRentalPipe</title>
<ellipse fill="#fdb462" stroke="black" cx="2069" cy="-104" rx="89.18" ry="18"/>
<text text-anchor="middle" x="2069" y="-99.8" font-family="Times,serif" font-size="14.00">MapNewRentalPipe</text>
</g>
<!-- MapNewRentalPipe&#45;&gt;RentalModule -->
<g id="edge9" class="edge">
<title>MapNewRentalPipe&#45;&gt;RentalModule</title>
<path fill="none" stroke="black" d="M2069,-122.12C2069,-136.78 2069,-155 2069,-155 2069,-155 1964.46,-155 1964.46,-155"/>
<polygon fill="black" stroke="black" points="1964.46,-151.5 1954.46,-155 1964.46,-158.5 1964.46,-151.5"/>
</g>
<!-- PricingPipe -->
<g id="node11" class="node">
<title>PricingPipe</title>
<ellipse fill="#fdb462" stroke="black" cx="1906" cy="-104" rx="56.2" ry="18"/>
<text text-anchor="middle" x="1906" y="-99.8" font-family="Times,serif" font-size="14.00">PricingPipe</text>
</g>
<!-- PricingPipe&#45;&gt;RentalModule -->
<g id="edge10" class="edge">
<title>PricingPipe&#45;&gt;RentalModule</title>
<path fill="none" stroke="black" d="M1906,-122.11C1906,-122.11 1906,-140.99 1906,-140.99"/>
<polygon fill="black" stroke="black" points="1902.5,-140.99 1906,-150.99 1909.5,-140.99 1902.5,-140.99"/>
</g>
<!-- ProcessUnavailabilityPipe -->
<g id="node12" class="node">
<title>ProcessUnavailabilityPipe</title>
<ellipse fill="#fdb462" stroke="black" cx="1719" cy="-104" rx="112.89" ry="18"/>
<text text-anchor="middle" x="1719" y="-99.8" font-family="Times,serif" font-size="14.00">ProcessUnavailabilityPipe</text>
</g>
<!-- ProcessUnavailabilityPipe&#45;&gt;RentalModule -->
<g id="edge11" class="edge">
<title>ProcessUnavailabilityPipe&#45;&gt;RentalModule</title>
<path fill="none" stroke="black" d="M1719,-122.12C1719,-136.78 1719,-155 1719,-155 1719,-155 1847.84,-155 1847.84,-155"/>
<polygon fill="black" stroke="black" points="1847.84,-158.5 1857.84,-155 1847.84,-151.5 1847.84,-158.5"/>
</g>
<!-- RentalDurationPipe -->
<g id="node13" class="node">
<title>RentalDurationPipe</title>
<ellipse fill="#fdb462" stroke="black" cx="1500" cy="-104" rx="87.98" ry="18"/>
<text text-anchor="middle" x="1500" y="-99.8" font-family="Times,serif" font-size="14.00">RentalDurationPipe</text>
</g>
<!-- RentalDurationPipe&#45;&gt;RentalModule -->
<g id="edge12" class="edge">
<title>RentalDurationPipe&#45;&gt;RentalModule</title>
<path fill="none" stroke="black" d="M1500,-122.01C1500,-138.05 1500,-159 1500,-159 1500,-159 1847.83,-159 1847.83,-159"/>
<polygon fill="black" stroke="black" points="1847.83,-162.5 1857.83,-159 1847.83,-155.5 1847.83,-162.5"/>
</g>
<!-- RentalService -->
<g id="node14" class="node">
<title>RentalService</title>
<ellipse fill="#fdb462" stroke="black" cx="1329" cy="-104" rx="65.4" ry="18"/>
<text text-anchor="middle" x="1329" y="-99.8" font-family="Times,serif" font-size="14.00">RentalService</text>
</g>
<!-- RentalService&#45;&gt;RentalModule -->
<g id="edge13" class="edge">
<title>RentalService&#45;&gt;RentalModule</title>
<path fill="none" stroke="black" d="M1329,-122.02C1329,-139.37 1329,-163 1329,-163 1329,-163 1847.8,-163 1847.8,-163"/>
<polygon fill="black" stroke="black" points="1847.8,-166.5 1857.8,-163 1847.8,-159.5 1847.8,-166.5"/>
</g>
<!-- RequestCoordinatesPipe -->
<g id="node15" class="node">
<title>RequestCoordinatesPipe</title>
<ellipse fill="#fdb462" stroke="black" cx="1140" cy="-104" rx="105.96" ry="18"/>
<text text-anchor="middle" x="1140" y="-99.8" font-family="Times,serif" font-size="14.00">RequestCoordinatesPipe</text>
</g>
<!-- RequestCoordinatesPipe&#45;&gt;RentalModule -->
<g id="edge14" class="edge">
<title>RequestCoordinatesPipe&#45;&gt;RentalModule</title>
<path fill="none" stroke="black" d="M1140,-122.22C1140,-140.83 1140,-167 1140,-167 1140,-167 1847.79,-167 1847.79,-167"/>
<polygon fill="black" stroke="black" points="1847.79,-170.5 1857.79,-167 1847.79,-163.5 1847.79,-170.5"/>
</g>
<!-- SortUnavailabilityPipe -->
<g id="node16" class="node">
<title>SortUnavailabilityPipe</title>
<ellipse fill="#fdb462" stroke="black" cx="916" cy="-104" rx="99.59" ry="18"/>
<text text-anchor="middle" x="916" y="-99.8" font-family="Times,serif" font-size="14.00">SortUnavailabilityPipe</text>
</g>
<!-- SortUnavailabilityPipe&#45;&gt;RentalModule -->
<g id="edge15" class="edge">
<title>SortUnavailabilityPipe&#45;&gt;RentalModule</title>
<path fill="none" stroke="black" d="M916,-122.31C916,-142.15 916,-171 916,-171 916,-171 1847.92,-171 1847.92,-171"/>
<polygon fill="black" stroke="black" points="1847.92,-174.5 1857.92,-171 1847.92,-167.5 1847.92,-174.5"/>
</g>
<!-- ValidateEditDetailsPipe -->
<g id="node17" class="node">
<title>ValidateEditDetailsPipe</title>
<ellipse fill="#fdb462" stroke="black" cx="694" cy="-104" rx="104.22" ry="18"/>
<text text-anchor="middle" x="694" y="-99.8" font-family="Times,serif" font-size="14.00">ValidateEditDetailsPipe</text>
</g>
<!-- ValidateEditDetailsPipe&#45;&gt;RentalModule -->
<g id="edge16" class="edge">
<title>ValidateEditDetailsPipe&#45;&gt;RentalModule</title>
<path fill="none" stroke="black" d="M694,-122.28C694,-143.32 694,-175 694,-175 694,-175 1847.74,-175 1847.74,-175"/>
<polygon fill="black" stroke="black" points="1847.74,-178.5 1857.74,-175 1847.74,-171.5 1847.74,-178.5"/>
</g>
<!-- ValidateRemoveUnavailabilityPipe -->
<g id="node18" class="node">
<title>ValidateRemoveUnavailabilityPipe</title>
<ellipse fill="#fdb462" stroke="black" cx="423" cy="-104" rx="148.19" ry="18"/>
<text text-anchor="middle" x="423" y="-99.8" font-family="Times,serif" font-size="14.00">ValidateRemoveUnavailabilityPipe</text>
</g>
<!-- ValidateRemoveUnavailabilityPipe&#45;&gt;RentalModule -->
<g id="edge17" class="edge">
<title>ValidateRemoveUnavailabilityPipe&#45;&gt;RentalModule</title>
<path fill="none" stroke="black" d="M423,-122.16C423,-144.35 423,-179 423,-179 423,-179 1847.92,-179 1847.92,-179"/>
<polygon fill="black" stroke="black" points="1847.92,-182.5 1857.92,-179 1847.92,-175.5 1847.92,-182.5"/>
</g>
<!-- ValidateUnavailabilityPipe -->
<g id="node19" class="node">
<title>ValidateUnavailabilityPipe</title>
<ellipse fill="#fdb462" stroke="black" cx="140" cy="-104" rx="116.32" ry="18"/>
<text text-anchor="middle" x="140" y="-99.8" font-family="Times,serif" font-size="14.00">ValidateUnavailabilityPipe</text>
</g>
<!-- ValidateUnavailabilityPipe&#45;&gt;RentalModule -->
<g id="edge18" class="edge">
<title>ValidateUnavailabilityPipe&#45;&gt;RentalModule</title>
<path fill="none" stroke="black" d="M140,-122.32C140,-145.66 140,-183 140,-183 140,-183 1847.85,-183 1847.85,-183"/>
<polygon fill="black" stroke="black" points="1847.85,-186.5 1857.85,-183 1847.85,-179.5 1847.85,-186.5"/>
</g>
</g>
</svg>
