<?xml version="1.0" encoding="UTF-8" standalone="no"?>
<!DOCTYPE svg PUBLIC "-//W3C//DTD SVG 1.1//EN"
 "http://www.w3.org/Graphics/SVG/1.1/DTD/svg11.dtd">
<!-- Generated by graphviz version 2.44.1 (20200629.0846)
 -->
<!-- Title: dependencies Pages: 1 -->
<svg width="1026pt" height="219pt"
 viewBox="0.00 0.00 1026.00 219.00" xmlns="http://www.w3.org/2000/svg" xmlns:xlink="http://www.w3.org/1999/xlink">
<g id="graph0" class="graph" transform="scale(1 1) rotate(0) translate(4 215)">
<title>dependencies</title>
<polygon fill="white" stroke="transparent" points="-4,4 -4,-215 1022,-215 1022,4 -4,4"/>
<text text-anchor="start" x="488.01" y="-42.4" font-family="sans-serif" font-weight="bold" font-size="14.00">Legend</text>
<polygon fill="#ffffb3" stroke="transparent" points="275,-10 275,-30 295,-30 295,-10 275,-10"/>
<text text-anchor="start" x="298.63" y="-15.4" font-family="sans-serif" font-size="14.00"> &#160;Declarations</text>
<polygon fill="#8dd3c7" stroke="transparent" points="388,-10 388,-30 408,-30 408,-10 388,-10"/>
<text text-anchor="start" x="411.73" y="-15.4" font-family="sans-serif" font-size="14.00"> &#160;Module</text>
<polygon fill="#80b1d3" stroke="transparent" points="474,-10 474,-30 494,-30 494,-10 474,-10"/>
<text text-anchor="start" x="497.78" y="-15.4" font-family="sans-serif" font-size="14.00"> &#160;Bootstrap</text>
<polygon fill="#fdb462" stroke="transparent" points="571,-10 571,-30 591,-30 591,-10 571,-10"/>
<text text-anchor="start" x="594.67" y="-15.4" font-family="sans-serif" font-size="14.00"> &#160;Providers</text>
<polygon fill="#fb8072" stroke="transparent" points="667,-10 667,-30 687,-30 687,-10 667,-10"/>
<text text-anchor="start" x="690.73" y="-15.4" font-family="sans-serif" font-size="14.00"> &#160;Exports</text>
<g id="clust1" class="cluster">
<title>cluster_AppModule</title>
<polygon fill="none" stroke="black" stroke-dasharray="1,5" points="8,-70 8,-203 1010,-203 1010,-70 8,-70"/>
</g>
<g id="clust3" class="cluster">
<title>cluster_AppModule_imports</title>
<polygon fill="none" stroke="black" points="154,-78 154,-195 1002,-195 1002,-78 154,-78"/>
</g>
<g id="clust6" class="cluster">
<title>cluster_AppModule_providers</title>
<polygon fill="none" stroke="black" points="16,-78 16,-130 146,-130 146,-78 16,-78"/>
</g>
<!-- AppConfigModule -->
<g id="node1" class="node">
<title>AppConfigModule</title>
<polygon fill="#8dd3c7" stroke="black" points="994.05,-122 991.05,-126 970.05,-126 967.05,-122 871.95,-122 871.95,-86 994.05,-86 994.05,-122"/>
<text text-anchor="middle" x="933" y="-99.8" font-family="Times,serif" font-size="14.00">AppConfigModule</text>
</g>
<!-- AppModule -->
<g id="node2" class="node">
<title>AppModule</title>
<polygon fill="#8dd3c7" stroke="black" points="569.66,-187 566.66,-191 545.66,-191 542.66,-187 486.34,-187 486.34,-151 569.66,-151 569.66,-187"/>
<text text-anchor="middle" x="528" y="-164.8" font-family="Times,serif" font-size="14.00">AppModule</text>
</g>
<!-- AppConfigModule&#45;&gt;AppModule -->
<g id="edge1" class="edge">
<title>AppConfigModule&#45;&gt;AppModule</title>
<path fill="none" stroke="black" d="M933,-122.29C933,-144.21 933,-178 933,-178 933,-178 579.82,-178 579.82,-178"/>
<polygon fill="black" stroke="black" points="579.82,-174.5 569.82,-178 579.82,-181.5 579.82,-174.5"/>
</g>
<!-- AppModule&#45;&gt;AppModule -->
<g id="edge2" class="edge">
<title>AppModule&#45;&gt;AppModule</title>
<path fill="none" stroke="black" d="M559.31,-150.76C559.31,-143.57 559.31,-137 559.31,-137 559.31,-137 599.77,-137 599.77,-137 599.77,-137 599.77,-205 599.77,-205 599.77,-205 528,-205 528,-205 528,-205 528,-197.42 528,-197.42"/>
<polygon fill="black" stroke="black" points="531.5,-197.42 528,-187.42 524.5,-197.42 531.5,-197.42"/>
</g>
<!-- AuthModule -->
<g id="node3" class="node">
<title>AuthModule</title>
<polygon fill="#8dd3c7" stroke="black" points="853.55,-122 850.55,-126 829.55,-126 826.55,-122 766.45,-122 766.45,-86 853.55,-86 853.55,-122"/>
<text text-anchor="middle" x="810" y="-99.8" font-family="Times,serif" font-size="14.00">AuthModule</text>
</g>
<!-- AuthModule&#45;&gt;AppModule -->
<g id="edge3" class="edge">
<title>AuthModule&#45;&gt;AppModule</title>
<path fill="none" stroke="black" d="M810,-122.11C810,-141.34 810,-169 810,-169 810,-169 579.91,-169 579.91,-169"/>
<polygon fill="black" stroke="black" points="579.91,-165.5 569.91,-169 579.91,-172.5 579.91,-165.5"/>
</g>
<!-- ImagesModule -->
<g id="node4" class="node">
<title>ImagesModule</title>
<polygon fill="#8dd3c7" stroke="black" points="747.97,-122 744.97,-126 723.97,-126 720.97,-122 648.03,-122 648.03,-86 747.97,-86 747.97,-122"/>
<text text-anchor="middle" x="698" y="-99.8" font-family="Times,serif" font-size="14.00">ImagesModule</text>
</g>
<!-- ImagesModule&#45;&gt;AppModule -->
<g id="edge4" class="edge">
<title>ImagesModule&#45;&gt;AppModule</title>
<path fill="none" stroke="black" d="M698,-122.03C698,-138.4 698,-160 698,-160 698,-160 580.02,-160 580.02,-160"/>
<polygon fill="black" stroke="black" points="580.02,-156.5 570.02,-160 580.02,-163.5 580.02,-156.5"/>
</g>
<!-- RedisModule -->
<g id="node5" class="node">
<title>RedisModule</title>
<polygon fill="#8dd3c7" stroke="black" points="629.94,-122 626.94,-126 605.94,-126 602.94,-122 538.06,-122 538.06,-86 629.94,-86 629.94,-122"/>
<text text-anchor="middle" x="584" y="-99.8" font-family="Times,serif" font-size="14.00">RedisModule</text>
</g>
<!-- RedisModule&#45;&gt;AppModule -->
<g id="edge5" class="edge">
<title>RedisModule&#45;&gt;AppModule</title>
<path fill="none" stroke="black" d="M548.8,-122.11C548.8,-122.11 548.8,-140.99 548.8,-140.99"/>
<polygon fill="black" stroke="black" points="545.3,-140.99 548.8,-150.99 552.3,-140.99 545.3,-140.99"/>
</g>
<!-- RentalModule -->
<g id="node6" class="node">
<title>RentalModule</title>
<polygon fill="#8dd3c7" stroke="black" points="520.1,-122 517.1,-126 496.1,-126 493.1,-122 423.9,-122 423.9,-86 520.1,-86 520.1,-122"/>
<text text-anchor="middle" x="472" y="-99.8" font-family="Times,serif" font-size="14.00">RentalModule</text>
</g>
<!-- RentalModule&#45;&gt;AppModule -->
<g id="edge6" class="edge">
<title>RentalModule&#45;&gt;AppModule</title>
<path fill="none" stroke="black" d="M503.11,-122.11C503.11,-122.11 503.11,-140.99 503.11,-140.99"/>
<polygon fill="black" stroke="black" points="499.61,-140.99 503.11,-150.99 506.61,-140.99 499.61,-140.99"/>
</g>
<!-- UnavailabilityModule -->
<g id="node7" class="node">
<title>UnavailabilityModule</title>
<polygon fill="#8dd3c7" stroke="black" points="405.64,-122 402.64,-126 381.64,-126 378.64,-122 266.36,-122 266.36,-86 405.64,-86 405.64,-122"/>
<text text-anchor="middle" x="336" y="-99.8" font-family="Times,serif" font-size="14.00">UnavailabilityModule</text>
</g>
<!-- UnavailabilityModule&#45;&gt;AppModule -->
<g id="edge7" class="edge">
<title>UnavailabilityModule&#45;&gt;AppModule</title>
<path fill="none" stroke="black" d="M336,-122.03C336,-138.4 336,-160 336,-160 336,-160 476.34,-160 476.34,-160"/>
<polygon fill="black" stroke="black" points="476.34,-163.5 486.34,-160 476.34,-156.5 476.34,-163.5"/>
</g>
<!-- UserModule -->
<g id="node8" class="node">
<title>UserModule</title>
<polygon fill="#8dd3c7" stroke="black" points="247.98,-122 244.98,-126 223.98,-126 220.98,-122 162.02,-122 162.02,-86 247.98,-86 247.98,-122"/>
<text text-anchor="middle" x="205" y="-99.8" font-family="Times,serif" font-size="14.00">UserModule</text>
</g>
<!-- UserModule&#45;&gt;AppModule -->
<g id="edge8" class="edge">
<title>UserModule&#45;&gt;AppModule</title>
<path fill="none" stroke="black" d="M205,-122.11C205,-141.34 205,-169 205,-169 205,-169 476.1,-169 476.1,-169"/>
<polygon fill="black" stroke="black" points="476.1,-172.5 486.1,-169 476.1,-165.5 476.1,-172.5"/>
</g>
<!-- AppService -->
<g id="node9" class="node">
<title>AppService</title>
<ellipse fill="#fdb462" stroke="black" cx="81" cy="-104" rx="56.74" ry="18"/>
<text text-anchor="middle" x="81" y="-99.8" font-family="Times,serif" font-size="14.00">AppService</text>
</g>
<!-- AppService&#45;&gt;AppModule -->
<g id="edge9" class="edge">
<title>AppService&#45;&gt;AppModule</title>
<path fill="none" stroke="black" d="M81,-122.29C81,-144.21 81,-178 81,-178 81,-178 475.95,-178 475.95,-178"/>
<polygon fill="black" stroke="black" points="475.95,-181.5 485.95,-178 475.95,-174.5 475.95,-181.5"/>
</g>
</g>
</svg>
