<?xml version="1.0" encoding="UTF-8" standalone="no"?>
<!DOCTYPE svg PUBLIC "-//W3C//DTD SVG 1.1//EN"
 "http://www.w3.org/Graphics/SVG/1.1/DTD/svg11.dtd">
<!-- Generated by graphviz version 2.44.1 (20200629.0846)
 -->
<!-- Title: dependencies Pages: 1 -->
<svg width="868pt" height="219pt"
 viewBox="0.00 0.00 868.00 219.00" xmlns="http://www.w3.org/2000/svg" xmlns:xlink="http://www.w3.org/1999/xlink">
<g id="graph0" class="graph" transform="scale(1 1) rotate(0) translate(4 215)">
<title>dependencies</title>
<polygon fill="white" stroke="transparent" points="-4,4 -4,-215 864,-215 864,4 -4,4"/>
<text text-anchor="start" x="409.01" y="-42.4" font-family="sans-serif" font-weight="bold" font-size="14.00">Legend</text>
<polygon fill="#ffffb3" stroke="transparent" points="196,-10 196,-30 216,-30 216,-10 196,-10"/>
<text text-anchor="start" x="219.63" y="-15.4" font-family="sans-serif" font-size="14.00"> &#160;Declarations</text>
<polygon fill="#8dd3c7" stroke="transparent" points="309,-10 309,-30 329,-30 329,-10 309,-10"/>
<text text-anchor="start" x="332.73" y="-15.4" font-family="sans-serif" font-size="14.00"> &#160;Module</text>
<polygon fill="#80b1d3" stroke="transparent" points="395,-10 395,-30 415,-30 415,-10 395,-10"/>
<text text-anchor="start" x="418.78" y="-15.4" font-family="sans-serif" font-size="14.00"> &#160;Bootstrap</text>
<polygon fill="#fdb462" stroke="transparent" points="492,-10 492,-30 512,-30 512,-10 492,-10"/>
<text text-anchor="start" x="515.67" y="-15.4" font-family="sans-serif" font-size="14.00"> &#160;Providers</text>
<polygon fill="#fb8072" stroke="transparent" points="588,-10 588,-30 608,-30 608,-10 588,-10"/>
<text text-anchor="start" x="611.73" y="-15.4" font-family="sans-serif" font-size="14.00"> &#160;Exports</text>
<g id="clust1" class="cluster">
<title>cluster_AppModule</title>
<polygon fill="none" stroke="black" stroke-dasharray="1,5" points="8,-70 8,-203 852,-203 852,-70 8,-70"/>
</g>
<g id="clust6" class="cluster">
<title>cluster_AppModule_providers</title>
<polygon fill="none" stroke="black" points="714,-78 714,-130 844,-130 844,-78 714,-78"/>
</g>
<g id="clust3" class="cluster">
<title>cluster_AppModule_imports</title>
<polygon fill="none" stroke="black" points="16,-78 16,-195 706,-195 706,-78 16,-78"/>
</g>
<!-- AppConfigModule -->
<g id="node1" class="node">
<title>AppConfigModule</title>
<polygon fill="#8dd3c7" stroke="black" points="698.05,-122 695.05,-126 674.05,-126 671.05,-122 575.95,-122 575.95,-86 698.05,-86 698.05,-122"/>
<text text-anchor="middle" x="637" y="-99.8" font-family="Times,serif" font-size="14.00">AppConfigModule</text>
</g>
<!-- AppModule -->
<g id="node2" class="node">
<title>AppModule</title>
<polygon fill="#8dd3c7" stroke="black" points="443.66,-187 440.66,-191 419.66,-191 416.66,-187 360.34,-187 360.34,-151 443.66,-151 443.66,-187"/>
<text text-anchor="middle" x="402" y="-164.8" font-family="Times,serif" font-size="14.00">AppModule</text>
</g>
<!-- AppConfigModule&#45;&gt;AppModule -->
<g id="edge1" class="edge">
<title>AppConfigModule&#45;&gt;AppModule</title>
<path fill="none" stroke="black" d="M637,-122.11C637,-141.34 637,-169 637,-169 637,-169 453.74,-169 453.74,-169"/>
<polygon fill="black" stroke="black" points="453.74,-165.5 443.74,-169 453.74,-172.5 453.74,-165.5"/>
</g>
<!-- AppModule&#45;&gt;AppModule -->
<g id="edge2" class="edge">
<title>AppModule&#45;&gt;AppModule</title>
<path fill="none" stroke="black" d="M415.94,-150.76C415.94,-143.57 415.94,-137 415.94,-137 415.94,-137 447.91,-137 447.91,-137 447.91,-137 447.91,-205 447.91,-205 447.91,-205 402,-205 402,-205 402,-205 402,-197.42 402,-197.42"/>
<polygon fill="black" stroke="black" points="405.5,-197.42 402,-187.42 398.5,-197.42 405.5,-197.42"/>
</g>
<!-- AuthModule -->
<g id="node3" class="node">
<title>AuthModule</title>
<polygon fill="#8dd3c7" stroke="black" points="557.55,-122 554.55,-126 533.55,-126 530.55,-122 470.45,-122 470.45,-86 557.55,-86 557.55,-122"/>
<text text-anchor="middle" x="514" y="-99.8" font-family="Times,serif" font-size="14.00">AuthModule</text>
</g>
<!-- AuthModule&#45;&gt;AppModule -->
<g id="edge3" class="edge">
<title>AuthModule&#45;&gt;AppModule</title>
<path fill="none" stroke="black" d="M514,-122.03C514,-138.4 514,-160 514,-160 514,-160 453.7,-160 453.7,-160"/>
<polygon fill="black" stroke="black" points="453.7,-156.5 443.7,-160 453.7,-163.5 453.7,-156.5"/>
</g>
<!-- ImagesModule -->
<g id="node4" class="node">
<title>ImagesModule</title>
<polygon fill="#8dd3c7" stroke="black" points="451.97,-122 448.97,-126 427.97,-126 424.97,-122 352.03,-122 352.03,-86 451.97,-86 451.97,-122"/>
<text text-anchor="middle" x="402" y="-99.8" font-family="Times,serif" font-size="14.00">ImagesModule</text>
</g>
<!-- ImagesModule&#45;&gt;AppModule -->
<g id="edge4" class="edge">
<title>ImagesModule&#45;&gt;AppModule</title>
<path fill="none" stroke="black" d="M388.06,-122.11C388.06,-122.11 388.06,-140.99 388.06,-140.99"/>
<polygon fill="black" stroke="black" points="384.56,-140.99 388.06,-150.99 391.56,-140.99 384.56,-140.99"/>
</g>
<!-- RedisModule -->
<g id="node5" class="node">
<title>RedisModule</title>
<polygon fill="#8dd3c7" stroke="black" points="333.94,-122 330.94,-126 309.94,-126 306.94,-122 242.06,-122 242.06,-86 333.94,-86 333.94,-122"/>
<text text-anchor="middle" x="288" y="-99.8" font-family="Times,serif" font-size="14.00">RedisModule</text>
</g>
<!-- RedisModule&#45;&gt;AppModule -->
<g id="edge5" class="edge">
<title>RedisModule&#45;&gt;AppModule</title>
<path fill="none" stroke="black" d="M288,-122.03C288,-138.4 288,-160 288,-160 288,-160 350.2,-160 350.2,-160"/>
<polygon fill="black" stroke="black" points="350.2,-163.5 360.2,-160 350.2,-156.5 350.2,-163.5"/>
</g>
<!-- RentalModule -->
<g id="node6" class="node">
<title>RentalModule</title>
<polygon fill="#8dd3c7" stroke="black" points="224.1,-122 221.1,-126 200.1,-126 197.1,-122 127.9,-122 127.9,-86 224.1,-86 224.1,-122"/>
<text text-anchor="middle" x="176" y="-99.8" font-family="Times,serif" font-size="14.00">RentalModule</text>
</g>
<!-- RentalModule&#45;&gt;AppModule -->
<g id="edge6" class="edge">
<title>RentalModule&#45;&gt;AppModule</title>
<path fill="none" stroke="black" d="M176,-122.11C176,-141.34 176,-169 176,-169 176,-169 350.28,-169 350.28,-169"/>
<polygon fill="black" stroke="black" points="350.28,-172.5 360.28,-169 350.28,-165.5 350.28,-172.5"/>
</g>
<!-- UserModule -->
<g id="node7" class="node">
<title>UserModule</title>
<polygon fill="#8dd3c7" stroke="black" points="109.98,-122 106.98,-126 85.98,-126 82.98,-122 24.02,-122 24.02,-86 109.98,-86 109.98,-122"/>
<text text-anchor="middle" x="67" y="-99.8" font-family="Times,serif" font-size="14.00">UserModule</text>
</g>
<!-- UserModule&#45;&gt;AppModule -->
<g id="edge7" class="edge">
<title>UserModule&#45;&gt;AppModule</title>
<path fill="none" stroke="black" d="M67,-122.29C67,-144.21 67,-178 67,-178 67,-178 350.25,-178 350.25,-178"/>
<polygon fill="black" stroke="black" points="350.25,-181.5 360.25,-178 350.25,-174.5 350.25,-181.5"/>
</g>
<!-- AppService -->
<g id="node8" class="node">
<title>AppService</title>
<ellipse fill="#fdb462" stroke="black" cx="779" cy="-104" rx="56.74" ry="18"/>
<text text-anchor="middle" x="779" y="-99.8" font-family="Times,serif" font-size="14.00">AppService</text>
</g>
<!-- AppService&#45;&gt;AppModule -->
<g id="edge8" class="edge">
<title>AppService&#45;&gt;AppModule</title>
<path fill="none" stroke="black" d="M779,-122.29C779,-144.21 779,-178 779,-178 779,-178 453.79,-178 453.79,-178"/>
<polygon fill="black" stroke="black" points="453.79,-174.5 443.79,-178 453.79,-181.5 453.79,-174.5"/>
</g>
</g>
</svg>
