<?xml version="1.0" encoding="UTF-8" standalone="no"?>
<!DOCTYPE svg PUBLIC "-//W3C//DTD SVG 1.1//EN"
 "http://www.w3.org/Graphics/SVG/1.1/DTD/svg11.dtd">
<!-- Generated by graphviz version 2.44.1 (20200629.0846)
 -->
<!-- Title: dependencies Pages: 1 -->
<svg width="758pt" height="219pt"
 viewBox="0.00 0.00 758.00 219.00" xmlns="http://www.w3.org/2000/svg" xmlns:xlink="http://www.w3.org/1999/xlink">
<g id="graph0" class="graph" transform="scale(1 1) rotate(0) translate(4 215)">
<title>dependencies</title>
<polygon fill="white" stroke="transparent" points="-4,4 -4,-215 754,-215 754,4 -4,4"/>
<text text-anchor="start" x="354.01" y="-42.4" font-family="sans-serif" font-weight="bold" font-size="14.00">Legend</text>
<polygon fill="#ffffb3" stroke="transparent" points="141,-10 141,-30 161,-30 161,-10 141,-10"/>
<text text-anchor="start" x="164.63" y="-15.4" font-family="sans-serif" font-size="14.00"> &#160;Declarations</text>
<polygon fill="#8dd3c7" stroke="transparent" points="254,-10 254,-30 274,-30 274,-10 254,-10"/>
<text text-anchor="start" x="277.73" y="-15.4" font-family="sans-serif" font-size="14.00"> &#160;Module</text>
<polygon fill="#80b1d3" stroke="transparent" points="340,-10 340,-30 360,-30 360,-10 340,-10"/>
<text text-anchor="start" x="363.78" y="-15.4" font-family="sans-serif" font-size="14.00"> &#160;Bootstrap</text>
<polygon fill="#fdb462" stroke="transparent" points="437,-10 437,-30 457,-30 457,-10 437,-10"/>
<text text-anchor="start" x="460.67" y="-15.4" font-family="sans-serif" font-size="14.00"> &#160;Providers</text>
<polygon fill="#fb8072" stroke="transparent" points="533,-10 533,-30 553,-30 553,-10 533,-10"/>
<text text-anchor="start" x="556.73" y="-15.4" font-family="sans-serif" font-size="14.00"> &#160;Exports</text>
<g id="clust1" class="cluster">
<title>cluster_AppModule</title>
<polygon fill="none" stroke="black" stroke-dasharray="1,5" points="8,-70 8,-203 742,-203 742,-70 8,-70"/>
</g>
<g id="clust3" class="cluster">
<title>cluster_AppModule_imports</title>
<polygon fill="none" stroke="black" points="154,-78 154,-195 734,-195 734,-78 154,-78"/>
</g>
<g id="clust6" class="cluster">
<title>cluster_AppModule_providers</title>
<polygon fill="none" stroke="black" points="16,-78 16,-130 146,-130 146,-78 16,-78"/>
</g>
<!-- AppConfigModule -->
<g id="node1" class="node">
<title>AppConfigModule</title>
<polygon fill="#8dd3c7" stroke="black" points="726.05,-122 723.05,-126 702.05,-126 699.05,-122 603.95,-122 603.95,-86 726.05,-86 726.05,-122"/>
<text text-anchor="middle" x="665" y="-99.8" font-family="Times,serif" font-size="14.00">AppConfigModule</text>
</g>
<!-- AppModule -->
<g id="node2" class="node">
<title>AppModule</title>
<polygon fill="#8dd3c7" stroke="black" points="413.66,-187 410.66,-191 389.66,-191 386.66,-187 330.34,-187 330.34,-151 413.66,-151 413.66,-187"/>
<text text-anchor="middle" x="372" y="-164.8" font-family="Times,serif" font-size="14.00">AppModule</text>
</g>
<!-- AppConfigModule&#45;&gt;AppModule -->
<g id="edge1" class="edge">
<title>AppConfigModule&#45;&gt;AppModule</title>
<path fill="none" stroke="black" d="M665,-122.28C665,-143.32 665,-175 665,-175 665,-175 423.67,-175 423.67,-175"/>
<polygon fill="black" stroke="black" points="423.67,-171.5 413.67,-175 423.67,-178.5 423.67,-171.5"/>
</g>
<!-- AppModule&#45;&gt;AppModule -->
<g id="edge2" class="edge">
<title>AppModule&#45;&gt;AppModule</title>
<path fill="none" stroke="black" d="M340.8,-150.76C340.8,-143.57 340.8,-137 340.8,-137 340.8,-137 298.06,-137 298.06,-137 298.06,-137 298.06,-205 298.06,-205 298.06,-205 372,-205 372,-205 372,-205 372,-197.42 372,-197.42"/>
<polygon fill="black" stroke="black" points="375.5,-197.42 372,-187.42 368.5,-197.42 375.5,-197.42"/>
</g>
<!-- AuthModule -->
<g id="node3" class="node">
<title>AuthModule</title>
<polygon fill="#8dd3c7" stroke="black" points="585.55,-122 582.55,-126 561.55,-126 558.55,-122 498.45,-122 498.45,-86 585.55,-86 585.55,-122"/>
<text text-anchor="middle" x="542" y="-99.8" font-family="Times,serif" font-size="14.00">AuthModule</text>
</g>
<!-- AuthModule&#45;&gt;AppModule -->
<g id="edge3" class="edge">
<title>AuthModule&#45;&gt;AppModule</title>
<path fill="none" stroke="black" d="M542,-122.02C542,-139.37 542,-163 542,-163 542,-163 424.02,-163 424.02,-163"/>
<polygon fill="black" stroke="black" points="424.02,-159.5 414.02,-163 424.02,-166.5 424.02,-159.5"/>
</g>
<!-- ImagesModule -->
<g id="node4" class="node">
<title>ImagesModule</title>
<polygon fill="#8dd3c7" stroke="black" points="479.97,-122 476.97,-126 455.97,-126 452.97,-122 380.03,-122 380.03,-86 479.97,-86 479.97,-122"/>
<text text-anchor="middle" x="430" y="-99.8" font-family="Times,serif" font-size="14.00">ImagesModule</text>
</g>
<!-- ImagesModule&#45;&gt;AppModule -->
<g id="edge4" class="edge">
<title>ImagesModule&#45;&gt;AppModule</title>
<path fill="none" stroke="black" d="M396.92,-122.11C396.92,-122.11 396.92,-140.99 396.92,-140.99"/>
<polygon fill="black" stroke="black" points="393.42,-140.99 396.92,-150.99 400.42,-140.99 393.42,-140.99"/>
</g>
<!-- RentalModule -->
<g id="node5" class="node">
<title>RentalModule</title>
<polygon fill="#8dd3c7" stroke="black" points="362.1,-122 359.1,-126 338.1,-126 335.1,-122 265.9,-122 265.9,-86 362.1,-86 362.1,-122"/>
<text text-anchor="middle" x="314" y="-99.8" font-family="Times,serif" font-size="14.00">RentalModule</text>
</g>
<!-- RentalModule&#45;&gt;AppModule -->
<g id="edge5" class="edge">
<title>RentalModule&#45;&gt;AppModule</title>
<path fill="none" stroke="black" d="M351.42,-122.11C351.42,-122.11 351.42,-140.99 351.42,-140.99"/>
<polygon fill="black" stroke="black" points="347.92,-140.99 351.42,-150.99 354.92,-140.99 347.92,-140.99"/>
</g>
<!-- UserModule -->
<g id="node6" class="node">
<title>UserModule</title>
<polygon fill="#8dd3c7" stroke="black" points="247.98,-122 244.98,-126 223.98,-126 220.98,-122 162.02,-122 162.02,-86 247.98,-86 247.98,-122"/>
<text text-anchor="middle" x="205" y="-99.8" font-family="Times,serif" font-size="14.00">UserModule</text>
</g>
<!-- UserModule&#45;&gt;AppModule -->
<g id="edge6" class="edge">
<title>UserModule&#45;&gt;AppModule</title>
<path fill="none" stroke="black" d="M205,-122.02C205,-139.37 205,-163 205,-163 205,-163 320.29,-163 320.29,-163"/>
<polygon fill="black" stroke="black" points="320.29,-166.5 330.29,-163 320.29,-159.5 320.29,-166.5"/>
</g>
<!-- AppService -->
<g id="node7" class="node">
<title>AppService</title>
<ellipse fill="#fdb462" stroke="black" cx="81" cy="-104" rx="56.74" ry="18"/>
<text text-anchor="middle" x="81" y="-99.8" font-family="Times,serif" font-size="14.00">AppService</text>
</g>
<!-- AppService&#45;&gt;AppModule -->
<g id="edge7" class="edge">
<title>AppService&#45;&gt;AppModule</title>
<path fill="none" stroke="black" d="M81,-122.28C81,-143.32 81,-175 81,-175 81,-175 320.31,-175 320.31,-175"/>
<polygon fill="black" stroke="black" points="320.31,-178.5 330.31,-175 320.31,-171.5 320.31,-178.5"/>
</g>
</g>
</svg>
