<?xml version="1.0" encoding="UTF-8" standalone="no"?>
<!DOCTYPE svg PUBLIC "-//W3C//DTD SVG 1.1//EN"
 "http://www.w3.org/Graphics/SVG/1.1/DTD/svg11.dtd">
<!-- Generated by graphviz version 2.44.1 (20200629.0846)
 -->
<!-- Title: dependencies Pages: 1 -->
<svg width="758pt" height="219pt"
 viewBox="0.00 0.00 758.00 219.00" xmlns="http://www.w3.org/2000/svg" xmlns:xlink="http://www.w3.org/1999/xlink">
<g id="graph0" class="graph" transform="scale(1 1) rotate(0) translate(4 215)">
<title>dependencies</title>
<polygon fill="white" stroke="transparent" points="-4,4 -4,-215 754,-215 754,4 -4,4"/>
<text text-anchor="start" x="354.01" y="-42.4" font-family="sans-serif" font-weight="bold" font-size="14.00">Legend</text>
<polygon fill="#ffffb3" stroke="transparent" points="141,-10 141,-30 161,-30 161,-10 141,-10"/>
<text text-anchor="start" x="164.63" y="-15.4" font-family="sans-serif" font-size="14.00"> &#160;Declarations</text>
<polygon fill="#8dd3c7" stroke="transparent" points="254,-10 254,-30 274,-30 274,-10 254,-10"/>
<text text-anchor="start" x="277.73" y="-15.4" font-family="sans-serif" font-size="14.00"> &#160;Module</text>
<polygon fill="#80b1d3" stroke="transparent" points="340,-10 340,-30 360,-30 360,-10 340,-10"/>
<text text-anchor="start" x="363.78" y="-15.4" font-family="sans-serif" font-size="14.00"> &#160;Bootstrap</text>
<polygon fill="#fdb462" stroke="transparent" points="437,-10 437,-30 457,-30 457,-10 437,-10"/>
<text text-anchor="start" x="460.67" y="-15.4" font-family="sans-serif" font-size="14.00"> &#160;Providers</text>
<polygon fill="#fb8072" stroke="transparent" points="533,-10 533,-30 553,-30 553,-10 533,-10"/>
<text text-anchor="start" x="556.73" y="-15.4" font-family="sans-serif" font-size="14.00"> &#160;Exports</text>
<g id="clust1" class="cluster">
<title>cluster_AppModule</title>
<polygon fill="none" stroke="black" stroke-dasharray="1,5" points="8,-70 8,-203 742,-203 742,-70 8,-70"/>
</g>
<g id="clust6" class="cluster">
<title>cluster_AppModule_providers</title>
<polygon fill="none" stroke="black" points="604,-78 604,-130 734,-130 734,-78 604,-78"/>
</g>
<g id="clust3" class="cluster">
<title>cluster_AppModule_imports</title>
<polygon fill="none" stroke="black" points="16,-78 16,-195 596,-195 596,-78 16,-78"/>
</g>
<!-- AppConfigModule -->
<g id="node1" class="node">
<title>AppConfigModule</title>
<polygon fill="#8dd3c7" stroke="black" points="588.05,-122 585.05,-126 564.05,-126 561.05,-122 465.95,-122 465.95,-86 588.05,-86 588.05,-122"/>
<text text-anchor="middle" x="527" y="-99.8" font-family="Times,serif" font-size="14.00">AppConfigModule</text>
</g>
<!-- AppModule -->
<g id="node2" class="node">
<title>AppModule</title>
<polygon fill="#8dd3c7" stroke="black" points="389.66,-187 386.66,-191 365.66,-191 362.66,-187 306.34,-187 306.34,-151 389.66,-151 389.66,-187"/>
<text text-anchor="middle" x="348" y="-164.8" font-family="Times,serif" font-size="14.00">AppModule</text>
</g>
<!-- AppConfigModule&#45;&gt;AppModule -->
<g id="edge1" class="edge">
<title>AppConfigModule&#45;&gt;AppModule</title>
<path fill="none" stroke="black" d="M527,-122.02C527,-139.37 527,-163 527,-163 527,-163 399.97,-163 399.97,-163"/>
<polygon fill="black" stroke="black" points="399.97,-159.5 389.97,-163 399.97,-166.5 399.97,-159.5"/>
</g>
<!-- AppModule&#45;&gt;AppModule -->
<g id="edge2" class="edge">
<title>AppModule&#45;&gt;AppModule</title>
<path fill="none" stroke="black" d="M379.96,-150.76C379.96,-143.57 379.96,-137 379.96,-137 379.96,-137 418.8,-137 418.8,-137 418.8,-137 418.8,-205 418.8,-205 418.8,-205 348,-205 348,-205 348,-205 348,-197.42 348,-197.42"/>
<polygon fill="black" stroke="black" points="351.5,-197.42 348,-187.42 344.5,-197.42 351.5,-197.42"/>
</g>
<!-- AuthModule -->
<g id="node3" class="node">
<title>AuthModule</title>
<polygon fill="#8dd3c7" stroke="black" points="447.55,-122 444.55,-126 423.55,-126 420.55,-122 360.45,-122 360.45,-86 447.55,-86 447.55,-122"/>
<text text-anchor="middle" x="404" y="-99.8" font-family="Times,serif" font-size="14.00">AuthModule</text>
</g>
<!-- AuthModule&#45;&gt;AppModule -->
<g id="edge3" class="edge">
<title>AuthModule&#45;&gt;AppModule</title>
<path fill="none" stroke="black" d="M370.09,-122.11C370.09,-122.11 370.09,-140.99 370.09,-140.99"/>
<polygon fill="black" stroke="black" points="366.59,-140.99 370.09,-150.99 373.59,-140.99 366.59,-140.99"/>
</g>
<!-- ImagesModule -->
<g id="node4" class="node">
<title>ImagesModule</title>
<polygon fill="#8dd3c7" stroke="black" points="341.97,-122 338.97,-126 317.97,-126 314.97,-122 242.03,-122 242.03,-86 341.97,-86 341.97,-122"/>
<text text-anchor="middle" x="292" y="-99.8" font-family="Times,serif" font-size="14.00">ImagesModule</text>
</g>
<!-- ImagesModule&#45;&gt;AppModule -->
<g id="edge4" class="edge">
<title>ImagesModule&#45;&gt;AppModule</title>
<path fill="none" stroke="black" d="M324.08,-122.11C324.08,-122.11 324.08,-140.99 324.08,-140.99"/>
<polygon fill="black" stroke="black" points="320.58,-140.99 324.08,-150.99 327.58,-140.99 320.58,-140.99"/>
</g>
<!-- RentalModule -->
<g id="node5" class="node">
<title>RentalModule</title>
<polygon fill="#8dd3c7" stroke="black" points="224.1,-122 221.1,-126 200.1,-126 197.1,-122 127.9,-122 127.9,-86 224.1,-86 224.1,-122"/>
<text text-anchor="middle" x="176" y="-99.8" font-family="Times,serif" font-size="14.00">RentalModule</text>
</g>
<!-- RentalModule&#45;&gt;AppModule -->
<g id="edge5" class="edge">
<title>RentalModule&#45;&gt;AppModule</title>
<path fill="none" stroke="black" d="M176,-122.02C176,-139.37 176,-163 176,-163 176,-163 295.92,-163 295.92,-163"/>
<polygon fill="black" stroke="black" points="295.92,-166.5 305.92,-163 295.92,-159.5 295.92,-166.5"/>
</g>
<!-- UserModule -->
<g id="node6" class="node">
<title>UserModule</title>
<polygon fill="#8dd3c7" stroke="black" points="109.98,-122 106.98,-126 85.98,-126 82.98,-122 24.02,-122 24.02,-86 109.98,-86 109.98,-122"/>
<text text-anchor="middle" x="67" y="-99.8" font-family="Times,serif" font-size="14.00">UserModule</text>
</g>
<!-- UserModule&#45;&gt;AppModule -->
<g id="edge6" class="edge">
<title>UserModule&#45;&gt;AppModule</title>
<path fill="none" stroke="black" d="M67,-122.28C67,-143.32 67,-175 67,-175 67,-175 296.23,-175 296.23,-175"/>
<polygon fill="black" stroke="black" points="296.23,-178.5 306.23,-175 296.23,-171.5 296.23,-178.5"/>
</g>
<!-- AppService -->
<g id="node7" class="node">
<title>AppService</title>
<ellipse fill="#fdb462" stroke="black" cx="669" cy="-104" rx="56.74" ry="18"/>
<text text-anchor="middle" x="669" y="-99.8" font-family="Times,serif" font-size="14.00">AppService</text>
</g>
<!-- AppService&#45;&gt;AppModule -->
<g id="edge7" class="edge">
<title>AppService&#45;&gt;AppModule</title>
<path fill="none" stroke="black" d="M669,-122.28C669,-143.32 669,-175 669,-175 669,-175 399.97,-175 399.97,-175"/>
<polygon fill="black" stroke="black" points="399.97,-171.5 389.97,-175 399.97,-178.5 399.97,-171.5"/>
</g>
</g>
</svg>
