<?xml version="1.0" encoding="UTF-8" standalone="no"?>
<!DOCTYPE svg PUBLIC "-//W3C//DTD SVG 1.1//EN"
 "http://www.w3.org/Graphics/SVG/1.1/DTD/svg11.dtd">
<!-- Generated by graphviz version 2.44.1 (20200629.0846)
 -->
<!-- Title: dependencies Pages: 1 -->
<svg width="7370pt" height="431pt"
 viewBox="0.00 0.00 7370.00 431.00" xmlns="http://www.w3.org/2000/svg" xmlns:xlink="http://www.w3.org/1999/xlink">
<g id="graph0" class="graph" transform="scale(1 1) rotate(0) translate(4 427)">
<title>dependencies</title>
<polygon fill="white" stroke="transparent" points="-4,4 -4,-427 7366,-427 7366,4 -4,4"/>
<text text-anchor="start" x="3660.01" y="-42.4" font-family="sans-serif" font-weight="bold" font-size="14.00">Legend</text>
<polygon fill="#ffffb3" stroke="transparent" points="3447,-10 3447,-30 3467,-30 3467,-10 3447,-10"/>
<text text-anchor="start" x="3470.63" y="-15.4" font-family="sans-serif" font-size="14.00"> &#160;Declarations</text>
<polygon fill="#8dd3c7" stroke="transparent" points="3560,-10 3560,-30 3580,-30 3580,-10 3560,-10"/>
<text text-anchor="start" x="3583.73" y="-15.4" font-family="sans-serif" font-size="14.00"> &#160;Module</text>
<polygon fill="#80b1d3" stroke="transparent" points="3646,-10 3646,-30 3666,-30 3666,-10 3646,-10"/>
<text text-anchor="start" x="3669.78" y="-15.4" font-family="sans-serif" font-size="14.00"> &#160;Bootstrap</text>
<polygon fill="#fdb462" stroke="transparent" points="3743,-10 3743,-30 3763,-30 3763,-10 3743,-10"/>
<text text-anchor="start" x="3766.67" y="-15.4" font-family="sans-serif" font-size="14.00"> &#160;Providers</text>
<polygon fill="#fb8072" stroke="transparent" points="3839,-10 3839,-30 3859,-30 3859,-10 3839,-10"/>
<text text-anchor="start" x="3862.73" y="-15.4" font-family="sans-serif" font-size="14.00"> &#160;Exports</text>
<g id="clust1" class="cluster">
<title>cluster_AppConfigModule</title>
<polygon fill="none" stroke="black" stroke-dasharray="1,5" points="8,-70 8,-282 282,-282 282,-70 8,-70"/>
</g>
<g id="clust4" class="cluster">
<title>cluster_AppConfigModule_exports</title>
<polygon fill="none" stroke="black" points="16,-222 16,-274 274,-274 274,-222 16,-222"/>
</g>
<g id="clust6" class="cluster">
<title>cluster_AppConfigModule_providers</title>
<polygon fill="none" stroke="black" points="92,-78 92,-130 274,-130 274,-78 92,-78"/>
</g>
<g id="clust7" class="cluster">
<title>cluster_AppModule</title>
<polygon fill="none" stroke="black" stroke-dasharray="1,5" points="6844,-214 6844,-415 7354,-415 7354,-214 6844,-214"/>
</g>
<g id="clust9" class="cluster">
<title>cluster_AppModule_imports</title>
<polygon fill="none" stroke="black" points="6990,-222 6990,-407 7346,-407 7346,-222 6990,-222"/>
</g>
<g id="clust12" class="cluster">
<title>cluster_AppModule_providers</title>
<polygon fill="none" stroke="black" points="6852,-290 6852,-342 6982,-342 6982,-290 6852,-290"/>
</g>
<g id="clust13" class="cluster">
<title>cluster_AuthModule</title>
<polygon fill="none" stroke="black" stroke-dasharray="1,5" points="290,-214 290,-282 2157,-282 2157,-214 290,-214"/>
</g>
<g id="clust16" class="cluster">
<title>cluster_AuthModule_exports</title>
<polygon fill="none" stroke="black" points="1462,-222 1462,-274 2149,-274 2149,-222 1462,-222"/>
</g>
<g id="clust18" class="cluster">
<title>cluster_AuthModule_providers</title>
<polygon fill="none" stroke="black" points="298,-222 298,-274 1454,-274 1454,-222 298,-222"/>
</g>
<g id="clust25" class="cluster">
<title>cluster_ImagesModule</title>
<polygon fill="none" stroke="black" stroke-dasharray="1,5" points="2165,-214 2165,-282 3528,-282 3528,-214 2165,-214"/>
</g>
<g id="clust27" class="cluster">
<title>cluster_ImagesModule_imports</title>
<polygon fill="none" stroke="black" points="3394,-222 3394,-274 3520,-274 3520,-222 3394,-222"/>
</g>
<g id="clust28" class="cluster">
<title>cluster_ImagesModule_exports</title>
<polygon fill="none" stroke="black" points="3268,-222 3268,-274 3386,-274 3386,-222 3268,-222"/>
</g>
<g id="clust30" class="cluster">
<title>cluster_ImagesModule_providers</title>
<polygon fill="none" stroke="black" points="2173,-222 2173,-274 3260,-274 3260,-222 2173,-222"/>
</g>
<g id="clust31" class="cluster">
<title>cluster_RentalModule</title>
<polygon fill="none" stroke="black" stroke-dasharray="1,5" points="3536,-214 3536,-282 6836,-282 6836,-214 3536,-214"/>
</g>
<g id="clust34" class="cluster">
<title>cluster_RentalModule_exports</title>
<polygon fill="none" stroke="black" points="6714,-222 6714,-274 6828,-274 6828,-222 6714,-222"/>
</g>
<g id="clust36" class="cluster">
<title>cluster_RentalModule_providers</title>
<polygon fill="none" stroke="black" points="3544,-222 3544,-274 6706,-274 6706,-222 3544,-222"/>
</g>
<g id="clust37" class="cluster">
<title>cluster_UserModule</title>
<polygon fill="none" stroke="black" stroke-dasharray="1,5" points="6850,-138 6850,-206 7110,-206 7110,-138 6850,-138"/>
</g>
<g id="clust40" class="cluster">
<title>cluster_UserModule_exports</title>
<polygon fill="none" stroke="black" points="6998,-146 6998,-198 7102,-198 7102,-146 6998,-146"/>
</g>
<g id="clust42" class="cluster">
<title>cluster_UserModule_providers</title>
<polygon fill="none" stroke="black" points="6858,-146 6858,-198 6990,-198 6990,-146 6858,-146"/>
</g>
<!-- AppConfigService  -->
<g id="node1" class="node">
<title>AppConfigService </title>
<polygon fill="#fb8072" stroke="black" points="148.47,-266 23.53,-266 23.53,-230 148.47,-230 148.47,-266"/>
<text text-anchor="middle" x="86" y="-243.8" font-family="Times,serif" font-size="14.00">AppConfigService </text>
</g>
<!-- ConfigService  -->
<g id="node2" class="node">
<title>ConfigService </title>
<polygon fill="#fb8072" stroke="black" points="266.37,-266 165.63,-266 165.63,-230 266.37,-230 266.37,-266"/>
<text text-anchor="middle" x="216" y="-243.8" font-family="Times,serif" font-size="14.00">ConfigService </text>
</g>
<!-- AppConfigModule -->
<g id="node3" class="node">
<title>AppConfigModule</title>
<polygon fill="#8dd3c7" stroke="black" points="274.05,-190 271.05,-194 250.05,-194 247.05,-190 151.95,-190 151.95,-154 274.05,-154 274.05,-190"/>
<text text-anchor="middle" x="213" y="-167.8" font-family="Times,serif" font-size="14.00">AppConfigModule</text>
</g>
<!-- AppConfigModule&#45;&gt;AppConfigService  -->
<g id="edge1" class="edge">
<title>AppConfigModule&#45;&gt;AppConfigService </title>
<path fill="none" stroke="black" stroke-dasharray="5,2" d="M158.77,-190.01C158.77,-212.49 158.77,-248 158.77,-248 158.77,-248 157.73,-248 157.73,-248"/>
<polygon fill="black" stroke="black" points="158.35,-244.5 148.35,-248 158.35,-251.5 158.35,-244.5"/>
</g>
<!-- AppConfigModule&#45;&gt;ConfigService  -->
<g id="edge2" class="edge">
<title>AppConfigModule&#45;&gt;ConfigService </title>
<path fill="none" stroke="black" stroke-dasharray="5,2" d="M216,-190.01C216,-190.01 216,-219.85 216,-219.85"/>
<polygon fill="black" stroke="black" points="212.5,-219.85 216,-229.85 219.5,-219.85 212.5,-219.85"/>
</g>
<!-- AppModule -->
<g id="node5" class="node">
<title>AppModule</title>
<polygon fill="#8dd3c7" stroke="black" points="7139.66,-399 7136.66,-403 7115.66,-403 7112.66,-399 7056.34,-399 7056.34,-363 7139.66,-363 7139.66,-399"/>
<text text-anchor="middle" x="7098" y="-376.8" font-family="Times,serif" font-size="14.00">AppModule</text>
</g>
<!-- AppConfigModule&#45;&gt;AppModule -->
<g id="edge4" class="edge">
<title>AppConfigModule&#45;&gt;AppModule</title>
<path fill="none" stroke="black" d="M270.23,-190.33C270.23,-243.83 270.23,-396 270.23,-396 270.23,-396 7046.17,-396 7046.17,-396"/>
<polygon fill="black" stroke="black" points="7046.17,-399.5 7056.17,-396 7046.17,-392.5 7046.17,-399.5"/>
</g>
<!-- AuthModule -->
<g id="node6" class="node">
<title>AuthModule</title>
<polygon fill="#8dd3c7" stroke="black" points="7085.55,-334 7082.55,-338 7061.55,-338 7058.55,-334 6998.45,-334 6998.45,-298 7085.55,-298 7085.55,-334"/>
<text text-anchor="middle" x="7042" y="-311.8" font-family="Times,serif" font-size="14.00">AuthModule</text>
</g>
<!-- AppConfigModule&#45;&gt;AuthModule -->
<g id="edge11" class="edge">
<title>AppConfigModule&#45;&gt;AuthModule</title>
<path fill="none" stroke="black" d="M272.25,-190.09C272.25,-242.87 272.25,-393 272.25,-393 272.25,-393 7047.26,-393 7047.26,-393 7047.26,-393 7047.26,-344.25 7047.26,-344.25"/>
<polygon fill="black" stroke="black" points="7050.76,-344.25 7047.26,-334.25 7043.76,-344.25 7050.76,-344.25"/>
</g>
<!-- ImagesModule -->
<g id="node7" class="node">
<title>ImagesModule</title>
<polygon fill="#8dd3c7" stroke="black" points="7203.97,-334 7200.97,-338 7179.97,-338 7176.97,-334 7104.03,-334 7104.03,-298 7203.97,-298 7203.97,-334"/>
<text text-anchor="middle" x="7154" y="-311.8" font-family="Times,serif" font-size="14.00">ImagesModule</text>
</g>
<!-- AppConfigModule&#45;&gt;ImagesModule -->
<g id="edge26" class="edge">
<title>AppConfigModule&#45;&gt;ImagesModule</title>
<path fill="none" stroke="black" d="M268.21,-190.17C268.21,-194.05 268.21,-197 268.21,-197 268.21,-197 7137.34,-197 7137.34,-197 7137.34,-197 7137.34,-287.93 7137.34,-287.93"/>
<polygon fill="black" stroke="black" points="7133.84,-287.93 7137.34,-297.93 7140.84,-287.93 7133.84,-287.93"/>
</g>
<!-- UserModule -->
<g id="node9" class="node">
<title>UserModule</title>
<polygon fill="#8dd3c7" stroke="black" points="7083.98,-266 7080.98,-270 7059.98,-270 7056.98,-266 6998.02,-266 6998.02,-230 7083.98,-230 7083.98,-266"/>
<text text-anchor="middle" x="7041" y="-243.8" font-family="Times,serif" font-size="14.00">UserModule</text>
</g>
<!-- AppConfigModule&#45;&gt;UserModule -->
<g id="edge54" class="edge">
<title>AppConfigModule&#45;&gt;UserModule</title>
<path fill="none" stroke="black" d="M274.12,-172C940.95,-172 6840.2,-172 6840.2,-172 6840.2,-172 6840.2,-254 6840.2,-254 6840.2,-254 6987.92,-254 6987.92,-254"/>
<polygon fill="black" stroke="black" points="6987.92,-257.5 6997.92,-254 6987.92,-250.5 6987.92,-257.5"/>
</g>
<!-- AppConfigService -->
<g id="node4" class="node">
<title>AppConfigService</title>
<ellipse fill="#fdb462" stroke="black" cx="183" cy="-104" rx="83.39" ry="18"/>
<text text-anchor="middle" x="183" y="-99.8" font-family="Times,serif" font-size="14.00">AppConfigService</text>
</g>
<!-- AppConfigService&#45;&gt;AppConfigModule -->
<g id="edge3" class="edge">
<title>AppConfigService&#45;&gt;AppConfigModule</title>
<path fill="none" stroke="black" d="M209.09,-121.16C209.09,-121.16 209.09,-143.65 209.09,-143.65"/>
<polygon fill="black" stroke="black" points="205.59,-143.65 209.09,-153.65 212.59,-143.65 205.59,-143.65"/>
</g>
<!-- AppConfigService&#45;&gt;AuthModule -->
<g id="edge18" class="edge">
<title>AppConfigService&#45;&gt;AuthModule</title>
<path fill="none" stroke="black" d="M255.41,-113C985.47,-113 6990.12,-113 6990.12,-113 6990.12,-113 6990.12,-316 6990.12,-316 6990.12,-316 6990.93,-316 6990.93,-316"/>
<polygon fill="black" stroke="black" points="6988.22,-319.5 6998.22,-316 6988.22,-312.5 6988.22,-319.5"/>
</g>
<!-- AppConfigService&#45;&gt;ImagesModule -->
<g id="edge29" class="edge">
<title>AppConfigService&#45;&gt;ImagesModule</title>
<path fill="none" stroke="black" d="M266.65,-104C1056.32,-104 7170.66,-104 7170.66,-104 7170.66,-104 7170.66,-287.92 7170.66,-287.92"/>
<polygon fill="black" stroke="black" points="7167.16,-287.92 7170.66,-297.92 7174.16,-287.93 7167.16,-287.92"/>
</g>
<!-- RentalModule -->
<g id="node8" class="node">
<title>RentalModule</title>
<polygon fill="#8dd3c7" stroke="black" points="7318.1,-334 7315.1,-338 7294.1,-338 7291.1,-334 7221.9,-334 7221.9,-298 7318.1,-298 7318.1,-334"/>
<text text-anchor="middle" x="7270" y="-311.8" font-family="Times,serif" font-size="14.00">RentalModule</text>
</g>
<!-- AppConfigService&#45;&gt;RentalModule -->
<g id="edge38" class="edge">
<title>AppConfigService&#45;&gt;RentalModule</title>
<path fill="none" stroke="black" d="M255.3,-95C1003.83,-95 7312.4,-95 7312.4,-95 7312.4,-95 7312.4,-287.91 7312.4,-287.91"/>
<polygon fill="black" stroke="black" points="7308.9,-287.91 7312.4,-297.91 7315.9,-287.91 7308.9,-287.91"/>
</g>
<!-- AppModule&#45;&gt;AppModule -->
<g id="edge5" class="edge">
<title>AppModule&#45;&gt;AppModule</title>
<path fill="none" stroke="black" d="M7062.09,-362.82C7062.09,-362.3 7062.09,-362 7062.09,-362 7062.09,-362 7051.71,-362 7051.71,-362 7051.71,-362 7051.71,-417 7051.71,-417 7051.71,-417 7098,-417 7098,-417 7098,-417 7098,-409.42 7098,-409.42"/>
<polygon fill="black" stroke="black" points="7101.5,-409.42 7098,-399.42 7094.5,-409.42 7101.5,-409.42"/>
</g>
<!-- AuthModule&#45;&gt;AppModule -->
<g id="edge6" class="edge">
<title>AuthModule&#45;&gt;AppModule</title>
<path fill="none" stroke="black" d="M7079.85,-334.11C7079.85,-334.11 7079.85,-352.99 7079.85,-352.99"/>
<polygon fill="black" stroke="black" points="7076.35,-352.99 7079.85,-362.99 7083.35,-352.99 7076.35,-352.99"/>
</g>
<!-- AuthService  -->
<g id="node11" class="node">
<title>AuthService </title>
<polygon fill="#fb8072" stroke="black" points="2140.98,-266 2051.02,-266 2051.02,-230 2140.98,-230 2140.98,-266"/>
<text text-anchor="middle" x="2096" y="-243.8" font-family="Times,serif" font-size="14.00">AuthService </text>
</g>
<!-- AuthModule&#45;&gt;AuthService  -->
<g id="edge13" class="edge">
<title>AuthModule&#45;&gt;AuthService </title>
<path fill="none" stroke="black" stroke-dasharray="5,2" d="M7002.68,-334.15C7002.68,-335.3 7002.68,-336 7002.68,-336 7002.68,-336 2096,-336 2096,-336 2096,-336 2096,-276.23 2096,-276.23"/>
<polygon fill="black" stroke="black" points="2099.5,-276.23 2096,-266.23 2092.5,-276.23 2099.5,-276.23"/>
</g>
<!-- EmailService  -->
<g id="node12" class="node">
<title>EmailService </title>
<polygon fill="#fb8072" stroke="black" points="2033.42,-266 1938.58,-266 1938.58,-230 2033.42,-230 2033.42,-266"/>
<text text-anchor="middle" x="1986" y="-243.8" font-family="Times,serif" font-size="14.00">EmailService </text>
</g>
<!-- AuthModule&#45;&gt;EmailService  -->
<g id="edge14" class="edge">
<title>AuthModule&#45;&gt;EmailService </title>
<path fill="none" stroke="black" stroke-dasharray="5,2" d="M7007.14,-334.17C7007.14,-336.45 7007.14,-338 7007.14,-338 7007.14,-338 1986,-338 1986,-338 1986,-338 1986,-276.21 1986,-276.21"/>
<polygon fill="black" stroke="black" points="1989.5,-276.21 1986,-266.21 1982.5,-276.21 1989.5,-276.21"/>
</g>
<!-- ExtractKeyValueUtil  -->
<g id="node13" class="node">
<title>ExtractKeyValueUtil </title>
<polygon fill="#fb8072" stroke="black" points="1920.45,-266 1781.55,-266 1781.55,-230 1920.45,-230 1920.45,-266"/>
<text text-anchor="middle" x="1851" y="-243.8" font-family="Times,serif" font-size="14.00">ExtractKeyValueUtil </text>
</g>
<!-- AuthModule&#45;&gt;ExtractKeyValueUtil  -->
<g id="edge15" class="edge">
<title>AuthModule&#45;&gt;ExtractKeyValueUtil </title>
<path fill="none" stroke="black" stroke-dasharray="5,2" d="M7011.6,-334.19C7011.6,-337.54 7011.6,-340 7011.6,-340 7011.6,-340 1851,-340 1851,-340 1851,-340 1851,-276.18 1851,-276.18"/>
<polygon fill="black" stroke="black" points="1854.5,-276.18 1851,-266.18 1847.5,-276.18 1854.5,-276.18"/>
</g>
<!-- LoggedOutGaurd  -->
<g id="node14" class="node">
<title>LoggedOutGaurd </title>
<polygon fill="#fb8072" stroke="black" points="1764.25,-266 1645.75,-266 1645.75,-230 1764.25,-230 1764.25,-266"/>
<text text-anchor="middle" x="1705" y="-243.8" font-family="Times,serif" font-size="14.00">LoggedOutGaurd </text>
</g>
<!-- AuthModule&#45;&gt;LoggedOutGaurd  -->
<g id="edge16" class="edge">
<title>AuthModule&#45;&gt;LoggedOutGaurd </title>
<path fill="none" stroke="black" stroke-dasharray="5,2" d="M7068.01,-334.17C7068.01,-338.05 7068.01,-341 7068.01,-341 7068.01,-341 1705,-341 1705,-341 1705,-341 1705,-276.37 1705,-276.37"/>
<polygon fill="black" stroke="black" points="1708.5,-276.37 1705,-266.37 1701.5,-276.37 1708.5,-276.37"/>
</g>
<!-- VerifyNewPasswordUtil  -->
<g id="node15" class="node">
<title>VerifyNewPasswordUtil </title>
<polygon fill="#fb8072" stroke="black" points="1627.89,-266 1470.11,-266 1470.11,-230 1627.89,-230 1627.89,-266"/>
<text text-anchor="middle" x="1549" y="-243.8" font-family="Times,serif" font-size="14.00">VerifyNewPasswordUtil </text>
</g>
<!-- AuthModule&#45;&gt;VerifyNewPasswordUtil  -->
<g id="edge17" class="edge">
<title>AuthModule&#45;&gt;VerifyNewPasswordUtil </title>
<path fill="none" stroke="black" stroke-dasharray="5,2" d="M7073.93,-334.16C7073.93,-339.04 7073.93,-343 7073.93,-343 7073.93,-343 1549,-343 1549,-343 1549,-343 1549,-276.32 1549,-276.32"/>
<polygon fill="black" stroke="black" points="1552.5,-276.32 1549,-266.32 1545.5,-276.32 1552.5,-276.32"/>
</g>
<!-- ImagesModule&#45;&gt;AppModule -->
<g id="edge7" class="edge">
<title>ImagesModule&#45;&gt;AppModule</title>
<path fill="none" stroke="black" d="M7136.25,-334.11C7136.25,-334.11 7136.25,-352.99 7136.25,-352.99"/>
<polygon fill="black" stroke="black" points="7132.75,-352.99 7136.25,-362.99 7139.75,-352.99 7132.75,-352.99"/>
</g>
<!-- ImagesService  -->
<g id="node24" class="node">
<title>ImagesService </title>
<polygon fill="#fb8072" stroke="black" points="3377.9,-266 3276.1,-266 3276.1,-230 3377.9,-230 3377.9,-266"/>
<text text-anchor="middle" x="3327" y="-243.8" font-family="Times,serif" font-size="14.00">ImagesService </text>
</g>
<!-- ImagesModule&#45;&gt;ImagesService  -->
<g id="edge28" class="edge">
<title>ImagesModule&#45;&gt;ImagesService </title>
<path fill="none" stroke="black" stroke-dasharray="5,2" d="M7107.59,-334.14C7107.59,-340.46 7107.59,-346 7107.59,-346 7107.59,-346 3327,-346 3327,-346 3327,-346 3327,-276.43 3327,-276.43"/>
<polygon fill="black" stroke="black" points="3330.5,-276.43 3327,-266.43 3323.5,-276.43 3330.5,-276.43"/>
</g>
<!-- RentalModule&#45;&gt;AppModule -->
<g id="edge8" class="edge">
<title>RentalModule&#45;&gt;AppModule</title>
<path fill="none" stroke="black" d="M7294.02,-334.11C7294.02,-353.34 7294.02,-381 7294.02,-381 7294.02,-381 7150.05,-381 7150.05,-381"/>
<polygon fill="black" stroke="black" points="7150.05,-377.5 7140.05,-381 7150.05,-384.5 7150.05,-377.5"/>
</g>
<!-- RentalService  -->
<g id="node31" class="node">
<title>RentalService </title>
<polygon fill="#fb8072" stroke="black" points="6820.02,-266 6721.98,-266 6721.98,-230 6820.02,-230 6820.02,-266"/>
<text text-anchor="middle" x="6771" y="-243.8" font-family="Times,serif" font-size="14.00">RentalService </text>
</g>
<!-- RentalModule&#45;&gt;RentalService  -->
<g id="edge37" class="edge">
<title>RentalModule&#45;&gt;RentalService </title>
<path fill="none" stroke="black" stroke-dasharray="5,2" d="M7306.74,-297.85C7306.74,-284.26 7306.74,-268 7306.74,-268 7306.74,-268 6771,-268 6771,-268 6771,-268 6771,-267.82 6771,-267.82"/>
<polygon fill="black" stroke="black" points="6774.5,-276.15 6771,-266.15 6767.5,-276.15 6774.5,-276.15"/>
</g>
<!-- UserModule&#45;&gt;AppModule -->
<g id="edge9" class="edge">
<title>UserModule&#45;&gt;AppModule</title>
<path fill="none" stroke="black" d="M7084.26,-248C7087.69,-248 7089.86,-248 7089.86,-248 7089.86,-248 7089.86,-352.79 7089.86,-352.79"/>
<polygon fill="black" stroke="black" points="7086.36,-352.79 7089.86,-362.79 7093.36,-352.79 7086.36,-352.79"/>
</g>
<!-- UserModule&#45;&gt;AuthModule -->
<g id="edge12" class="edge">
<title>UserModule&#45;&gt;AuthModule</title>
<path fill="none" stroke="black" d="M7041.11,-266.22C7041.11,-266.22 7041.11,-287.73 7041.11,-287.73"/>
<polygon fill="black" stroke="black" points="7037.61,-287.73 7041.11,-297.73 7044.61,-287.73 7037.61,-287.73"/>
</g>
<!-- UserService  -->
<g id="node47" class="node">
<title>UserService </title>
<polygon fill="#fb8072" stroke="black" points="7093.9,-190 7006.1,-190 7006.1,-154 7093.9,-154 7093.9,-190"/>
<text text-anchor="middle" x="7050" y="-167.8" font-family="Times,serif" font-size="14.00">UserService </text>
</g>
<!-- UserModule&#45;&gt;UserService  -->
<g id="edge56" class="edge">
<title>UserModule&#45;&gt;UserService </title>
<path fill="none" stroke="black" stroke-dasharray="5,2" d="M7058.01,-229.99C7058.01,-229.99 7058.01,-200.15 7058.01,-200.15"/>
<polygon fill="black" stroke="black" points="7061.51,-200.15 7058.01,-190.15 7054.51,-200.15 7061.51,-200.15"/>
</g>
<!-- AppService -->
<g id="node10" class="node">
<title>AppService</title>
<ellipse fill="#fdb462" stroke="black" cx="6917" cy="-316" rx="56.74" ry="18"/>
<text text-anchor="middle" x="6917" y="-311.8" font-family="Times,serif" font-size="14.00">AppService</text>
</g>
<!-- AppService&#45;&gt;AppModule -->
<g id="edge10" class="edge">
<title>AppService&#45;&gt;AppModule</title>
<path fill="none" stroke="black" d="M6917,-334.12C6917,-348.78 6917,-367 6917,-367 6917,-367 7046.02,-367 7046.02,-367"/>
<polygon fill="black" stroke="black" points="7046.02,-370.5 7056.02,-367 7046.02,-363.5 7046.02,-370.5"/>
</g>
<!-- AuthService -->
<g id="node16" class="node">
<title>AuthService</title>
<ellipse fill="#fdb462" stroke="black" cx="365" cy="-248" rx="59.11" ry="18"/>
<text text-anchor="middle" x="365" y="-243.8" font-family="Times,serif" font-size="14.00">AuthService</text>
</g>
<!-- AuthService&#45;&gt;AuthModule -->
<g id="edge19" class="edge">
<title>AuthService&#45;&gt;AuthModule</title>
<path fill="none" stroke="black" d="M365,-266.27C365,-304.63 365,-390 365,-390 365,-390 7042.8,-390 7042.8,-390 7042.8,-390 7042.8,-344.29 7042.8,-344.29"/>
<polygon fill="black" stroke="black" points="7046.3,-344.29 7042.8,-334.29 7039.3,-344.29 7046.3,-344.29"/>
</g>
<!-- EmailService -->
<g id="node17" class="node">
<title>EmailService</title>
<ellipse fill="#fdb462" stroke="black" cx="1383" cy="-248" rx="63.12" ry="18"/>
<text text-anchor="middle" x="1383" y="-243.8" font-family="Times,serif" font-size="14.00">EmailService</text>
</g>
<!-- EmailService&#45;&gt;AuthModule -->
<g id="edge20" class="edge">
<title>EmailService&#45;&gt;AuthModule</title>
<path fill="none" stroke="black" d="M1383,-266C1383,-299.94 1383,-370 1383,-370 1383,-370 7016.06,-370 7016.06,-370 7016.06,-370 7016.06,-344.28 7016.06,-344.28"/>
<polygon fill="black" stroke="black" points="7019.56,-344.28 7016.06,-334.28 7012.56,-344.28 7019.56,-344.28"/>
</g>
<!-- ExtractKeyValueUtil -->
<g id="node18" class="node">
<title>ExtractKeyValueUtil</title>
<ellipse fill="#fdb462" stroke="black" cx="1209" cy="-248" rx="93.17" ry="18"/>
<text text-anchor="middle" x="1209" y="-243.8" font-family="Times,serif" font-size="14.00">ExtractKeyValueUtil</text>
</g>
<!-- ExtractKeyValueUtil&#45;&gt;AuthModule -->
<g id="edge21" class="edge">
<title>ExtractKeyValueUtil&#45;&gt;AuthModule</title>
<path fill="none" stroke="black" d="M1209,-266.18C1209,-300.84 1209,-373 1209,-373 1209,-373 7020.51,-373 7020.51,-373 7020.51,-373 7020.51,-344.04 7020.51,-344.04"/>
<polygon fill="black" stroke="black" points="7024.01,-344.04 7020.51,-334.04 7017.01,-344.04 7024.01,-344.04"/>
</g>
<!-- ExtractKeyValueUtil&#45;&gt;UserModule -->
<g id="edge57" class="edge">
<title>ExtractKeyValueUtil&#45;&gt;UserModule</title>
<path fill="none" stroke="black" d="M1209,-229.97C1209,-223.15 1209,-217 1209,-217 1209,-217 7002.03,-217 7002.03,-217 7002.03,-217 7002.03,-219.97 7002.03,-219.97"/>
<polygon fill="black" stroke="black" points="6998.53,-219.97 7002.03,-229.97 7005.53,-219.97 6998.53,-219.97"/>
</g>
<!-- ExtractUserUtil -->
<g id="node19" class="node">
<title>ExtractUserUtil</title>
<ellipse fill="#fdb462" stroke="black" cx="1026" cy="-248" rx="72.34" ry="18"/>
<text text-anchor="middle" x="1026" y="-243.8" font-family="Times,serif" font-size="14.00">ExtractUserUtil</text>
</g>
<!-- ExtractUserUtil&#45;&gt;AuthModule -->
<g id="edge22" class="edge">
<title>ExtractUserUtil&#45;&gt;AuthModule</title>
<path fill="none" stroke="black" d="M1026,-266.21C1026,-301.77 1026,-377 1026,-377 1026,-377 7024.97,-377 7024.97,-377 7024.97,-377 7024.97,-344.3 7024.97,-344.3"/>
<polygon fill="black" stroke="black" points="7028.47,-344.3 7024.97,-334.3 7021.47,-344.3 7028.47,-344.3"/>
</g>
<!-- ExtractUserUtil&#45;&gt;UserModule -->
<g id="edge58" class="edge">
<title>ExtractUserUtil&#45;&gt;UserModule</title>
<path fill="none" stroke="black" d="M1026,-229.89C1026,-220.1 1026,-210 1026,-210 1026,-210 7004.04,-210 7004.04,-210 7004.04,-210 7004.04,-219.89 7004.04,-219.89"/>
<polygon fill="black" stroke="black" points="7000.54,-219.89 7004.04,-229.89 7007.54,-219.89 7000.54,-219.89"/>
</g>
<!-- JwtStrategy -->
<g id="node20" class="node">
<title>JwtStrategy</title>
<ellipse fill="#fdb462" stroke="black" cx="879" cy="-248" rx="56.76" ry="18"/>
<text text-anchor="middle" x="879" y="-243.8" font-family="Times,serif" font-size="14.00">JwtStrategy</text>
</g>
<!-- JwtStrategy&#45;&gt;AuthModule -->
<g id="edge23" class="edge">
<title>JwtStrategy&#45;&gt;AuthModule</title>
<path fill="none" stroke="black" d="M879,-266.08C879,-302.23 879,-380 879,-380 879,-380 7029.43,-380 7029.43,-380 7029.43,-380 7029.43,-344.17 7029.43,-344.17"/>
<polygon fill="black" stroke="black" points="7032.93,-344.17 7029.43,-334.17 7025.93,-344.17 7032.93,-344.17"/>
</g>
<!-- LocalStrategy -->
<g id="node21" class="node">
<title>LocalStrategy</title>
<ellipse fill="#fdb462" stroke="black" cx="739" cy="-248" rx="65.41" ry="18"/>
<text text-anchor="middle" x="739" y="-243.8" font-family="Times,serif" font-size="14.00">LocalStrategy</text>
</g>
<!-- LocalStrategy&#45;&gt;AuthModule -->
<g id="edge24" class="edge">
<title>LocalStrategy&#45;&gt;AuthModule</title>
<path fill="none" stroke="black" d="M739,-266.21C739,-303.06 739,-383 739,-383 739,-383 7033.89,-383 7033.89,-383 7033.89,-383 7033.89,-344.31 7033.89,-344.31"/>
<polygon fill="black" stroke="black" points="7037.39,-344.31 7033.89,-334.31 7030.39,-344.31 7037.39,-344.31"/>
</g>
<!-- VerifyNewPasswordUtil -->
<g id="node22" class="node">
<title>VerifyNewPasswordUtil</title>
<ellipse fill="#fdb462" stroke="black" cx="549" cy="-248" rx="106.49" ry="18"/>
<text text-anchor="middle" x="549" y="-243.8" font-family="Times,serif" font-size="14.00">VerifyNewPasswordUtil</text>
</g>
<!-- VerifyNewPasswordUtil&#45;&gt;AuthModule -->
<g id="edge25" class="edge">
<title>VerifyNewPasswordUtil&#45;&gt;AuthModule</title>
<path fill="none" stroke="black" d="M549,-266.04C549,-303.45 549,-386 549,-386 549,-386 7038.34,-386 7038.34,-386 7038.34,-386 7038.34,-344.03 7038.34,-344.03"/>
<polygon fill="black" stroke="black" points="7041.84,-344.03 7038.34,-334.03 7034.84,-344.03 7041.84,-344.03"/>
</g>
<!-- VerifyNewPasswordUtil&#45;&gt;UserModule -->
<g id="edge60" class="edge">
<title>VerifyNewPasswordUtil&#45;&gt;UserModule</title>
<path fill="none" stroke="black" d="M549,-229.85C549,-217.73 549,-204 549,-204 549,-204 7032.03,-204 7032.03,-204 7032.03,-204 7032.03,-219.85 7032.03,-219.85"/>
<polygon fill="black" stroke="black" points="7028.53,-219.85 7032.03,-229.85 7035.53,-219.85 7028.53,-219.85"/>
</g>
<!-- DatabaseModule -->
<g id="node23" class="node">
<title>DatabaseModule</title>
<polygon fill="#8dd3c7" stroke="black" points="3512.35,-266 3509.35,-270 3488.35,-270 3485.35,-266 3401.65,-266 3401.65,-230 3512.35,-230 3512.35,-266"/>
<text text-anchor="middle" x="3457" y="-243.8" font-family="Times,serif" font-size="14.00">DatabaseModule</text>
</g>
<!-- DatabaseModule&#45;&gt;ImagesModule -->
<g id="edge27" class="edge">
<title>DatabaseModule&#45;&gt;ImagesModule</title>
<path fill="none" stroke="black" d="M3475.47,-266.24C3475.47,-294.34 3475.47,-345 3475.47,-345 3475.47,-345 7111.18,-345 7111.18,-345 7111.18,-345 7111.18,-343.92 7111.18,-343.92"/>
<polygon fill="black" stroke="black" points="7114.68,-344.2 7111.18,-334.2 7107.68,-344.2 7114.68,-344.2"/>
</g>
<!-- DatabaseModule&#45;&gt;RentalModule -->
<g id="edge36" class="edge">
<title>DatabaseModule&#45;&gt;RentalModule</title>
<path fill="none" stroke="black" d="M3438.53,-266.49C3438.53,-298.31 3438.53,-360 3438.53,-360 3438.53,-360 7270,-360 7270,-360 7270,-360 7270,-344.15 7270,-344.15"/>
<polygon fill="black" stroke="black" points="7273.5,-344.15 7270,-334.15 7266.5,-344.15 7273.5,-344.15"/>
</g>
<!-- DatabaseModule&#45;&gt;UserModule -->
<g id="edge55" class="edge">
<title>DatabaseModule&#45;&gt;UserModule</title>
<path fill="none" stroke="black" d="M3457,-229.81C3457,-226.46 3457,-224 3457,-224 3457,-224 7000.02,-224 7000.02,-224 7000.02,-224 7000.02,-224.58 7000.02,-224.58"/>
<polygon fill="black" stroke="black" points="6996.52,-219.81 7000.02,-229.81 7003.52,-219.81 6996.52,-219.81"/>
</g>
<!-- CreateMulterUploadUtil -->
<g id="node25" class="node">
<title>CreateMulterUploadUtil</title>
<ellipse fill="#fdb462" stroke="black" cx="3146" cy="-248" rx="105.93" ry="18"/>
<text text-anchor="middle" x="3146" y="-243.8" font-family="Times,serif" font-size="14.00">CreateMulterUploadUtil</text>
</g>
<!-- CreateMulterUploadUtil&#45;&gt;ImagesModule -->
<g id="edge30" class="edge">
<title>CreateMulterUploadUtil&#45;&gt;ImagesModule</title>
<path fill="none" stroke="black" d="M3146,-266.34C3146,-295.21 3146,-348 3146,-348 3146,-348 7114.76,-348 7114.76,-348 7114.76,-348 7114.76,-344.24 7114.76,-344.24"/>
<polygon fill="black" stroke="black" points="7118.26,-344.24 7114.76,-334.24 7111.26,-344.24 7118.26,-344.24"/>
</g>
<!-- DeleteS3ImagesUtil -->
<g id="node26" class="node">
<title>DeleteS3ImagesUtil</title>
<ellipse fill="#fdb462" stroke="black" cx="2933" cy="-248" rx="89.18" ry="18"/>
<text text-anchor="middle" x="2933" y="-243.8" font-family="Times,serif" font-size="14.00">DeleteS3ImagesUtil</text>
</g>
<!-- DeleteS3ImagesUtil&#45;&gt;ImagesModule -->
<g id="edge31" class="edge">
<title>DeleteS3ImagesUtil&#45;&gt;ImagesModule</title>
<path fill="none" stroke="black" d="M2933,-266.24C2933,-295.57 2933,-350 2933,-350 2933,-350 7118.34,-350 7118.34,-350 7118.34,-350 7118.34,-344.19 7118.34,-344.19"/>
<polygon fill="black" stroke="black" points="7121.84,-344.19 7118.34,-334.19 7114.84,-344.19 7121.84,-344.19"/>
</g>
<!-- ImagesService -->
<g id="node27" class="node">
<title>ImagesService</title>
<ellipse fill="#fdb462" stroke="black" cx="2758" cy="-248" rx="67.75" ry="18"/>
<text text-anchor="middle" x="2758" y="-243.8" font-family="Times,serif" font-size="14.00">ImagesService</text>
</g>
<!-- ImagesService&#45;&gt;ImagesModule -->
<g id="edge32" class="edge">
<title>ImagesService&#45;&gt;ImagesModule</title>
<path fill="none" stroke="black" d="M2758,-266.12C2758,-295.91 2758,-352 2758,-352 2758,-352 7121.92,-352 7121.92,-352 7121.92,-352 7121.92,-344.42 7121.92,-344.42"/>
<polygon fill="black" stroke="black" points="7125.42,-344.42 7121.92,-334.42 7118.42,-344.42 7125.42,-344.42"/>
</g>
<!-- MulterUploadUtil -->
<g id="node28" class="node">
<title>MulterUploadUtil</title>
<ellipse fill="#fdb462" stroke="black" cx="2591" cy="-248" rx="80.54" ry="18"/>
<text text-anchor="middle" x="2591" y="-243.8" font-family="Times,serif" font-size="14.00">MulterUploadUtil</text>
</g>
<!-- MulterUploadUtil&#45;&gt;ImagesModule -->
<g id="edge33" class="edge">
<title>MulterUploadUtil&#45;&gt;ImagesModule</title>
<path fill="none" stroke="black" d="M2591,-266.29C2591,-296.37 2591,-353 2591,-353 2591,-353 7125.5,-353 7125.5,-353 7125.5,-353 7125.5,-344.07 7125.5,-344.07"/>
<polygon fill="black" stroke="black" points="7129,-344.07 7125.5,-334.07 7122,-344.07 7129,-344.07"/>
</g>
<!-- ProcessSaveDataUtil -->
<g id="node29" class="node">
<title>ProcessSaveDataUtil</title>
<ellipse fill="#fdb462" stroke="black" cx="2400" cy="-248" rx="92.61" ry="18"/>
<text text-anchor="middle" x="2400" y="-243.8" font-family="Times,serif" font-size="14.00">ProcessSaveDataUtil</text>
</g>
<!-- ProcessSaveDataUtil&#45;&gt;ImagesModule -->
<g id="edge34" class="edge">
<title>ProcessSaveDataUtil&#45;&gt;ImagesModule</title>
<path fill="none" stroke="black" d="M2400,-266.15C2400,-296.68 2400,-355 2400,-355 2400,-355 7129.08,-355 7129.08,-355 7129.08,-355 7129.08,-344.13 7129.08,-344.13"/>
<polygon fill="black" stroke="black" points="7132.58,-344.13 7129.08,-334.13 7125.58,-344.13 7132.58,-344.13"/>
</g>
<!-- S3Provider -->
<g id="node30" class="node">
<title>S3Provider</title>
<ellipse fill="#fdb462" stroke="black" cx="2235" cy="-248" rx="54.47" ry="18"/>
<text text-anchor="middle" x="2235" y="-243.8" font-family="Times,serif" font-size="14.00">S3Provider</text>
</g>
<!-- S3Provider&#45;&gt;ImagesModule -->
<g id="edge35" class="edge">
<title>S3Provider&#45;&gt;ImagesModule</title>
<path fill="none" stroke="black" d="M2235,-266.49C2235,-297.59 2235,-357 2235,-357 2235,-357 7132.67,-357 7132.67,-357 7132.67,-357 7132.67,-344.1 7132.67,-344.1"/>
<polygon fill="black" stroke="black" points="7136.17,-344.1 7132.67,-334.1 7129.17,-344.1 7136.17,-344.1"/>
</g>
<!-- CreateUpdaterDtoPipe -->
<g id="node32" class="node">
<title>CreateUpdaterDtoPipe</title>
<ellipse fill="#fdb462" stroke="black" cx="6599" cy="-248" rx="98.97" ry="18"/>
<text text-anchor="middle" x="6599" y="-243.8" font-family="Times,serif" font-size="14.00">CreateUpdaterDtoPipe</text>
</g>
<!-- CreateUpdaterDtoPipe&#45;&gt;RentalModule -->
<g id="edge39" class="edge">
<title>CreateUpdaterDtoPipe&#45;&gt;RentalModule</title>
<path fill="none" stroke="black" d="M6599,-266.17C6599,-268.45 6599,-270 6599,-270 6599,-270 7301.09,-270 7301.09,-270 7301.09,-270 7301.09,-287.82 7301.09,-287.82"/>
<polygon fill="black" stroke="black" points="7297.59,-287.82 7301.09,-297.82 7304.59,-287.82 7297.59,-287.82"/>
</g>
<!-- GenerateRentalDurationEnumUtil -->
<g id="node33" class="node">
<title>GenerateRentalDurationEnumUtil</title>
<ellipse fill="#fdb462" stroke="black" cx="6339" cy="-248" rx="143.52" ry="18"/>
<text text-anchor="middle" x="6339" y="-243.8" font-family="Times,serif" font-size="14.00">GenerateRentalDurationEnumUtil</text>
</g>
<!-- GenerateRentalDurationEnumUtil&#45;&gt;RentalModule -->
<g id="edge40" class="edge">
<title>GenerateRentalDurationEnumUtil&#45;&gt;RentalModule</title>
<path fill="none" stroke="black" d="M6339,-266.19C6339,-269.54 6339,-272 6339,-272 6339,-272 7295.44,-272 7295.44,-272 7295.44,-272 7295.44,-287.85 7295.44,-287.85"/>
<polygon fill="black" stroke="black" points="7291.94,-287.85 7295.44,-297.85 7298.94,-287.85 7291.94,-287.85"/>
</g>
<!-- GeoUrlApiPipe -->
<g id="node34" class="node">
<title>GeoUrlApiPipe</title>
<ellipse fill="#fdb462" stroke="black" cx="6106" cy="-248" rx="71.79" ry="18"/>
<text text-anchor="middle" x="6106" y="-243.8" font-family="Times,serif" font-size="14.00">GeoUrlApiPipe</text>
</g>
<!-- GeoUrlApiPipe&#45;&gt;RentalModule -->
<g id="edge41" class="edge">
<title>GeoUrlApiPipe&#45;&gt;RentalModule</title>
<path fill="none" stroke="black" d="M6106,-266.06C6106,-270.49 6106,-274 6106,-274 6106,-274 7289.78,-274 7289.78,-274 7289.78,-274 7289.78,-287.94 7289.78,-287.94"/>
<polygon fill="black" stroke="black" points="7286.28,-287.94 7289.78,-297.94 7293.28,-287.94 7286.28,-287.94"/>
</g>
<!-- GeoUrlApiUtil -->
<g id="node35" class="node">
<title>GeoUrlApiUtil</title>
<ellipse fill="#fdb462" stroke="black" cx="5947" cy="-248" rx="69.5" ry="18"/>
<text text-anchor="middle" x="5947" y="-243.8" font-family="Times,serif" font-size="14.00">GeoUrlApiUtil</text>
</g>
<!-- GeoUrlApiUtil&#45;&gt;RentalModule -->
<g id="edge42" class="edge">
<title>GeoUrlApiUtil&#45;&gt;RentalModule</title>
<path fill="none" stroke="black" d="M5947,-266.21C5947,-271.55 5947,-276 5947,-276 5947,-276 7284.13,-276 7284.13,-276 7284.13,-276 7284.13,-287.87 7284.13,-287.87"/>
<polygon fill="black" stroke="black" points="7280.63,-287.87 7284.13,-297.87 7287.63,-287.87 7280.63,-287.87"/>
</g>
<!-- GivenNoticePipe -->
<g id="node36" class="node">
<title>GivenNoticePipe</title>
<ellipse fill="#fdb462" stroke="black" cx="5782" cy="-248" rx="77.59" ry="18"/>
<text text-anchor="middle" x="5782" y="-243.8" font-family="Times,serif" font-size="14.00">GivenNoticePipe</text>
</g>
<!-- GivenNoticePipe&#45;&gt;RentalModule -->
<g id="edge43" class="edge">
<title>GivenNoticePipe&#45;&gt;RentalModule</title>
<path fill="none" stroke="black" d="M5782,-266.14C5782,-272.46 5782,-278 5782,-278 5782,-278 7278.48,-278 7278.48,-278 7278.48,-278 7278.48,-287.89 7278.48,-287.89"/>
<polygon fill="black" stroke="black" points="7274.98,-287.89 7278.48,-297.89 7281.98,-287.89 7274.98,-287.89"/>
</g>
<!-- MapNewRentalPipe -->
<g id="node37" class="node">
<title>MapNewRentalPipe</title>
<ellipse fill="#fdb462" stroke="black" cx="5597" cy="-248" rx="89.18" ry="18"/>
<text text-anchor="middle" x="5597" y="-243.8" font-family="Times,serif" font-size="14.00">MapNewRentalPipe</text>
</g>
<!-- MapNewRentalPipe&#45;&gt;RentalModule -->
<g id="edge44" class="edge">
<title>MapNewRentalPipe&#45;&gt;RentalModule</title>
<path fill="none" stroke="black" d="M5597,-266.24C5597,-273.43 5597,-280 5597,-280 5597,-280 7272.83,-280 7272.83,-280 7272.83,-280 7272.83,-287.58 7272.83,-287.58"/>
<polygon fill="black" stroke="black" points="7269.33,-287.58 7272.83,-297.58 7276.33,-287.58 7269.33,-287.58"/>
</g>
<!-- PricingPipe -->
<g id="node38" class="node">
<title>PricingPipe</title>
<ellipse fill="#fdb462" stroke="black" cx="5434" cy="-248" rx="56.2" ry="18"/>
<text text-anchor="middle" x="5434" y="-243.8" font-family="Times,serif" font-size="14.00">PricingPipe</text>
</g>
<!-- PricingPipe&#45;&gt;RentalModule -->
<g id="edge45" class="edge">
<title>PricingPipe&#45;&gt;RentalModule</title>
<path fill="none" stroke="black" d="M5434,-266.19C5434,-274.28 5434,-282 5434,-282 5434,-282 7267.17,-282 7267.17,-282 7267.17,-282 7267.17,-287.81 7267.17,-287.81"/>
<polygon fill="black" stroke="black" points="7263.67,-287.81 7267.17,-297.81 7270.67,-287.81 7263.67,-287.81"/>
</g>
<!-- ProcessUnavailabilityPipe -->
<g id="node39" class="node">
<title>ProcessUnavailabilityPipe</title>
<ellipse fill="#fdb462" stroke="black" cx="5247" cy="-248" rx="112.89" ry="18"/>
<text text-anchor="middle" x="5247" y="-243.8" font-family="Times,serif" font-size="14.00">ProcessUnavailabilityPipe</text>
</g>
<!-- ProcessUnavailabilityPipe&#45;&gt;RentalModule -->
<g id="edge46" class="edge">
<title>ProcessUnavailabilityPipe&#45;&gt;RentalModule</title>
<path fill="none" stroke="black" d="M5247,-266C5247,-275 5247,-284 5247,-284 5247,-284 7261.52,-284 7261.52,-284 7261.52,-284 7261.52,-287.76 7261.52,-287.76"/>
<polygon fill="black" stroke="black" points="7258.02,-287.76 7261.52,-297.76 7265.02,-287.76 7258.02,-287.76"/>
</g>
<!-- RentalDurationPipe -->
<g id="node40" class="node">
<title>RentalDurationPipe</title>
<ellipse fill="#fdb462" stroke="black" cx="5028" cy="-248" rx="87.98" ry="18"/>
<text text-anchor="middle" x="5028" y="-243.8" font-family="Times,serif" font-size="14.00">RentalDurationPipe</text>
</g>
<!-- RentalDurationPipe&#45;&gt;RentalModule -->
<g id="edge47" class="edge">
<title>RentalDurationPipe&#45;&gt;RentalModule</title>
<path fill="none" stroke="black" d="M5028,-266.11C5028,-275.9 5028,-286 5028,-286 5028,-286 7255.87,-286 7255.87,-286 7255.87,-286 7255.87,-287.86 7255.87,-287.86"/>
<polygon fill="black" stroke="black" points="7252.37,-287.86 7255.87,-297.86 7259.37,-287.86 7252.37,-287.86"/>
</g>
<!-- RentalService -->
<g id="node41" class="node">
<title>RentalService</title>
<ellipse fill="#fdb462" stroke="black" cx="4857" cy="-248" rx="65.4" ry="18"/>
<text text-anchor="middle" x="4857" y="-243.8" font-family="Times,serif" font-size="14.00">RentalService</text>
</g>
<!-- RentalService&#45;&gt;RentalModule -->
<g id="edge48" class="edge">
<title>RentalService&#45;&gt;RentalModule</title>
<path fill="none" stroke="black" d="M4857,-266.13C4857,-276.71 4857,-288 4857,-288 4857,-288 7250.22,-288 7250.22,-288 7250.22,-288 7250.22,-288.98 7250.22,-288.98"/>
<polygon fill="black" stroke="black" points="7246.72,-287.79 7250.22,-297.79 7253.72,-287.79 7246.72,-287.79"/>
</g>
<!-- RequestCoordinatesPipe -->
<g id="node42" class="node">
<title>RequestCoordinatesPipe</title>
<ellipse fill="#fdb462" stroke="black" cx="4668" cy="-248" rx="105.96" ry="18"/>
<text text-anchor="middle" x="4668" y="-243.8" font-family="Times,serif" font-size="14.00">RequestCoordinatesPipe</text>
</g>
<!-- RequestCoordinatesPipe&#45;&gt;RentalModule -->
<g id="edge49" class="edge">
<title>RequestCoordinatesPipe&#45;&gt;RentalModule</title>
<path fill="none" stroke="black" d="M4668,-266.06C4668,-277.44 4668,-290 4668,-290 4668,-290 7244.56,-290 7244.56,-290 7244.56,-290 7244.56,-290.79 7244.56,-290.79"/>
<polygon fill="black" stroke="black" points="7241.06,-287.94 7244.56,-297.94 7248.06,-287.94 7241.06,-287.94"/>
</g>
<!-- SortUnavailabilityPipe -->
<g id="node43" class="node">
<title>SortUnavailabilityPipe</title>
<ellipse fill="#fdb462" stroke="black" cx="4444" cy="-248" rx="99.59" ry="18"/>
<text text-anchor="middle" x="4444" y="-243.8" font-family="Times,serif" font-size="14.00">SortUnavailabilityPipe</text>
</g>
<!-- SortUnavailabilityPipe&#45;&gt;RentalModule -->
<g id="edge50" class="edge">
<title>SortUnavailabilityPipe&#45;&gt;RentalModule</title>
<path fill="none" stroke="black" d="M4444,-266.15C4444,-278.27 4444,-292 4444,-292 4444,-292 7238.91,-292 7238.91,-292 7238.91,-292 7238.91,-292.58 7238.91,-292.58"/>
<polygon fill="black" stroke="black" points="7235.41,-287.81 7238.91,-297.81 7242.41,-287.81 7235.41,-287.81"/>
</g>
<!-- ValidateEditDetailsPipe -->
<g id="node44" class="node">
<title>ValidateEditDetailsPipe</title>
<ellipse fill="#fdb462" stroke="black" cx="4222" cy="-248" rx="104.22" ry="18"/>
<text text-anchor="middle" x="4222" y="-243.8" font-family="Times,serif" font-size="14.00">ValidateEditDetailsPipe</text>
</g>
<!-- ValidateEditDetailsPipe&#45;&gt;RentalModule -->
<g id="edge51" class="edge">
<title>ValidateEditDetailsPipe&#45;&gt;RentalModule</title>
<path fill="none" stroke="black" d="M4222,-266.18C4222,-279.04 4222,-294 4222,-294 4222,-294 7233.26,-294 7233.26,-294 7233.26,-294 7233.26,-294.38 7233.26,-294.38"/>
<polygon fill="black" stroke="black" points="7229.76,-287.83 7233.26,-297.83 7236.76,-287.83 7229.76,-287.83"/>
</g>
<!-- ValidateRemoveUnavailabilityPipe -->
<g id="node45" class="node">
<title>ValidateRemoveUnavailabilityPipe</title>
<ellipse fill="#fdb462" stroke="black" cx="3951" cy="-248" rx="148.19" ry="18"/>
<text text-anchor="middle" x="3951" y="-243.8" font-family="Times,serif" font-size="14.00">ValidateRemoveUnavailabilityPipe</text>
</g>
<!-- ValidateRemoveUnavailabilityPipe&#45;&gt;RentalModule -->
<g id="edge52" class="edge">
<title>ValidateRemoveUnavailabilityPipe&#45;&gt;RentalModule</title>
<path fill="none" stroke="black" d="M3951,-266.15C3951,-279.74 3951,-296 3951,-296 3951,-296 7227.6,-296 7227.6,-296 7227.6,-296 7227.6,-296.18 7227.6,-296.18"/>
<polygon fill="black" stroke="black" points="7224.1,-287.85 7227.6,-297.85 7231.1,-287.85 7224.1,-287.85"/>
</g>
<!-- ValidateUnavailabilityPipe -->
<g id="node46" class="node">
<title>ValidateUnavailabilityPipe</title>
<ellipse fill="#fdb462" stroke="black" cx="3668" cy="-248" rx="116.32" ry="18"/>
<text text-anchor="middle" x="3668" y="-243.8" font-family="Times,serif" font-size="14.00">ValidateUnavailabilityPipe</text>
</g>
<!-- ValidateUnavailabilityPipe&#45;&gt;RentalModule -->
<g id="edge53" class="edge">
<title>ValidateUnavailabilityPipe&#45;&gt;RentalModule</title>
<path fill="none" stroke="black" d="M3668,-266.16C3668,-297.41 3668,-358 3668,-358 3668,-358 7245.98,-358 7245.98,-358 7245.98,-358 7245.98,-344.06 7245.98,-344.06"/>
<polygon fill="black" stroke="black" points="7249.48,-344.06 7245.98,-334.06 7242.48,-344.06 7249.48,-344.06"/>
</g>
<!-- UserService -->
<g id="node48" class="node">
<title>UserService</title>
<ellipse fill="#fdb462" stroke="black" cx="6924" cy="-172" rx="58.44" ry="18"/>
<text text-anchor="middle" x="6924" y="-167.8" font-family="Times,serif" font-size="14.00">UserService</text>
</g>
<!-- UserService&#45;&gt;UserModule -->
<g id="edge59" class="edge">
<title>UserService&#45;&gt;UserModule</title>
<path fill="none" stroke="black" d="M6977.92,-178.97C6977.92,-196.67 6977.92,-242 6977.92,-242 6977.92,-242 6987.88,-242 6987.88,-242"/>
<polygon fill="black" stroke="black" points="6987.88,-245.5 6997.88,-242 6987.88,-238.5 6987.88,-245.5"/>
</g>
</g>
</svg>
