<?xml version="1.0" encoding="UTF-8" standalone="no"?>
<!DOCTYPE svg PUBLIC "-//W3C//DTD SVG 1.1//EN"
 "http://www.w3.org/Graphics/SVG/1.1/DTD/svg11.dtd">
<!-- Generated by graphviz version 2.44.1 (20200629.0846)
 -->
<!-- Title: dependencies Pages: 1 -->
<svg width="7484pt" height="431pt"
 viewBox="0.00 0.00 7484.00 431.00" xmlns="http://www.w3.org/2000/svg" xmlns:xlink="http://www.w3.org/1999/xlink">
<g id="graph0" class="graph" transform="scale(1 1) rotate(0) translate(4 427)">
<title>dependencies</title>
<polygon fill="white" stroke="transparent" points="-4,4 -4,-427 7480,-427 7480,4 -4,4"/>
<text text-anchor="start" x="3717.01" y="-42.4" font-family="sans-serif" font-weight="bold" font-size="14.00">Legend</text>
<polygon fill="#ffffb3" stroke="transparent" points="3504,-10 3504,-30 3524,-30 3524,-10 3504,-10"/>
<text text-anchor="start" x="3527.63" y="-15.4" font-family="sans-serif" font-size="14.00"> &#160;Declarations</text>
<polygon fill="#8dd3c7" stroke="transparent" points="3617,-10 3617,-30 3637,-30 3637,-10 3617,-10"/>
<text text-anchor="start" x="3640.73" y="-15.4" font-family="sans-serif" font-size="14.00"> &#160;Module</text>
<polygon fill="#80b1d3" stroke="transparent" points="3703,-10 3703,-30 3723,-30 3723,-10 3703,-10"/>
<text text-anchor="start" x="3726.78" y="-15.4" font-family="sans-serif" font-size="14.00"> &#160;Bootstrap</text>
<polygon fill="#fdb462" stroke="transparent" points="3800,-10 3800,-30 3820,-30 3820,-10 3800,-10"/>
<text text-anchor="start" x="3823.67" y="-15.4" font-family="sans-serif" font-size="14.00"> &#160;Providers</text>
<polygon fill="#fb8072" stroke="transparent" points="3896,-10 3896,-30 3916,-30 3916,-10 3896,-10"/>
<text text-anchor="start" x="3919.73" y="-15.4" font-family="sans-serif" font-size="14.00"> &#160;Exports</text>
<g id="clust1" class="cluster">
<title>cluster_AppConfigModule</title>
<polygon fill="none" stroke="black" stroke-dasharray="1,5" points="8,-70 8,-282 282,-282 282,-70 8,-70"/>
</g>
<g id="clust4" class="cluster">
<title>cluster_AppConfigModule_exports</title>
<polygon fill="none" stroke="black" points="16,-222 16,-274 274,-274 274,-222 16,-222"/>
</g>
<g id="clust6" class="cluster">
<title>cluster_AppConfigModule_providers</title>
<polygon fill="none" stroke="black" points="92,-78 92,-130 274,-130 274,-78 92,-78"/>
</g>
<g id="clust7" class="cluster">
<title>cluster_AppModule</title>
<polygon fill="none" stroke="black" stroke-dasharray="1,5" points="6958,-214 6958,-415 7468,-415 7468,-214 6958,-214"/>
</g>
<g id="clust9" class="cluster">
<title>cluster_AppModule_imports</title>
<polygon fill="none" stroke="black" points="7104,-222 7104,-407 7460,-407 7460,-222 7104,-222"/>
</g>
<g id="clust12" class="cluster">
<title>cluster_AppModule_providers</title>
<polygon fill="none" stroke="black" points="6966,-290 6966,-342 7096,-342 7096,-290 6966,-290"/>
</g>
<g id="clust13" class="cluster">
<title>cluster_AuthModule</title>
<polygon fill="none" stroke="black" stroke-dasharray="1,5" points="290,-214 290,-282 2156,-282 2156,-214 290,-214"/>
</g>
<g id="clust16" class="cluster">
<title>cluster_AuthModule_exports</title>
<polygon fill="none" stroke="black" points="1461,-222 1461,-274 2148,-274 2148,-222 1461,-222"/>
</g>
<g id="clust18" class="cluster">
<title>cluster_AuthModule_providers</title>
<polygon fill="none" stroke="black" points="298,-222 298,-274 1453,-274 1453,-222 298,-222"/>
</g>
<g id="clust25" class="cluster">
<title>cluster_ImagesModule</title>
<polygon fill="none" stroke="black" stroke-dasharray="1,5" points="2164,-214 2164,-282 3528,-282 3528,-214 2164,-214"/>
</g>
<g id="clust27" class="cluster">
<title>cluster_ImagesModule_imports</title>
<polygon fill="none" stroke="black" points="3394,-222 3394,-274 3520,-274 3520,-222 3394,-222"/>
</g>
<g id="clust28" class="cluster">
<title>cluster_ImagesModule_exports</title>
<polygon fill="none" stroke="black" points="3268,-222 3268,-274 3386,-274 3386,-222 3268,-222"/>
</g>
<g id="clust30" class="cluster">
<title>cluster_ImagesModule_providers</title>
<polygon fill="none" stroke="black" points="2172,-222 2172,-274 3260,-274 3260,-222 2172,-222"/>
</g>
<g id="clust31" class="cluster">
<title>cluster_RentalModule</title>
<polygon fill="none" stroke="black" stroke-dasharray="1,5" points="3536,-214 3536,-282 6950,-282 6950,-214 3536,-214"/>
</g>
<g id="clust34" class="cluster">
<title>cluster_RentalModule_exports</title>
<polygon fill="none" stroke="black" points="6828,-222 6828,-274 6942,-274 6942,-222 6828,-222"/>
</g>
<g id="clust36" class="cluster">
<title>cluster_RentalModule_providers</title>
<polygon fill="none" stroke="black" points="3544,-222 3544,-274 6820,-274 6820,-222 3544,-222"/>
</g>
<g id="clust37" class="cluster">
<title>cluster_UserModule</title>
<polygon fill="none" stroke="black" stroke-dasharray="1,5" points="6964,-138 6964,-206 7224,-206 7224,-138 6964,-138"/>
</g>
<g id="clust40" class="cluster">
<title>cluster_UserModule_exports</title>
<polygon fill="none" stroke="black" points="7112,-146 7112,-198 7216,-198 7216,-146 7112,-146"/>
</g>
<g id="clust42" class="cluster">
<title>cluster_UserModule_providers</title>
<polygon fill="none" stroke="black" points="6972,-146 6972,-198 7104,-198 7104,-146 6972,-146"/>
</g>
<!-- AppConfigService  -->
<g id="node1" class="node">
<title>AppConfigService </title>
<polygon fill="#fb8072" stroke="black" points="266.47,-266 141.53,-266 141.53,-230 266.47,-230 266.47,-266"/>
<text text-anchor="middle" x="204" y="-243.8" font-family="Times,serif" font-size="14.00">AppConfigService </text>
</g>
<!-- ConfigService  -->
<g id="node2" class="node">
<title>ConfigService </title>
<polygon fill="#fb8072" stroke="black" points="124.37,-266 23.63,-266 23.63,-230 124.37,-230 124.37,-266"/>
<text text-anchor="middle" x="74" y="-243.8" font-family="Times,serif" font-size="14.00">ConfigService </text>
</g>
<!-- AppConfigModule -->
<g id="node3" class="node">
<title>AppConfigModule</title>
<polygon fill="#8dd3c7" stroke="black" points="265.05,-190 262.05,-194 241.05,-194 238.05,-190 142.95,-190 142.95,-154 265.05,-154 265.05,-190"/>
<text text-anchor="middle" x="204" y="-167.8" font-family="Times,serif" font-size="14.00">AppConfigModule</text>
</g>
<!-- AppConfigModule&#45;&gt;AppConfigService  -->
<g id="edge1" class="edge">
<title>AppConfigModule&#45;&gt;AppConfigService </title>
<path fill="none" stroke="black" stroke-dasharray="5,2" d="M173.36,-190.01C173.36,-190.01 173.36,-219.85 173.36,-219.85"/>
<polygon fill="black" stroke="black" points="169.86,-219.85 173.36,-229.85 176.86,-219.85 169.86,-219.85"/>
</g>
<!-- AppConfigModule&#45;&gt;ConfigService  -->
<g id="edge2" class="edge">
<title>AppConfigModule&#45;&gt;ConfigService </title>
<path fill="none" stroke="black" stroke-dasharray="5,2" d="M142.8,-172C125.79,-172 111.87,-172 111.87,-172 111.87,-172 111.87,-219.99 111.87,-219.99"/>
<polygon fill="black" stroke="black" points="108.37,-219.99 111.87,-229.99 115.37,-219.99 108.37,-219.99"/>
</g>
<!-- AppModule -->
<g id="node5" class="node">
<title>AppModule</title>
<polygon fill="#8dd3c7" stroke="black" points="7253.66,-399 7250.66,-403 7229.66,-403 7226.66,-399 7170.34,-399 7170.34,-363 7253.66,-363 7253.66,-399"/>
<text text-anchor="middle" x="7212" y="-376.8" font-family="Times,serif" font-size="14.00">AppModule</text>
</g>
<!-- AppConfigModule&#45;&gt;AppModule -->
<g id="edge4" class="edge">
<title>AppConfigModule&#45;&gt;AppModule</title>
<path fill="none" stroke="black" d="M265.4,-178C277.28,-178 286.12,-178 286.12,-178 286.12,-178 286.12,-396 286.12,-396 286.12,-396 7160.01,-396 7160.01,-396"/>
<polygon fill="black" stroke="black" points="7160.01,-399.5 7170.01,-396 7160.01,-392.5 7160.01,-399.5"/>
</g>
<!-- AuthModule -->
<g id="node6" class="node">
<title>AuthModule</title>
<polygon fill="#8dd3c7" stroke="black" points="7199.55,-334 7196.55,-338 7175.55,-338 7172.55,-334 7112.45,-334 7112.45,-298 7199.55,-298 7199.55,-334"/>
<text text-anchor="middle" x="7156" y="-311.8" font-family="Times,serif" font-size="14.00">AuthModule</text>
</g>
<!-- AppConfigModule&#45;&gt;AuthModule -->
<g id="edge11" class="edge">
<title>AppConfigModule&#45;&gt;AuthModule</title>
<path fill="none" stroke="black" d="M204,-190.14C204,-196.46 204,-202 204,-202 204,-202 7101.48,-202 7101.48,-202 7101.48,-202 7101.48,-322 7101.48,-322 7101.48,-322 7102.56,-322 7102.56,-322"/>
<polygon fill="black" stroke="black" points="7102.25,-325.5 7112.25,-322 7102.25,-318.5 7102.25,-325.5"/>
</g>
<!-- ImagesModule -->
<g id="node7" class="node">
<title>ImagesModule</title>
<polygon fill="#8dd3c7" stroke="black" points="7317.97,-334 7314.97,-338 7293.97,-338 7290.97,-334 7218.03,-334 7218.03,-298 7317.97,-298 7317.97,-334"/>
<text text-anchor="middle" x="7268" y="-311.8" font-family="Times,serif" font-size="14.00">ImagesModule</text>
</g>
<!-- AppConfigModule&#45;&gt;ImagesModule -->
<g id="edge26" class="edge">
<title>AppConfigModule&#45;&gt;ImagesModule</title>
<path fill="none" stroke="black" d="M234.64,-190.19C234.64,-193.54 234.64,-196 234.64,-196 234.64,-196 7251.34,-196 7251.34,-196 7251.34,-196 7251.34,-287.77 7251.34,-287.77"/>
<polygon fill="black" stroke="black" points="7247.84,-287.77 7251.34,-297.77 7254.84,-287.77 7247.84,-287.77"/>
</g>
<!-- UserModule -->
<g id="node9" class="node">
<title>UserModule</title>
<polygon fill="#8dd3c7" stroke="black" points="7197.98,-266 7194.98,-270 7173.98,-270 7170.98,-266 7112.02,-266 7112.02,-230 7197.98,-230 7197.98,-266"/>
<text text-anchor="middle" x="7155" y="-243.8" font-family="Times,serif" font-size="14.00">UserModule</text>
</g>
<!-- AppConfigModule&#45;&gt;UserModule -->
<g id="edge55" class="edge">
<title>AppConfigModule&#45;&gt;UserModule</title>
<path fill="none" stroke="black" d="M265.2,-166C939.24,-166 6954.2,-166 6954.2,-166 6954.2,-166 6954.2,-254 6954.2,-254 6954.2,-254 7101.92,-254 7101.92,-254"/>
<polygon fill="black" stroke="black" points="7101.92,-257.5 7111.92,-254 7101.92,-250.5 7101.92,-257.5"/>
</g>
<!-- AppConfigService -->
<g id="node4" class="node">
<title>AppConfigService</title>
<ellipse fill="#fdb462" stroke="black" cx="183" cy="-104" rx="83.39" ry="18"/>
<text text-anchor="middle" x="183" y="-99.8" font-family="Times,serif" font-size="14.00">AppConfigService</text>
</g>
<!-- AppConfigService&#45;&gt;AppConfigModule -->
<g id="edge3" class="edge">
<title>AppConfigService&#45;&gt;AppConfigModule</title>
<path fill="none" stroke="black" d="M204,-121.51C204,-121.51 204,-143.84 204,-143.84"/>
<polygon fill="black" stroke="black" points="200.5,-143.84 204,-153.84 207.5,-143.84 200.5,-143.84"/>
</g>
<!-- AppConfigService&#45;&gt;AuthModule -->
<g id="edge18" class="edge">
<title>AppConfigService&#45;&gt;AuthModule</title>
<path fill="none" stroke="black" d="M255.5,-113C992.86,-113 7106.75,-113 7106.75,-113 7106.75,-113 7106.75,-310 7106.75,-310 7106.75,-310 7107.31,-310 7107.31,-310"/>
<polygon fill="black" stroke="black" points="7102.4,-313.5 7112.4,-310 7102.4,-306.5 7102.4,-313.5"/>
</g>
<!-- AppConfigService&#45;&gt;ImagesModule -->
<g id="edge29" class="edge">
<title>AppConfigService&#45;&gt;ImagesModule</title>
<path fill="none" stroke="black" d="M266.45,-104C1062.46,-104 7284.66,-104 7284.66,-104 7284.66,-104 7284.66,-287.92 7284.66,-287.92"/>
<polygon fill="black" stroke="black" points="7281.16,-287.92 7284.66,-297.92 7288.16,-287.93 7281.16,-287.92"/>
</g>
<!-- RentalModule -->
<g id="node8" class="node">
<title>RentalModule</title>
<polygon fill="#8dd3c7" stroke="black" points="7432.1,-334 7429.1,-338 7408.1,-338 7405.1,-334 7335.9,-334 7335.9,-298 7432.1,-298 7432.1,-334"/>
<text text-anchor="middle" x="7384" y="-311.8" font-family="Times,serif" font-size="14.00">RentalModule</text>
</g>
<!-- AppConfigService&#45;&gt;RentalModule -->
<g id="edge38" class="edge">
<title>AppConfigService&#45;&gt;RentalModule</title>
<path fill="none" stroke="black" d="M255.28,-95C1010.3,-95 7426.4,-95 7426.4,-95 7426.4,-95 7426.4,-287.91 7426.4,-287.91"/>
<polygon fill="black" stroke="black" points="7422.9,-287.91 7426.4,-297.91 7429.9,-287.91 7422.9,-287.91"/>
</g>
<!-- AppModule&#45;&gt;AppModule -->
<g id="edge5" class="edge">
<title>AppModule&#45;&gt;AppModule</title>
<path fill="none" stroke="black" d="M7177.57,-362.82C7177.57,-362.3 7177.57,-362 7177.57,-362 7177.57,-362 7165.71,-362 7165.71,-362 7165.71,-362 7165.71,-417 7165.71,-417 7165.71,-417 7212,-417 7212,-417 7212,-417 7212,-409.42 7212,-409.42"/>
<polygon fill="black" stroke="black" points="7215.5,-409.42 7212,-399.42 7208.5,-409.42 7215.5,-409.42"/>
</g>
<!-- AuthModule&#45;&gt;AppModule -->
<g id="edge6" class="edge">
<title>AuthModule&#45;&gt;AppModule</title>
<path fill="none" stroke="black" d="M7192.37,-334.11C7192.37,-334.11 7192.37,-352.99 7192.37,-352.99"/>
<polygon fill="black" stroke="black" points="7188.87,-352.99 7192.37,-362.99 7195.87,-352.99 7188.87,-352.99"/>
</g>
<!-- AuthService  -->
<g id="node11" class="node">
<title>AuthService </title>
<polygon fill="#fb8072" stroke="black" points="1827.98,-266 1738.02,-266 1738.02,-230 1827.98,-230 1827.98,-266"/>
<text text-anchor="middle" x="1783" y="-243.8" font-family="Times,serif" font-size="14.00">AuthService </text>
</g>
<!-- AuthModule&#45;&gt;AuthService  -->
<g id="edge13" class="edge">
<title>AuthModule&#45;&gt;AuthService </title>
<path fill="none" stroke="black" stroke-dasharray="5,2" d="M7184.97,-334.19C7184.97,-337.54 7184.97,-340 7184.97,-340 7184.97,-340 1783,-340 1783,-340 1783,-340 1783,-276.18 1783,-276.18"/>
<polygon fill="black" stroke="black" points="1786.5,-276.18 1783,-266.18 1779.5,-276.18 1786.5,-276.18"/>
</g>
<!-- EmailService  -->
<g id="node12" class="node">
<title>EmailService </title>
<polygon fill="#fb8072" stroke="black" points="1720.42,-266 1625.58,-266 1625.58,-230 1720.42,-230 1720.42,-266"/>
<text text-anchor="middle" x="1673" y="-243.8" font-family="Times,serif" font-size="14.00">EmailService </text>
</g>
<!-- AuthModule&#45;&gt;EmailService  -->
<g id="edge14" class="edge">
<title>AuthModule&#45;&gt;EmailService </title>
<path fill="none" stroke="black" stroke-dasharray="5,2" d="M7125.6,-334.24C7125.6,-349.57 7125.6,-369 7125.6,-369 7125.6,-369 1673,-369 1673,-369 1673,-369 1673,-276.11 1673,-276.11"/>
<polygon fill="black" stroke="black" points="1676.5,-276.11 1673,-266.11 1669.5,-276.11 1676.5,-276.11"/>
</g>
<!-- ExtractKeyValueUtil  -->
<g id="node13" class="node">
<title>ExtractKeyValueUtil </title>
<polygon fill="#fb8072" stroke="black" points="1607.45,-266 1468.55,-266 1468.55,-230 1607.45,-230 1607.45,-266"/>
<text text-anchor="middle" x="1538" y="-243.8" font-family="Times,serif" font-size="14.00">ExtractKeyValueUtil </text>
</g>
<!-- AuthModule&#45;&gt;ExtractKeyValueUtil  -->
<g id="edge15" class="edge">
<title>AuthModule&#45;&gt;ExtractKeyValueUtil </title>
<path fill="none" stroke="black" stroke-dasharray="5,2" d="M7130.06,-334.03C7130.06,-350.4 7130.06,-372 7130.06,-372 7130.06,-372 1538,-372 1538,-372 1538,-372 1538,-276.03 1538,-276.03"/>
<polygon fill="black" stroke="black" points="1541.5,-276.03 1538,-266.03 1534.5,-276.03 1541.5,-276.03"/>
</g>
<!-- LoggedOutGaurd  -->
<g id="node14" class="node">
<title>LoggedOutGaurd </title>
<polygon fill="#fb8072" stroke="black" points="2140.25,-266 2021.75,-266 2021.75,-230 2140.25,-230 2140.25,-266"/>
<text text-anchor="middle" x="2081" y="-243.8" font-family="Times,serif" font-size="14.00">LoggedOutGaurd </text>
</g>
<!-- AuthModule&#45;&gt;LoggedOutGaurd  -->
<g id="edge16" class="edge">
<title>AuthModule&#45;&gt;LoggedOutGaurd </title>
<path fill="none" stroke="black" stroke-dasharray="5,2" d="M7116.68,-334.15C7116.68,-335.3 7116.68,-336 7116.68,-336 7116.68,-336 2081,-336 2081,-336 2081,-336 2081,-276.23 2081,-276.23"/>
<polygon fill="black" stroke="black" points="2084.5,-276.23 2081,-266.23 2077.5,-276.23 2084.5,-276.23"/>
</g>
<!-- VerifyNewPasswordUtil  -->
<g id="node15" class="node">
<title>VerifyNewPasswordUtil </title>
<polygon fill="#fb8072" stroke="black" points="2003.89,-266 1846.11,-266 1846.11,-230 2003.89,-230 2003.89,-266"/>
<text text-anchor="middle" x="1925" y="-243.8" font-family="Times,serif" font-size="14.00">VerifyNewPasswordUtil </text>
</g>
<!-- AuthModule&#45;&gt;VerifyNewPasswordUtil  -->
<g id="edge17" class="edge">
<title>AuthModule&#45;&gt;VerifyNewPasswordUtil </title>
<path fill="none" stroke="black" stroke-dasharray="5,2" d="M7121.14,-334.17C7121.14,-336.45 7121.14,-338 7121.14,-338 7121.14,-338 1925,-338 1925,-338 1925,-338 1925,-276.21 1925,-276.21"/>
<polygon fill="black" stroke="black" points="1928.5,-276.21 1925,-266.21 1921.5,-276.21 1928.5,-276.21"/>
</g>
<!-- ImagesModule&#45;&gt;AppModule -->
<g id="edge7" class="edge">
<title>ImagesModule&#45;&gt;AppModule</title>
<path fill="none" stroke="black" d="M7250.25,-334.11C7250.25,-334.11 7250.25,-352.99 7250.25,-352.99"/>
<polygon fill="black" stroke="black" points="7246.75,-352.99 7250.25,-362.99 7253.75,-352.99 7246.75,-352.99"/>
</g>
<!-- ImagesService  -->
<g id="node24" class="node">
<title>ImagesService </title>
<polygon fill="#fb8072" stroke="black" points="3377.9,-266 3276.1,-266 3276.1,-230 3377.9,-230 3377.9,-266"/>
<text text-anchor="middle" x="3327" y="-243.8" font-family="Times,serif" font-size="14.00">ImagesService </text>
</g>
<!-- ImagesModule&#45;&gt;ImagesService  -->
<g id="edge28" class="edge">
<title>ImagesModule&#45;&gt;ImagesService </title>
<path fill="none" stroke="black" stroke-dasharray="5,2" d="M7221.59,-334.21C7221.59,-339.55 7221.59,-344 7221.59,-344 7221.59,-344 3327,-344 3327,-344 3327,-344 3327,-276.06 3327,-276.06"/>
<polygon fill="black" stroke="black" points="3330.5,-276.06 3327,-266.06 3323.5,-276.06 3330.5,-276.06"/>
</g>
<!-- RentalModule&#45;&gt;AppModule -->
<g id="edge8" class="edge">
<title>RentalModule&#45;&gt;AppModule</title>
<path fill="none" stroke="black" d="M7412.83,-334.11C7412.83,-353.34 7412.83,-381 7412.83,-381 7412.83,-381 7264.1,-381 7264.1,-381"/>
<polygon fill="black" stroke="black" points="7264.1,-377.5 7254.1,-381 7264.1,-384.5 7264.1,-377.5"/>
</g>
<!-- RentalService  -->
<g id="node31" class="node">
<title>RentalService </title>
<polygon fill="#fb8072" stroke="black" points="6934.02,-266 6835.98,-266 6835.98,-230 6934.02,-230 6934.02,-266"/>
<text text-anchor="middle" x="6885" y="-243.8" font-family="Times,serif" font-size="14.00">RentalService </text>
</g>
<!-- RentalModule&#45;&gt;RentalService  -->
<g id="edge37" class="edge">
<title>RentalModule&#45;&gt;RentalService </title>
<path fill="none" stroke="black" stroke-dasharray="5,2" d="M7420.74,-297.85C7420.74,-284.26 7420.74,-268 7420.74,-268 7420.74,-268 6885,-268 6885,-268 6885,-268 6885,-267.82 6885,-267.82"/>
<polygon fill="black" stroke="black" points="6888.5,-276.15 6885,-266.15 6881.5,-276.15 6888.5,-276.15"/>
</g>
<!-- UserModule&#45;&gt;AppModule -->
<g id="edge9" class="edge">
<title>UserModule&#45;&gt;AppModule</title>
<path fill="none" stroke="black" d="M7198.26,-248C7201.69,-248 7203.86,-248 7203.86,-248 7203.86,-248 7203.86,-352.79 7203.86,-352.79"/>
<polygon fill="black" stroke="black" points="7200.36,-352.79 7203.86,-362.79 7207.36,-352.79 7200.36,-352.79"/>
</g>
<!-- UserModule&#45;&gt;AuthModule -->
<g id="edge12" class="edge">
<title>UserModule&#45;&gt;AuthModule</title>
<path fill="none" stroke="black" d="M7155.11,-266.22C7155.11,-266.22 7155.11,-287.73 7155.11,-287.73"/>
<polygon fill="black" stroke="black" points="7151.61,-287.73 7155.11,-297.73 7158.61,-287.73 7151.61,-287.73"/>
</g>
<!-- UserService  -->
<g id="node48" class="node">
<title>UserService </title>
<polygon fill="#fb8072" stroke="black" points="7207.9,-190 7120.1,-190 7120.1,-154 7207.9,-154 7207.9,-190"/>
<text text-anchor="middle" x="7164" y="-167.8" font-family="Times,serif" font-size="14.00">UserService </text>
</g>
<!-- UserModule&#45;&gt;UserService  -->
<g id="edge57" class="edge">
<title>UserModule&#45;&gt;UserService </title>
<path fill="none" stroke="black" stroke-dasharray="5,2" d="M7172.01,-229.99C7172.01,-229.99 7172.01,-200.15 7172.01,-200.15"/>
<polygon fill="black" stroke="black" points="7175.51,-200.15 7172.01,-190.15 7168.51,-200.15 7175.51,-200.15"/>
</g>
<!-- AppService -->
<g id="node10" class="node">
<title>AppService</title>
<ellipse fill="#fdb462" stroke="black" cx="7031" cy="-316" rx="56.74" ry="18"/>
<text text-anchor="middle" x="7031" y="-311.8" font-family="Times,serif" font-size="14.00">AppService</text>
</g>
<!-- AppService&#45;&gt;AppModule -->
<g id="edge10" class="edge">
<title>AppService&#45;&gt;AppModule</title>
<path fill="none" stroke="black" d="M7031,-334.05C7031,-348.37 7031,-366 7031,-366 7031,-366 7160.02,-366 7160.02,-366"/>
<polygon fill="black" stroke="black" points="7160.02,-369.5 7170.02,-366 7160.02,-362.5 7160.02,-369.5"/>
</g>
<!-- AuthService -->
<g id="node16" class="node">
<title>AuthService</title>
<ellipse fill="#fdb462" stroke="black" cx="1155" cy="-248" rx="59.11" ry="18"/>
<text text-anchor="middle" x="1155" y="-243.8" font-family="Times,serif" font-size="14.00">AuthService</text>
</g>
<!-- AuthService&#45;&gt;AuthModule -->
<g id="edge19" class="edge">
<title>AuthService&#45;&gt;AuthModule</title>
<path fill="none" stroke="black" d="M1155,-266.08C1155,-301.8 1155,-378 1155,-378 1155,-378 7138.97,-378 7138.97,-378 7138.97,-378 7138.97,-344.27 7138.97,-344.27"/>
<polygon fill="black" stroke="black" points="7142.47,-344.27 7138.97,-334.27 7135.47,-344.27 7142.47,-344.27"/>
</g>
<!-- EmailService -->
<g id="node17" class="node">
<title>EmailService</title>
<ellipse fill="#fdb462" stroke="black" cx="1015" cy="-248" rx="63.12" ry="18"/>
<text text-anchor="middle" x="1015" y="-243.8" font-family="Times,serif" font-size="14.00">EmailService</text>
</g>
<!-- EmailService&#45;&gt;AuthModule -->
<g id="edge20" class="edge">
<title>EmailService&#45;&gt;AuthModule</title>
<path fill="none" stroke="black" d="M1015,-266.21C1015,-302.64 1015,-381 1015,-381 1015,-381 7143.43,-381 7143.43,-381 7143.43,-381 7143.43,-344.11 7143.43,-344.11"/>
<polygon fill="black" stroke="black" points="7146.93,-344.11 7143.43,-334.11 7139.93,-344.11 7146.93,-344.11"/>
</g>
<!-- ExtractKeyValueUtil -->
<g id="node18" class="node">
<title>ExtractKeyValueUtil</title>
<ellipse fill="#fdb462" stroke="black" cx="841" cy="-248" rx="93.17" ry="18"/>
<text text-anchor="middle" x="841" y="-243.8" font-family="Times,serif" font-size="14.00">ExtractKeyValueUtil</text>
</g>
<!-- ExtractKeyValueUtil&#45;&gt;AuthModule -->
<g id="edge21" class="edge">
<title>ExtractKeyValueUtil&#45;&gt;AuthModule</title>
<path fill="none" stroke="black" d="M841,-266.06C841,-303.05 841,-384 841,-384 841,-384 7147.89,-384 7147.89,-384 7147.89,-384 7147.89,-344.22 7147.89,-344.22"/>
<polygon fill="black" stroke="black" points="7151.39,-344.22 7147.89,-334.22 7144.39,-344.22 7151.39,-344.22"/>
</g>
<!-- ExtractKeyValueUtil&#45;&gt;UserModule -->
<g id="edge58" class="edge">
<title>ExtractKeyValueUtil&#45;&gt;UserModule</title>
<path fill="none" stroke="black" d="M841,-229.68C841,-221.21 841,-213 841,-213 841,-213 7118.04,-213 7118.04,-213 7118.04,-213 7118.04,-219.68 7118.04,-219.68"/>
<polygon fill="black" stroke="black" points="7114.54,-219.68 7118.04,-229.68 7121.54,-219.68 7114.54,-219.68"/>
</g>
<!-- ExtractUserUtil -->
<g id="node19" class="node">
<title>ExtractUserUtil</title>
<ellipse fill="#fdb462" stroke="black" cx="658" cy="-248" rx="72.34" ry="18"/>
<text text-anchor="middle" x="658" y="-243.8" font-family="Times,serif" font-size="14.00">ExtractUserUtil</text>
</g>
<!-- ExtractUserUtil&#45;&gt;AuthModule -->
<g id="edge22" class="edge">
<title>ExtractUserUtil&#45;&gt;AuthModule</title>
<path fill="none" stroke="black" d="M658,-266.17C658,-303.85 658,-387 658,-387 658,-387 7152.34,-387 7152.34,-387 7152.34,-387 7152.34,-344.28 7152.34,-344.28"/>
<polygon fill="black" stroke="black" points="7155.84,-344.28 7152.34,-334.28 7148.84,-344.28 7155.84,-344.28"/>
</g>
<!-- ExtractUserUtil&#45;&gt;UserModule -->
<g id="edge59" class="edge">
<title>ExtractUserUtil&#45;&gt;UserModule</title>
<path fill="none" stroke="black" d="M658,-229.87C658,-219.29 658,-208 658,-208 658,-208 7146.03,-208 7146.03,-208 7146.03,-208 7146.03,-219.87 7146.03,-219.87"/>
<polygon fill="black" stroke="black" points="7142.53,-219.87 7146.03,-229.87 7149.53,-219.87 7142.53,-219.87"/>
</g>
<!-- JwtStrategy -->
<g id="node20" class="node">
<title>JwtStrategy</title>
<ellipse fill="#fdb462" stroke="black" cx="511" cy="-248" rx="56.76" ry="18"/>
<text text-anchor="middle" x="511" y="-243.8" font-family="Times,serif" font-size="14.00">JwtStrategy</text>
</g>
<!-- JwtStrategy&#45;&gt;AuthModule -->
<g id="edge23" class="edge">
<title>JwtStrategy&#45;&gt;AuthModule</title>
<path fill="none" stroke="black" d="M511,-266.27C511,-304.63 511,-390 511,-390 511,-390 7156.8,-390 7156.8,-390 7156.8,-390 7156.8,-344.29 7156.8,-344.29"/>
<polygon fill="black" stroke="black" points="7160.3,-344.29 7156.8,-334.29 7153.3,-344.29 7160.3,-344.29"/>
</g>
<!-- LocalStrategy -->
<g id="node21" class="node">
<title>LocalStrategy</title>
<ellipse fill="#fdb462" stroke="black" cx="371" cy="-248" rx="65.41" ry="18"/>
<text text-anchor="middle" x="371" y="-243.8" font-family="Times,serif" font-size="14.00">LocalStrategy</text>
</g>
<!-- LocalStrategy&#45;&gt;AuthModule -->
<g id="edge24" class="edge">
<title>LocalStrategy&#45;&gt;AuthModule</title>
<path fill="none" stroke="black" d="M371,-266.07C371,-304.94 371,-393 371,-393 371,-393 7161.26,-393 7161.26,-393 7161.26,-393 7161.26,-344.25 7161.26,-344.25"/>
<polygon fill="black" stroke="black" points="7164.76,-344.25 7161.26,-334.25 7157.76,-344.25 7164.76,-344.25"/>
</g>
<!-- VerifyNewPasswordUtil -->
<g id="node22" class="node">
<title>VerifyNewPasswordUtil</title>
<ellipse fill="#fdb462" stroke="black" cx="1339" cy="-248" rx="106.49" ry="18"/>
<text text-anchor="middle" x="1339" y="-243.8" font-family="Times,serif" font-size="14.00">VerifyNewPasswordUtil</text>
</g>
<!-- VerifyNewPasswordUtil&#45;&gt;AuthModule -->
<g id="edge25" class="edge">
<title>VerifyNewPasswordUtil&#45;&gt;AuthModule</title>
<path fill="none" stroke="black" d="M1339,-266.2C1339,-301.31 1339,-375 1339,-375 1339,-375 7134.51,-375 7134.51,-375 7134.51,-375 7134.51,-344.02 7134.51,-344.02"/>
<polygon fill="black" stroke="black" points="7138.01,-344.02 7134.51,-334.02 7131.01,-344.02 7138.01,-344.02"/>
</g>
<!-- VerifyNewPasswordUtil&#45;&gt;UserModule -->
<g id="edge61" class="edge">
<title>VerifyNewPasswordUtil&#45;&gt;UserModule</title>
<path fill="none" stroke="black" d="M1339,-229.8C1339,-223.97 1339,-219 1339,-219 1339,-219 7116.03,-219 7116.03,-219 7116.03,-219 7116.03,-220.08 7116.03,-220.08"/>
<polygon fill="black" stroke="black" points="7112.53,-219.8 7116.03,-229.8 7119.53,-219.8 7112.53,-219.8"/>
</g>
<!-- DatabaseModule -->
<g id="node23" class="node">
<title>DatabaseModule</title>
<polygon fill="#8dd3c7" stroke="black" points="3512.35,-266 3509.35,-270 3488.35,-270 3485.35,-266 3401.65,-266 3401.65,-230 3512.35,-230 3512.35,-266"/>
<text text-anchor="middle" x="3457" y="-243.8" font-family="Times,serif" font-size="14.00">DatabaseModule</text>
</g>
<!-- DatabaseModule&#45;&gt;ImagesModule -->
<g id="edge27" class="edge">
<title>DatabaseModule&#45;&gt;ImagesModule</title>
<path fill="none" stroke="black" d="M3475.47,-266.12C3475.47,-293.44 3475.47,-342 3475.47,-342 3475.47,-342 7225.18,-342 7225.18,-342 7225.18,-342 7225.18,-341.21 7225.18,-341.21"/>
<polygon fill="black" stroke="black" points="7228.68,-344.06 7225.18,-334.06 7221.68,-344.06 7228.68,-344.06"/>
</g>
<!-- DatabaseModule&#45;&gt;RentalModule -->
<g id="edge36" class="edge">
<title>DatabaseModule&#45;&gt;RentalModule</title>
<path fill="none" stroke="black" d="M3438.53,-266.49C3438.53,-298.31 3438.53,-360 3438.53,-360 3438.53,-360 7393.61,-360 7393.61,-360 7393.61,-360 7393.61,-344.15 7393.61,-344.15"/>
<polygon fill="black" stroke="black" points="7397.11,-344.15 7393.61,-334.15 7390.11,-344.15 7397.11,-344.15"/>
</g>
<!-- DatabaseModule&#45;&gt;UserModule -->
<g id="edge56" class="edge">
<title>DatabaseModule&#45;&gt;UserModule</title>
<path fill="none" stroke="black" d="M3457,-229.88C3457,-227.03 3457,-225 3457,-225 3457,-225 7114.02,-225 7114.02,-225 7114.02,-225 7114.02,-225.49 7114.02,-225.49"/>
<polygon fill="black" stroke="black" points="7110.52,-219.88 7114.02,-229.88 7117.52,-219.88 7110.52,-219.88"/>
</g>
<!-- CreateMulterUploadUtil -->
<g id="node25" class="node">
<title>CreateMulterUploadUtil</title>
<ellipse fill="#fdb462" stroke="black" cx="2816" cy="-248" rx="105.93" ry="18"/>
<text text-anchor="middle" x="2816" y="-243.8" font-family="Times,serif" font-size="14.00">CreateMulterUploadUtil</text>
</g>
<!-- CreateMulterUploadUtil&#45;&gt;ImagesModule -->
<g id="edge30" class="edge">
<title>CreateMulterUploadUtil&#45;&gt;ImagesModule</title>
<path fill="none" stroke="black" d="M2816,-266.06C2816,-295.11 2816,-349 2816,-349 2816,-349 7235.92,-349 7235.92,-349 7235.92,-349 7235.92,-344.04 7235.92,-344.04"/>
<polygon fill="black" stroke="black" points="7239.42,-344.04 7235.92,-334.04 7232.42,-344.04 7239.42,-344.04"/>
</g>
<!-- DeleteS3ImagesUtil -->
<g id="node26" class="node">
<title>DeleteS3ImagesUtil</title>
<ellipse fill="#fdb462" stroke="black" cx="2603" cy="-248" rx="89.18" ry="18"/>
<text text-anchor="middle" x="2603" y="-243.8" font-family="Times,serif" font-size="14.00">DeleteS3ImagesUtil</text>
</g>
<!-- DeleteS3ImagesUtil&#45;&gt;ImagesModule -->
<g id="edge31" class="edge">
<title>DeleteS3ImagesUtil&#45;&gt;ImagesModule</title>
<path fill="none" stroke="black" d="M2603,-266.41C2603,-296.04 2603,-351 2603,-351 2603,-351 7239.5,-351 7239.5,-351 7239.5,-351 7239.5,-344.32 7239.5,-344.32"/>
<polygon fill="black" stroke="black" points="7243,-344.32 7239.5,-334.32 7236,-344.32 7243,-344.32"/>
</g>
<!-- ImagesService -->
<g id="node27" class="node">
<title>ImagesService</title>
<ellipse fill="#fdb462" stroke="black" cx="2428" cy="-248" rx="67.75" ry="18"/>
<text text-anchor="middle" x="2428" y="-243.8" font-family="Times,serif" font-size="14.00">ImagesService</text>
</g>
<!-- ImagesService&#45;&gt;ImagesModule -->
<g id="edge32" class="edge">
<title>ImagesService&#45;&gt;ImagesModule</title>
<path fill="none" stroke="black" d="M2428,-266.29C2428,-296.37 2428,-353 2428,-353 2428,-353 7243.08,-353 7243.08,-353 7243.08,-353 7243.08,-344.07 7243.08,-344.07"/>
<polygon fill="black" stroke="black" points="7246.58,-344.07 7243.08,-334.07 7239.58,-344.07 7246.58,-344.07"/>
</g>
<!-- MulterUploadUtil -->
<g id="node28" class="node">
<title>MulterUploadUtil</title>
<ellipse fill="#fdb462" stroke="black" cx="2261" cy="-248" rx="80.54" ry="18"/>
<text text-anchor="middle" x="2261" y="-243.8" font-family="Times,serif" font-size="14.00">MulterUploadUtil</text>
</g>
<!-- MulterUploadUtil&#45;&gt;ImagesModule -->
<g id="edge33" class="edge">
<title>MulterUploadUtil&#45;&gt;ImagesModule</title>
<path fill="none" stroke="black" d="M2261,-266.46C2261,-296.83 2261,-354 2261,-354 2261,-354 7246.67,-354 7246.67,-354 7246.67,-354 7246.67,-344.11 7246.67,-344.11"/>
<polygon fill="black" stroke="black" points="7250.17,-344.11 7246.67,-334.11 7243.17,-344.11 7250.17,-344.11"/>
</g>
<!-- ProcessSaveDataUtil -->
<g id="node29" class="node">
<title>ProcessSaveDataUtil</title>
<ellipse fill="#fdb462" stroke="black" cx="3159" cy="-248" rx="92.61" ry="18"/>
<text text-anchor="middle" x="3159" y="-243.8" font-family="Times,serif" font-size="14.00">ProcessSaveDataUtil</text>
</g>
<!-- ProcessSaveDataUtil&#45;&gt;ImagesModule -->
<g id="edge34" class="edge">
<title>ProcessSaveDataUtil&#45;&gt;ImagesModule</title>
<path fill="none" stroke="black" d="M3159,-266.24C3159,-294.34 3159,-345 3159,-345 3159,-345 7228.76,-345 7228.76,-345 7228.76,-345 7228.76,-343.92 7228.76,-343.92"/>
<polygon fill="black" stroke="black" points="7232.26,-344.2 7228.76,-334.2 7225.26,-344.2 7232.26,-344.2"/>
</g>
<!-- S3Provider -->
<g id="node30" class="node">
<title>S3Provider</title>
<ellipse fill="#fdb462" stroke="black" cx="2994" cy="-248" rx="54.47" ry="18"/>
<text text-anchor="middle" x="2994" y="-243.8" font-family="Times,serif" font-size="14.00">S3Provider</text>
</g>
<!-- S3Provider&#45;&gt;ImagesModule -->
<g id="edge35" class="edge">
<title>S3Provider&#45;&gt;ImagesModule</title>
<path fill="none" stroke="black" d="M2994,-266.16C2994,-294.74 2994,-347 2994,-347 2994,-347 7232.34,-347 7232.34,-347 7232.34,-347 7232.34,-344.03 7232.34,-344.03"/>
<polygon fill="black" stroke="black" points="7235.84,-344.03 7232.34,-334.03 7228.84,-344.03 7235.84,-344.03"/>
</g>
<!-- CreateUpdaterDtoPipe -->
<g id="node32" class="node">
<title>CreateUpdaterDtoPipe</title>
<ellipse fill="#fdb462" stroke="black" cx="4279" cy="-248" rx="98.97" ry="18"/>
<text text-anchor="middle" x="4279" y="-243.8" font-family="Times,serif" font-size="14.00">CreateUpdaterDtoPipe</text>
</g>
<!-- CreateUpdaterDtoPipe&#45;&gt;RentalModule -->
<g id="edge39" class="edge">
<title>CreateUpdaterDtoPipe&#45;&gt;RentalModule</title>
<path fill="none" stroke="black" d="M4279,-266.18C4279,-279.04 4279,-294 4279,-294 4279,-294 7347.26,-294 7347.26,-294 7347.26,-294 7347.26,-294.38 7347.26,-294.38"/>
<polygon fill="black" stroke="black" points="7343.76,-287.83 7347.26,-297.83 7350.76,-287.83 7343.76,-287.83"/>
</g>
<!-- EditDetailsPipe -->
<g id="node33" class="node">
<title>EditDetailsPipe</title>
<ellipse fill="#fdb462" stroke="black" cx="4090" cy="-248" rx="71.8" ry="18"/>
<text text-anchor="middle" x="4090" y="-243.8" font-family="Times,serif" font-size="14.00">EditDetailsPipe</text>
</g>
<!-- EditDetailsPipe&#45;&gt;RentalModule -->
<g id="edge40" class="edge">
<title>EditDetailsPipe&#45;&gt;RentalModule</title>
<path fill="none" stroke="black" d="M4090,-266.15C4090,-279.74 4090,-296 4090,-296 4090,-296 7341.6,-296 7341.6,-296 7341.6,-296 7341.6,-296.18 7341.6,-296.18"/>
<polygon fill="black" stroke="black" points="7338.1,-287.85 7341.6,-297.85 7345.1,-287.85 7338.1,-287.85"/>
</g>
<!-- GenerateRentalDurationEnumUtil -->
<g id="node34" class="node">
<title>GenerateRentalDurationEnumUtil</title>
<ellipse fill="#fdb462" stroke="black" cx="3857" cy="-248" rx="143.52" ry="18"/>
<text text-anchor="middle" x="3857" y="-243.8" font-family="Times,serif" font-size="14.00">GenerateRentalDurationEnumUtil</text>
</g>
<!-- GenerateRentalDurationEnumUtil&#45;&gt;RentalModule -->
<g id="edge41" class="edge">
<title>GenerateRentalDurationEnumUtil&#45;&gt;RentalModule</title>
<path fill="none" stroke="black" d="M3857,-266.32C3857,-297.13 3857,-356 3857,-356 3857,-356 7355.17,-356 7355.17,-356 7355.17,-356 7355.17,-344.13 7355.17,-344.13"/>
<polygon fill="black" stroke="black" points="7358.67,-344.13 7355.17,-334.13 7351.67,-344.13 7358.67,-344.13"/>
</g>
<!-- GeoUrlApiPipe -->
<g id="node35" class="node">
<title>GeoUrlApiPipe</title>
<ellipse fill="#fdb462" stroke="black" cx="3624" cy="-248" rx="71.79" ry="18"/>
<text text-anchor="middle" x="3624" y="-243.8" font-family="Times,serif" font-size="14.00">GeoUrlApiPipe</text>
</g>
<!-- GeoUrlApiPipe&#45;&gt;RentalModule -->
<g id="edge42" class="edge">
<title>GeoUrlApiPipe&#45;&gt;RentalModule</title>
<path fill="none" stroke="black" d="M3624,-266.16C3624,-297.41 3624,-358 3624,-358 3624,-358 7374.39,-358 7374.39,-358 7374.39,-358 7374.39,-344.06 7374.39,-344.06"/>
<polygon fill="black" stroke="black" points="7377.89,-344.06 7374.39,-334.06 7370.89,-344.06 7377.89,-344.06"/>
</g>
<!-- GeoUrlApiUtil -->
<g id="node36" class="node">
<title>GeoUrlApiUtil</title>
<ellipse fill="#fdb462" stroke="black" cx="6743" cy="-248" rx="69.5" ry="18"/>
<text text-anchor="middle" x="6743" y="-243.8" font-family="Times,serif" font-size="14.00">GeoUrlApiUtil</text>
</g>
<!-- GeoUrlApiUtil&#45;&gt;RentalModule -->
<g id="edge43" class="edge">
<title>GeoUrlApiUtil&#45;&gt;RentalModule</title>
<path fill="none" stroke="black" d="M6743,-266.17C6743,-268.45 6743,-270 6743,-270 6743,-270 7415.09,-270 7415.09,-270 7415.09,-270 7415.09,-287.82 7415.09,-287.82"/>
<polygon fill="black" stroke="black" points="7411.59,-287.82 7415.09,-297.82 7418.59,-287.82 7411.59,-287.82"/>
</g>
<!-- GivenNoticePipe -->
<g id="node37" class="node">
<title>GivenNoticePipe</title>
<ellipse fill="#fdb462" stroke="black" cx="6578" cy="-248" rx="77.59" ry="18"/>
<text text-anchor="middle" x="6578" y="-243.8" font-family="Times,serif" font-size="14.00">GivenNoticePipe</text>
</g>
<!-- GivenNoticePipe&#45;&gt;RentalModule -->
<g id="edge44" class="edge">
<title>GivenNoticePipe&#45;&gt;RentalModule</title>
<path fill="none" stroke="black" d="M6578,-266.19C6578,-269.54 6578,-272 6578,-272 6578,-272 7409.44,-272 7409.44,-272 7409.44,-272 7409.44,-287.85 7409.44,-287.85"/>
<polygon fill="black" stroke="black" points="7405.94,-287.85 7409.44,-297.85 7412.94,-287.85 7405.94,-287.85"/>
</g>
<!-- JoiValidationPipe -->
<g id="node38" class="node">
<title>JoiValidationPipe</title>
<ellipse fill="#fdb462" stroke="black" cx="6402" cy="-248" rx="80.47" ry="18"/>
<text text-anchor="middle" x="6402" y="-243.8" font-family="Times,serif" font-size="14.00">JoiValidationPipe</text>
</g>
<!-- JoiValidationPipe&#45;&gt;RentalModule -->
<g id="edge45" class="edge">
<title>JoiValidationPipe&#45;&gt;RentalModule</title>
<path fill="none" stroke="black" d="M6402,-266.06C6402,-270.49 6402,-274 6402,-274 6402,-274 7403.78,-274 7403.78,-274 7403.78,-274 7403.78,-287.94 7403.78,-287.94"/>
<polygon fill="black" stroke="black" points="7400.28,-287.94 7403.78,-297.94 7407.28,-287.94 7400.28,-287.94"/>
</g>
<!-- MapNewRentalPipe -->
<g id="node39" class="node">
<title>MapNewRentalPipe</title>
<ellipse fill="#fdb462" stroke="black" cx="6214" cy="-248" rx="89.18" ry="18"/>
<text text-anchor="middle" x="6214" y="-243.8" font-family="Times,serif" font-size="14.00">MapNewRentalPipe</text>
</g>
<!-- MapNewRentalPipe&#45;&gt;RentalModule -->
<g id="edge46" class="edge">
<title>MapNewRentalPipe&#45;&gt;RentalModule</title>
<path fill="none" stroke="black" d="M6214,-266.21C6214,-271.55 6214,-276 6214,-276 6214,-276 7398.13,-276 7398.13,-276 7398.13,-276 7398.13,-287.87 7398.13,-287.87"/>
<polygon fill="black" stroke="black" points="7394.63,-287.87 7398.13,-297.87 7401.63,-287.87 7394.63,-287.87"/>
</g>
<!-- PricingPipe -->
<g id="node40" class="node">
<title>PricingPipe</title>
<ellipse fill="#fdb462" stroke="black" cx="6051" cy="-248" rx="56.2" ry="18"/>
<text text-anchor="middle" x="6051" y="-243.8" font-family="Times,serif" font-size="14.00">PricingPipe</text>
</g>
<!-- PricingPipe&#45;&gt;RentalModule -->
<g id="edge47" class="edge">
<title>PricingPipe&#45;&gt;RentalModule</title>
<path fill="none" stroke="black" d="M6051,-266.14C6051,-272.46 6051,-278 6051,-278 6051,-278 7392.48,-278 7392.48,-278 7392.48,-278 7392.48,-287.89 7392.48,-287.89"/>
<polygon fill="black" stroke="black" points="7388.98,-287.89 7392.48,-297.89 7395.98,-287.89 7388.98,-287.89"/>
</g>
<!-- ProcessUnavailabilityPipe -->
<g id="node41" class="node">
<title>ProcessUnavailabilityPipe</title>
<ellipse fill="#fdb462" stroke="black" cx="5864" cy="-248" rx="112.89" ry="18"/>
<text text-anchor="middle" x="5864" y="-243.8" font-family="Times,serif" font-size="14.00">ProcessUnavailabilityPipe</text>
</g>
<!-- ProcessUnavailabilityPipe&#45;&gt;RentalModule -->
<g id="edge48" class="edge">
<title>ProcessUnavailabilityPipe&#45;&gt;RentalModule</title>
<path fill="none" stroke="black" d="M5864,-266.24C5864,-273.43 5864,-280 5864,-280 5864,-280 7386.83,-280 7386.83,-280 7386.83,-280 7386.83,-287.58 7386.83,-287.58"/>
<polygon fill="black" stroke="black" points="7383.33,-287.58 7386.83,-297.58 7390.33,-287.58 7383.33,-287.58"/>
</g>
<!-- RentalDurationPipe -->
<g id="node42" class="node">
<title>RentalDurationPipe</title>
<ellipse fill="#fdb462" stroke="black" cx="5645" cy="-248" rx="87.98" ry="18"/>
<text text-anchor="middle" x="5645" y="-243.8" font-family="Times,serif" font-size="14.00">RentalDurationPipe</text>
</g>
<!-- RentalDurationPipe&#45;&gt;RentalModule -->
<g id="edge49" class="edge">
<title>RentalDurationPipe&#45;&gt;RentalModule</title>
<path fill="none" stroke="black" d="M5645,-266.19C5645,-274.28 5645,-282 5645,-282 5645,-282 7381.17,-282 7381.17,-282 7381.17,-282 7381.17,-287.81 7381.17,-287.81"/>
<polygon fill="black" stroke="black" points="7377.67,-287.81 7381.17,-297.81 7384.67,-287.81 7377.67,-287.81"/>
</g>
<!-- RentalService -->
<g id="node43" class="node">
<title>RentalService</title>
<ellipse fill="#fdb462" stroke="black" cx="5474" cy="-248" rx="65.4" ry="18"/>
<text text-anchor="middle" x="5474" y="-243.8" font-family="Times,serif" font-size="14.00">RentalService</text>
</g>
<!-- RentalService&#45;&gt;RentalModule -->
<g id="edge50" class="edge">
<title>RentalService&#45;&gt;RentalModule</title>
<path fill="none" stroke="black" d="M5474,-266C5474,-275 5474,-284 5474,-284 5474,-284 7375.52,-284 7375.52,-284 7375.52,-284 7375.52,-287.76 7375.52,-287.76"/>
<polygon fill="black" stroke="black" points="7372.02,-287.76 7375.52,-297.76 7379.02,-287.76 7372.02,-287.76"/>
</g>
<!-- RequestCoordinatesPipe -->
<g id="node44" class="node">
<title>RequestCoordinatesPipe</title>
<ellipse fill="#fdb462" stroke="black" cx="5285" cy="-248" rx="105.96" ry="18"/>
<text text-anchor="middle" x="5285" y="-243.8" font-family="Times,serif" font-size="14.00">RequestCoordinatesPipe</text>
</g>
<!-- RequestCoordinatesPipe&#45;&gt;RentalModule -->
<g id="edge51" class="edge">
<title>RequestCoordinatesPipe&#45;&gt;RentalModule</title>
<path fill="none" stroke="black" d="M5285,-266.11C5285,-275.9 5285,-286 5285,-286 5285,-286 7369.87,-286 7369.87,-286 7369.87,-286 7369.87,-287.86 7369.87,-287.86"/>
<polygon fill="black" stroke="black" points="7366.37,-287.86 7369.87,-297.86 7373.37,-287.86 7366.37,-287.86"/>
</g>
<!-- SortUnavailabilityPipe -->
<g id="node45" class="node">
<title>SortUnavailabilityPipe</title>
<ellipse fill="#fdb462" stroke="black" cx="5061" cy="-248" rx="99.59" ry="18"/>
<text text-anchor="middle" x="5061" y="-243.8" font-family="Times,serif" font-size="14.00">SortUnavailabilityPipe</text>
</g>
<!-- SortUnavailabilityPipe&#45;&gt;RentalModule -->
<g id="edge52" class="edge">
<title>SortUnavailabilityPipe&#45;&gt;RentalModule</title>
<path fill="none" stroke="black" d="M5061,-266.13C5061,-276.71 5061,-288 5061,-288 5061,-288 7364.22,-288 7364.22,-288 7364.22,-288 7364.22,-288.98 7364.22,-288.98"/>
<polygon fill="black" stroke="black" points="7360.72,-287.79 7364.22,-297.79 7367.72,-287.79 7360.72,-287.79"/>
</g>
<!-- ValidateRemoveUnavailabilityPipe -->
<g id="node46" class="node">
<title>ValidateRemoveUnavailabilityPipe</title>
<ellipse fill="#fdb462" stroke="black" cx="4795" cy="-248" rx="148.19" ry="18"/>
<text text-anchor="middle" x="4795" y="-243.8" font-family="Times,serif" font-size="14.00">ValidateRemoveUnavailabilityPipe</text>
</g>
<!-- ValidateRemoveUnavailabilityPipe&#45;&gt;RentalModule -->
<g id="edge53" class="edge">
<title>ValidateRemoveUnavailabilityPipe&#45;&gt;RentalModule</title>
<path fill="none" stroke="black" d="M4795,-266.06C4795,-277.44 4795,-290 4795,-290 4795,-290 7358.56,-290 7358.56,-290 7358.56,-290 7358.56,-290.79 7358.56,-290.79"/>
<polygon fill="black" stroke="black" points="7355.06,-287.94 7358.56,-297.94 7362.06,-287.94 7355.06,-287.94"/>
</g>
<!-- ValidateUnavailabilityPipe -->
<g id="node47" class="node">
<title>ValidateUnavailabilityPipe</title>
<ellipse fill="#fdb462" stroke="black" cx="4512" cy="-248" rx="116.32" ry="18"/>
<text text-anchor="middle" x="4512" y="-243.8" font-family="Times,serif" font-size="14.00">ValidateUnavailabilityPipe</text>
</g>
<!-- ValidateUnavailabilityPipe&#45;&gt;RentalModule -->
<g id="edge54" class="edge">
<title>ValidateUnavailabilityPipe&#45;&gt;RentalModule</title>
<path fill="none" stroke="black" d="M4512,-266.15C4512,-278.27 4512,-292 4512,-292 4512,-292 7352.91,-292 7352.91,-292 7352.91,-292 7352.91,-292.58 7352.91,-292.58"/>
<polygon fill="black" stroke="black" points="7349.41,-287.81 7352.91,-297.81 7356.41,-287.81 7349.41,-287.81"/>
</g>
<!-- UserService -->
<g id="node49" class="node">
<title>UserService</title>
<ellipse fill="#fdb462" stroke="black" cx="7038" cy="-172" rx="58.44" ry="18"/>
<text text-anchor="middle" x="7038" y="-167.8" font-family="Times,serif" font-size="14.00">UserService</text>
</g>
<!-- UserService&#45;&gt;UserModule -->
<g id="edge60" class="edge">
<title>UserService&#45;&gt;UserModule</title>
<path fill="none" stroke="black" d="M7091.92,-178.97C7091.92,-196.67 7091.92,-242 7091.92,-242 7091.92,-242 7101.88,-242 7101.88,-242"/>
<polygon fill="black" stroke="black" points="7101.88,-245.5 7111.88,-242 7101.88,-238.5 7101.88,-245.5"/>
</g>
</g>
</svg>
