<?xml version="1.0" encoding="UTF-8" standalone="no"?>
<!DOCTYPE svg PUBLIC "-//W3C//DTD SVG 1.1//EN"
 "http://www.w3.org/Graphics/SVG/1.1/DTD/svg11.dtd">
<!-- Generated by graphviz version 2.44.1 (20200629.0846)
 -->
<!-- Title: dependencies Pages: 1 -->
<svg width="7397pt" height="439pt"
 viewBox="0.00 0.00 7397.00 439.00" xmlns="http://www.w3.org/2000/svg" xmlns:xlink="http://www.w3.org/1999/xlink">
<g id="graph0" class="graph" transform="scale(1 1) rotate(0) translate(4 435)">
<title>dependencies</title>
<polygon fill="white" stroke="transparent" points="-4,4 -4,-435 7393,-435 7393,4 -4,4"/>
<text text-anchor="start" x="3673.51" y="-42.4" font-family="sans-serif" font-weight="bold" font-size="14.00">Legend</text>
<polygon fill="#ffffb3" stroke="transparent" points="3460.5,-10 3460.5,-30 3480.5,-30 3480.5,-10 3460.5,-10"/>
<text text-anchor="start" x="3484.13" y="-15.4" font-family="sans-serif" font-size="14.00"> &#160;Declarations</text>
<polygon fill="#8dd3c7" stroke="transparent" points="3573.5,-10 3573.5,-30 3593.5,-30 3593.5,-10 3573.5,-10"/>
<text text-anchor="start" x="3597.23" y="-15.4" font-family="sans-serif" font-size="14.00"> &#160;Module</text>
<polygon fill="#80b1d3" stroke="transparent" points="3659.5,-10 3659.5,-30 3679.5,-30 3679.5,-10 3659.5,-10"/>
<text text-anchor="start" x="3683.28" y="-15.4" font-family="sans-serif" font-size="14.00"> &#160;Bootstrap</text>
<polygon fill="#fdb462" stroke="transparent" points="3756.5,-10 3756.5,-30 3776.5,-30 3776.5,-10 3756.5,-10"/>
<text text-anchor="start" x="3780.17" y="-15.4" font-family="sans-serif" font-size="14.00"> &#160;Providers</text>
<polygon fill="#fb8072" stroke="transparent" points="3852.5,-10 3852.5,-30 3872.5,-30 3872.5,-10 3852.5,-10"/>
<text text-anchor="start" x="3876.23" y="-15.4" font-family="sans-serif" font-size="14.00"> &#160;Exports</text>
<g id="clust1" class="cluster">
<title>cluster_AppConfigModule</title>
<polygon fill="none" stroke="black" stroke-dasharray="1,5" points="828,-70 828,-282 1102,-282 1102,-70 828,-70"/>
</g>
<g id="clust4" class="cluster">
<title>cluster_AppConfigModule_exports</title>
<polygon fill="none" stroke="black" points="836,-222 836,-274 1094,-274 1094,-222 836,-222"/>
</g>
<g id="clust6" class="cluster">
<title>cluster_AppConfigModule_providers</title>
<polygon fill="none" stroke="black" points="912,-78 912,-130 1094,-130 1094,-78 912,-78"/>
</g>
<g id="clust7" class="cluster">
<title>cluster_AppModule</title>
<polygon fill="none" stroke="black" stroke-dasharray="1,5" points="290,-138 290,-423 820,-423 820,-138 290,-138"/>
</g>
<g id="clust9" class="cluster">
<title>cluster_AppModule_imports</title>
<polygon fill="none" stroke="black" points="436,-146 436,-415 812,-415 812,-146 436,-146"/>
</g>
<g id="clust12" class="cluster">
<title>cluster_AppModule_providers</title>
<polygon fill="none" stroke="black" points="298,-298 298,-350 428,-350 428,-298 298,-298"/>
</g>
<g id="clust13" class="cluster">
<title>cluster_AuthModule</title>
<polygon fill="none" stroke="black" stroke-dasharray="1,5" points="1110,-214 1110,-282 2702,-282 2702,-214 1110,-214"/>
</g>
<g id="clust16" class="cluster">
<title>cluster_AuthModule_exports</title>
<polygon fill="none" stroke="black" points="2120,-222 2120,-274 2694,-274 2694,-222 2120,-222"/>
</g>
<g id="clust18" class="cluster">
<title>cluster_AuthModule_providers</title>
<polygon fill="none" stroke="black" points="1118,-222 1118,-274 2112,-274 2112,-222 1118,-222"/>
</g>
<g id="clust25" class="cluster">
<title>cluster_ImagesModule</title>
<polygon fill="none" stroke="black" stroke-dasharray="1,5" points="2710,-214 2710,-282 4073,-282 4073,-214 2710,-214"/>
</g>
<g id="clust27" class="cluster">
<title>cluster_ImagesModule_imports</title>
<polygon fill="none" stroke="black" points="3939,-222 3939,-274 4065,-274 4065,-222 3939,-222"/>
</g>
<g id="clust28" class="cluster">
<title>cluster_ImagesModule_exports</title>
<polygon fill="none" stroke="black" points="3813,-222 3813,-274 3931,-274 3931,-222 3813,-222"/>
</g>
<g id="clust30" class="cluster">
<title>cluster_ImagesModule_providers</title>
<polygon fill="none" stroke="black" points="2718,-222 2718,-274 3805,-274 3805,-222 2718,-222"/>
</g>
<g id="clust31" class="cluster">
<title>cluster_RedisModule</title>
<polygon fill="none" stroke="black" stroke-dasharray="1,5" points="8,-138 8,-206 282,-206 282,-138 8,-138"/>
</g>
<g id="clust34" class="cluster">
<title>cluster_RedisModule_exports</title>
<polygon fill="none" stroke="black" points="164,-146 164,-198 274,-198 274,-146 164,-146"/>
</g>
<g id="clust36" class="cluster">
<title>cluster_RedisModule_providers</title>
<polygon fill="none" stroke="black" points="16,-146 16,-198 156,-198 156,-146 16,-146"/>
</g>
<g id="clust37" class="cluster">
<title>cluster_RentalModule</title>
<polygon fill="none" stroke="black" stroke-dasharray="1,5" points="4081,-214 4081,-282 7381,-282 7381,-214 4081,-214"/>
</g>
<g id="clust40" class="cluster">
<title>cluster_RentalModule_exports</title>
<polygon fill="none" stroke="black" points="7259,-222 7259,-274 7373,-274 7373,-222 7259,-222"/>
</g>
<g id="clust42" class="cluster">
<title>cluster_RentalModule_providers</title>
<polygon fill="none" stroke="black" points="4089,-222 4089,-274 7251,-274 7251,-222 4089,-222"/>
</g>
<g id="clust43" class="cluster">
<title>cluster_UserModule</title>
<polygon fill="none" stroke="black" stroke-dasharray="1,5" points="22,-290 22,-358 282,-358 282,-290 22,-290"/>
</g>
<g id="clust46" class="cluster">
<title>cluster_UserModule_exports</title>
<polygon fill="none" stroke="black" points="170,-298 170,-350 274,-350 274,-298 170,-298"/>
</g>
<g id="clust48" class="cluster">
<title>cluster_UserModule_providers</title>
<polygon fill="none" stroke="black" points="30,-298 30,-350 162,-350 162,-298 30,-298"/>
</g>
<!-- AppConfigService  -->
<g id="node1" class="node">
<title>AppConfigService </title>
<polygon fill="#fb8072" stroke="black" points="968.47,-266 843.53,-266 843.53,-230 968.47,-230 968.47,-266"/>
<text text-anchor="middle" x="906" y="-243.8" font-family="Times,serif" font-size="14.00">AppConfigService </text>
</g>
<!-- ConfigService  -->
<g id="node2" class="node">
<title>ConfigService </title>
<polygon fill="#fb8072" stroke="black" points="1086.37,-266 985.63,-266 985.63,-230 1086.37,-230 1086.37,-266"/>
<text text-anchor="middle" x="1036" y="-243.8" font-family="Times,serif" font-size="14.00">ConfigService </text>
</g>
<!-- AppConfigModule -->
<g id="node3" class="node">
<title>AppConfigModule</title>
<polygon fill="#8dd3c7" stroke="black" points="967.05,-190 964.05,-194 943.05,-194 940.05,-190 844.95,-190 844.95,-154 967.05,-154 967.05,-190"/>
<text text-anchor="middle" x="906" y="-167.8" font-family="Times,serif" font-size="14.00">AppConfigModule</text>
</g>
<!-- AppConfigModule&#45;&gt;AppConfigService  -->
<g id="edge1" class="edge">
<title>AppConfigModule&#45;&gt;AppConfigService </title>
<path fill="none" stroke="black" stroke-dasharray="5,2" d="M906,-190.01C906,-190.01 906,-219.85 906,-219.85"/>
<polygon fill="black" stroke="black" points="902.5,-219.85 906,-229.85 909.5,-219.85 902.5,-219.85"/>
</g>
<!-- AppConfigModule&#45;&gt;ConfigService  -->
<g id="edge2" class="edge">
<title>AppConfigModule&#45;&gt;ConfigService </title>
<path fill="none" stroke="black" stroke-dasharray="5,2" d="M967.19,-172C1000.91,-172 1036,-172 1036,-172 1036,-172 1036,-219.99 1036,-219.99"/>
<polygon fill="black" stroke="black" points="1032.5,-219.99 1036,-229.99 1039.5,-219.99 1032.5,-219.99"/>
</g>
<!-- AppModule -->
<g id="node5" class="node">
<title>AppModule</title>
<polygon fill="#8dd3c7" stroke="black" points="569.66,-407 566.66,-411 545.66,-411 542.66,-407 486.34,-407 486.34,-371 569.66,-371 569.66,-407"/>
<text text-anchor="middle" x="528" y="-384.8" font-family="Times,serif" font-size="14.00">AppModule</text>
</g>
<!-- AppConfigModule&#45;&gt;AppModule -->
<g id="edge4" class="edge">
<title>AppConfigModule&#45;&gt;AppModule</title>
<path fill="none" stroke="black" d="M844.72,-180C836.33,-180 830.53,-180 830.53,-180 830.53,-180 830.53,-400 830.53,-400 830.53,-400 579.75,-400 579.75,-400"/>
<polygon fill="black" stroke="black" points="579.75,-396.5 569.75,-400 579.75,-403.5 579.75,-396.5"/>
</g>
<!-- AuthModule -->
<g id="node6" class="node">
<title>AuthModule</title>
<polygon fill="#8dd3c7" stroke="black" points="571.55,-342 568.55,-346 547.55,-346 544.55,-342 484.45,-342 484.45,-306 571.55,-306 571.55,-342"/>
<text text-anchor="middle" x="528" y="-319.8" font-family="Times,serif" font-size="14.00">AuthModule</text>
</g>
<!-- AppConfigModule&#45;&gt;AuthModule -->
<g id="edge12" class="edge">
<title>AppConfigModule&#45;&gt;AuthModule</title>
<path fill="none" stroke="black" d="M844.64,-165C743.72,-165 553.75,-165 553.75,-165 553.75,-165 553.75,-295.76 553.75,-295.76"/>
<polygon fill="black" stroke="black" points="550.25,-295.76 553.75,-305.76 557.25,-295.76 550.25,-295.76"/>
</g>
<!-- ImagesModule -->
<g id="node7" class="node">
<title>ImagesModule</title>
<polygon fill="#8dd3c7" stroke="black" points="689.97,-342 686.97,-346 665.97,-346 662.97,-342 590.03,-342 590.03,-306 689.97,-306 689.97,-342"/>
<text text-anchor="middle" x="640" y="-319.8" font-family="Times,serif" font-size="14.00">ImagesModule</text>
</g>
<!-- AppConfigModule&#45;&gt;ImagesModule -->
<g id="edge26" class="edge">
<title>AppConfigModule&#45;&gt;ImagesModule</title>
<path fill="none" stroke="black" d="M844.64,-170C759.27,-170 615.01,-170 615.01,-170 615.01,-170 615.01,-295.73 615.01,-295.73"/>
<polygon fill="black" stroke="black" points="611.51,-295.73 615.01,-305.73 618.51,-295.73 611.51,-295.73"/>
</g>
<!-- UserModule -->
<g id="node10" class="node">
<title>UserModule</title>
<polygon fill="#8dd3c7" stroke="black" points="529.98,-266 526.98,-270 505.98,-270 502.98,-266 444.02,-266 444.02,-230 529.98,-230 529.98,-266"/>
<text text-anchor="middle" x="487" y="-243.8" font-family="Times,serif" font-size="14.00">UserModule</text>
</g>
<!-- AppConfigModule&#45;&gt;UserModule -->
<g id="edge56" class="edge">
<title>AppConfigModule&#45;&gt;UserModule</title>
<path fill="none" stroke="black" d="M844.87,-175C829.5,-175 817.29,-175 817.29,-175 817.29,-175 817.29,-248 817.29,-248 817.29,-248 540.18,-248 540.18,-248"/>
<polygon fill="black" stroke="black" points="540.18,-244.5 530.18,-248 540.18,-251.5 540.18,-244.5"/>
</g>
<!-- AppConfigService -->
<g id="node4" class="node">
<title>AppConfigService</title>
<ellipse fill="#fdb462" stroke="black" cx="1003" cy="-104" rx="83.39" ry="18"/>
<text text-anchor="middle" x="1003" y="-99.8" font-family="Times,serif" font-size="14.00">AppConfigService</text>
</g>
<!-- AppConfigService&#45;&gt;AppConfigModule -->
<g id="edge3" class="edge">
<title>AppConfigService&#45;&gt;AppConfigModule</title>
<path fill="none" stroke="black" d="M943.41,-116.79C943.41,-116.79 943.41,-143.88 943.41,-143.88"/>
<polygon fill="black" stroke="black" points="939.91,-143.88 943.41,-153.88 946.91,-143.88 939.91,-143.88"/>
</g>
<!-- AppConfigService&#45;&gt;AuthModule -->
<g id="edge19" class="edge">
<title>AppConfigService&#45;&gt;AuthModule</title>
<path fill="none" stroke="black" d="M930.41,-95C802.68,-95 551.17,-95 551.17,-95 551.17,-95 551.17,-295.65 551.17,-295.65"/>
<polygon fill="black" stroke="black" points="547.67,-295.65 551.17,-305.65 554.67,-295.65 547.67,-295.65"/>
</g>
<!-- AppConfigService&#45;&gt;ImagesModule -->
<g id="edge29" class="edge">
<title>AppConfigService&#45;&gt;ImagesModule</title>
<path fill="none" stroke="black" d="M919.53,-104C802.16,-104 602.51,-104 602.51,-104 602.51,-104 602.51,-296 602.51,-296"/>
<polygon fill="black" stroke="black" points="599.01,-296 602.51,-306 606.01,-296 599.01,-296"/>
</g>
<!-- RentalModule -->
<g id="node9" class="node">
<title>RentalModule</title>
<polygon fill="#8dd3c7" stroke="black" points="804.1,-342 801.1,-346 780.1,-346 777.1,-342 707.9,-342 707.9,-306 804.1,-306 804.1,-342"/>
<text text-anchor="middle" x="756" y="-319.8" font-family="Times,serif" font-size="14.00">RentalModule</text>
</g>
<!-- AppConfigService&#45;&gt;RentalModule -->
<g id="edge40" class="edge">
<title>AppConfigService&#45;&gt;RentalModule</title>
<path fill="none" stroke="black" d="M930.56,-113C857.68,-113 756,-113 756,-113 756,-113 756,-295.64 756,-295.64"/>
<polygon fill="black" stroke="black" points="752.5,-295.64 756,-305.64 759.5,-295.64 752.5,-295.64"/>
</g>
<!-- AppModule&#45;&gt;AppModule -->
<g id="edge5" class="edge">
<title>AppModule&#45;&gt;AppModule</title>
<path fill="none" stroke="black" d="M541.94,-370.88C541.94,-368.03 541.94,-366 541.94,-366 541.94,-366 583.93,-366 583.93,-366 583.93,-366 583.93,-425 583.93,-425 583.93,-425 528,-425 528,-425 528,-425 528,-417.42 528,-417.42"/>
<polygon fill="black" stroke="black" points="531.5,-417.42 528,-407.42 524.5,-417.42 531.5,-417.42"/>
</g>
<!-- AuthModule&#45;&gt;AppModule -->
<g id="edge6" class="edge">
<title>AuthModule&#45;&gt;AppModule</title>
<path fill="none" stroke="black" d="M514.06,-342.11C514.06,-342.11 514.06,-360.99 514.06,-360.99"/>
<polygon fill="black" stroke="black" points="510.56,-360.99 514.06,-370.99 517.56,-360.99 510.56,-360.99"/>
</g>
<!-- AuthService  -->
<g id="node12" class="node">
<title>AuthService </title>
<polygon fill="#fb8072" stroke="black" points="2217.98,-266 2128.02,-266 2128.02,-230 2217.98,-230 2217.98,-266"/>
<text text-anchor="middle" x="2173" y="-243.8" font-family="Times,serif" font-size="14.00">AuthService </text>
</g>
<!-- AuthModule&#45;&gt;AuthService  -->
<g id="edge15" class="edge">
<title>AuthModule&#45;&gt;AuthService </title>
<path fill="none" stroke="black" stroke-dasharray="5,2" d="M538.29,-305.58C538.29,-296.72 538.29,-288 538.29,-288 538.29,-288 2173,-288 2173,-288 2173,-288 2173,-276.13 2173,-276.13"/>
<polygon fill="black" stroke="black" points="2176.5,-276.13 2173,-266.13 2169.5,-276.13 2176.5,-276.13"/>
</g>
<!-- ExtractKeyValueUtil  -->
<g id="node13" class="node">
<title>ExtractKeyValueUtil </title>
<polygon fill="#fb8072" stroke="black" points="2686.45,-266 2547.55,-266 2547.55,-230 2686.45,-230 2686.45,-266"/>
<text text-anchor="middle" x="2617" y="-243.8" font-family="Times,serif" font-size="14.00">ExtractKeyValueUtil </text>
</g>
<!-- AuthModule&#45;&gt;ExtractKeyValueUtil  -->
<g id="edge16" class="edge">
<title>AuthModule&#45;&gt;ExtractKeyValueUtil </title>
<path fill="none" stroke="black" stroke-dasharray="5,2" d="M546.02,-305.86C546.02,-299.54 546.02,-294 546.02,-294 546.02,-294 2617,-294 2617,-294 2617,-294 2617,-276.18 2617,-276.18"/>
<polygon fill="black" stroke="black" points="2620.5,-276.18 2617,-266.18 2613.5,-276.18 2620.5,-276.18"/>
</g>
<!-- LoggedOutGuard  -->
<g id="node14" class="node">
<title>LoggedOutGuard </title>
<polygon fill="#fb8072" stroke="black" points="2530.25,-266 2411.75,-266 2411.75,-230 2530.25,-230 2530.25,-266"/>
<text text-anchor="middle" x="2471" y="-243.8" font-family="Times,serif" font-size="14.00">LoggedOutGuard </text>
</g>
<!-- AuthModule&#45;&gt;LoggedOutGuard  -->
<g id="edge17" class="edge">
<title>AuthModule&#45;&gt;LoggedOutGuard </title>
<path fill="none" stroke="black" stroke-dasharray="5,2" d="M543.44,-305.76C543.44,-298.57 543.44,-292 543.44,-292 543.44,-292 2471,-292 2471,-292 2471,-292 2471,-276.15 2471,-276.15"/>
<polygon fill="black" stroke="black" points="2474.5,-276.15 2471,-266.15 2467.5,-276.15 2474.5,-276.15"/>
</g>
<!-- VerifyNewPasswordUtil  -->
<g id="node15" class="node">
<title>VerifyNewPasswordUtil </title>
<polygon fill="#fb8072" stroke="black" points="2393.89,-266 2236.11,-266 2236.11,-230 2393.89,-230 2393.89,-266"/>
<text text-anchor="middle" x="2315" y="-243.8" font-family="Times,serif" font-size="14.00">VerifyNewPasswordUtil </text>
</g>
<!-- AuthModule&#45;&gt;VerifyNewPasswordUtil  -->
<g id="edge18" class="edge">
<title>AuthModule&#45;&gt;VerifyNewPasswordUtil </title>
<path fill="none" stroke="black" stroke-dasharray="5,2" d="M540.87,-305.81C540.87,-297.72 540.87,-290 540.87,-290 540.87,-290 2315,-290 2315,-290 2315,-290 2315,-276.06 2315,-276.06"/>
<polygon fill="black" stroke="black" points="2318.5,-276.06 2315,-266.06 2311.5,-276.06 2318.5,-276.06"/>
</g>
<!-- ImagesModule&#45;&gt;AppModule -->
<g id="edge7" class="edge">
<title>ImagesModule&#45;&gt;AppModule</title>
<path fill="none" stroke="black" d="M669.99,-342.27C669.99,-360.56 669.99,-386 669.99,-386 669.99,-386 579.83,-386 579.83,-386"/>
<polygon fill="black" stroke="black" points="579.83,-382.5 569.83,-386 579.83,-389.5 579.83,-382.5"/>
</g>
<!-- ImagesService  -->
<g id="node23" class="node">
<title>ImagesService </title>
<polygon fill="#fb8072" stroke="black" points="3922.9,-266 3821.1,-266 3821.1,-230 3922.9,-230 3922.9,-266"/>
<text text-anchor="middle" x="3872" y="-243.8" font-family="Times,serif" font-size="14.00">ImagesService </text>
</g>
<!-- ImagesModule&#45;&gt;ImagesService  -->
<g id="edge28" class="edge">
<title>ImagesModule&#45;&gt;ImagesService </title>
<path fill="none" stroke="black" stroke-dasharray="5,2" d="M630,-342.14C630,-348.46 630,-354 630,-354 630,-354 3872,-354 3872,-354 3872,-354 3872,-276.46 3872,-276.46"/>
<polygon fill="black" stroke="black" points="3875.5,-276.46 3872,-266.46 3868.5,-276.46 3875.5,-276.46"/>
</g>
<!-- RedisModule -->
<g id="node8" class="node">
<title>RedisModule</title>
<polygon fill="#8dd3c7" stroke="black" points="535.94,-190 532.94,-194 511.94,-194 508.94,-190 444.06,-190 444.06,-154 535.94,-154 535.94,-190"/>
<text text-anchor="middle" x="490" y="-167.8" font-family="Times,serif" font-size="14.00">RedisModule</text>
</g>
<!-- RedisModule&#45;&gt;AppModule -->
<g id="edge8" class="edge">
<title>RedisModule&#45;&gt;AppModule</title>
<path fill="none" stroke="black" d="M535.73,-185C557.07,-185 577.85,-185 577.85,-185 577.85,-185 577.85,-379 577.85,-379 577.85,-379 577.07,-379 577.07,-379"/>
<polygon fill="black" stroke="black" points="580.06,-375.5 570.06,-379 580.06,-382.5 580.06,-375.5"/>
</g>
<!-- RedisModule&#45;&gt;AuthModule -->
<g id="edge13" class="edge">
<title>RedisModule&#45;&gt;AuthModule</title>
<path fill="none" stroke="black" d="M535.88,-160C543.29,-160 548.6,-160 548.6,-160 548.6,-160 548.6,-295.82 548.6,-295.82"/>
<polygon fill="black" stroke="black" points="545.1,-295.82 548.6,-305.82 552.1,-295.82 545.1,-295.82"/>
</g>
<!-- RedisModule&#45;&gt;UserModule -->
<g id="edge58" class="edge">
<title>RedisModule&#45;&gt;UserModule</title>
<path fill="none" stroke="black" d="M501.42,-190.01C501.42,-190.01 501.42,-219.85 501.42,-219.85"/>
<polygon fill="black" stroke="black" points="497.92,-219.85 501.42,-229.85 504.92,-219.85 497.92,-219.85"/>
</g>
<!-- RedisService  -->
<g id="node30" class="node">
<title>RedisService </title>
<polygon fill="#fb8072" stroke="black" points="265.86,-190 172.14,-190 172.14,-154 265.86,-154 265.86,-190"/>
<text text-anchor="middle" x="219" y="-167.8" font-family="Times,serif" font-size="14.00">RedisService </text>
</g>
<!-- RedisModule&#45;&gt;RedisService  -->
<g id="edge36" class="edge">
<title>RedisModule&#45;&gt;RedisService </title>
<path fill="none" stroke="black" stroke-dasharray="5,2" d="M444.03,-172C444.03,-172 276.11,-172 276.11,-172"/>
<polygon fill="black" stroke="black" points="276.11,-168.5 266.11,-172 276.11,-175.5 276.11,-168.5"/>
</g>
<!-- RentalModule&#45;&gt;AppModule -->
<g id="edge9" class="edge">
<title>RentalModule&#45;&gt;AppModule</title>
<path fill="none" stroke="black" d="M756,-342.13C756,-362.57 756,-393 756,-393 756,-393 579.82,-393 579.82,-393"/>
<polygon fill="black" stroke="black" points="579.82,-389.5 569.82,-393 579.82,-396.5 579.82,-389.5"/>
</g>
<!-- RentalService  -->
<g id="node32" class="node">
<title>RentalService </title>
<polygon fill="#fb8072" stroke="black" points="7365.02,-266 7266.98,-266 7266.98,-230 7365.02,-230 7365.02,-266"/>
<text text-anchor="middle" x="7316" y="-243.8" font-family="Times,serif" font-size="14.00">RentalService </text>
</g>
<!-- RentalModule&#45;&gt;RentalService  -->
<g id="edge39" class="edge">
<title>RentalModule&#45;&gt;RentalService </title>
<path fill="none" stroke="black" stroke-dasharray="5,2" d="M804.11,-340C1399.25,-340 7316,-340 7316,-340 7316,-340 7316,-276.18 7316,-276.18"/>
<polygon fill="black" stroke="black" points="7319.5,-276.18 7316,-266.18 7312.5,-276.18 7319.5,-276.18"/>
</g>
<!-- UserModule&#45;&gt;AppModule -->
<g id="edge10" class="edge">
<title>UserModule&#45;&gt;AppModule</title>
<path fill="none" stroke="black" d="M464.12,-266.21C464.12,-303.06 464.12,-383 464.12,-383 464.12,-383 476.1,-383 476.1,-383"/>
<polygon fill="black" stroke="black" points="476.1,-386.5 486.1,-383 476.1,-379.5 476.1,-386.5"/>
</g>
<!-- UserModule&#45;&gt;AuthModule -->
<g id="edge14" class="edge">
<title>UserModule&#45;&gt;AuthModule</title>
<path fill="none" stroke="black" d="M493.38,-266.01C493.38,-266.01 493.38,-295.85 493.38,-295.85"/>
<polygon fill="black" stroke="black" points="489.88,-295.85 493.38,-305.85 496.88,-295.85 489.88,-295.85"/>
</g>
<!-- UserService  -->
<g id="node48" class="node">
<title>UserService </title>
<polygon fill="#fb8072" stroke="black" points="265.9,-342 178.1,-342 178.1,-306 265.9,-306 265.9,-342"/>
<text text-anchor="middle" x="222" y="-319.8" font-family="Times,serif" font-size="14.00">UserService </text>
</g>
<!-- UserModule&#45;&gt;UserService  -->
<g id="edge59" class="edge">
<title>UserModule&#45;&gt;UserService </title>
<path fill="none" stroke="black" stroke-dasharray="5,2" d="M443.81,-257C368.68,-257 221.87,-257 221.87,-257 221.87,-257 221.87,-295.69 221.87,-295.69"/>
<polygon fill="black" stroke="black" points="218.37,-295.69 221.87,-305.69 225.37,-295.69 218.37,-295.69"/>
</g>
<!-- AppService -->
<g id="node11" class="node">
<title>AppService</title>
<ellipse fill="#fdb462" stroke="black" cx="363" cy="-324" rx="56.74" ry="18"/>
<text text-anchor="middle" x="363" y="-319.8" font-family="Times,serif" font-size="14.00">AppService</text>
</g>
<!-- AppService&#45;&gt;AppModule -->
<g id="edge11" class="edge">
<title>AppService&#45;&gt;AppModule</title>
<path fill="none" stroke="black" d="M363,-342.28C363,-363.32 363,-395 363,-395 363,-395 475.94,-395 475.94,-395"/>
<polygon fill="black" stroke="black" points="475.94,-398.5 485.94,-395 475.94,-391.5 475.94,-398.5"/>
</g>
<!-- AuthService -->
<g id="node16" class="node">
<title>AuthService</title>
<ellipse fill="#fdb462" stroke="black" cx="1533" cy="-248" rx="59.11" ry="18"/>
<text text-anchor="middle" x="1533" y="-243.8" font-family="Times,serif" font-size="14.00">AuthService</text>
</g>
<!-- AuthService&#45;&gt;AuthModule -->
<g id="edge20" class="edge">
<title>AuthService&#45;&gt;AuthModule</title>
<path fill="none" stroke="black" d="M1533,-266.03C1533,-272.85 1533,-279 1533,-279 1533,-279 561.47,-279 561.47,-279 561.47,-279 561.47,-295.96 561.47,-295.96"/>
<polygon fill="black" stroke="black" points="557.97,-295.96 561.47,-305.96 564.97,-295.96 557.97,-295.96"/>
</g>
<!-- EmailService -->
<g id="node17" class="node">
<title>EmailService</title>
<ellipse fill="#fdb462" stroke="black" cx="1393" cy="-248" rx="63.12" ry="18"/>
<text text-anchor="middle" x="1393" y="-243.8" font-family="Times,serif" font-size="14.00">EmailService</text>
</g>
<!-- EmailService&#45;&gt;AuthModule -->
<g id="edge21" class="edge">
<title>EmailService&#45;&gt;AuthModule</title>
<path fill="none" stroke="black" d="M1393,-266.2C1393,-272.03 1393,-277 1393,-277 1393,-277 558.9,-277 558.9,-277 558.9,-277 558.9,-295.96 558.9,-295.96"/>
<polygon fill="black" stroke="black" points="555.4,-295.96 558.9,-305.96 562.4,-295.96 555.4,-295.96"/>
</g>
<!-- ExtractKeyValueUtil -->
<g id="node18" class="node">
<title>ExtractKeyValueUtil</title>
<ellipse fill="#fdb462" stroke="black" cx="1219" cy="-248" rx="93.17" ry="18"/>
<text text-anchor="middle" x="1219" y="-243.8" font-family="Times,serif" font-size="14.00">ExtractKeyValueUtil</text>
</g>
<!-- ExtractKeyValueUtil&#45;&gt;AuthModule -->
<g id="edge22" class="edge">
<title>ExtractKeyValueUtil&#45;&gt;AuthModule</title>
<path fill="none" stroke="black" d="M1250.03,-265.25C1250.03,-270.54 1250.03,-275 1250.03,-275 1250.03,-275 556.32,-275 556.32,-275 556.32,-275 556.32,-295.75 556.32,-295.75"/>
<polygon fill="black" stroke="black" points="552.82,-295.75 556.32,-305.75 559.82,-295.75 552.82,-295.75"/>
</g>
<!-- ExtractKeyValueUtil&#45;&gt;UserModule -->
<g id="edge60" class="edge">
<title>ExtractKeyValueUtil&#45;&gt;UserModule</title>
<path fill="none" stroke="black" d="M1187.97,-265.34C1187.97,-267.52 1187.97,-269 1187.97,-269 1187.97,-269 520.84,-269 520.84,-269 520.84,-269 520.84,-268.71 520.84,-268.71"/>
<polygon fill="black" stroke="black" points="524.34,-276.08 520.84,-266.08 517.34,-276.08 524.34,-276.08"/>
</g>
<!-- JwtStrategy -->
<g id="node19" class="node">
<title>JwtStrategy</title>
<ellipse fill="#fdb462" stroke="black" cx="2047" cy="-248" rx="56.76" ry="18"/>
<text text-anchor="middle" x="2047" y="-243.8" font-family="Times,serif" font-size="14.00">JwtStrategy</text>
</g>
<!-- JwtStrategy&#45;&gt;AuthModule -->
<g id="edge23" class="edge">
<title>JwtStrategy&#45;&gt;AuthModule</title>
<path fill="none" stroke="black" d="M2047,-266.07C2047,-275.46 2047,-285 2047,-285 2047,-285 569.2,-285 569.2,-285 569.2,-285 569.2,-295.87 569.2,-295.87"/>
<polygon fill="black" stroke="black" points="565.7,-295.87 569.2,-305.87 572.7,-295.87 565.7,-295.87"/>
</g>
<!-- LocalStrategy -->
<g id="node20" class="node">
<title>LocalStrategy</title>
<ellipse fill="#fdb462" stroke="black" cx="1907" cy="-248" rx="65.41" ry="18"/>
<text text-anchor="middle" x="1907" y="-243.8" font-family="Times,serif" font-size="14.00">LocalStrategy</text>
</g>
<!-- LocalStrategy&#45;&gt;AuthModule -->
<g id="edge24" class="edge">
<title>LocalStrategy&#45;&gt;AuthModule</title>
<path fill="none" stroke="black" d="M1907,-266.32C1907,-274.79 1907,-283 1907,-283 1907,-283 566.62,-283 566.62,-283 566.62,-283 566.62,-295.9 566.62,-295.9"/>
<polygon fill="black" stroke="black" points="563.12,-295.9 566.62,-305.9 570.12,-295.9 563.12,-295.9"/>
</g>
<!-- VerifyNewPasswordUtil -->
<g id="node21" class="node">
<title>VerifyNewPasswordUtil</title>
<ellipse fill="#fdb462" stroke="black" cx="1717" cy="-248" rx="106.49" ry="18"/>
<text text-anchor="middle" x="1717" y="-243.8" font-family="Times,serif" font-size="14.00">VerifyNewPasswordUtil</text>
</g>
<!-- VerifyNewPasswordUtil&#45;&gt;AuthModule -->
<g id="edge25" class="edge">
<title>VerifyNewPasswordUtil&#45;&gt;AuthModule</title>
<path fill="none" stroke="black" d="M1752.5,-265.27C1752.5,-273.26 1752.5,-281 1752.5,-281 1752.5,-281 564.05,-281 564.05,-281 564.05,-281 564.05,-295.51 564.05,-295.51"/>
<polygon fill="black" stroke="black" points="560.55,-295.51 564.05,-305.51 567.55,-295.51 560.55,-295.51"/>
</g>
<!-- VerifyNewPasswordUtil&#45;&gt;UserModule -->
<g id="edge63" class="edge">
<title>VerifyNewPasswordUtil&#45;&gt;UserModule</title>
<path fill="none" stroke="black" d="M1681.5,-265.2C1681.5,-268.52 1681.5,-271 1681.5,-271 1681.5,-271 511.68,-271 511.68,-271 511.68,-271 511.68,-270.51 511.68,-270.51"/>
<polygon fill="black" stroke="black" points="515.18,-276.12 511.68,-266.12 508.18,-276.12 515.18,-276.12"/>
</g>
<!-- DatabaseModule -->
<g id="node22" class="node">
<title>DatabaseModule</title>
<polygon fill="#8dd3c7" stroke="black" points="4057.35,-266 4054.35,-270 4033.35,-270 4030.35,-266 3946.65,-266 3946.65,-230 4057.35,-230 4057.35,-266"/>
<text text-anchor="middle" x="4002" y="-243.8" font-family="Times,serif" font-size="14.00">DatabaseModule</text>
</g>
<!-- DatabaseModule&#45;&gt;ImagesModule -->
<g id="edge27" class="edge">
<title>DatabaseModule&#45;&gt;ImagesModule</title>
<path fill="none" stroke="black" d="M4029.71,-266.49C4029.71,-298.31 4029.71,-360 4029.71,-360 4029.71,-360 610.01,-360 610.01,-360 610.01,-360 610.01,-352.42 610.01,-352.42"/>
<polygon fill="black" stroke="black" points="613.51,-352.42 610.01,-342.42 606.51,-352.42 613.51,-352.42"/>
</g>
<!-- DatabaseModule&#45;&gt;RentalModule -->
<g id="edge38" class="edge">
<title>DatabaseModule&#45;&gt;RentalModule</title>
<path fill="none" stroke="black" d="M4002,-266C4002,-283.68 4002,-308 4002,-308 4002,-308 814.09,-308 814.09,-308"/>
<polygon fill="black" stroke="black" points="814.09,-304.5 804.09,-308 814.09,-311.5 814.09,-304.5"/>
</g>
<!-- DatabaseModule&#45;&gt;UserModule -->
<g id="edge57" class="edge">
<title>DatabaseModule&#45;&gt;UserModule</title>
<path fill="none" stroke="black" d="M3974.29,-266.17C3974.29,-270.05 3974.29,-273 3974.29,-273 3974.29,-273 502.53,-273 502.53,-273 502.53,-273 502.53,-272.32 502.53,-272.32"/>
<polygon fill="black" stroke="black" points="506.03,-276.17 502.53,-266.17 499.03,-276.17 506.03,-276.17"/>
</g>
<!-- CreateMulterUploadUtil -->
<g id="node24" class="node">
<title>CreateMulterUploadUtil</title>
<ellipse fill="#fdb462" stroke="black" cx="3182" cy="-248" rx="105.93" ry="18"/>
<text text-anchor="middle" x="3182" y="-243.8" font-family="Times,serif" font-size="14.00">CreateMulterUploadUtil</text>
</g>
<!-- CreateMulterUploadUtil&#45;&gt;ImagesModule -->
<g id="edge30" class="edge">
<title>CreateMulterUploadUtil&#45;&gt;ImagesModule</title>
<path fill="none" stroke="black" d="M3182,-266.19C3182,-281.18 3182,-300 3182,-300 3182,-300 652.5,-300 652.5,-300 652.5,-300 652.5,-300.58 652.5,-300.58"/>
<polygon fill="black" stroke="black" points="649,-295.81 652.5,-305.81 656,-295.81 649,-295.81"/>
</g>
<!-- DeleteS3ImagesUtil -->
<g id="node25" class="node">
<title>DeleteS3ImagesUtil</title>
<ellipse fill="#fdb462" stroke="black" cx="2969" cy="-248" rx="89.18" ry="18"/>
<text text-anchor="middle" x="2969" y="-243.8" font-family="Times,serif" font-size="14.00">DeleteS3ImagesUtil</text>
</g>
<!-- DeleteS3ImagesUtil&#45;&gt;ImagesModule -->
<g id="edge31" class="edge">
<title>DeleteS3ImagesUtil&#45;&gt;ImagesModule</title>
<path fill="none" stroke="black" d="M2969,-266.05C2969,-280.37 2969,-298 2969,-298 2969,-298 640,-298 640,-298 640,-298 640,-298.79 640,-298.79"/>
<polygon fill="black" stroke="black" points="636.5,-295.94 640,-305.94 643.5,-295.94 636.5,-295.94"/>
</g>
<!-- ImagesService -->
<g id="node26" class="node">
<title>ImagesService</title>
<ellipse fill="#fdb462" stroke="black" cx="2794" cy="-248" rx="67.75" ry="18"/>
<text text-anchor="middle" x="2794" y="-243.8" font-family="Times,serif" font-size="14.00">ImagesService</text>
</g>
<!-- ImagesService&#45;&gt;ImagesModule -->
<g id="edge32" class="edge">
<title>ImagesService&#45;&gt;ImagesModule</title>
<path fill="none" stroke="black" d="M2794,-266.15C2794,-279.74 2794,-296 2794,-296 2794,-296 627.5,-296 627.5,-296 627.5,-296 627.5,-296.98 627.5,-296.98"/>
<polygon fill="black" stroke="black" points="624,-295.79 627.5,-305.79 631,-295.79 624,-295.79"/>
</g>
<!-- MulterUploadUtil -->
<g id="node27" class="node">
<title>MulterUploadUtil</title>
<ellipse fill="#fdb462" stroke="black" cx="3716" cy="-248" rx="80.54" ry="18"/>
<text text-anchor="middle" x="3716" y="-243.8" font-family="Times,serif" font-size="14.00">MulterUploadUtil</text>
</g>
<!-- MulterUploadUtil&#45;&gt;ImagesModule -->
<g id="edge33" class="edge">
<title>MulterUploadUtil&#45;&gt;ImagesModule</title>
<path fill="none" stroke="black" d="M3716,-266.34C3716,-295.21 3716,-348 3716,-348 3716,-348 650,-348 650,-348 650,-348 650,-347.42 650,-347.42"/>
<polygon fill="black" stroke="black" points="653.5,-352.19 650,-342.19 646.5,-352.19 653.5,-352.19"/>
</g>
<!-- ProcessSaveDataUtil -->
<g id="node28" class="node">
<title>ProcessSaveDataUtil</title>
<ellipse fill="#fdb462" stroke="black" cx="3525" cy="-248" rx="92.61" ry="18"/>
<text text-anchor="middle" x="3525" y="-243.8" font-family="Times,serif" font-size="14.00">ProcessSaveDataUtil</text>
</g>
<!-- ProcessSaveDataUtil&#45;&gt;ImagesModule -->
<g id="edge34" class="edge">
<title>ProcessSaveDataUtil&#45;&gt;ImagesModule</title>
<path fill="none" stroke="black" d="M3525,-266.03C3525,-282.4 3525,-304 3525,-304 3525,-304 677.49,-304 677.49,-304 677.49,-304 677.49,-304.18 677.49,-304.18"/>
<polygon fill="black" stroke="black" points="673.99,-295.85 677.49,-305.85 680.99,-295.85 673.99,-295.85"/>
</g>
<!-- S3Provider -->
<g id="node29" class="node">
<title>S3Provider</title>
<ellipse fill="#fdb462" stroke="black" cx="3360" cy="-248" rx="54.47" ry="18"/>
<text text-anchor="middle" x="3360" y="-243.8" font-family="Times,serif" font-size="14.00">S3Provider</text>
</g>
<!-- S3Provider&#45;&gt;ImagesModule -->
<g id="edge35" class="edge">
<title>S3Provider&#45;&gt;ImagesModule</title>
<path fill="none" stroke="black" d="M3360,-266.28C3360,-281.95 3360,-302 3360,-302 3360,-302 664.99,-302 664.99,-302 664.99,-302 664.99,-302.38 664.99,-302.38"/>
<polygon fill="black" stroke="black" points="661.49,-295.83 664.99,-305.83 668.49,-295.83 661.49,-295.83"/>
</g>
<!-- RedisService -->
<g id="node31" class="node">
<title>RedisService</title>
<ellipse fill="#fdb462" stroke="black" cx="86" cy="-172" rx="61.97" ry="18"/>
<text text-anchor="middle" x="86" y="-167.8" font-family="Times,serif" font-size="14.00">RedisService</text>
</g>
<!-- RedisService&#45;&gt;RedisModule -->
<g id="edge37" class="edge">
<title>RedisService&#45;&gt;RedisModule</title>
<path fill="none" stroke="black" d="M92.88,-190.11C92.88,-199.9 92.88,-210 92.88,-210 92.88,-210 472.85,-210 472.85,-210 472.85,-210 472.85,-200.11 472.85,-200.11"/>
<polygon fill="black" stroke="black" points="476.35,-200.11 472.85,-190.11 469.35,-200.11 476.35,-200.11"/>
</g>
<!-- RedisService&#45;&gt;UserModule -->
<g id="edge61" class="edge">
<title>RedisService&#45;&gt;UserModule</title>
<path fill="none" stroke="black" d="M65.33,-189.25C65.33,-209.11 65.33,-239 65.33,-239 65.33,-239 433.86,-239 433.86,-239"/>
<polygon fill="black" stroke="black" points="433.86,-242.5 443.86,-239 433.86,-235.5 433.86,-242.5"/>
</g>
<!-- CreateUpdaterDtoPipe -->
<g id="node33" class="node">
<title>CreateUpdaterDtoPipe</title>
<ellipse fill="#fdb462" stroke="black" cx="7144" cy="-248" rx="98.97" ry="18"/>
<text text-anchor="middle" x="7144" y="-243.8" font-family="Times,serif" font-size="14.00">CreateUpdaterDtoPipe</text>
</g>
<!-- CreateUpdaterDtoPipe&#45;&gt;RentalModule -->
<g id="edge41" class="edge">
<title>CreateUpdaterDtoPipe&#45;&gt;RentalModule</title>
<path fill="none" stroke="black" d="M7144,-266.21C7144,-292.51 7144,-338 7144,-338 7144,-338 814.2,-338 814.2,-338"/>
<polygon fill="black" stroke="black" points="814.2,-334.5 804.2,-338 814.2,-341.5 814.2,-334.5"/>
</g>
<!-- GenerateRentalDurationEnumUtil -->
<g id="node34" class="node">
<title>GenerateRentalDurationEnumUtil</title>
<ellipse fill="#fdb462" stroke="black" cx="6884" cy="-248" rx="143.52" ry="18"/>
<text text-anchor="middle" x="6884" y="-243.8" font-family="Times,serif" font-size="14.00">GenerateRentalDurationEnumUtil</text>
</g>
<!-- GenerateRentalDurationEnumUtil&#45;&gt;RentalModule -->
<g id="edge42" class="edge">
<title>GenerateRentalDurationEnumUtil&#45;&gt;RentalModule</title>
<path fill="none" stroke="black" d="M6884,-266.23C6884,-292.01 6884,-336 6884,-336 6884,-336 814.43,-336 814.43,-336"/>
<polygon fill="black" stroke="black" points="814.43,-332.5 804.43,-336 814.43,-339.5 814.43,-332.5"/>
</g>
<!-- GeoUrlApiPipe -->
<g id="node35" class="node">
<title>GeoUrlApiPipe</title>
<ellipse fill="#fdb462" stroke="black" cx="6651" cy="-248" rx="71.79" ry="18"/>
<text text-anchor="middle" x="6651" y="-243.8" font-family="Times,serif" font-size="14.00">GeoUrlApiPipe</text>
</g>
<!-- GeoUrlApiPipe&#45;&gt;RentalModule -->
<g id="edge43" class="edge">
<title>GeoUrlApiPipe&#45;&gt;RentalModule</title>
<path fill="none" stroke="black" d="M6651,-266.24C6651,-291.48 6651,-334 6651,-334 6651,-334 814.32,-334 814.32,-334"/>
<polygon fill="black" stroke="black" points="814.32,-330.5 804.32,-334 814.32,-337.5 814.32,-330.5"/>
</g>
<!-- GeoUrlApiUtil -->
<g id="node36" class="node">
<title>GeoUrlApiUtil</title>
<ellipse fill="#fdb462" stroke="black" cx="6492" cy="-248" rx="69.5" ry="18"/>
<text text-anchor="middle" x="6492" y="-243.8" font-family="Times,serif" font-size="14.00">GeoUrlApiUtil</text>
</g>
<!-- GeoUrlApiUtil&#45;&gt;RentalModule -->
<g id="edge44" class="edge">
<title>GeoUrlApiUtil&#45;&gt;RentalModule</title>
<path fill="none" stroke="black" d="M6492,-266.23C6492,-290.93 6492,-332 6492,-332 6492,-332 814.29,-332 814.29,-332"/>
<polygon fill="black" stroke="black" points="814.29,-328.5 804.29,-332 814.29,-335.5 814.29,-328.5"/>
</g>
<!-- GivenNoticePipe -->
<g id="node37" class="node">
<title>GivenNoticePipe</title>
<ellipse fill="#fdb462" stroke="black" cx="6327" cy="-248" rx="77.59" ry="18"/>
<text text-anchor="middle" x="6327" y="-243.8" font-family="Times,serif" font-size="14.00">GivenNoticePipe</text>
</g>
<!-- GivenNoticePipe&#45;&gt;RentalModule -->
<g id="edge45" class="edge">
<title>GivenNoticePipe&#45;&gt;RentalModule</title>
<path fill="none" stroke="black" d="M6327,-266.2C6327,-290.36 6327,-330 6327,-330 6327,-330 814.16,-330 814.16,-330"/>
<polygon fill="black" stroke="black" points="814.16,-326.5 804.16,-330 814.16,-333.5 814.16,-326.5"/>
</g>
<!-- MapNewRentalPipe -->
<g id="node38" class="node">
<title>MapNewRentalPipe</title>
<ellipse fill="#fdb462" stroke="black" cx="6142" cy="-248" rx="89.18" ry="18"/>
<text text-anchor="middle" x="6142" y="-243.8" font-family="Times,serif" font-size="14.00">MapNewRentalPipe</text>
</g>
<!-- MapNewRentalPipe&#45;&gt;RentalModule -->
<g id="edge46" class="edge">
<title>MapNewRentalPipe&#45;&gt;RentalModule</title>
<path fill="none" stroke="black" d="M6142,-266.15C6142,-289.76 6142,-328 6142,-328 6142,-328 814.21,-328 814.21,-328"/>
<polygon fill="black" stroke="black" points="814.21,-324.5 804.21,-328 814.21,-331.5 814.21,-324.5"/>
</g>
<!-- PricingPipe -->
<g id="node39" class="node">
<title>PricingPipe</title>
<ellipse fill="#fdb462" stroke="black" cx="5979" cy="-248" rx="56.2" ry="18"/>
<text text-anchor="middle" x="5979" y="-243.8" font-family="Times,serif" font-size="14.00">PricingPipe</text>
</g>
<!-- PricingPipe&#45;&gt;RentalModule -->
<g id="edge47" class="edge">
<title>PricingPipe&#45;&gt;RentalModule</title>
<path fill="none" stroke="black" d="M5979,-266.09C5979,-289.13 5979,-326 5979,-326 5979,-326 814.37,-326 814.37,-326"/>
<polygon fill="black" stroke="black" points="814.37,-322.5 804.37,-326 814.37,-329.5 814.37,-322.5"/>
</g>
<!-- ProcessUnavailabilityPipe -->
<g id="node40" class="node">
<title>ProcessUnavailabilityPipe</title>
<ellipse fill="#fdb462" stroke="black" cx="5792" cy="-248" rx="112.89" ry="18"/>
<text text-anchor="middle" x="5792" y="-243.8" font-family="Times,serif" font-size="14.00">ProcessUnavailabilityPipe</text>
</g>
<!-- ProcessUnavailabilityPipe&#45;&gt;RentalModule -->
<g id="edge48" class="edge">
<title>ProcessUnavailabilityPipe&#45;&gt;RentalModule</title>
<path fill="none" stroke="black" d="M5792,-266.01C5792,-288.49 5792,-324 5792,-324 5792,-324 814.23,-324 814.23,-324"/>
<polygon fill="black" stroke="black" points="814.23,-320.5 804.23,-324 814.23,-327.5 814.23,-320.5"/>
</g>
<!-- RentalDurationPipe -->
<g id="node41" class="node">
<title>RentalDurationPipe</title>
<ellipse fill="#fdb462" stroke="black" cx="5573" cy="-248" rx="87.98" ry="18"/>
<text text-anchor="middle" x="5573" y="-243.8" font-family="Times,serif" font-size="14.00">RentalDurationPipe</text>
</g>
<!-- RentalDurationPipe&#45;&gt;RentalModule -->
<g id="edge49" class="edge">
<title>RentalDurationPipe&#45;&gt;RentalModule</title>
<path fill="none" stroke="black" d="M5573,-266.29C5573,-288.21 5573,-322 5573,-322 5573,-322 814.07,-322 814.07,-322"/>
<polygon fill="black" stroke="black" points="814.07,-318.5 804.07,-322 814.07,-325.5 814.07,-318.5"/>
</g>
<!-- RentalService -->
<g id="node42" class="node">
<title>RentalService</title>
<ellipse fill="#fdb462" stroke="black" cx="5402" cy="-248" rx="65.4" ry="18"/>
<text text-anchor="middle" x="5402" y="-243.8" font-family="Times,serif" font-size="14.00">RentalService</text>
</g>
<!-- RentalService&#45;&gt;RentalModule -->
<g id="edge50" class="edge">
<title>RentalService&#45;&gt;RentalModule</title>
<path fill="none" stroke="black" d="M5402,-266.17C5402,-287.5 5402,-320 5402,-320 5402,-320 814.26,-320 814.26,-320"/>
<polygon fill="black" stroke="black" points="814.26,-316.5 804.26,-320 814.26,-323.5 814.26,-316.5"/>
</g>
<!-- RequestCoordinatesPipe -->
<g id="node43" class="node">
<title>RequestCoordinatesPipe</title>
<ellipse fill="#fdb462" stroke="black" cx="5213" cy="-248" rx="105.96" ry="18"/>
<text text-anchor="middle" x="5213" y="-243.8" font-family="Times,serif" font-size="14.00">RequestCoordinatesPipe</text>
</g>
<!-- RequestCoordinatesPipe&#45;&gt;RentalModule -->
<g id="edge51" class="edge">
<title>RequestCoordinatesPipe&#45;&gt;RentalModule</title>
<path fill="none" stroke="black" d="M5213,-266.03C5213,-286.77 5213,-318 5213,-318 5213,-318 814.16,-318 814.16,-318"/>
<polygon fill="black" stroke="black" points="814.16,-314.5 804.16,-318 814.16,-321.5 814.16,-314.5"/>
</g>
<!-- SortUnavailabilityPipe -->
<g id="node44" class="node">
<title>SortUnavailabilityPipe</title>
<ellipse fill="#fdb462" stroke="black" cx="4989" cy="-248" rx="99.59" ry="18"/>
<text text-anchor="middle" x="4989" y="-243.8" font-family="Times,serif" font-size="14.00">SortUnavailabilityPipe</text>
</g>
<!-- SortUnavailabilityPipe&#45;&gt;RentalModule -->
<g id="edge52" class="edge">
<title>SortUnavailabilityPipe&#45;&gt;RentalModule</title>
<path fill="none" stroke="black" d="M4989,-266.22C4989,-286.37 4989,-316 4989,-316 4989,-316 814.27,-316 814.27,-316"/>
<polygon fill="black" stroke="black" points="814.27,-312.5 804.27,-316 814.27,-319.5 814.27,-312.5"/>
</g>
<!-- ValidateEditDetailsPipe -->
<g id="node45" class="node">
<title>ValidateEditDetailsPipe</title>
<ellipse fill="#fdb462" stroke="black" cx="4767" cy="-248" rx="104.22" ry="18"/>
<text text-anchor="middle" x="4767" y="-243.8" font-family="Times,serif" font-size="14.00">ValidateEditDetailsPipe</text>
</g>
<!-- ValidateEditDetailsPipe&#45;&gt;RentalModule -->
<g id="edge53" class="edge">
<title>ValidateEditDetailsPipe&#45;&gt;RentalModule</title>
<path fill="none" stroke="black" d="M4767,-266.03C4767,-285.58 4767,-314 4767,-314 4767,-314 814.19,-314 814.19,-314"/>
<polygon fill="black" stroke="black" points="814.19,-310.5 804.19,-314 814.19,-317.5 814.19,-310.5"/>
</g>
<!-- ValidateRemoveUnavailabilityPipe -->
<g id="node46" class="node">
<title>ValidateRemoveUnavailabilityPipe</title>
<ellipse fill="#fdb462" stroke="black" cx="4496" cy="-248" rx="148.19" ry="18"/>
<text text-anchor="middle" x="4496" y="-243.8" font-family="Times,serif" font-size="14.00">ValidateRemoveUnavailabilityPipe</text>
</g>
<!-- ValidateRemoveUnavailabilityPipe&#45;&gt;RentalModule -->
<g id="edge54" class="edge">
<title>ValidateRemoveUnavailabilityPipe&#45;&gt;RentalModule</title>
<path fill="none" stroke="black" d="M4496,-266.17C4496,-285.09 4496,-312 4496,-312 4496,-312 814.31,-312 814.31,-312"/>
<polygon fill="black" stroke="black" points="814.31,-308.5 804.31,-312 814.31,-315.5 814.31,-308.5"/>
</g>
<!-- ValidateUnavailabilityPipe -->
<g id="node47" class="node">
<title>ValidateUnavailabilityPipe</title>
<ellipse fill="#fdb462" stroke="black" cx="4213" cy="-248" rx="116.32" ry="18"/>
<text text-anchor="middle" x="4213" y="-243.8" font-family="Times,serif" font-size="14.00">ValidateUnavailabilityPipe</text>
</g>
<!-- ValidateUnavailabilityPipe&#45;&gt;RentalModule -->
<g id="edge55" class="edge">
<title>ValidateUnavailabilityPipe&#45;&gt;RentalModule</title>
<path fill="none" stroke="black" d="M4213,-266.27C4213,-284.56 4213,-310 4213,-310 4213,-310 814.21,-310 814.21,-310"/>
<polygon fill="black" stroke="black" points="814.21,-306.5 804.21,-310 814.21,-313.5 814.21,-306.5"/>
</g>
<!-- UserService -->
<g id="node49" class="node">
<title>UserService</title>
<ellipse fill="#fdb462" stroke="black" cx="96" cy="-324" rx="58.44" ry="18"/>
<text text-anchor="middle" x="96" y="-319.8" font-family="Times,serif" font-size="14.00">UserService</text>
</g>
<!-- UserService&#45;&gt;UserModule -->
<g id="edge62" class="edge">
<title>UserService&#45;&gt;UserModule</title>
<path fill="none" stroke="black" d="M120.43,-307.51C120.43,-285.16 120.43,-248 120.43,-248 120.43,-248 433.87,-248 433.87,-248"/>
<polygon fill="black" stroke="black" points="433.87,-251.5 443.87,-248 433.87,-244.5 433.87,-251.5"/>
</g>
</g>
</svg>
