<?xml version="1.0" encoding="UTF-8" standalone="no"?>
<!DOCTYPE svg PUBLIC "-//W3C//DTD SVG 1.1//EN"
 "http://www.w3.org/Graphics/SVG/1.1/DTD/svg11.dtd">
<!-- Generated by graphviz version 2.44.1 (20200629.0846)
 -->
<!-- Title: dependencies Pages: 1 -->
<svg width="4707pt" height="431pt"
 viewBox="0.00 0.00 4707.00 431.00" xmlns="http://www.w3.org/2000/svg" xmlns:xlink="http://www.w3.org/1999/xlink">
<g id="graph0" class="graph" transform="scale(1 1) rotate(0) translate(4 427)">
<title>dependencies</title>
<polygon fill="white" stroke="transparent" points="-4,4 -4,-427 4703,-427 4703,4 -4,4"/>
<text text-anchor="start" x="2328.51" y="-42.4" font-family="sans-serif" font-weight="bold" font-size="14.00">Legend</text>
<polygon fill="#ffffb3" stroke="transparent" points="2115.5,-10 2115.5,-30 2135.5,-30 2135.5,-10 2115.5,-10"/>
<text text-anchor="start" x="2139.13" y="-15.4" font-family="sans-serif" font-size="14.00"> &#160;Declarations</text>
<polygon fill="#8dd3c7" stroke="transparent" points="2228.5,-10 2228.5,-30 2248.5,-30 2248.5,-10 2228.5,-10"/>
<text text-anchor="start" x="2252.23" y="-15.4" font-family="sans-serif" font-size="14.00"> &#160;Module</text>
<polygon fill="#80b1d3" stroke="transparent" points="2314.5,-10 2314.5,-30 2334.5,-30 2334.5,-10 2314.5,-10"/>
<text text-anchor="start" x="2338.28" y="-15.4" font-family="sans-serif" font-size="14.00"> &#160;Bootstrap</text>
<polygon fill="#fdb462" stroke="transparent" points="2411.5,-10 2411.5,-30 2431.5,-30 2431.5,-10 2411.5,-10"/>
<text text-anchor="start" x="2435.17" y="-15.4" font-family="sans-serif" font-size="14.00"> &#160;Providers</text>
<polygon fill="#fb8072" stroke="transparent" points="2507.5,-10 2507.5,-30 2527.5,-30 2527.5,-10 2507.5,-10"/>
<text text-anchor="start" x="2531.23" y="-15.4" font-family="sans-serif" font-size="14.00"> &#160;Exports</text>
<g id="clust1" class="cluster">
<title>cluster_AppConfigModule</title>
<polygon fill="none" stroke="black" stroke-dasharray="1,5" points="4417,-70 4417,-282 4691,-282 4691,-70 4417,-70"/>
</g>
<g id="clust4" class="cluster">
<title>cluster_AppConfigModule_exports</title>
<polygon fill="none" stroke="black" points="4425,-222 4425,-274 4683,-274 4683,-222 4425,-222"/>
</g>
<g id="clust6" class="cluster">
<title>cluster_AppConfigModule_providers</title>
<polygon fill="none" stroke="black" points="4425,-78 4425,-130 4607,-130 4607,-78 4425,-78"/>
</g>
<g id="clust7" class="cluster">
<title>cluster_AppModule</title>
<polygon fill="none" stroke="black" stroke-dasharray="1,5" points="3899,-214 3899,-415 4409,-415 4409,-214 3899,-214"/>
</g>
<g id="clust9" class="cluster">
<title>cluster_AppModule_imports</title>
<polygon fill="none" stroke="black" points="4045,-222 4045,-407 4401,-407 4401,-222 4045,-222"/>
</g>
<g id="clust12" class="cluster">
<title>cluster_AppModule_providers</title>
<polygon fill="none" stroke="black" points="3907,-290 3907,-342 4037,-342 4037,-290 3907,-290"/>
</g>
<g id="clust13" class="cluster">
<title>cluster_AuthModule</title>
<polygon fill="none" stroke="black" stroke-dasharray="1,5" points="8,-214 8,-282 1874,-282 1874,-214 8,-214"/>
</g>
<g id="clust16" class="cluster">
<title>cluster_AuthModule_exports</title>
<polygon fill="none" stroke="black" points="1179,-222 1179,-274 1866,-274 1866,-222 1179,-222"/>
</g>
<g id="clust18" class="cluster">
<title>cluster_AuthModule_providers</title>
<polygon fill="none" stroke="black" points="16,-222 16,-274 1171,-274 1171,-222 16,-222"/>
</g>
<g id="clust25" class="cluster">
<title>cluster_ImagesModule</title>
<polygon fill="none" stroke="black" stroke-dasharray="1,5" points="1882,-214 1882,-282 3245,-282 3245,-214 1882,-214"/>
</g>
<g id="clust27" class="cluster">
<title>cluster_ImagesModule_imports</title>
<polygon fill="none" stroke="black" points="3111,-222 3111,-274 3237,-274 3237,-222 3111,-222"/>
</g>
<g id="clust28" class="cluster">
<title>cluster_ImagesModule_exports</title>
<polygon fill="none" stroke="black" points="2985,-222 2985,-274 3103,-274 3103,-222 2985,-222"/>
</g>
<g id="clust30" class="cluster">
<title>cluster_ImagesModule_providers</title>
<polygon fill="none" stroke="black" points="1890,-222 1890,-274 2977,-274 2977,-222 1890,-222"/>
</g>
<g id="clust31" class="cluster">
<title>cluster_RentalModule</title>
<polygon fill="none" stroke="black" stroke-dasharray="1,5" points="3253,-214 3253,-282 3891,-282 3891,-214 3253,-214"/>
</g>
<g id="clust34" class="cluster">
<title>cluster_RentalModule_exports</title>
<polygon fill="none" stroke="black" points="3769,-222 3769,-274 3883,-274 3883,-222 3769,-222"/>
</g>
<g id="clust36" class="cluster">
<title>cluster_RentalModule_providers</title>
<polygon fill="none" stroke="black" points="3261,-222 3261,-274 3761,-274 3761,-222 3261,-222"/>
</g>
<g id="clust37" class="cluster">
<title>cluster_UserModule</title>
<polygon fill="none" stroke="black" stroke-dasharray="1,5" points="3959,-138 3959,-206 4219,-206 4219,-138 3959,-138"/>
</g>
<g id="clust40" class="cluster">
<title>cluster_UserModule_exports</title>
<polygon fill="none" stroke="black" points="4107,-146 4107,-198 4211,-198 4211,-146 4107,-146"/>
</g>
<g id="clust42" class="cluster">
<title>cluster_UserModule_providers</title>
<polygon fill="none" stroke="black" points="3967,-146 3967,-198 4099,-198 4099,-146 3967,-146"/>
</g>
<!-- AppConfigService  -->
<g id="node1" class="node">
<title>AppConfigService </title>
<polygon fill="#fb8072" stroke="black" points="4675.47,-266 4550.53,-266 4550.53,-230 4675.47,-230 4675.47,-266"/>
<text text-anchor="middle" x="4613" y="-243.8" font-family="Times,serif" font-size="14.00">AppConfigService </text>
</g>
<!-- ConfigService  -->
<g id="node2" class="node">
<title>ConfigService </title>
<polygon fill="#fb8072" stroke="black" points="4533.37,-266 4432.63,-266 4432.63,-230 4533.37,-230 4533.37,-266"/>
<text text-anchor="middle" x="4483" y="-243.8" font-family="Times,serif" font-size="14.00">ConfigService </text>
</g>
<!-- AppConfigModule -->
<g id="node3" class="node">
<title>AppConfigModule</title>
<polygon fill="#8dd3c7" stroke="black" points="4547.05,-190 4544.05,-194 4523.05,-194 4520.05,-190 4424.95,-190 4424.95,-154 4547.05,-154 4547.05,-190"/>
<text text-anchor="middle" x="4486" y="-167.8" font-family="Times,serif" font-size="14.00">AppConfigModule</text>
</g>
<!-- AppConfigModule&#45;&gt;AppConfigService  -->
<g id="edge1" class="edge">
<title>AppConfigModule&#45;&gt;AppConfigService </title>
<path fill="none" stroke="black" stroke-dasharray="5,2" d="M4540.23,-190.01C4540.23,-212.49 4540.23,-248 4540.23,-248 4540.23,-248 4541.27,-248 4541.27,-248"/>
<polygon fill="black" stroke="black" points="4540.65,-251.5 4550.65,-248 4540.65,-244.5 4540.65,-251.5"/>
</g>
<!-- AppConfigModule&#45;&gt;ConfigService  -->
<g id="edge2" class="edge">
<title>AppConfigModule&#45;&gt;ConfigService </title>
<path fill="none" stroke="black" stroke-dasharray="5,2" d="M4483,-190.01C4483,-190.01 4483,-219.85 4483,-219.85"/>
<polygon fill="black" stroke="black" points="4479.5,-219.85 4483,-229.85 4486.5,-219.85 4479.5,-219.85"/>
</g>
<!-- AppModule -->
<g id="node5" class="node">
<title>AppModule</title>
<polygon fill="#8dd3c7" stroke="black" points="4308.66,-399 4305.66,-403 4284.66,-403 4281.66,-399 4225.34,-399 4225.34,-363 4308.66,-363 4308.66,-399"/>
<text text-anchor="middle" x="4267" y="-376.8" font-family="Times,serif" font-size="14.00">AppModule</text>
</g>
<!-- AppConfigModule&#45;&gt;AppModule -->
<g id="edge4" class="edge">
<title>AppConfigModule&#45;&gt;AppModule</title>
<path fill="none" stroke="black" d="M4430.79,-190.18C4430.79,-241.03 4430.79,-381 4430.79,-381 4430.79,-381 4318.76,-381 4318.76,-381"/>
<polygon fill="black" stroke="black" points="4318.76,-377.5 4308.76,-381 4318.76,-384.5 4318.76,-377.5"/>
</g>
<!-- AuthModule -->
<g id="node6" class="node">
<title>AuthModule</title>
<polygon fill="#8dd3c7" stroke="black" points="4140.55,-334 4137.55,-338 4116.55,-338 4113.55,-334 4053.45,-334 4053.45,-298 4140.55,-298 4140.55,-334"/>
<text text-anchor="middle" x="4097" y="-311.8" font-family="Times,serif" font-size="14.00">AuthModule</text>
</g>
<!-- AppConfigModule&#45;&gt;AuthModule -->
<g id="edge11" class="edge">
<title>AppConfigModule&#45;&gt;AuthModule</title>
<path fill="none" stroke="black" d="M4428.77,-190.03C4428.77,-224.42 4428.77,-296 4428.77,-296 4428.77,-296 4117.55,-296 4117.55,-296 4117.55,-296 4117.55,-296.18 4117.55,-296.18"/>
<polygon fill="black" stroke="black" points="4114.05,-287.85 4117.55,-297.85 4121.05,-287.85 4114.05,-287.85"/>
</g>
<!-- ImagesModule -->
<g id="node7" class="node">
<title>ImagesModule</title>
<polygon fill="#8dd3c7" stroke="black" points="4258.97,-334 4255.97,-338 4234.97,-338 4231.97,-334 4159.03,-334 4159.03,-298 4258.97,-298 4258.97,-334"/>
<text text-anchor="middle" x="4209" y="-311.8" font-family="Times,serif" font-size="14.00">ImagesModule</text>
</g>
<!-- AppConfigModule&#45;&gt;ImagesModule -->
<g id="edge26" class="edge">
<title>AppConfigModule&#45;&gt;ImagesModule</title>
<path fill="none" stroke="black" d="M4424.95,-172C4352.19,-172 4240.31,-172 4240.31,-172 4240.31,-172 4240.31,-287.76 4240.31,-287.76"/>
<polygon fill="black" stroke="black" points="4236.81,-287.76 4240.31,-297.76 4243.81,-287.76 4236.81,-287.76"/>
</g>
<!-- UserModule -->
<g id="node9" class="node">
<title>UserModule</title>
<polygon fill="#8dd3c7" stroke="black" points="4138.98,-266 4135.98,-270 4114.98,-270 4111.98,-266 4053.02,-266 4053.02,-230 4138.98,-230 4138.98,-266"/>
<text text-anchor="middle" x="4096" y="-243.8" font-family="Times,serif" font-size="14.00">UserModule</text>
</g>
<!-- AppConfigModule&#45;&gt;UserModule -->
<g id="edge41" class="edge">
<title>AppConfigModule&#45;&gt;UserModule</title>
<path fill="none" stroke="black" d="M4426.75,-190.03C4426.75,-210.77 4426.75,-242 4426.75,-242 4426.75,-242 4149.24,-242 4149.24,-242"/>
<polygon fill="black" stroke="black" points="4149.24,-238.5 4139.24,-242 4149.24,-245.5 4149.24,-238.5"/>
</g>
<!-- AppConfigService -->
<g id="node4" class="node">
<title>AppConfigService</title>
<ellipse fill="#fdb462" stroke="black" cx="4516" cy="-104" rx="83.39" ry="18"/>
<text text-anchor="middle" x="4516" y="-99.8" font-family="Times,serif" font-size="14.00">AppConfigService</text>
</g>
<!-- AppConfigService&#45;&gt;AppConfigModule -->
<g id="edge3" class="edge">
<title>AppConfigService&#45;&gt;AppConfigModule</title>
<path fill="none" stroke="black" d="M4489.91,-121.16C4489.91,-121.16 4489.91,-143.65 4489.91,-143.65"/>
<polygon fill="black" stroke="black" points="4486.41,-143.65 4489.91,-153.65 4493.41,-143.65 4486.41,-143.65"/>
</g>
<!-- AppConfigService&#45;&gt;AuthModule -->
<g id="edge18" class="edge">
<title>AppConfigService&#45;&gt;AuthModule</title>
<path fill="none" stroke="black" d="M4437.23,-110C4416.05,-110 4398.89,-110 4398.89,-110 4398.89,-110 4398.89,-294 4398.89,-294 4398.89,-294 4096.11,-294 4096.11,-294 4096.11,-294 4096.11,-294.38 4096.11,-294.38"/>
<polygon fill="black" stroke="black" points="4092.61,-287.83 4096.11,-297.83 4099.61,-287.83 4092.61,-287.83"/>
</g>
<!-- AppConfigService&#45;&gt;ImagesModule -->
<g id="edge29" class="edge">
<title>AppConfigService&#45;&gt;ImagesModule</title>
<path fill="none" stroke="black" d="M4437.11,-98C4349.92,-98 4221.63,-98 4221.63,-98 4221.63,-98 4221.63,-287.79 4221.63,-287.79"/>
<polygon fill="black" stroke="black" points="4218.13,-287.79 4221.63,-297.79 4225.13,-287.79 4218.13,-287.79"/>
</g>
<!-- AppModule&#45;&gt;AppModule -->
<g id="edge5" class="edge">
<title>AppModule&#45;&gt;AppModule</title>
<path fill="none" stroke="black" d="M4298.2,-362.85C4298.2,-361.7 4298.2,-361 4298.2,-361 4298.2,-361 4340.94,-361 4340.94,-361 4340.94,-361 4340.94,-417 4340.94,-417 4340.94,-417 4267,-417 4267,-417 4267,-417 4267,-409.42 4267,-409.42"/>
<polygon fill="black" stroke="black" points="4270.5,-409.42 4267,-399.42 4263.5,-409.42 4270.5,-409.42"/>
</g>
<!-- AuthModule&#45;&gt;AppModule -->
<g id="edge6" class="edge">
<title>AuthModule&#45;&gt;AppModule</title>
<path fill="none" stroke="black" d="M4134.52,-334.02C4134.52,-351.37 4134.52,-375 4134.52,-375 4134.52,-375 4215.08,-375 4215.08,-375"/>
<polygon fill="black" stroke="black" points="4215.08,-378.5 4225.08,-375 4215.08,-371.5 4215.08,-378.5"/>
</g>
<!-- AuthService  -->
<g id="node11" class="node">
<title>AuthService </title>
<polygon fill="#fb8072" stroke="black" points="1276.98,-266 1187.02,-266 1187.02,-230 1276.98,-230 1276.98,-266"/>
<text text-anchor="middle" x="1232" y="-243.8" font-family="Times,serif" font-size="14.00">AuthService </text>
</g>
<!-- AuthModule&#45;&gt;AuthService  -->
<g id="edge13" class="edge">
<title>AuthModule&#45;&gt;AuthService </title>
<path fill="none" stroke="black" stroke-dasharray="5,2" d="M4128.27,-334.2C4128.27,-340.03 4128.27,-345 4128.27,-345 4128.27,-345 1232,-345 1232,-345 1232,-345 1232,-276.24 1232,-276.24"/>
<polygon fill="black" stroke="black" points="1235.5,-276.24 1232,-266.24 1228.5,-276.24 1235.5,-276.24"/>
</g>
<!-- EmailService  -->
<g id="node12" class="node">
<title>EmailService </title>
<polygon fill="#fb8072" stroke="black" points="1858.42,-266 1763.58,-266 1763.58,-230 1858.42,-230 1858.42,-266"/>
<text text-anchor="middle" x="1811" y="-243.8" font-family="Times,serif" font-size="14.00">EmailService </text>
</g>
<!-- AuthModule&#45;&gt;EmailService  -->
<g id="edge14" class="edge">
<title>AuthModule&#45;&gt;EmailService </title>
<path fill="none" stroke="black" stroke-dasharray="5,2" d="M4103.25,-334.08C4103.25,-335.85 4103.25,-337 4103.25,-337 4103.25,-337 1811,-337 1811,-337 1811,-337 1811,-276.01 1811,-276.01"/>
<polygon fill="black" stroke="black" points="1814.5,-276.01 1811,-266.01 1807.5,-276.01 1814.5,-276.01"/>
</g>
<!-- ExtractKeyValueUtil  -->
<g id="node13" class="node">
<title>ExtractKeyValueUtil </title>
<polygon fill="#fb8072" stroke="black" points="1745.45,-266 1606.55,-266 1606.55,-230 1745.45,-230 1745.45,-266"/>
<text text-anchor="middle" x="1676" y="-243.8" font-family="Times,serif" font-size="14.00">ExtractKeyValueUtil </text>
</g>
<!-- AuthModule&#45;&gt;ExtractKeyValueUtil  -->
<g id="edge15" class="edge">
<title>AuthModule&#45;&gt;ExtractKeyValueUtil </title>
<path fill="none" stroke="black" stroke-dasharray="5,2" d="M4109.51,-334.12C4109.51,-336.97 4109.51,-339 4109.51,-339 4109.51,-339 1676,-339 1676,-339 1676,-339 1676,-276.42 1676,-276.42"/>
<polygon fill="black" stroke="black" points="1679.5,-276.42 1676,-266.42 1672.5,-276.42 1679.5,-276.42"/>
</g>
<!-- LoggedOutGaurd  -->
<g id="node14" class="node">
<title>LoggedOutGaurd </title>
<polygon fill="#fb8072" stroke="black" points="1589.25,-266 1470.75,-266 1470.75,-230 1589.25,-230 1589.25,-266"/>
<text text-anchor="middle" x="1530" y="-243.8" font-family="Times,serif" font-size="14.00">LoggedOutGaurd </text>
</g>
<!-- AuthModule&#45;&gt;LoggedOutGaurd  -->
<g id="edge16" class="edge">
<title>AuthModule&#45;&gt;LoggedOutGaurd </title>
<path fill="none" stroke="black" stroke-dasharray="5,2" d="M4115.76,-334.17C4115.76,-338.05 4115.76,-341 4115.76,-341 4115.76,-341 1530,-341 1530,-341 1530,-341 1530,-276.37 1530,-276.37"/>
<polygon fill="black" stroke="black" points="1533.5,-276.37 1530,-266.37 1526.5,-276.37 1533.5,-276.37"/>
</g>
<!-- VerifyNewPasswordUtil  -->
<g id="node15" class="node">
<title>VerifyNewPasswordUtil </title>
<polygon fill="#fb8072" stroke="black" points="1452.89,-266 1295.11,-266 1295.11,-230 1452.89,-230 1452.89,-266"/>
<text text-anchor="middle" x="1374" y="-243.8" font-family="Times,serif" font-size="14.00">VerifyNewPasswordUtil </text>
</g>
<!-- AuthModule&#45;&gt;VerifyNewPasswordUtil  -->
<g id="edge17" class="edge">
<title>AuthModule&#45;&gt;VerifyNewPasswordUtil </title>
<path fill="none" stroke="black" stroke-dasharray="5,2" d="M4122.01,-334.16C4122.01,-339.04 4122.01,-343 4122.01,-343 4122.01,-343 1374,-343 1374,-343 1374,-343 1374,-276.32 1374,-276.32"/>
<polygon fill="black" stroke="black" points="1377.5,-276.32 1374,-266.32 1370.5,-276.32 1377.5,-276.32"/>
</g>
<!-- ImagesModule&#45;&gt;AppModule -->
<g id="edge7" class="edge">
<title>ImagesModule&#45;&gt;AppModule</title>
<path fill="none" stroke="black" d="M4242.08,-334.11C4242.08,-334.11 4242.08,-352.99 4242.08,-352.99"/>
<polygon fill="black" stroke="black" points="4238.58,-352.99 4242.08,-362.99 4245.58,-352.99 4238.58,-352.99"/>
</g>
<!-- ImagesService  -->
<g id="node24" class="node">
<title>ImagesService </title>
<polygon fill="#fb8072" stroke="black" points="3094.9,-266 2993.1,-266 2993.1,-230 3094.9,-230 3094.9,-266"/>
<text text-anchor="middle" x="3044" y="-243.8" font-family="Times,serif" font-size="14.00">ImagesService </text>
</g>
<!-- ImagesModule&#45;&gt;ImagesService  -->
<g id="edge28" class="edge">
<title>ImagesModule&#45;&gt;ImagesService </title>
<path fill="none" stroke="black" stroke-dasharray="5,2" d="M4193.19,-297.58C4193.19,-288.72 4193.19,-280 4193.19,-280 4193.19,-280 3044,-280 3044,-280 3044,-280 3044,-276.24 3044,-276.24"/>
<polygon fill="black" stroke="black" points="3047.5,-276.24 3044,-266.24 3040.5,-276.24 3047.5,-276.24"/>
</g>
<!-- RentalModule -->
<g id="node8" class="node">
<title>RentalModule</title>
<polygon fill="#8dd3c7" stroke="black" points="4373.1,-334 4370.1,-338 4349.1,-338 4346.1,-334 4276.9,-334 4276.9,-298 4373.1,-298 4373.1,-334"/>
<text text-anchor="middle" x="4325" y="-311.8" font-family="Times,serif" font-size="14.00">RentalModule</text>
</g>
<!-- RentalModule&#45;&gt;AppModule -->
<g id="edge8" class="edge">
<title>RentalModule&#45;&gt;AppModule</title>
<path fill="none" stroke="black" d="M4287.58,-334.11C4287.58,-334.11 4287.58,-352.99 4287.58,-352.99"/>
<polygon fill="black" stroke="black" points="4284.08,-352.99 4287.58,-362.99 4291.08,-352.99 4284.08,-352.99"/>
</g>
<!-- RentalService  -->
<g id="node31" class="node">
<title>RentalService </title>
<polygon fill="#fb8072" stroke="black" points="3875.02,-266 3776.98,-266 3776.98,-230 3875.02,-230 3875.02,-266"/>
<text text-anchor="middle" x="3826" y="-243.8" font-family="Times,serif" font-size="14.00">RentalService </text>
</g>
<!-- RentalModule&#45;&gt;RentalService  -->
<g id="edge37" class="edge">
<title>RentalModule&#45;&gt;RentalService </title>
<path fill="none" stroke="black" stroke-dasharray="5,2" d="M4357.03,-297.85C4357.03,-284.26 4357.03,-268 4357.03,-268 4357.03,-268 3826,-268 3826,-268 3826,-268 3826,-267.82 3826,-267.82"/>
<polygon fill="black" stroke="black" points="3829.5,-276.15 3826,-266.15 3822.5,-276.15 3829.5,-276.15"/>
</g>
<!-- UserModule&#45;&gt;AppModule -->
<g id="edge9" class="edge">
<title>UserModule&#45;&gt;AppModule</title>
<path fill="none" stroke="black" d="M4139.4,-254C4190.34,-254 4267.97,-254 4267.97,-254 4267.97,-254 4267.97,-352.8 4267.97,-352.8"/>
<polygon fill="black" stroke="black" points="4264.47,-352.8 4267.97,-362.8 4271.47,-352.8 4264.47,-352.8"/>
</g>
<!-- UserModule&#45;&gt;AuthModule -->
<g id="edge12" class="edge">
<title>UserModule&#45;&gt;AuthModule</title>
<path fill="none" stroke="black" d="M4074.67,-266.22C4074.67,-266.22 4074.67,-287.73 4074.67,-287.73"/>
<polygon fill="black" stroke="black" points="4071.17,-287.73 4074.67,-297.73 4078.17,-287.73 4071.17,-287.73"/>
</g>
<!-- UserService  -->
<g id="node35" class="node">
<title>UserService </title>
<polygon fill="#fb8072" stroke="black" points="4202.9,-190 4115.1,-190 4115.1,-154 4202.9,-154 4202.9,-190"/>
<text text-anchor="middle" x="4159" y="-167.8" font-family="Times,serif" font-size="14.00">UserService </text>
</g>
<!-- UserModule&#45;&gt;UserService  -->
<g id="edge43" class="edge">
<title>UserModule&#45;&gt;UserService </title>
<path fill="none" stroke="black" stroke-dasharray="5,2" d="M4127.02,-229.99C4127.02,-229.99 4127.02,-200.15 4127.02,-200.15"/>
<polygon fill="black" stroke="black" points="4130.52,-200.15 4127.02,-190.15 4123.52,-200.15 4130.52,-200.15"/>
</g>
<!-- AppService -->
<g id="node10" class="node">
<title>AppService</title>
<ellipse fill="#fdb462" stroke="black" cx="3972" cy="-316" rx="56.74" ry="18"/>
<text text-anchor="middle" x="3972" y="-311.8" font-family="Times,serif" font-size="14.00">AppService</text>
</g>
<!-- AppService&#45;&gt;AppModule -->
<g id="edge10" class="edge">
<title>AppService&#45;&gt;AppModule</title>
<path fill="none" stroke="black" d="M3972,-334.28C3972,-355.32 3972,-387 3972,-387 3972,-387 4215.05,-387 4215.05,-387"/>
<polygon fill="black" stroke="black" points="4215.05,-390.5 4225.05,-387 4215.05,-383.5 4215.05,-390.5"/>
</g>
<!-- AuthService -->
<g id="node16" class="node">
<title>AuthService</title>
<ellipse fill="#fdb462" stroke="black" cx="873" cy="-248" rx="59.11" ry="18"/>
<text text-anchor="middle" x="873" y="-243.8" font-family="Times,serif" font-size="14.00">AuthService</text>
</g>
<!-- AuthService&#45;&gt;AuthModule -->
<g id="edge19" class="edge">
<title>AuthService&#45;&gt;AuthModule</title>
<path fill="none" stroke="black" d="M873,-266.06C873,-295.11 873,-349 873,-349 873,-349 4065.73,-349 4065.73,-349 4065.73,-349 4065.73,-344.04 4065.73,-344.04"/>
<polygon fill="black" stroke="black" points="4069.23,-344.04 4065.73,-334.04 4062.23,-344.04 4069.23,-344.04"/>
</g>
<!-- EmailService -->
<g id="node17" class="node">
<title>EmailService</title>
<ellipse fill="#fdb462" stroke="black" cx="733" cy="-248" rx="63.12" ry="18"/>
<text text-anchor="middle" x="733" y="-243.8" font-family="Times,serif" font-size="14.00">EmailService</text>
</g>
<!-- EmailService&#45;&gt;AuthModule -->
<g id="edge20" class="edge">
<title>EmailService&#45;&gt;AuthModule</title>
<path fill="none" stroke="black" d="M733,-266.41C733,-296.04 733,-351 733,-351 733,-351 4071.99,-351 4071.99,-351 4071.99,-351 4071.99,-344.32 4071.99,-344.32"/>
<polygon fill="black" stroke="black" points="4075.49,-344.32 4071.99,-334.32 4068.49,-344.32 4075.49,-344.32"/>
</g>
<!-- ExtractKeyValueUtil -->
<g id="node18" class="node">
<title>ExtractKeyValueUtil</title>
<ellipse fill="#fdb462" stroke="black" cx="559" cy="-248" rx="93.17" ry="18"/>
<text text-anchor="middle" x="559" y="-243.8" font-family="Times,serif" font-size="14.00">ExtractKeyValueUtil</text>
</g>
<!-- ExtractKeyValueUtil&#45;&gt;AuthModule -->
<g id="edge21" class="edge">
<title>ExtractKeyValueUtil&#45;&gt;AuthModule</title>
<path fill="none" stroke="black" d="M559,-266.29C559,-296.37 559,-353 559,-353 559,-353 4078.24,-353 4078.24,-353 4078.24,-353 4078.24,-344.07 4078.24,-344.07"/>
<polygon fill="black" stroke="black" points="4081.74,-344.07 4078.24,-334.07 4074.74,-344.07 4081.74,-344.07"/>
</g>
<!-- ExtractKeyValueUtil&#45;&gt;UserModule -->
<g id="edge44" class="edge">
<title>ExtractKeyValueUtil&#45;&gt;UserModule</title>
<path fill="none" stroke="black" d="M559,-229.94C559,-218.56 559,-206 559,-206 559,-206 4072.12,-206 4072.12,-206 4072.12,-206 4072.12,-219.94 4072.12,-219.94"/>
<polygon fill="black" stroke="black" points="4068.62,-219.94 4072.12,-229.94 4075.62,-219.94 4068.62,-219.94"/>
</g>
<!-- ExtractUserUtil -->
<g id="node19" class="node">
<title>ExtractUserUtil</title>
<ellipse fill="#fdb462" stroke="black" cx="376" cy="-248" rx="72.34" ry="18"/>
<text text-anchor="middle" x="376" y="-243.8" font-family="Times,serif" font-size="14.00">ExtractUserUtil</text>
</g>
<!-- ExtractUserUtil&#45;&gt;AuthModule -->
<g id="edge22" class="edge">
<title>ExtractUserUtil&#45;&gt;AuthModule</title>
<path fill="none" stroke="black" d="M376,-266.15C376,-296.68 376,-355 376,-355 376,-355 4084.49,-355 4084.49,-355 4084.49,-355 4084.49,-344.13 4084.49,-344.13"/>
<polygon fill="black" stroke="black" points="4087.99,-344.13 4084.49,-334.13 4080.99,-344.13 4087.99,-344.13"/>
</g>
<!-- ExtractUserUtil&#45;&gt;UserModule -->
<g id="edge45" class="edge">
<title>ExtractUserUtil&#45;&gt;UserModule</title>
<path fill="none" stroke="black" d="M376,-229.95C376,-215.63 376,-198 376,-198 376,-198 4078.48,-198 4078.48,-198 4078.48,-198 4078.48,-219.95 4078.48,-219.95"/>
<polygon fill="black" stroke="black" points="4074.98,-219.95 4078.48,-229.95 4081.98,-219.95 4074.98,-219.95"/>
</g>
<!-- JwtStrategy -->
<g id="node20" class="node">
<title>JwtStrategy</title>
<ellipse fill="#fdb462" stroke="black" cx="229" cy="-248" rx="56.76" ry="18"/>
<text text-anchor="middle" x="229" y="-243.8" font-family="Times,serif" font-size="14.00">JwtStrategy</text>
</g>
<!-- JwtStrategy&#45;&gt;AuthModule -->
<g id="edge23" class="edge">
<title>JwtStrategy&#45;&gt;AuthModule</title>
<path fill="none" stroke="black" d="M229,-266.49C229,-297.59 229,-357 229,-357 229,-357 4090.75,-357 4090.75,-357 4090.75,-357 4090.75,-344.1 4090.75,-344.1"/>
<polygon fill="black" stroke="black" points="4094.25,-344.1 4090.75,-334.1 4087.25,-344.1 4094.25,-344.1"/>
</g>
<!-- LocalStrategy -->
<g id="node21" class="node">
<title>LocalStrategy</title>
<ellipse fill="#fdb462" stroke="black" cx="89" cy="-248" rx="65.41" ry="18"/>
<text text-anchor="middle" x="89" y="-243.8" font-family="Times,serif" font-size="14.00">LocalStrategy</text>
</g>
<!-- LocalStrategy&#45;&gt;AuthModule -->
<g id="edge24" class="edge">
<title>LocalStrategy&#45;&gt;AuthModule</title>
<path fill="none" stroke="black" d="M89,-266.33C89,-297.86 89,-359 89,-359 89,-359 4097,-359 4097,-359 4097,-359 4097,-344.49 4097,-344.49"/>
<polygon fill="black" stroke="black" points="4100.5,-344.49 4097,-334.49 4093.5,-344.49 4100.5,-344.49"/>
</g>
<!-- VerifyNewPasswordUtil -->
<g id="node22" class="node">
<title>VerifyNewPasswordUtil</title>
<ellipse fill="#fdb462" stroke="black" cx="1057" cy="-248" rx="106.49" ry="18"/>
<text text-anchor="middle" x="1057" y="-243.8" font-family="Times,serif" font-size="14.00">VerifyNewPasswordUtil</text>
</g>
<!-- VerifyNewPasswordUtil&#45;&gt;AuthModule -->
<g id="edge25" class="edge">
<title>VerifyNewPasswordUtil&#45;&gt;AuthModule</title>
<path fill="none" stroke="black" d="M1057,-266.16C1057,-294.74 1057,-347 1057,-347 1057,-347 4059.48,-347 4059.48,-347 4059.48,-347 4059.48,-344.03 4059.48,-344.03"/>
<polygon fill="black" stroke="black" points="4062.98,-344.03 4059.48,-334.03 4055.98,-344.03 4062.98,-344.03"/>
</g>
<!-- VerifyNewPasswordUtil&#45;&gt;UserModule -->
<g id="edge47" class="edge">
<title>VerifyNewPasswordUtil&#45;&gt;UserModule</title>
<path fill="none" stroke="black" d="M1057,-229.81C1057,-221.72 1057,-214 1057,-214 1057,-214 4065.75,-214 4065.75,-214 4065.75,-214 4065.75,-219.81 4065.75,-219.81"/>
<polygon fill="black" stroke="black" points="4062.25,-219.81 4065.75,-229.81 4069.25,-219.81 4062.25,-219.81"/>
</g>
<!-- DatabaseModule -->
<g id="node23" class="node">
<title>DatabaseModule</title>
<polygon fill="#8dd3c7" stroke="black" points="3229.35,-266 3226.35,-270 3205.35,-270 3202.35,-266 3118.65,-266 3118.65,-230 3229.35,-230 3229.35,-266"/>
<text text-anchor="middle" x="3174" y="-243.8" font-family="Times,serif" font-size="14.00">DatabaseModule</text>
</g>
<!-- DatabaseModule&#45;&gt;ImagesModule -->
<g id="edge27" class="edge">
<title>DatabaseModule&#45;&gt;ImagesModule</title>
<path fill="none" stroke="black" d="M3155.53,-266.14C3155.53,-272.46 3155.53,-278 3155.53,-278 3155.53,-278 4198.07,-278 4198.07,-278 4198.07,-278 4198.07,-287.89 4198.07,-287.89"/>
<polygon fill="black" stroke="black" points="4194.57,-287.89 4198.07,-297.89 4201.57,-287.89 4194.57,-287.89"/>
</g>
<!-- DatabaseModule&#45;&gt;RentalModule -->
<g id="edge36" class="edge">
<title>DatabaseModule&#45;&gt;RentalModule</title>
<path fill="none" stroke="black" d="M3192.47,-266.21C3192.47,-271.55 3192.47,-276 3192.47,-276 3192.47,-276 4292.97,-276 4292.97,-276 4292.97,-276 4292.97,-287.87 4292.97,-287.87"/>
<polygon fill="black" stroke="black" points="4289.47,-287.87 4292.97,-297.87 4296.47,-287.87 4289.47,-287.87"/>
</g>
<!-- DatabaseModule&#45;&gt;UserModule -->
<g id="edge42" class="edge">
<title>DatabaseModule&#45;&gt;UserModule</title>
<path fill="none" stroke="black" d="M3174,-229.94C3174,-225.51 3174,-222 3174,-222 3174,-222 4059.38,-222 4059.38,-222 4059.38,-222 4059.38,-222.79 4059.38,-222.79"/>
<polygon fill="black" stroke="black" points="4055.88,-219.94 4059.38,-229.94 4062.88,-219.94 4055.88,-219.94"/>
</g>
<!-- CreateMulterUploadUtil -->
<g id="node25" class="node">
<title>CreateMulterUploadUtil</title>
<ellipse fill="#fdb462" stroke="black" cx="2200" cy="-248" rx="105.93" ry="18"/>
<text text-anchor="middle" x="2200" y="-243.8" font-family="Times,serif" font-size="14.00">CreateMulterUploadUtil</text>
</g>
<!-- CreateMulterUploadUtil&#45;&gt;ImagesModule -->
<g id="edge30" class="edge">
<title>CreateMulterUploadUtil&#45;&gt;ImagesModule</title>
<path fill="none" stroke="black" d="M2200,-266.06C2200,-277.44 2200,-290 2200,-290 2200,-290 4168.78,-290 4168.78,-290 4168.78,-290 4168.78,-290.79 4168.78,-290.79"/>
<polygon fill="black" stroke="black" points="4165.28,-287.94 4168.78,-297.94 4172.28,-287.94 4165.28,-287.94"/>
</g>
<!-- DeleteS3ImagesUtil -->
<g id="node26" class="node">
<title>DeleteS3ImagesUtil</title>
<ellipse fill="#fdb462" stroke="black" cx="1987" cy="-248" rx="89.18" ry="18"/>
<text text-anchor="middle" x="1987" y="-243.8" font-family="Times,serif" font-size="14.00">DeleteS3ImagesUtil</text>
</g>
<!-- DeleteS3ImagesUtil&#45;&gt;ImagesModule -->
<g id="edge31" class="edge">
<title>DeleteS3ImagesUtil&#45;&gt;ImagesModule</title>
<path fill="none" stroke="black" d="M1987,-266.15C1987,-278.27 1987,-292 1987,-292 1987,-292 4163.89,-292 4163.89,-292 4163.89,-292 4163.89,-292.58 4163.89,-292.58"/>
<polygon fill="black" stroke="black" points="4160.39,-287.81 4163.89,-297.81 4167.39,-287.81 4160.39,-287.81"/>
</g>
<!-- ImagesService -->
<g id="node27" class="node">
<title>ImagesService</title>
<ellipse fill="#fdb462" stroke="black" cx="2901" cy="-248" rx="67.75" ry="18"/>
<text text-anchor="middle" x="2901" y="-243.8" font-family="Times,serif" font-size="14.00">ImagesService</text>
</g>
<!-- ImagesService&#45;&gt;ImagesModule -->
<g id="edge32" class="edge">
<title>ImagesService&#45;&gt;ImagesModule</title>
<path fill="none" stroke="black" d="M2901,-266.19C2901,-274.28 2901,-282 2901,-282 2901,-282 4188.31,-282 4188.31,-282 4188.31,-282 4188.31,-287.81 4188.31,-287.81"/>
<polygon fill="black" stroke="black" points="4184.81,-287.81 4188.31,-297.81 4191.81,-287.81 4184.81,-287.81"/>
</g>
<!-- MulterUploadUtil -->
<g id="node28" class="node">
<title>MulterUploadUtil</title>
<ellipse fill="#fdb462" stroke="black" cx="2734" cy="-248" rx="80.54" ry="18"/>
<text text-anchor="middle" x="2734" y="-243.8" font-family="Times,serif" font-size="14.00">MulterUploadUtil</text>
</g>
<!-- MulterUploadUtil&#45;&gt;ImagesModule -->
<g id="edge33" class="edge">
<title>MulterUploadUtil&#45;&gt;ImagesModule</title>
<path fill="none" stroke="black" d="M2734,-266C2734,-275 2734,-284 2734,-284 2734,-284 4183.42,-284 4183.42,-284 4183.42,-284 4183.42,-287.76 4183.42,-287.76"/>
<polygon fill="black" stroke="black" points="4179.92,-287.76 4183.42,-297.76 4186.92,-287.76 4179.92,-287.76"/>
</g>
<!-- ProcessSaveDataUtil -->
<g id="node29" class="node">
<title>ProcessSaveDataUtil</title>
<ellipse fill="#fdb462" stroke="black" cx="2543" cy="-248" rx="92.61" ry="18"/>
<text text-anchor="middle" x="2543" y="-243.8" font-family="Times,serif" font-size="14.00">ProcessSaveDataUtil</text>
</g>
<!-- ProcessSaveDataUtil&#45;&gt;ImagesModule -->
<g id="edge34" class="edge">
<title>ProcessSaveDataUtil&#45;&gt;ImagesModule</title>
<path fill="none" stroke="black" d="M2543,-266.11C2543,-275.9 2543,-286 2543,-286 2543,-286 4178.54,-286 4178.54,-286 4178.54,-286 4178.54,-287.86 4178.54,-287.86"/>
<polygon fill="black" stroke="black" points="4175.04,-287.86 4178.54,-297.86 4182.04,-287.86 4175.04,-287.86"/>
</g>
<!-- S3Provider -->
<g id="node30" class="node">
<title>S3Provider</title>
<ellipse fill="#fdb462" stroke="black" cx="2378" cy="-248" rx="54.47" ry="18"/>
<text text-anchor="middle" x="2378" y="-243.8" font-family="Times,serif" font-size="14.00">S3Provider</text>
</g>
<!-- S3Provider&#45;&gt;ImagesModule -->
<g id="edge35" class="edge">
<title>S3Provider&#45;&gt;ImagesModule</title>
<path fill="none" stroke="black" d="M2378,-266.13C2378,-276.71 2378,-288 2378,-288 2378,-288 4173.66,-288 4173.66,-288 4173.66,-288 4173.66,-288.98 4173.66,-288.98"/>
<polygon fill="black" stroke="black" points="4170.16,-287.79 4173.66,-297.79 4177.16,-287.79 4170.16,-287.79"/>
</g>
<!-- GeoUrlApiUtil -->
<g id="node32" class="node">
<title>GeoUrlApiUtil</title>
<ellipse fill="#fdb462" stroke="black" cx="3535" cy="-248" rx="69.5" ry="18"/>
<text text-anchor="middle" x="3535" y="-243.8" font-family="Times,serif" font-size="14.00">GeoUrlApiUtil</text>
</g>
<!-- GeoUrlApiUtil&#45;&gt;RentalModule -->
<g id="edge38" class="edge">
<title>GeoUrlApiUtil&#45;&gt;RentalModule</title>
<path fill="none" stroke="black" d="M3535,-266.19C3535,-269.54 3535,-272 3535,-272 3535,-272 4325,-272 4325,-272 4325,-272 4325,-287.85 4325,-287.85"/>
<polygon fill="black" stroke="black" points="4321.5,-287.85 4325,-297.85 4328.5,-287.85 4321.5,-287.85"/>
</g>
<!-- MapNewRentalPipe -->
<g id="node33" class="node">
<title>MapNewRentalPipe</title>
<ellipse fill="#fdb462" stroke="black" cx="3358" cy="-248" rx="89.18" ry="18"/>
<text text-anchor="middle" x="3358" y="-243.8" font-family="Times,serif" font-size="14.00">MapNewRentalPipe</text>
</g>
<!-- MapNewRentalPipe&#45;&gt;RentalModule -->
<g id="edge39" class="edge">
<title>MapNewRentalPipe&#45;&gt;RentalModule</title>
<path fill="none" stroke="black" d="M3358,-266.06C3358,-270.49 3358,-274 3358,-274 3358,-274 4308.98,-274 4308.98,-274 4308.98,-274 4308.98,-287.94 4308.98,-287.94"/>
<polygon fill="black" stroke="black" points="4305.48,-287.94 4308.98,-297.94 4312.48,-287.94 4305.48,-287.94"/>
</g>
<!-- RentalService -->
<g id="node34" class="node">
<title>RentalService</title>
<ellipse fill="#fdb462" stroke="black" cx="3688" cy="-248" rx="65.4" ry="18"/>
<text text-anchor="middle" x="3688" y="-243.8" font-family="Times,serif" font-size="14.00">RentalService</text>
</g>
<!-- RentalService&#45;&gt;RentalModule -->
<g id="edge40" class="edge">
<title>RentalService&#45;&gt;RentalModule</title>
<path fill="none" stroke="black" d="M3688,-266.17C3688,-268.45 3688,-270 3688,-270 3688,-270 4341.02,-270 4341.02,-270 4341.02,-270 4341.02,-287.82 4341.02,-287.82"/>
<polygon fill="black" stroke="black" points="4337.52,-287.82 4341.02,-297.82 4344.52,-287.82 4337.52,-287.82"/>
</g>
<!-- UserService -->
<g id="node36" class="node">
<title>UserService</title>
<ellipse fill="#fdb462" stroke="black" cx="4033" cy="-172" rx="58.44" ry="18"/>
<text text-anchor="middle" x="4033" y="-167.8" font-family="Times,serif" font-size="14.00">UserService</text>
</g>
<!-- UserService&#45;&gt;UserModule -->
<g id="edge46" class="edge">
<title>UserService&#45;&gt;UserModule</title>
<path fill="none" stroke="black" d="M4084.85,-180.42C4084.85,-180.42 4084.85,-219.73 4084.85,-219.73"/>
<polygon fill="black" stroke="black" points="4081.35,-219.73 4084.85,-229.73 4088.35,-219.73 4081.35,-219.73"/>
</g>
</g>
</svg>
